/* XPM */
static char *a12b1c862bca4e9eb5458e886cdff71bBPoeREPS8nA0yUW7[] = {
/* columns rows colors chars-per-pixel */
"50 50 253 2 ",
"   c #000000",
".  c #0A0202",
"X  c #00000B",
"o  c #070A08",
"O  c #1B0002",
"+  c #07130C",
"@  c #1B100D",
"#  c #020019",
"$  c #091A16",
"%  c #131C18",
"&  c #260003",
"*  c #33080D",
"=  c #260217",
"-  c #002605",
";  c #0D2913",
":  c #14241D",
">  c #19231B",
",  c #283B0F",
"<  c #242217",
"1  c #010127",
"2  c #0A102E",
"3  c #34152C",
"4  c #042F2E",
"5  c #192A22",
"6  c #1D332A",
"7  c #2B2C2A",
"8  c #23352C",
"9  c #263B36",
"0  c #363937",
"q  c #420105",
"w  c #4F120F",
"e  c #6D0811",
"r  c #502912",
"t  c #6D3C1F",
"y  c #4E0C2E",
"u  c #5D0833",
"i  c #471A39",
"p  c #6B1428",
"a  c #502C2B",
"s  c #49253B",
"d  c #562538",
"f  c #6D2F2C",
"g  c #682834",
"h  c #683636",
"j  c #7A3735",
"k  c #275A11",
"l  c #00463B",
"z  c #284539",
"x  c #35563B",
"c  c #4D7302",
"v  c #55473A",
"b  c #6E4430",
"n  c #7B443B",
"m  c #4E7435",
"M  c #0B0055",
"N  c #0E2F45",
"B  c #2F3646",
"V  c #000079",
"C  c #25156D",
"Z  c #31326E",
"A  c #4E3846",
"S  c #591260",
"D  c #09564C",
"F  c #2D4C41",
"G  c #355748",
"H  c #35554D",
"J  c #395B4D",
"K  c #13664D",
"L  c #226C53",
"P  c #3E6354",
"I  c #3A6A5B",
"U  c #354E71",
"Y  c #397665",
"T  c #4B4848",
"R  c #504D4F",
"E  c #4B584C",
"W  c #535554",
"Q  c #6B5757",
"!  c #436656",
"~  c #446C5C",
"^  c #57655D",
"/  c #4A715A",
"(  c #756853",
")  c #645E61",
"_  c #546863",
"`  c #457564",
"'  c #4A7463",
"]  c #4D7966",
"[  c #4E7C69",
"{  c #577365",
"}  c #517E6C",
"|  c #696768",
" . c #6D7571",
".. c #813718",
"X. c #813C34",
"o. c #8C5212",
"O. c #854436",
"+. c #905131",
"@. c #A35B2F",
"#. c #B36836",
"$. c #8C5448",
"%. c #946B47",
"&. c #956656",
"*. c #B3704D",
"=. c #937866",
"-. c #CB794C",
";. c #37A100",
":. c #598402",
">. c #6D9D23",
",. c #7FCA3F",
"<. c #3C856B",
"1. c #61A353",
"2. c #52816E",
"3. c #588869",
"4. c #4F8C72",
"5. c #558572",
"6. c #588776",
"7. c #578975",
"8. c #598A76",
"9. c #5A8D79",
"0. c #5E927D",
"q. c #519A7E",
"w. c #678B7B",
"e. c #6B917E",
"r. c #8CAD00",
"t. c #86A736",
"y. c #D3811F",
"u. c #D28537",
"i. c #E9903B",
"p. c #E89638",
"a. c #FAA43B",
"s. c #90DB0D",
"d. c #A5E808",
"f. c #95D22C",
"g. c #A3E739",
"h. c #AAF130",
"j. c #EDEE14",
"k. c #96856B",
"l. c #AA8F72",
"z. c #C88058",
"x. c #D5875A",
"c. c #E38D5C",
"v. c #D09470",
"b. c #E69566",
"n. c #F19C64",
"m. c #DAA57E",
"M. c #E9A67A",
"N. c #F1AA7B",
"B. c #88C351",
"V. c #98DB57",
"C. c #9BE547",
"Z. c #9BE455",
"A. c #9DE25A",
"S. c #A8EA4E",
"D. c #A3E659",
"F. c #97DD6F",
"G. c #87E060",
"H. c #9CE466",
"J. c #A8E864",
"K. c #E0E27B",
"L. c #00198D",
"P. c #0003A1",
"I. c #2A35A5",
"U. c #543691",
"Y. c #5A3AA4",
"T. c #005681",
"R. c #334B9B",
"E. c #00658D",
"W. c #3C51AC",
"Q. c #4B4F93",
"!. c #616F9F",
"~. c #4848AA",
"^. c #4852A9",
"/. c #574CB2",
"(. c #594AB4",
"). c #4856B7",
"_. c #6747B6",
"`. c #684BB0",
"'. c #646CB1",
"]. c #2E79CF",
"[. c #0085B0",
"{. c #5B9781",
"}. c #619681",
"|. c #649B85",
" X c #679C87",
".X c #70908C",
"XX c #779A8B",
"oX c #66A18A",
"OX c #6AA48D",
"+X c #6BA889",
"@X c #75A58E",
"#X c #64A993",
"$X c #6DAB92",
"%X c #79A190",
"&X c #72AE95",
"*X c #69B899",
"=X c #75B49B",
"-X c #75B69C",
";X c #7E84B0",
":X c #76BBA2",
">X c #7ABDA2",
",X c #73BAB2",
"<X c #7DC2A6",
"1X c #7FC4A8",
"2X c #7CCAAF",
"3X c #7BC6B9",
"4X c #1E99E8",
"5X c #3D98EA",
"6X c #4C96D4",
"7X c #7B83C5",
"8X c #67B2DD",
"9X c #4DA8F2",
"0X c #75C4D6",
"qX c #6CC5E2",
"wX c #898A8A",
"eX c #929395",
"rX c #A9949D",
"tX c #85A798",
"yX c #B7A283",
"uX c #8AB9A5",
"iX c #B8B2B6",
"pX c #CAAF8F",
"aX c #D4BB98",
"sX c #EAB28A",
"dX c #8FD589",
"fX c #81C6AA",
"gX c #89C6AC",
"hX c #83CAAD",
"jX c #89CDB1",
"kX c #94CEB3",
"lX c #96CAB4",
"zX c #C8D599",
"xX c #E9C89D",
"cX c #F4C69C",
"vX c #F4CBA3",
"bX c #EDD2AB",
"nX c #F6D6AB",
"mX c #F6DAB2",
"MX c #FADDB3",
"NX c #ECE1A5",
"BX c #FDE1B6",
"VX c #FDE5BA",
"CX c #8E95C3",
"ZX c #9AA1D2",
"AX c #A5C5D6",
"SX c #C9C6C8",
"DX c #D8D9D8",
"FX c #D1EFC6",
"GX c #F5EFD0",
"HX c #E9E9E9",
"JX c #F1EFF6",
"KX c gray94",
"LX c #FEFEFE",
/* pixels */
"| | ) .XlXlXlXtX) | | %XkXlXlXwXW |  .tXkXlX .)  .)  .uXlXkXlX .| ) .XgXlXlXuX| | ) XXlXlXlXtXW | | ",
"      K -X*X*X4.      Y -X*X*XL       {.*XK           #X{.<.Y       4 *X*X-Xq.      K *X*X*X2.    . ",
"= & . ] jXfXhX X. = . 0.jXfXjX5.  O = @Xw.  0 0 0 = E @X^ . = = <   E fXfXjX&XO =   { jXfXjX X  = = ",
"G G F [ &X$X&X9.z J F 6.=X$X$X2.z ! J l v p i =       D b a   z P F ~ $X$X&Xe.G G F } &X$X=X9.z J J ",
":X-X>X|.  8 + } >X-X>X6.  8 : {.<X0.! q e n A 3 = r w q f h   |.>X>XOX6 6   ~ >X-X>X|.o 6   2.>X=X>X",
"<X<X1X X  +   [ 2X:XfX5.  .   |.jX~ O n X.f i i A j n j j h   oX<XfX&Xo     ~ <X>XfX|.  +   5.1X>X<X",
"fX<XhX X      [ hX1X2X9.  $ 7 ` D a f j g i i i u j j j j h   oXfXhX&X      P fX<XhX X      } hX<X1X",
"OX XOX0.! ~ ~ 6.OX XOX` O r $ m o.t j X.g A i +.#.X.j j j f   5.oXoX0.~ ~ ~ } OXoXOX0.! ~ ~ 6.OXoXOX",
"+     ' <X>X<X0.  :     3 g X o.a.#.u O.g i y #.p.+.u g j f .   %   J >X>XfXoX  +   ' <X>X1X0.  $ . ",
"% +   ' <X>X<X0.  .     o.p.h n a.#.y h i O.u.a.p.+.@.u.@.u o = 3   G >X>X<XOX  $   ] 1X>X<X0.  $ % ",
"      ~ hXfXfX{.  8 o . +.p.X.j u.#.u h u +.u.i.i.O.@.i.@.y @ i A   G <X1XfX$X      ' fX<XhX0.      ",
"} [ } 5.}.}.}.5.    :   w X.j j $.n j X.j $.g u.a.@.g X.A 3 s i 0   ~ |.0.|.9.[ } } 2.|.}.0.7.[ } 2.",
"fX>XfXoX      ] $X~   a g d g X.e e p p p p e ..@.X.f j i i i i 3 X z       P 1X>XfX X      2.hX>XfX",
">X>X<X X  5   } hX{.@ n h 3 g $.&.&.&.&.&.&.&.&.$.X.X.j d i s A 3 =     5   ~ <X>X<X|.  :   2.1X>X>X",
"fXfXhX X      } hXfX>Xz . A X eXLXGXvXmXmXmXnXMXvX&.q A A = .   < i 3       P fXfXhX X      2.hX<XfX",
"8.6.5.6.9.9.9.7.7.7.5.] ] = @.pXGXGXnXBXMXMXMXBXMXv.O.A 1 Q pX(   s = $ 5.0.9.5.5.5.5.9.9.9.9.5.5.8.",
"      ~ hX1XhX}.      0.#X  z.M.vXMXMXMXBXmXbXbXbXN.-.A X l.MXk.  s = F >XhXOX      ' hX1XhX0.      ",
"> $   ' <X-X<X0.  :   0.OX  o n n.vXMXmXVXnX(   & x.*.M *.M.MXk.    J -X>XfXoX  :   ' <X-X1X0.  : : ",
"      ~ hX<XfX0.      0.$X  K :.%.m.cXsXpXl.c .XiXm.-.&.m.vXMXk.    H <X<XfXOX      ' fX1XfX0.      ",
" X|. X9.' ] ' 5. X|.|.9.H   1.1.. *.b.b.O.o ;.FXLXsXi.b.vXMXMX=.4 }.}.' ] ' 2. X|.|.9.' ] ' 5. X|. X",
"fX<XhXoX      } hX<XfX7.  7 z.b.x.sXMXnXsXx.xXVXnXM.c.b.+., d OX:XhX=X      P fX<XhX X      2.hX<XfX",
">X>X<X X  :   } fX>XfX8.  < %.-.b.vXVXMXcXsXnXVXnXM.x.*.Q.L :.0.|.}.}.6 :   ~ >X>X<X|.  :   2.1X-X<X",
"<X>XfX X  o   2.fX-X<X5.  >   t b.sXVXnXMXMXmXBXbXN.#.  4X0XD.:..   ' 6 + . ~ <X>X1X X      2.1X>XfX",
"~ P P [ $XOXOX9.P ! P 7.$X+X&X{ q v.sXN.vXBXVXcXM.o.Q.6X<XH.Z.V.B.B.1.#   ` oXP P P 2.OXOX$X9.J P ! ",
"      ~ hX<XhX{.      9.hX<X=X/ k %.-.#.m.aXaXv.*.Z [.0XF.d.H.D.A.J.,.m %.e.4.      ' fX<XhX0.      ",
".     ' 1X>XfX0.  +   7.jX-XN c J.>.  -     o   4 5X0Xd.Z.H.D.V.V.V.V.V.VXv.  > 5   ' fX>X1X0.  + . ",
"6 5   ' >X-X>X0.  6 o 7.fX=XH c h.*X].6X$Xf.B.B.B.dXdXA.D.D.V.C.C.C.zXbXVXbXaX9 $ 0 [ >X-X>X0.  6 6 ",
"&X&X=X}.z H z } =X$X=X7.z J X ! dXqX9X9X3Xh.J.H.S.h.g.V.D.S.S.dXdX,.K.vXaXbXmX%.E {.0.z H z 2.=X$X=X",
"<X<XfXoX.     } fX<XfX5.  = . T.5X9X6X9XjXh.H.Z.Z.H.H.Z.G.S.j.AX[.2 X -   #.b.b.*.$ 2..     2.hX>XfX",
"fX<X1X X      [ fX<XfX0.  4 +.l.iX;XE.R.e.S.g.g.Z.Z.C.C.j.K.SX8X5X2 G X   w +.xXcXpXE   7   2.fX>X>X",
"=X&X-X|.9 F z 2.=X$X&X]   b z.n.y.o.o & >.V.dXF.Z.S.H.dXNXbX4X4X6X2 / P G l 4 aXmXVXl.v   5 5.-X&X=X",
"9 9 : ] -X=X>X0.      . b c.b.z.2 1 9 #X2.6 5X0XV.d.2X6X9X9X9X9X6XX x =X=XuX@X  k.mXmXaX   X}.  z 9 ",
"      ' 2X>XOX^ l.pXyXyXaXcXl.o.4   < $X2.  ,XjXA.g.dX3XjX0X9X9X6XX x >XfX$X] l.aXBXvXm.  @X|..     ",
"      ~ hXfXY q BXBXbXVXVXbX(   *     $X9., d.h.A.J.C.g.d.dX8X9X6X  x >XhX5.  nXBXbXx.*.D &X|.      ",
"! P J } $X$XI r BXaX  bXvXb.+.X / J P |.~ , A.S.s.s.C.H.H.F.H.qX5X# G +X&X[   mXnXn.O.E  XOX9.G ! ! ",
">X-X<X X  6   E l.(   sXsXo.r Y <X<X-X'   k :.zXFXFXzXt.t.t.r..X!.X / z %   z l.l.@.E   z   2.<X-X>X",
"<X>X<X X  + o ' l   a x.*.  %  X1X<X>XP   B * iXJXLXSXu u S S p r # ` :     ~ l   4 5.<     2.fX-XfX",
"fX1XhXoX      [ fX4.o r q . . }.hX1X=X, C ~.Q.'.7XCX'.^.Q.~.^.^.Q.  ` z     P >X-XuX}.      2.hX<XfX",
" X X X0.' ] ' 5.$X}   D Y ' ' 9. X|.2.Z R.).(.I.V V V U ~.).).W.W.Z U , ' ] 2.+X+XOX9.' ] ' 5. X X X",
"      ~ fX>X1X0.      w.hX>X<X[     M ^.).~.Y.U.@ < ; o Y.`.W.~.W.).C 6 =XfXOX      ' 1X>XfX0.      ",
"% $   ' <X>X<X0.  5   9.1X>X<X]   U W.W.(.Y.Z @ 6   z  X0 C (.).W.W./.Q.9 |.OX  %   ' <X:X<X0.  : % ",
"      ~ hX<XhX0.      7.hXfXfX[   Q.).~.(.Y.2 .     % >XoXU U.Y.).~._.`.  0.&X      ' hX<XhX0.      ",
"7.5.5.7.9.9.9.7.7.7.5.7.9.9.0.' . U._.`._.Y.M G 9.5.6.5.0.]   U._._._.`.3 ! 9.5.5.5.7.9.7.9.7.7.5.7.",
"fX<XhX X      } hX<X1X7.    X ~ - P.I.P.I.~.# 3.1XfX-Xz     F P C ~.I.P.L.M . fXfXhX|.      2.hX>XfX",
">X-XfX X  5   } fX-X<X7.    8 { ^ eXZXCX;X^.1 [ >X<X=XF     P x B '.CXCXZX!.E  X$X1X X  5   2.<X-X<X",
"fXfXfX X      } hXfXfX7.  8     eXDXLXLXDXk.3 4.hXhX>X9     F G A  .DXLXLXDXeX& ~ hX X      2.hX<XfX",
"} [ [ 5.}.0.}.7.] } [ 0.`   iXKXHXLXLXSXiXeX7 F 5.} [ 0.0.}. X+ | HXLXLXLXDXrX7 z [ 5.}.0.|.7.[ 2.} ",
"      / hXfXhX0.      }.#X  SXLXHXKXDXwXwXeX0   O   5 =XfXfX>X  | HXKXHXKXSXwX0 o   ' fXfXhX0.      ",
"      I <X-X>X7.      7.oX                      .   ; #X>X<X$X-                     I >X-X<X9.      ",
"W W T w.lXgXkX@XA W R XXgXXX%X{ T R R .X%XXXXX_ R R _ uXgXhXuX^ R T ^ XXXX%X.XR W T e.lXgXjXXXA W W "
};
