/* XPM */
static char *cc3d7162c2a645e2822f919ae88f9cabeC1iGcviY7wU8mBI[] = {
/* columns rows colors chars-per-pixel */
"50 50 247 2 ",
"   c #000000",
".  c #080607",
"X  c #110B0D",
"o  c #071500",
"O  c #151716",
"+  c #1C1C1C",
"@  c #250400",
"#  c #2B070D",
"$  c #052513",
"%  c #2C2611",
"&  c #000127",
"*  c #10102D",
"=  c #310F2F",
"-  c #0C2725",
";  c #242424",
":  c #2B2524",
">  c #2C2C2C",
",  c #2F2F30",
"<  c #333333",
"1  c #393835",
"2  c #3C3C3C",
"3  c #490101",
"4  c #5C0000",
"5  c #4A1217",
"6  c #660000",
"7  c #6F0D10",
"8  c #513611",
"9  c #782800",
"0  c #500A2F",
"q  c #5D0933",
"w  c #4C1739",
"e  c #441C3A",
"r  c #640B2C",
"t  c #711822",
"y  c #48233A",
"u  c #562539",
"i  c #4F3838",
"p  c #682B2A",
"a  c #75312B",
"s  c #692835",
"d  c #732F31",
"f  c #673837",
"g  c #7A3835",
"h  c #1E5E14",
"j  c #3D433F",
"k  c #317633",
"l  c #4C7702",
"z  c #4A4939",
"x  c #7E4635",
"c  c #597338",
"v  c #00005B",
"b  c #353547",
"n  c #00006B",
"m  c #000276",
"M  c #162E78",
"N  c #3B3A73",
"B  c #621C58",
"V  c #4E3447",
"C  c #39444E",
"Z  c #444444",
"A  c #494746",
"S  c #4B4B4B",
"D  c #4B4C52",
"F  c #534852",
"G  c #535353",
"H  c #575659",
"J  c #5B5B5B",
"K  c #73554C",
"L  c #606F55",
"P  c #6C6855",
"I  c #595A61",
"U  c #586568",
"Y  c #636363",
"T  c #666967",
"R  c #6B6B6B",
"E  c #6D7173",
"W  c #747474",
"Q  c #787978",
"!  c #7C7C7C",
"~  c #813F00",
"^  c #813D35",
"/  c #8D4D08",
"(  c #8D4C2F",
")  c #854437",
"_  c #9B5938",
"`  c #A45C31",
"'  c #956A32",
"]  c #AB6234",
"[  c #B96C37",
"{  c #864E49",
"}  c #956656",
"|  c #8B7253",
" . c #B46D49",
".. c #B27151",
"X. c #937868",
"o. c #C77B50",
"O. c #37A100",
"+. c #5F8F17",
"@. c #719638",
"#. c #6EAE49",
"$. c #64B161",
"%. c #8CAD00",
"&. c #86A736",
"*. c #D28537",
"=. c #E99637",
"-. c #E9903B",
";. c #FAA43A",
":. c #8FDA07",
">. c #A5E809",
",. c #95D22C",
"<. c #A3E738",
"1. c #AAF130",
"2. c #EEEE14",
"3. c #918571",
"4. c #AC9174",
"5. c #D38558",
"6. c #E9984E",
"7. c #D09370",
"8. c #E69667",
"9. c #F39E67",
"0. c #DCA57C",
"q. c #E8A67B",
"w. c #F1A77A",
"e. c #89C74D",
"r. c #9BDE59",
"t. c #9BE547",
"y. c #9BE455",
"u. c #9DE25A",
"i. c #A3E649",
"p. c #B3EC4C",
"a. c #A3E859",
"s. c #99DC67",
"d. c #97DE7D",
"f. c #87E060",
"g. c #9CE466",
"h. c #A4EA66",
"j. c #E0E27B",
"k. c #182392",
"l. c #070FA2",
"z. c #3035AE",
"x. c #4E2692",
"c. c #503AA3",
"v. c #00498E",
"b. c #3D4B9D",
"n. c #3D53AD",
"m. c #515491",
"M. c #644F9B",
"N. c #757B89",
"B. c #4749AA",
"V. c #4552A8",
"C. c #5C4AB5",
"Z. c #4554B7",
"A. c #5252B4",
"S. c #6547AC",
"D. c #6849B6",
"F. c #7256B5",
"G. c #4F6CA1",
"H. c #656EB3",
"J. c #827788",
"K. c #0085B0",
"L. c #768B8A",
"P. c #70AA92",
"I. c #7E84B2",
"U. c #76B8AB",
"Y. c #7EC8AB",
"T. c #7BC6B9",
"R. c #0B92EA",
"E. c #169BEB",
"W. c #3D98EA",
"Q. c #4693D3",
"!. c #549AD7",
"~. c #7E85C6",
"^. c #59ACD9",
"/. c #4FA8EE",
"(. c #4BAAF8",
"). c #6AAFE8",
"_. c #76C5D4",
"`. c #74C3D8",
"'. c #848484",
"]. c #888887",
"[. c #8B8B8B",
"{. c #908C8C",
"}. c #97918E",
"|. c #8E9194",
" X c #949494",
".X c #99979A",
"XX c #9C9C9B",
"oX c #A29894",
"OX c #BDA786",
"+X c #A6A59D",
"@X c #9294A3",
"#X c #9FA1A3",
"$X c #A4A4A4",
"%X c #A8A6A7",
"&X c #ABABAB",
"*X c #B0ACB1",
"=X c #B3B3B3",
"-X c #B9B7B6",
";X c #BCBBBB",
":X c #CCAE8F",
">X c #D3BB99",
",X c #EBB086",
"<X c #E8B996",
"1X c #C0AFB7",
"2X c #8FD689",
"3X c #AAD786",
"4X c #88D2AC",
"5X c #B7C2BB",
"6X c #CDC292",
"7X c #EACA9F",
"8X c #F5C79C",
"9X c #CFE68A",
"0X c #C7D6AA",
"qX c #EDCFA7",
"wX c #F6CDA2",
"eX c #EDD2AA",
"rX c #F3D5AC",
"tX c #F8D7AB",
"yX c #F6DAB2",
"uX c #FADDB3",
"iX c #EEE3A8",
"pX c #FDE1B7",
"aX c #FDE3B9",
"sX c #FBE7BA",
"dX c #8E94C3",
"fX c #9CA2D3",
"gX c #BFBFC0",
"hX c #B2C3CE",
"jX c #C3C3C3",
"kX c #CAC6C9",
"lX c #CBCBCB",
"zX c #CED1D6",
"xX c #D3D3D3",
"cX c #D8D7D6",
"vX c #DCDCDC",
"bX c #D1EFC6",
"nX c #F7EECD",
"mX c #DEDFE0",
"MX c #E0DFE0",
"NX c #E3E3E3",
"BX c #E7E7E8",
"VX c #EBEBEB",
"CX c #EFEFF2",
"ZX c #F3F3F3",
"AX c #F7F8F7",
"SX c #FDFDFD",
"DX c #FEFEFE",
/* pixels */
"2 [.SXVXS %XSXcX< -XSXlX+ jXSX;XO vXSX XW vXXX  ].AXZXJ  XSXVX, &XSXxXO jXSX;X> cXSX&XZ vXSXXXS VXSX",
"  ; SXSX    SXSX  < SXNX   XSXjX  ;XSXXX   XG   V SXZX  > lX$X  &XSX%X  xXSXR   ZXSX    SXSX    AXAX",
"AXNX&X;X*X[.xXAX.X  VXSXJ   SXSX  [.SXjX    b   J ZXNX2         BXSXA   SXAX  ].SXxXC +XNXjX;XkX'.G ",
"SXSX!   -XSXjX2 *XvXjX=X&X=XvXvXR XXmXR @ K y   $ W Y   t f   2 mXVX'. XxXjXjX&X[.jXAX&X  ;XSXVX  < ",
"1 ].-X[.XXSXCX  Z SXBX  |.mX|.. cXlX: # a ^ u = #   # 5 x d   -XR [.SXlX  jXSX!   AXSXG   xXvX;XvXAX",
"Z   &XSXVX'.&X*X'.NXSXY   R *X  -X=X  { ^ d u e V K { d x 3 > =X  *XSXQ   SXAX  '.NXjXkXNXY   jXSXAX",
"SXMX5XVXSXY   kXSX=XW gXXX  0XJ.  Y a g s u e w q d g g ) 4 b $.  VXZXQ .XjX;XVXgX  &XSXCX  '.=X[.  ",
"ZXSXZX  G =X&X%XSXBX  [.jX  L 3./ 9 ) g u e w ( ] ^ d g ^ t . W  X! XXSXjX  vXSXQ   kXlX-XZXSXJ   Y ",
"  Q =X[.  XXSXZXQ XX$X- # d   x 6.[ q ) u y 0 [ ;._ q p d p   ; G   gXSXY   NXlXkXBXG   lXSXvX;XVXSX",
"W     ZXSXlXlXAXQ   lXL.6 6.f ( ;.[ 0 f 0 ) *.;.=.( _ =.` 0 X X =   =XlXxXlX  XXSXBX2 &X$X> > SXSXVX",
"SXZXlXzXSXSX    $X X].E ~ 6.x ^ -.` q f u ( *.=.-.^ ` -._ 0 # < e z   %XSX$X  5X-XjXSXSX  ; XX&XH   ",
"vXSXSX].  [.&XY   Z     5 ^ g g ) x g ^ ^ ) r o.;._ t ^ u e e w e +   kXxXxXVXV   vXZXjXvXSXNX  < [.",
"  + [.&XW   jXSXlXZ X d p w g ^ 6 7 t t t t r / ` ^ d g w e e w e   R   ! SXNX'.hXW   %XSXVXjXvXSXSX",
"$XY   ;XSXZXlXxXSX[.  K f = d { X.} } } } } } } } ^ g d u e V y = +     %X'.lXSXNX: $X+XS   -XSXVXxX",
"SXSXZXjXjXAXVX    %XjX  . F   J.SXnXwXyXtXyXtXuX7X} 3 V y =     # V   J <   lX-XkXSXSX! 2 &X&XJ     ",
"hXMXSXcX    T lX.X$XSXcXH . _ :XnXnXyXuXuXuXuXpXtX7.( V & K :XP   V ,   xXNX    lXcX$XVXSXSX.X  ].-X",
"      |.cXXXQ VXSXZX! &X|.  ..q.rXyXyXyXpXtXeXyXeXw...V & 4.uX3.  F   Y ZXcXlXVX1   G VXlX.XcXSXSXSX",
"kX%XR '.SXSXSX.XR ;X[.  + > . f 8.wXaXuXsXrXK   @ 5.o.& [ w.uX3.    XX[.  lXSXvX;XVXcX      vXVXlX&X",
"SXSXSXZXG [.;X&X2   zXSX0X  k c _ 0.8X<X:X4.l L.=X0.o...0.8XuXX.  XXcX*XgX'.   XSXAXlX-XvXZXY       ",
"XX=XlXxXR     ;XSXAXkX%X*X  #.$..  .8.8.^ o O.bXSX<Xo.9.wXpXaX3.C J  XSXZX#XlX&X+   =XSXSXVX.X%XjXcX",
"        SXSXAXjXXXxX;X< .   5.8.o.<XuXtX,X5.7XsXyXq.6.8.' h 5 -XkXjX&X  '.SXSX-X$XxX&XZ     SXSXSXSX",
"BXcXlX;XjXcXVXlX    X.SXVXI / o.8.wXaXuX8X<XtXaXrXq.5. .m.M @.o .XMXjXcX;X;   NXSXSX&XT .X&X;X$X X! ",
"SXSXSXSX      '.SXSXmXL.%X1XU 8 8.7XyXyXyXuXyXuXrX,X`   R.`.a.+.    &XNX;XlXNX! ;   vXSXSXSX        ",
"J Y R '.cXvXzXjX=XjXkX X$.&XvX&Xt 5.,Xq.8XaXaXwXq./ m.Q.4Xs.r.r.e.s.l   b jXNX&X&XjX=XXX X XNXVXVXZX",
"< ;   2 VXSXSXNX    J AXSXxX  C k ' o.[ OX>X6X7. .N K._.d.>.s.a.y.a.#.@.|     ZXSXSX'.    J AXSXSXSX",
"AXSXSXAXJ     '.SXSXZXA X XXQ h h.@.  o .       - W._.>.i.s.a.u.r.y.i.a.nXOX  Z S   NXSXSXZX<   + > ",
"ZXVXVXNXXX X$X&XjX=X=XlXvX;X* l 1.U.Q.Q.P.&.e.e.e.2X2Xr.y.r.r.t.t.t.9XiXaXqX>X  U ;XjXlXvXcX'.Q R J ",
"        SXSXSXNX  O ! NXNXkXV k 2X_.(.(.4X1.h.u.a.<.<.r.y.a.p.3Xd.e.6X>X>XqXuX( oXAX!       SXSXSXSX",
"!  X%X-X&X XT &XSXSXNX  ; &X{.v (.W././.U.,.y.u.r.s.s.a.f.a.2.hXR.&   j . _ 8.8. .  ;XBXvXjX;XlXvXVX",
"SXSXSXSX    S $XvX-XjXZXcXC / 4.*X@Xv.v.2Xp.<.<.a.a.i.i.2.j.hX).Q.  Q -X&X4 6 <X7X:X}.jXSXSX        ",
"cXjX$XXXVXSXSX;X    ].NX{.3 5.9.*.7 z K +.e.d.d.r.i.s.2X9X0XR.E.!.  XX'.].$XL.>XtXnX|   S R cXlX=X.X",
"      J AXvXjXjXC       6 8.8.5.  I $XzX$X$ W._.r.>.4X/./.(.).).Q.* % =X=XmXCXb | uXaX6X  ; ZXSXSXSX",
"&XlXVXNX       X:XOX:XOX>X8X4.6 *XvXY =X%X  @X4Xy.i.2XT.Y._.W.(.^.  ].BXSX&XR 4.>XsXwX,X  vX.XY &XjX",
"SXSXSXvX.XcXXX  yXaXeXpXpXeXK & jXNXcXR   c :.p.u.h.i.<.>.2X^.(.!.  cXlXA S   eXaXrX8.]   -XXX      ",
"-X].  XXSXSX$X  aX:X  eXwX8.x o   -XZXXXF h s.a.:.:.t.u.h.h.g.).W.& z ]..X    rXwXw.} @ >   xXSXvXjX",
"    S %X&XS T jXOXK   <Xq.( oX X*X! ;XSXI   &.3XbXbX0X&.&.&.%.L.G.. S   CXZXJ 4.4./   *XZXjXkXZXSXSX",
"xXCXSX;X  G &X$X  < i o.5.& G AXAX  ;XBXD & 5 %XAXSXxXr q B B r f   J.ZXzXmX*X    U ;XcXZXSX5X  T $X",
"SXSXmXjXVXSX&X  |.[.  3 [.T < xXxXxX[.  m.c.b.H.~.~.H.M.B.c.V.V.m.  $.SXBX. W vX=XjXSXlX  ! *X[.    ",
"[.;   vXSXvXjXZXcX  D L.! NX5X  vXVX  v b.Z.C.z.n m m v.B.A.n.n.V.m |.].oX.XW AXSX$XY &X[.  '.SXAXNX",
"  G %XXX+   SXSXjX-XjX  -XSX.X  NX].  H.n.V.D.N o 1 %   x.S.V.Z.Z.Z.N   . lXSX*X;X%X    SXSXlXlXZXSX",
"VXSXSX> + $X$XG BXSX.X. gXlXxXlX2 M V.n.A.S.& =XNX  %XNXJ n D.B.n.Z.z.M.  |.SXcX  Q AXlXlXSXAX    ! ",
"SXVXjXvXSXlX  G mXlXzXNXV E SXlX  m.A.B.C.S.  ;XSX2 ;XSXY   M.c.B.B.S.S.  .X[.XX%X! AXSX$X  {.=XW   ",
"Y   J SXZXjXlXlX  L.SXcX  ;XSX[.  S.D.D.D.S.b o ! VXjXG xXjX  x.D.S.S.F.  jX$X  NXSX$X&X=XS   VXSXVX",
"  '.=X'.. VXSX$X  ;XBX0XlX[.[.xX  l.z.l.z.z.b   D SXxX  VXZXC   N c.z.k.l.m.Y Q jXSXlX  R SXmXjXNXSX",
"AXSXjX  J NXlXlXVX'.  ZXSX  W lXG @XfX@XdXm.D   2 SXNX  xXSXY   N H.@XdXfXN.2 xXkXQ $X%X! ZXSX=X  J ",
"AXvXjXvXcX  J SXZX  ! SXcX       XvXAXAXcX'.2 S XXvXlXW 5XVX.X  S Q vXSXSXcXXX  $XR   CXSX.X[.=X'.2 ",
"1   NXSX;X  &XSXjX! &XjX.X  ;XVXBXSXSXkX=X@X  ;XSX+ R SXjX  vX XH BXSXSXSXvXXX   X*X  jXSX1X  $.SXZX",
"S N.jX;XlXVXXX  vXSX!   =X> lXAXBXZXcX[.|.|.  ;XAX2 Y SXcX  lXXXJ BXCXVXZXjX].G    XSXxXN.%X-X*XVXZX",
"SXAX    AXSX+   SXZX  '.lX                    ;XAX< S SXNX  *X X                  ; SXAX  ; SXSX>   ",
"SXVX; }.SXNX  &XSXxX  ;XAX[.; &XlX'.> ;XlXW > vXSXJ R SXVXX XXNX*XO [.xX$XO XXxX.X  vXSX.XO VXSX[.> "
};
