/* XPM */
static char *_6c18bcce2934faee336f7de81f63a53AAvqMnWHHEca08Ew[] = {
/* columns rows colors chars-per-pixel */
"50 50 225 2 ",
"   c #000000",
".  c #02020B",
"X  c #0B0808",
"o  c #130008",
"O  c #150E0A",
"+  c #1C120D",
"@  c #010213",
"#  c #090514",
"$  c #050815",
"%  c #0B0A15",
"&  c #01021C",
"*  c #090719",
"=  c #050A1E",
"-  c #0B0C1C",
";  c #110C16",
":  c #1A071A",
">  c #120E1B",
",  c #0E101F",
"<  c #121113",
"1  c #1E1513",
"2  c #15121D",
"3  c #1B131C",
"4  c #1A1A1C",
"5  c #20150F",
"6  c #290817",
"7  c #360318",
"8  c #211611",
"9  c #221914",
"0  c #21151E",
"q  c #22181E",
"w  c #291B1F",
"e  c #000323",
"r  c #060B22",
"t  c #0A0E22",
"y  c #050E29",
"u  c #080E28",
"i  c #110E21",
"p  c #041026",
"a  c #0C1225",
"s  c #06122B",
"d  c #0B142B",
"f  c #0E182D",
"g  c #131323",
"h  c #1B1522",
"j  c #161925",
"k  c #1C1925",
"l  c #141629",
"z  c #181628",
"x  c #15192C",
"c  c #1C1D2C",
"v  c #0B1431",
"b  c #0B1735",
"n  c #0D1833",
"m  c #0D1A3C",
"M  c #151B32",
"N  c #191E32",
"B  c #2F0D20",
"V  c #221622",
"C  c #2C1421",
"Z  c #231A25",
"A  c #2B1C24",
"S  c #241D29",
"D  c #2B1E29",
"F  c #321C24",
"G  c #331C28",
"H  c #1E222F",
"J  c #1D2233",
"K  c #1A2139",
"L  c #23222C",
"P  c #2D212B",
"I  c #332425",
"U  c #33242D",
"Y  c #3B262D",
"T  c #37282F",
"R  c #3C292C",
"E  c #232533",
"W  c #292534",
"Q  c #262832",
"!  c #2B2B34",
"~  c #232639",
"^  c #262838",
"/  c #2C2C3B",
"(  c #372632",
")  c #342B34",
"_  c #3A2B32",
"`  c #312E39",
"'  c #2E303A",
"]  c #3B3437",
"[  c #33323C",
"{  c #3C343B",
"}  c #490007",
"|  c #450917",
" . c #431B27",
".. c #442529",
"X. c #432C2C",
"o. c #56292C",
"O. c #45332E",
"+. c #4D362F",
"@. c #422A31",
"#. c #482D30",
"$. c #443434",
"%. c #493834",
"&. c #4E3338",
"*. c #4A3A3A",
"=. c #553837",
"-. c #523C3B",
";. c #662D2B",
":. c #643435",
">. c #763739",
",. c #57433B",
"<. c #5B443C",
"1. c #6A423E",
"2. c #0E1C45",
"3. c #121E45",
"4. c #282C41",
"5. c #302E40",
"6. c #2E3245",
"7. c #333543",
"8. c #393743",
"9. c #363843",
"0. c #3B3A45",
"q. c #3C3E4A",
"w. c #4A3D44",
"e. c #3D404F",
"r. c #3D4151",
"t. c #42424C",
"y. c #5A4644",
"u. c #444551",
"i. c #4C4B55",
"p. c #4C4E5A",
"a. c #514D56",
"s. c #4D505D",
"d. c #575156",
"f. c #54535B",
"g. c #654944",
"h. c #654C44",
"j. c #794E4F",
"k. c #695145",
"l. c #6C544D",
"z. c #74534D",
"x. c #73584F",
"c. c #7A584A",
"v. c #745953",
"b. c #7C6055",
"n. c #575868",
"m. c #69656B",
"M. c #746D73",
"N. c #813D33",
"B. c #874A48",
"V. c #8B574A",
"C. c #845959",
"Z. c #925955",
"A. c #896758",
"S. c #946855",
"D. c #936E5E",
"F. c #9B6959",
"G. c #A7725F",
"H. c #876861",
"J. c #977562",
"K. c #9E7E76",
"L. c #A96A68",
"P. c #A37B66",
"I. c #B2766A",
"U. c #B57B76",
"Y. c #A3816A",
"T. c #AD846E",
"R. c #B78467",
"E. c #BB866C",
"W. c #BD896A",
"Q. c #A68578",
"!. c #B58575",
"~. c #BB8A73",
"^. c #B4907D",
"/. c #C28C6F",
"(. c #C48E78",
"). c #C59175",
"_. c #C89577",
"`. c #C29379",
"'. c #CD9A7B",
"]. c #D49B7B",
"[. c #CAA07E",
"{. c #D7A07D",
"}. c #E2A87E",
"|. c #BB9485",
" X c #C88D86",
".X c #CC9384",
"XX c #C69C83",
"oX c #D19387",
"OX c #D49F83",
"+X c #DA9D92",
"@X c #D3A183",
"#X c #DBA484",
"$X c #DAA68A",
"%X c #C8A590",
"&X c #D9A994",
"*X c #E2A981",
"=X c #E9AD85",
"-X c #E7A889",
";X c #E4AD8C",
":X c #EEB187",
">X c #F2B387",
",X c #F4B48D",
"<X c #E7A996",
"1X c #E9B699",
"2X c #F2B492",
"3X c #F5BA94",
"4X c #F9BA96",
"5X c #F5B99B",
"6X c #F4BD9B",
"7X c #E5B5A7",
"8X c #EEB5A6",
"9X c #EBC09C",
"0X c #F4C19D",
"qX c #FCC29C",
"wX c #F9C6A5",
"eX c #F9C9A2",
"rX c #F5C2A8",
"tX c #F6CBA9",
"yX c #FBCCAB",
"uX c #F4D2AE",
"iX c #FAD2AB",
"pX c #F7D5B2",
"aX c #FCD4B2",
"sX c #FEDCB8",
"dX c #FFE1B9",
/* pixels */
"                m 3.d v s s p f K d x J l c q.7.x x x p f d d d f f g X                             ",
"              $ 2.m d d d d n q.r.= x J E c q.u.l u a p a a d a d x f j %                           ",
"              s 2.v s d M N 4.w.q.j k H / / W 8.u.W & a a p d a p E ^ N c X                         ",
"              v 2.d d d M M l g c E g c E W W q.f.a.{ E j , p d s E 8.^ y a .                       ",
"              m b s s s d a l l c l g j c E L k ` d.a./ H j = d = E p.q.x M f                       ",
"            x m v v s d a i N x g g a g c c L S S L Q j j f p x x / n.i./ ^ M ,                     ",
"          l 4.b s d d u d t t l u - t = a g g a a - t = = p a a E E c W 5./ J x .                   ",
"        a N b v b l t d d t - t p t u r r , a , r g j a , a - g g g l N K a ~ / ,                   ",
"      < K b b v d d u r t t t r = p = r a = = = - t t i - t t 2 g g g c ^ L j J H %   .             ",
"      E 4.y v s s p u - = = = = = = = = = - , - t g t > > g a a a g a l / / L Q / 2                 ",
"      E N s s d d p r r - r & = - = - - - 2 2 g h z h i > g g g g - l S [ ' f.m.e.. X               ",
"      / M s s s u r t t = = = r - , - g h k S V Z Z S S V h h g g , S ` q.i.f.m.0.@ X               ",
"      ' M s s y r r = r = = = - = - g g k Z D D P P P P S V c h g 2 k j Q 0.! @ L W %               ",
"      7.M s v y r u r = r - = r , a - 2 h k A U R $._ G Z h h 3 2 h j g $ @ H d.m.a.2   X           ",
"      6.6.e d r r r r r e e - - - - - a i > Z D @   i Y V h k 4 g h i N ! j Q M.M.i.4               ",
"      k 6.y u r u = - r t - - - = - > > 2 V h Y H.Q.l.: R A S S P P _ $.] L Z 0.t.Q @               ",
"        K b r r r r & = = = - - g g h h h D # j.+XyX&Xw.F @.D T G #.l.l.$.] ) & c c .               ",
"      t v v r r e = = = = - g 2 h V Z V Z h : F.-XqXyXQ.  $.Y F w.K.|.D.+.] ] _ L i %               ",
"      r v s r r r = = = - - g h V Z Z V Z & $.!.-X5XyX;X1.e y.Y y.Q.%X|.g.R y.*.c z >               ",
"      H J p p r r = = - - - > : h > > h h > <.F.I..X<X1X~.  # _ ] *.H.K.v.Y x.<.S z ;               ",
"      / q.e d u e = = = - t - t - - - > 3 G &.&.o.:.Z.oX<X!.g.( :     C -...b.v.( l ;               ",
"      4 p.s d r r = = = t r i * * * > V A _ @.Y R ..o.>./.5X7X%X^.Q.Q.A.Y.P.P.J._ i <               ",
"        p.q.& a e = = - - : * i V S D P U T D 0 T &.#.6 ;.).aXsXpXpXpXuXpX9X:X~.$.- 1               ",
"        7.n.& f r r = = - i V D G ( U T T U 0 0 Y X...#.;.F.;XaXsXsXdXdXdXiXqX;Xl.  9               ",
"        X n.7.e u = = - > h D U ( ( T ( U D C G Y @.&. .| I.<X9XaXpXpXiXiXeX4X4XP.    O             ",
"          s.s.. l = r t i S S U U T Y ( U D D W P   v.XX!.<XiX0XtXuXiXyXeXqX4X4X`.4   8             ",
"          / n.& a r r t z z A U U U T ( ( G G V z.!.%X8XyXyXiXaXiXtXwXwX0X6X3X,X'.%.  8             ",
"          % n.~ e t r t g S S D ( ( T U U G ( ( j.U..X+X<X6XyXaXaXyXrXqXqX3X3X,X{.,.  5             ",
"            u.9.@ a r t i k S D P _ U P G ( ( @. .| :.>.B.I.<XwXaXtXrX0X6X4X2X,X$Xh.  +             ",
"            [ r.. g r t g z k D ) U U P U G : o B  .:.B.Z.>.V.+X8XtXeX6X3X>X>X>X$Xk.  +             ",
"            2 e.& t r t g h V L W D P D C i  .C.U.oX<X+X8X7XI.N.F.$X6X3X,X:X=X:X].,.  8             ",
"              [ E @ t t g i V Z S Z Z h i B w.j.Z.L.U.L.L. X<X(.V.F.@X5X2X=X*X;X(.I   5             ",
"              Z 9.@ a - a 2 h Z Z Z V V Z D G F 7 7 | | } ;.G.'.<XOX'.-X>X=X}.=XT..   +             ",
"                [ E & a - g h Z Z Z Z D G D A C F F I $.+.=.V./.-X<X$X*X:X:X}.*XD.    X             ",
"                4 e.& p - 2 2 V Z Z Z D D D A A F I 6   6 1.J.).].}.#X].}.}.}.#Xx.  +               ",
"                  { { . l - 3 h V V V V D C C A w 6 <.A.S.A.F.R././._.].{.{.*X^.O.  8               ",
"                  < t.x = 2 g h h V 0 0 V A w I w j.XX1X7X@X~.~.I.W.E.E._.].{.J.    O               ",
"                    ' 9.  g > h V 0 0 0 0 q V A +.C.T.@X6X9X;X@X'.).W.R.W._.[.1.  +                 ",
"                      t.L @ g g 2 h 3 0 0 0 A T -.<.c.P.'.$X&X#XOX'./.W.W.).Y.I   +                 ",
"                      L w.@ g i h 2 3 4 0 V V D R O.=.z.D.T.[.[.].@X'././.W.V.    X                 ",
"                        { ' . g > 2 3 3 0 0 q A w I I R h.A.T.^.[.'.).R.W.Y.,.  O                   ",
"                        < 0.g - < > 3 3 3 3 2 V q q w w I ,.x.J.Y.J.P.Y.Y.A.w   O                   ",
"                          L ` . g > > < ; > > h 3 3 3 0 q 4 U *.,.1.b.A.S.l.    X                   ",
"                            / S . g ; - % i i < ; 3 3 3 3 3 < : 9 I %.,.l.%.                        ",
"                            < [ 3 % > - % > ; ; ; > 3 ; > ; ; > 4 , 4 L ( k                         ",
"                              Z ' . - % - % % ; ; % ; ; > % ; ; % < < < > X                         ",
"                                ! !   , * % % % > % % % % - % % % % $ , X                           ",
"                                  / L   , # # * # % % % % % % % % % - % .                           ",
"                                  2 { % @ $ = $ $ % # # $ % $ X % % % .                             ",
"                                    L '   , $ $ $ $ % % % $ # % $ % %                               "
};
