/* XPM */
static char *c8e3d793c6674536e48779325636438fxpqIfY2BOct1UR4H[] = {
/* columns rows colors chars-per-pixel */
"50 50 7 1 ",
"  c gray1",
". c #040303",
"X c #030403",
"o c #040403",
"O c #040304",
"+ c #040404",
"@ c #050504",
/* pixels */
"+o+++++ +++oo+o++++++oo+++++++++++++.o++++oooooo+o",
"+oo++o+o+++o+++o+++oo++++oo+++oo+oo+++o++..++ ++o+",
" ++++++++++ooo++++oo++++++++++++o++o+o+o++++o++++ ",
"+o++++++++++o+o+.++++++++o++++o+o+++o++o++++++o+o+",
"++++o+++oo++++++++o++++++++++oo+++++++oo+++++o+++o",
"++o++.o++++o.o++o+o+o++o+++o+o++++++++++o++++++++.",
"o+o++oooo++++++oo++oo++++++o++++++++oo+++o+oo++++o",
"oo++o+o+++o+++o+o+ooo++++++++o+oo++++++++.+o+++++o",
"+++oo+ooo+++o++o++o+o+o++++++++++++++o+++ +o+o++++",
"++oo+o++o+o++++o@o++++++++++++++++++o++oo+++o+++++",
"++++++o++o+o++oo++++++++++o++@++o+o+++X++++o+oo+++",
"++++o+++o++++oo+oo++++ooo++++++++o++++o++++++o++++",
"++oooo++oo+++++oo++o++++++o+++o+++++++++oo+oooo+++",
"++o+++++++oo++o+++o+++++++++o+o+o+++o++o++X+++o+++",
"+o++++++++++++o+++o@+@+++++++++o+++++++++oo++o++o+",
"++o++++++++++++o+@o++++++++o++o+oo+++++o++.+++oooo",
"o+++++o+++oo++++oo+++++++o++o+oo++++o+++o+.o++++++",
"o++++++++o+++o+o++++.+++++o++oo+o+++++o++. .+++++.",
"+.+.+++++++o+ ++o@++oo++++o+o++.+oo++++++++++o+o.+",
"o+o+++++o+.+o++++o++o+oo+++++.o+++++++o++o++o+o+++",
"o+ooo++++oo++++++++o++..+++++++++++.oo++++oo+++oo.",
"o++O+++o+++o+++o+o++oo+o++++++o+++oo++o++++++++oo+",
"+++++++o+oX+++++++o++o++++++o.++++o++++o+++o++o+++",
"o++++o.++++ o++++ooo++.o+o+++o++++++++o+++oo++o+o+",
"+o.o+++++++o++++.+ooo+ooo+++o+++oo++++++++o+++ooo+",
"++++++o+++o++ooo+.ooo+++++o+++++o+++++o+++o+oo++++",
"+o.++++ ++.+++++oooo++++oo++++++o+ooo+oo+++o.+o+++",
"++oo+++++++++oo++++++++++++++++++++o++++++++++o+++",
"+++++++++.+oo+.o+o+.++++o+++++++o++o++o++++++o++o+",
"+++++++++++.+++++o++++++++++++++++o+++++o++o+o+++o",
"ooo+++ +oooo+++o++o+++o++++o+++++++o+++o++o++++o.+",
"+++o++o+++oooo++.ooo++o++++++oo++oo+++++oo++o++++o",
".++++oo+o++++++++o+.+o++o++++oo+++o++o+o+oo+o++++o",
"++++++oo+++++++++o+o+o+o+oo+++o+++o+o++o+++++++++o",
"++o+++++o++++++++oo+++++++++o++ooo++o+o++++oo+++oo",
"+++oo+++++++o++++.o++++++.+o++o++o++o++++++o+++o++",
"+++o+o+o++++o+o+++++oo+++oo++++o++ +o+++++++++++++",
"+++++++o+++oooo+oo+oo+o+++ooo+o+++o+o+++oo+o++++o+",
"o+oooo+ooooo++++++++++++++++++o++++++ ++++++oooo++",
"+ooo+++o+++o++o+o+++++++ooo+++++++++ +o++ooo++oo.+",
"++++++++o+++++o++o+o+++++++++++o+oo++++++++++++++o",
"o+++oo++o++++++oo+o+++++++o+++++o+++o+o+++++o+++++",
"+++++o.+o+o+++o++o+++oo+++++++oo+o++++++++++++o+++",
"o+++oo+o+oo++oo++o+++++++o+++o++++o+++oo+++++++oo+",
"+o+.+++++o..+oo++o+++o+o+oo++o++++++++++o++oo+oo++",
"+o+o++o.++++++oo+o.+++++o+.+oo++++++o+++++o+oo++++",
"o+++o+oo+++.o++++oo++++++++++o+.+o++++++++++++++++",
"++.++oo++++++++++o..+.o+++++oo+o+++++++++++++++.++",
"+o++oo++++++++++++oooo++++o.++++++++++++++++++++oo",
"oO+++++++++o++++oo+o+++o+++++++++o++++++++++oo+ooo"
};
