/* XPM */
static char *_a40e2616aa944bea33730312587bc03JXwu3ZYJC3zUNJJd[] = {
/* columns rows colors chars-per-pixel */
"50 50 170 2 ",
"   c #2E1B5B",
".  c #2E1C5B",
"X  c #2F1F5D",
"o  c #2F205D",
"O  c #31225F",
"+  c #31245F",
"@  c #322360",
"#  c #332762",
"$  c #322961",
"%  c #332C62",
"&  c #332E63",
"*  c #342F64",
"=  c #392F67",
"-  c #392F68",
";  c #3A2F68",
":  c #343064",
">  c #353265",
",  c #353365",
"<  c #373367",
"1  c #363768",
"2  c #383769",
"3  c #3B346A",
"4  c #373A68",
"5  c #373C6A",
"6  c #383A69",
"7  c #383E6B",
"8  c #3E3B6E",
"9  c #413A6F",
"0  c #403D6F",
"q  c #433970",
"w  c #413E70",
"e  c #443D71",
"r  c #39416C",
"t  c #3B436E",
"y  c #3F426F",
"u  c #3F4170",
"i  c #3E4771",
"p  c #404170",
"a  c #464373",
"s  c #464275",
"d  c #4A4477",
"f  c #404A73",
"g  c #414B74",
"h  c #444A76",
"j  c #474A76",
"k  c #444E76",
"l  c #454F77",
"z  c #4A4B78",
"x  c #4D497A",
"c  c #4B4D7A",
"v  c #4E4E7D",
"b  c #475179",
"n  c #49527A",
"m  c #4D527C",
"M  c #4B567C",
"N  c #4A567D",
"B  c #4B567D",
"V  c #4D577F",
"C  c #4D587E",
"Z  c #4D597E",
"A  c #565381",
"S  c #575182",
"D  c #575282",
"F  c #545684",
"G  c #555A83",
"H  c #515E83",
"J  c #535F83",
"K  c #565986",
"L  c #5B5B87",
"P  c #5C5E89",
"I  c #536186",
"U  c #566386",
"Y  c #576386",
"T  c #586387",
"R  c #566489",
"E  c #5A6288",
"W  c #5A608B",
"Q  c #596588",
"!  c #5B648A",
"~  c #5D628C",
"^  c #5D6B8D",
"/  c #5E6B8C",
"(  c #5C6C8F",
")  c #5D6E90",
"_  c #5F6F91",
"`  c #5F6F92",
"'  c #60648C",
"]  c #64668F",
"[  c #606B8E",
"{  c #606E8E",
"}  c #606990",
"|  c #626D93",
" . c #646E91",
".. c #686A92",
"X. c #6C6B94",
"o. c #627091",
"O. c #627192",
"+. c #667394",
"@. c #657594",
"#. c #667695",
"$. c #677597",
"%. c #647697",
"&. c #687495",
"*. c #6A7797",
"=. c #657798",
"-. c #6E7198",
";. c #6E7699",
":. c #67799A",
">. c #6A7B9A",
",. c #6D7899",
"<. c #6D7F9D",
"1. c #707799",
"2. c #73769B",
"3. c #727E9D",
"4. c #767C9F",
"5. c #6E7FA0",
"6. c #6E819F",
"7. c #72809F",
"8. c #6D81A0",
"9. c #6E80A1",
"0. c #7080A1",
"q. c #7286A3",
"w. c #7786A2",
"e. c #7786A3",
"r. c #7286A4",
"t. c #7886A3",
"y. c #7D86A5",
"u. c #7388A6",
"i. c #778CA8",
"p. c #768CA9",
"a. c #7E89A8",
"s. c #798FAC",
"d. c #7D90AB",
"f. c #7B91AD",
"g. c #7C92AE",
"h. c #7F97B2",
"j. c #8189A9",
"k. c #828EAB",
"l. c #8695AF",
"z. c #8196B1",
"x. c #8796B0",
"c. c #8A97B3",
"v. c #839AB4",
"b. c #849BB5",
"n. c #879DB6",
"m. c #8A9CB5",
"M. c #8E9DB5",
"N. c #909DB7",
"B. c #8AA0B9",
"V. c #8BA1B9",
"C. c #8DA0B9",
"Z. c #8FA5BC",
"A. c #92A3BA",
"S. c #95A2BB",
"D. c #96A2BB",
"F. c #92A7BE",
"G. c #97A8BE",
"H. c #95A9C0",
"J. c #9BACC2",
"K. c #9AADC2",
"L. c #9AAEC3",
"P. c #9EB0C5",
"I. c #A0B3C7",
"U. c #A3B4C8",
"Y. c #A2B5C8",
"T. c #A3B5C8",
"R. c #A5B5C9",
"E. c #A6B7CA",
"W. c #AABBCD",
"Q. c #ABBCCE",
/* pixels */
"r r r r r r r r r r r r r r r r r r r r r r r r r r r r r r r r r r r r r r r r r r r r r r r r r r ",
"r r r r r r r r r r r r r r r r r r r r r r r r r r r r r r r r r r r r r r r r r r r r r r r r r r ",
"r r r r r r r r r r r r r r r r r 7 r r r r r r r r r r r r r r r r r r r r r r r r r r r r r r r r ",
"r r r J.U.U.U.U.U.S . @ , r r @.U.Y.Y.Y.Y.J.r r r p.p.p.O.^ ) 3 o o , r r r r r , o o e U.U.J.r r r ",
"r r r U.Q.Q.Q.Q.Q.S . . : r r *.Q.Q.Q.Q.Q.U.r r r h.z.z.O.[ / = . . < r r r r r , . . q Q.Q.U.r r r ",
"r r r U.Q.Q.Q.Q.Q.S . . % r r *.Q.Q.Q.Q.Q.U.r r r h.h.z.O.^ ^ =     : r r r r r , . . q Q.Q.U.r r r ",
"r r r U.Q.Q.F.B.n.9. . .Z r r *.Q.Q.U.V.V.v.r r r 2 - - = = = 2 6 < 3.G.G.*.r r T j.j.k.B.B.n.9.6.9.",
"r r r U.Q.Q.B.h.h.h.h.h.( r r *.Q.Q.L.v.z.p.r r 7             2 r r x.W.W.3.r r *.Q.Q.U.h.h.h.h.h.h.",
"r r r U.Q.Q.B.h.h.h.h.h.^ r r *.Q.Q.L.h.h.p.r r 7             < r r x.Q.Q.7.r r *.Q.Q.P.h.h.h.h.h.h.",
"% % %  .*.*.<.>.>.>.>.>.H r r j D D P h.h.p.Y Y Y < < < -.1.1.l.x.x.B.Z.Z.{ % + 9 S S L >.>.6.h.h.h.",
"    . 4 r r ^ / / / ^ / M r r , X   * z.h.f./ / ^ r r r U.Q.W.W.Q.Q.Z.h.h.K .   . .   = / / O.h.h.h.",
"      4 r r ^ ^ / / / / M r r ,     3 h.h.f./ / ^ r r r U.Q.Q.W.Q.Q.Z.z.h.K .       . = / / O.h.h.h.",
"% & & R ) ) c s a a a a y r r 4 * * 3 F F F a a s r r r N.H.H.H.G.F.d.6.6.F % , + . . $ M M Z ( ( ( ",
"r r r p.h.h.-           % r r r r r 1           . r r r p.h.h.h.h.h.>.( / M r r : . . + r r r r r r ",
"r r r p.h.h.-           % t r r r r < .           r r r p.h.h.h.h.h.:./ / M r r <     + r r r r r r ",
"r r r ` %.%.1 # % d S S ~ *.*.Q r r 4 .     % # % *.*.*.f.h.h.p.q.q.@./ / M r r : # % 0 *.*.=.R I I ",
"r r r r r r r r r x.Q.Q.Q.Q.Q.x.r r 1   . . r r r Q.Q.Q.v.h.h.:./ / / / / M r r r r r { Q.Q.E.h.h.h.",
"r r r r r r r r r x.Q.Q.Q.Q.Q.x.r r <   . . r r r Q.Q.Q.n.h.h.@./ ^ / / / M r r r r r [ Q.Q.E.h.h.h.",
"M M M M M M i r r t.A.A.J.P.P.m.^ ^ n . . @ r r r P.P.P.v.h.h.! B F F F Z h t r n / / 3.P.P.J.9.6.5.",
"h.h.z. ./ ^ M r r ! ^ ^ 9.z.h.Z.Q.Q.j.. . . r r r v.v.h.h.h.h.-     .     % r r *.Q.W.I.h.z.p.r r r ",
"h.h.h. .^ { M r r Y / / 6.z.h.A.Q.Q.j.. . O r r r z.z.z.h.h.h.- . . .   . % r r *.W.Q.P.z.h.i.r r r ",
"6.9.9.) { ^ M r r I Y Y >.d.f.z.D.D.4.. . O r r r 9.9.5.s.f.s.1 o . @ # $ 0 Z Z 3.R.R.J.h.f.u.r r r ",
"    . 5 r r r r r % . . a / ^ z     @ r r r r r r .     Q ^ } B r r c.Q.W.W.Q.Q.L.z.h.p.( / ) r r r ",
"    . 5 r r r r r +     a / ^ z     @ r r r r r r .     T ^ ^ B r r x.Q.Q.Q.Q.Q.L.z.h.p./ / ^ r r r ",
"      5 r r r r r %   . a ^ ^ z     + r r r r r r .     E ) ^ B r r l.Q.Q.Q.Q.Q.J.h.z.i.^ ) ) r r r ",
"r r r o     j.Q.Q.*.6 r % .   $ r r ^ Q.Q.U.r r r r r r r r r r r r =.h.h.h.h.h.q./ ^ ^ r r 4     . ",
"r r r o . . j.Q.Q.*.r r ,     $ r r ^ Q.Q.U.r r r r r r r r r r r r :.h.h.h.h.h.r.^ ^ ^ r r 4       ",
"r r r o   . j.Q.Q.>.r r % .   $ r r ( Q.Q.U.r r r r r r r r r r r r :.h.h.h.h.h.r.^ ^ ^ r r 7       ",
"r r r M.D.D.R.Q.Q.R.U.U.,.5 4  .R.R.R.W.Q.Q.R.U.I.O   O M.U.U.e o o 4 i k i i k h k k y . @ # 5.5.<.",
"r r r U.Q.Q.Q.Q.Q.Q.Q.Q.3.r r *.W.Q.Q.Q.Q.Q.Q.Q.Q..     D.W.Q.q     < r t r t r r r r 4     O h.h.h.",
"r r r U.Q.Q.Q.Q.Q.Q.Q.Q.3.r 7 *.Q.Q.Q.Q.Q.Q.Q.Q.Q.      D.Q.Q.q     < r r r r r r r r , .   O h.h.h.",
"# @ @ s.B.B.B.B.B.B.B.B.~ + # v B.B.B.B.B.B.B.B.V., 6 , R ^ ^ u 4 , % # O  .G.G.e.r r 5 4 , 5 M M B ",
"      5.h.h.h.h.h.h.h.h.K .   a h.h.h.h.h.h.h.h.h.r r r r r r r r r %     X.Q.Q.l.r r r r r r r r r ",
"      5.h.h.h.h.h.h.h.h.K .   a h.h.h.h.h.h.h.z.h.r r r r r r r r r +     X.Q.Q.l.r r r r r r r r r ",
"W W E @.>.>.>.>.>._ I I h : < y Y I ^ >.>.@.s s s # % $ 5 r r r r r ^ 2.2.;.*.*.G % + : r r k l.c.z.",
"h.h.z.O./ / / / / Z r r r r r r r r V / ^ Y .           5 r r r r r l.Q.Q.3.r r <   . + r r Z Q.Q.Q.",
"h.h.g.O./ / / / ^ Z r r r r r r r r B [ ^ T             5 r r r r r c.W.Q.3.r r , . . o r r V Q.W.W.",
"9.9.6.I M Z M M M p & & F 3.3.( r r f B B n * * & X.X.X.h r r < & & y.Q.Q.M.3.3.,.X.X.] r r b G.H.H.",
") / / k r r r r r O .   X.Q.W.l.r r r r r r r r r W.Q.Q.Z r r # .   2.Q.Q.Q.Q.Q.Q.Q.Q.G.r r i h.h.h.",
"^ / / j r r r r r & . . X.Q.Q.l.r r r r r r r r r W.Q.Q.V r r o .   2.Q.Q.Q.Q.Q.Q.Q.Q.G.r r k h.h.h.",
"Y Y Q f r r , : , 8 s s ;.L.L.n.>.*.*.@.,.*.*.*.*.x.x.x.y , , x V S w.P.P.J.J.P.x.2.2...< < 4 %.=.=.",
"r r r r r r #     T h.z.h.h.h.H.Q.Q.Q.W.Q.Q.Q.Q.Q.r r r o . . j.Q.Q.Z.h.h.h.h.h.P O         o 5 r r ",
"r r r r r r O     P z.z.h.z.h.Z.Q.Q.Q.Q.Q.Q.Q.Q.Q.r r r o . . k.Q.Q.Z.h.h.h.h.h.E           o r r r ",
"M M M r r r a 9 9 } i.i.p.p.p.h.G.G.J.P.Y.L.A.A.A.r r 4 % + o a.P.P.B.h.h.f.i.i.E @ # # - - 2 r r r ",
"h.h.h.h r r G.Q.Q.t./ / ^ / / T r r M h.h.f./ { ( r r r r r r 6.v.h.h.h.h.9./ / Q r r V ^ ^ { 7 r r ",
"h.h.h.i r r G.Q.Q.t./ ^ / / / Y r r M h.h.d./ ^ ^ r r r r r r 6.z.z.h.h.z.6./ / Y r r V ^ [ { r r r ",
"p.p.p.i r r N.I.U.w.{ { { { ^ Y r r b p.i.u.{ { ^ r r r r r r :.p.p.p.p.p.>.{ ^ Y r r n { { { r r r ",
"r r t t r r r r r r r r r r r r r r r r r r r r r r r r r r r r r r r r r r r r r r r r r r r r r r ",
"r r r r r r r r r r r r r r r r r r r r r r r r r r r r r r r r r r r r r r r r r r r r r r r r r r ",
"r r r r r r r r r r r r r r r r r r r r r r r r r r r r r r r r r r r r r r r r r r r r r r r r r r "
};
