/* XPM */
static char *_d512445410246bbd8b3cffc38463c09dFAps3SlQqhWUSgh[] = {
/* columns rows colors chars-per-pixel */
"50 50 92 1 ",
"  c #272425",
". c #272525",
"X c #282526",
"o c #282727",
"O c #282728",
"+ c #29292A",
"@ c #2C2A2B",
"# c #2E2B2C",
"$ c #312E30",
"% c #353233",
"& c #363235",
"* c #373336",
"= c #373435",
"- c #393335",
"; c #393537",
": c #393539",
"> c #3C3638",
", c #3B383C",
"< c #3C383C",
"1 c #3C393D",
"2 c #3F3B3D",
"3 c #3F3C3F",
"4 c #413A3D",
"5 c #423C3F",
"6 c #3E3B40",
"7 c #3F3C41",
"8 c #3F3D41",
"9 c #423D40",
"0 c #433D40",
"q c #403E43",
"w c #443E41",
"e c #453F43",
"r c #413F44",
"t c #444044",
"y c #454145",
"u c #454346",
"i c #484346",
"p c #484447",
"a c #4A4448",
"s c #4B4549",
"d c #49464A",
"f c #4A474A",
"g c #4A474B",
"h c #4C464A",
"j c #4C474B",
"k c #4C484B",
"l c #4C484C",
"z c #4D494D",
"x c #4F4B4F",
"c c #504A4F",
"v c #504C4F",
"b c #4F4C50",
"n c #504C51",
"m c #504D51",
"M c #534D52",
"N c #514E53",
"B c #534E53",
"V c #534F53",
"C c #535054",
"Z c #545156",
"A c #555256",
"S c #555257",
"D c #565357",
"F c #575358",
"G c #575459",
"H c #585358",
"J c #595459",
"K c #585559",
"L c #59555A",
"P c #59565B",
"I c #5A575B",
"U c #5B565C",
"Y c #5A575C",
"T c #5B585D",
"R c #5D585E",
"E c #5D5A60",
"W c #5E5C61",
"Q c #615E64",
"! c #615F65",
"~ c #636166",
"^ c #636167",
"/ c #656268",
"( c #69676D",
") c #6A686E",
"_ c #6E6C73",
"` c #706E76",
"' c #717077",
"] c #727178",
"[ c #75747B",
"{ c #75747C",
"} c #76747C",
"| c #78777F",
/* pixels */
"||||||sRRRRRRerrrrrr0L||||||T|||||||lRRRRRRsrt78tr",
"||||||pRRERRRerrrrrrrL|||||}T|||||||zRRRRRRs7rttrr",
"sspLLTAAFyFFFAZZA:eeyyss2sssyssstTTTALGdZLGAZZA2tu",
"RRL||||||P|||||||sRRRRRRsTRRRRRRG|}|}|}/_||}|||bEP",
"RRL||||||P|||}|||lRRRRRRsRRRRRRRG||||||~_|}||||bEE",
"FGA]'''']G]]]]]]'pHHHHHHyAHFLAHLb'_]]`]R_]]]]]]lFF",
"!!~W~~z~^WW~~9...X...i!!!!~!j!!!W^~~s~/!W~~l..    ",
"||||}|R}|||||b+++++++A||||||P|||||||T}||}||W+++++O",
"|}||}}R}|||||bO++++++G}{||||H|||}|||P|}||||E++++++",
"!!!!~~z~~W!~!r..O..X.y/~!!!!j!Q!!~~!s!!!!^Wl  ..  ",
"LHA]]]]']b7777777b]]]]]]LHHLJJHHn]]]]]]E6788777s]]",
"RRL||||||FrrrrrrrA|||}||RRRRRRRRG||||||/78rrr88l||",
"RRL|||}||G7t7t7q9N||||||RRRRRRRRA{|||||!78rr8trd||",
"002nnnGTLp233:372uPPLARLajjji0052bnnAPRb:27:1336EP",
"++++++R||||||P|||||||R||||||A+++++++b|||||{E}|||||",
"++++++T||||||G|||||||R|||||}H+++++++b||||||E}|||||",
"++++++R||||||P|||||||T||||||G+++++++b||||||W{|||||",
"##%377bRTNRPRbPRRbTTTbTTbpgp1###$093lTTZGTTbTTTbTT",
"ttG||||||T|||||||T||||||Ttrrrr8tn||||||~_||||||T||",
"7tL||||||P|||||||T||||||Etrrrrrrn||||||~]||||||T||",
"rrG|}||||P||}||||T}|||||Er8tr8rrn||||||~_||||||P||",
"bZZTRL0zzpzzl4777:777dITSZbb8ZZbMRPP0zluzzz9276179",
"||}|||yRRRRREerrtrrrtG||||||E|||||||zERRRRRs97trrr",
"||||||jRRRRREerr7trr7G||||||P|||||||lRRRRRRs7ttrrr",
"}{}}}}yRPPRPR909979q0A{[{{{{L{{{}{{{sPPRTPPs790977",
"ssuWEEEREjEEEEEEE2sajijs1dsssssseEEEEEEbGEEEWEW5ss",
"TRL||||||P|||||||sRRRRRRpPERRRRRA||||||^_||||||nER",
"ETL||||||P|||||||lRRRRRRpEERRRRRA||||||^]||||||nTR",
"bbl//////z///////9nbcccc4zccznncs/////^FE//////ynb",
"______A______sOO+ OO+z______n`______N______FOOOOXO",
"||||||T||||||b+++++++H||||||L|||||||R||||||EO+++++",
"||||||R||||||b+++++++A||||||R|||||||T||||||E++++++",
"GGGLIIuTGGZZS3...O++#tTTGGGGyLHLFPPPsLTGDDSt...++#",
"RRL||||||Drrrrt97Z||||||TERRRRRRA}|||||~7trrtt8d||",
"RRL||||||DtrrrrrrZ||||||RRRRRRRRA|||||}~1rrrrrud||",
"RRL||||||DtrrrrrrS||||||TRRRRRRRA||||||~78rrr88l||",
"1;;yuuZTTbttt1tttlTTEbTTbvnvy>:>&yuunRTZeer7urelTT",
"++++++R||||||T|||||||T||||||G+++++++b||||||E{|||||",
"++++++R||||||T|||||||T||||||A+++++++b||||||E{|||||",
"++++++R||||||T|||||||P||||||A+++++++b||||||E{|||||",
"$$:lllHPTlTTTZTTTlTTTSTTlreq:$$$*sljnRRnFTPFTTTlTT",
"rrG|}||||T|||||||P||||||Er8rerrrb||||||/]||||||T||",
"rrF||||||P|||||||T||||||Perrrrrrb||||||~`||||||T||",
"rrL||||||T|||||||P||||||Errrrrreb||||||/`||||||T||",
"PPRPPR>iaiyat:&;:&&:*yTPPEFPeEHPPTPT4ia0yss,*:&&&*",
"||||||aRRRREEtt58u7rtG}|||||P||||||}jRRRRRTs7tr8rr",
"||||||aRRRWEE98t88r8tG|||}||U||||}||lERERREs77rr7t",
"((((((4MnMbbb11111111l(((((_n((())))0AnnNbb91111,2",
"NVn(()))(n)))))))yVVVVVM9VVMVMMMz))))))G^))))))sZn",
"RRL||||||R|||||||jRRRRRRaRRRRERRA||||||~`||||||nRR"
};
