/* XPM */
static char *d0c8f6b1cd19496de12bba5110e2180eKPmURr373mlWVwoX[] = {
/* columns rows colors chars-per-pixel */
"50 50 222 2 ",
"   c #010101",
".  c #0B0303",
"X  c #090908",
"o  c #1B0504",
"O  c #1B1412",
"+  c #2A0404",
"@  c #370C0B",
"#  c #261C19",
"$  c #042337",
"%  c #04253A",
"&  c #09253A",
"*  c #05283F",
"=  c #11283E",
"-  c #352732",
";  c #480404",
":  c #590303",
">  c #660203",
",  c #790809",
"<  c #681715",
"1  c #7C1C26",
"2  c #4F2A31",
"3  c #7D212D",
"4  c #7D2737",
"5  c #722930",
"6  c #50433A",
"7  c #7A413A",
"8  c #042B44",
"9  c #092C44",
"0  c #052E49",
"q  c #0B2F4A",
"w  c #06314C",
"e  c #09314C",
"r  c #063552",
"t  c #093552",
"y  c #073857",
"u  c #053A5B",
"i  c #093C5D",
"p  c #153D5D",
"a  c #272F48",
"s  c #283B59",
"d  c #363956",
"f  c #043E61",
"g  c #093F61",
"h  c #133F60",
"j  c #4C354F",
"k  c #56324A",
"l  c #593955",
"z  c #6A2E42",
"x  c #653045",
"c  c #044165",
"v  c #0A4164",
"b  c #02446A",
"n  c #09456B",
"m  c #06486F",
"M  c #164367",
"N  c #054B75",
"B  c #094A74",
"V  c #054E79",
"C  c #0A4F7B",
"Z  c #1B4A73",
"A  c #04517E",
"S  c #0A517D",
"D  c #2B466A",
"F  c #595349",
"G  c #63554A",
"H  c #6E5B4F",
"J  c #6C6256",
"K  c #746357",
"L  c #7D4E72",
"P  c #7D7364",
"I  c #850909",
"U  c #920C0C",
"Y  c #8B1B19",
"T  c #AA0E0E",
"R  c #BB0D0E",
"E  c #AD1312",
"W  c #A91B19",
"Q  c #B71716",
"!  c #9C211E",
"~  c #A9201E",
"^  c #B4211E",
"/  c #9B1B24",
"(  c #A61C24",
")  c #952C27",
"_  c #9C342F",
"`  c #852838",
"'  c #8B293A",
"]  c #952939",
"[  c #AA282A",
"{  c #A6312C",
"}  c #A82633",
"|  c #B62735",
" . c #C90B0C",
".. c #DE0708",
"X. c #D70809",
"o. c #C81719",
"O. c #DB171A",
"+. c #E40305",
"@. c #EB0507",
"#. c #E70608",
"$. c #ED090A",
"%. c #F70908",
"&. c #FE0C0B",
"*. c #FF110E",
"=. c #FE0F10",
"-. c #E91719",
";. c #E6191C",
":. c #F51516",
">. c #FE1515",
",. c #F41718",
"<. c #FA1718",
"1. c #F8191B",
"2. c #FE1919",
"3. c #C51F28",
"4. c #DC1B20",
"5. c #EA1D22",
"6. c #C7222B",
"7. c #D72225",
"8. c #C52A38",
"9. c #E2222A",
"0. c #85413A",
"q. c #98423B",
"w. c #AF463E",
"e. c #873147",
"r. c #933248",
"t. c #AD384E",
"y. c #95504F",
"u. c #B6544B",
"i. c #AA5A50",
"p. c #B65E53",
"a. c #91675B",
"s. c #AA685B",
"d. c #B0665A",
"f. c #894A6B",
"g. c #9C6D60",
"h. c #857364",
"j. c #8B7B6C",
"k. c #9B7668",
"l. c #947C6C",
"z. c #A87869",
"x. c #B57668",
"c. c #8B8373",
"v. c #9D8776",
"b. c #A68B7A",
"n. c #AD917F",
"m. c #045584",
"M. c #0A5583",
"N. c #04598A",
"B. c #095C8E",
"V. c #105582",
"C. c #055E92",
"Z. c #095E91",
"A. c #335B8E",
"S. c #096296",
"D. c #06649C",
"F. c #0B639B",
"G. c #376298",
"H. c #0568A4",
"J. c #0C69A4",
"K. c #0B6DAC",
"L. c #166CA9",
"P. c #0D70AF",
"I. c #1270AF",
"U. c #0B73B2",
"Y. c #0776B8",
"T. c #047CBE",
"R. c #0B7BBB",
"E. c #1378B6",
"W. c #127CBD",
"Q. c #2972AC",
"!. c #595681",
"~. c #685883",
"^. c #426495",
"/. c #087FC2",
"(. c #117FC0",
"). c #0783C7",
"_. c #0E82C5",
"`. c #1282C4",
"'. c #1186CA",
"]. c #008DD8",
"[. c #138BD3",
"{. c #0095E2",
"}. c #AC9582",
"|. c #B59B88",
" X c #A7A08C",
".X c #B8A28E",
"XX c #BDAA95",
"oX c #C29B87",
"OX c #C3AB95",
"+X c #C5AB96",
"@X c #C9B29B",
"#X c #D1B69F",
"$X c #FFB39D",
"%X c #CBBBA4",
"&X c #D7BDA5",
"*X c #CDC4AC",
"=X c #D5C6AD",
"-X c #DDC2AA",
";X c #D9CBB1",
":X c #DAD6BB",
">X c #E1C6AD",
",X c #F4C6AD",
"<X c #E5CCB2",
"1X c #EACCB3",
"2X c #F8CAB1",
"3X c #ECD1B7",
"4X c #E6D6BB",
"5X c #F1D6BB",
"6X c #F4D9BE",
"7X c #F8DBBF",
"8X c #E6DCC1",
"9X c #EADEC2",
"0X c #F7DCC1",
"qX c #FADEC2",
"wX c #E2E5C8",
"eX c #FCE1C5",
"rX c #F4E5C9",
"tX c #FFE6C9",
"yX c #FEEBCD",
"uX c #FFEED1",
"iX c #FFF2D3",
"pX c #FFFADB",
/* pixels */
"% % % & % % % % % % % % % % * % % % % % % % $ % % % & % % $ % $ % $ $ % % $ % * - 1 & % 8 % % % % % ",
"% % % % w n y 0 w t q % 8 w w w w w w w * 0 g M.C f m m m m m m B V u % r f u 3 >.k r q 0 0 r g r % ",
"% % * 8 n J.M.g g g g * w g g g g g g g 0 y (.(.(.Y.E.Y.Y.R.Y.Y._.[.M.8 A V.| *.r.m.n v g g N K.N % ",
"* % 8 S Z.S n g g g y 8 w f g g g g g g 0 y U.(.(././.E.R.R.R.R._.[.V.w Z 7.*.;.Z m v v g g N P.V % ",
"% w g Z.B.v g v g g g * t g g g g g g g q r H./.(.(././.R.R.R.R.`.[.m.q 6.=.=.e.V v v v v v B K.N % ",
"% n J.V.v v v v g g g 8 q g g g g g g g 0 r H./././.E.!.E.R.R.R.[.{.D 3.>.<.<.d b g v v v v B K.N % ",
"% u C n g g g g g g y * w g f f g g g g 0 w H./.Q.f.<.t././.).R.G.f.,.>.>.>.-.i f g v i v M.J.Y.N % ",
"% t B C C M.C V.M.M.g 8 r M.V.M.M.M.M.C t u Y.~.5.%.t.].(.~.y.5.>.&.>.>.>.>.} V C C C C S J.R.R.N % ",
"% g U.U.K.P.P.P.P.U.F.w f U.Y.U.K.U.P.J.f a 8.=.=.8.W.f.5.>.&.>.>.1.>.>.<.&.L Y.I.U.K.K.K.U.E.E.B & ",
"% r B B B B B B B B g 8 r N l Z V B N N x :.>.2.1.r.5.&.2.2.<.>.>.>.2.>.<.=.e.V B B B B C N N B y % ",
"% % 8 8 8 & 0 w w w w q 8 - :.= 8 8 8 ( >.>.<.>.,.=.>.1.>.>.>.>.>.2.>.2.<.>.` r q e 8 $ & 8 8 8 8 % ",
"% q y g g g B.K.H.K.F.g f } =.s f p 3.>.<.>.>.>.>.2.>.>.>.>.>.>.>.2.>.>.<.&.e.H.I.J.g $ 8 0 i g 8 % ",
"% w g n g n M.Z.m.F.K.f s 1.=.j p 4.>.>.>.>.2.>.>.>.>.>.>.>.>.2.2.>.>.>.<.=.8.Z.Z.Z.g $ % y v v w % ",
"% w g g g g g y * M.L.M.' >.<.x 3.&.<.>.>.2.>.>.>.>.2.>.>.2.>.>.>.>.2.>.>.=.3.g g g r 8 % r v v w % ",
"% 0 g g g g g y * M.K.h -.>.<.-.>.1.>.>.2.2.2.2.2.2.>.>.>.>.>.>.>.2.>.>.<.>.3.g ' h N.M.8 r v v w & ",
"% u M.M.Z.M.B u 8 M.Y.z =.<.>.>.>.>.=.%.#.#.+.+.@.=.>.2.2.>.>.2.>.>.>.>.>.=.} k =.D H.Z.8 t n v w 8 ",
"8 g K.K.K.J.C y 8 A A.<.*.>.2.2.&. .{ p.x.v.l.k.d._ W X.%.2.2.>.>.>.>.>.<.>.' 6.>.k H.Z.0 t g v t % ",
"% 8 f f f f r % $ r 6.*.<.2.2..._ @X8XuXiXuXuXiXuX9X;Xn._  .>.2.>.>.>.>.>.:.o.>.>.2 u y % t v v w % ",
"% w g 8 8 u g g b 4 *.<.<.2. .z.rXuXqXqXqXqXqXqXqXeXtXuXrX|.) $.2.>.>.2.>.:.>.>.=.k f y 8 r v g w $ ",
"$ V R.g g J.I.Y.G.1.*.>.2. .n.iXeXqXqXeXeXeXqXeXeXeXeXqXqXyX:Xy.X.2.>.>.>.>.2.>.<.L.Y.C.8 t n v r % ",
"$ M.`.c t M.V.D.t.&.<.2. .b.uX7XqXeXeXeXeXeXeXeXeXeXqXeXqXqXtXrXg.X.2.>.>.2.2.*.5.E./.F.0 u V V u % ",
"$ M.`.v 9 i b D 1.<.2.$.s.uX7XeXeXeXeXeXeXeXeXeXeXeXeXeXeXeXqXeXiXg...2.>.>.<.*.t././.S.0 c N.N.u $ ",
"% S `.c 8 i b ` *.:.*.~ :XeXqXeXeXeXeXeXeXeXeXeXeXeXeXeXeXeXeXqXeXrXq.&.2.>.<.&.L /.R.S.0 c N.N.i $ ",
"$ S '.n 8 v v 4.>.2.+.z.uXqXeXeXqXeXeXeXeXeXeXqXeXeXqXqXqXqXeXeXeXtX%XE >.<.>.2.^.T.R.S.0 c N.N.c % ",
"$ B U.i 9 u d <.>.>.T =XrXqXyXqXeXqXeXeXeXeXeXeXqX0XeXiXiXyX6XeX0X0XuXy.$.2.>.,.E.R./.S.8 f V m.u % ",
"% 0 y 8 & 8 3 >.<.&.w.;X` # @XyXqXeXeXeXeXqXeXqXqXiX3Xb.h.&X-X+X|.>XuX@XR 2.>.1.Q.R.R.S.8 8 8 8 8 $ ",
"% * 9 0 0 w ` *.>.+.l.u.:   O <XtX0XeXeXqXtXqXeXtXj.O     X }.b.b.&XuX8X{ >.<.&.L ].'.J.0 u m m r % ",
"% w v v i b ` *.>.-.b.Q o     K iXtXqXeXtX3X.XqX6       X   G @X-Xl.6XyXp.$.2.>.9.`.'.J.w N./.T.V % ",
"% w v v v b ] *.=.7.oXo.  + > # 1X-XtXqXyXv.-XG   + +   .   F tXtX&X-XpXz.+.2.>.,.s b i 8 m.Y.Y.N $ ",
"% 0 v v v b ` *.>.[ +XQ   I >.: c.v.yXyX}.v.+X  o -.:.+     G yXqXtXeXiXx.+.2.>.>.2 8 9 w V S.S.c % ",
"% w g g i b ` 2.>.o.*XW . , 2., G |.tXyXn.}.G   , 2.>.;     h.iXqXqXqXrXi.%.2.>.1.d f g g v n n w % ",
"% * 8 0 9 w 3 >.>.o.%Xu.:   E @ P eXeXqXtX5X# . ; 2.T     . &XyXeXqXeX4X( =.<.>.,.g g g g g v v w % ",
"% 0 u u t * 2 <.>.X.|.-XI o     XXuX7XeXeX4X< .   .       l.iX3X+XtXiXz...2.<.*.| m.C C C C C M.y % ",
"% c P.P.m.0 f 5.2.@.x.pXoX<   - -XtXiXeXeXtXs.; .       h.yXeXXX.XpXXXE >.>.>.*.D T.L.L.P.I.P.K.B % ",
"$ m R./.S.9 b _ >.>.[ 5XuX<X-XOXn.5Xc.6XyX@X.Xs.< o 2 XXiXqX|.l.rXXXW >.>.<.*.} D r.} B B B B B y % ",
"$ m R.R.B.0 u d >.>.X.b.tXyX>Xb.rXi.  G yX6Xj..X<X5XtXuX6X}.K }.z.R >.>.<.>.-.( 2.5.a 0 8 0 0 0 * % ",
"$ m R.R.B.0 c A } >.>.~ P <X5XeX8XY o X 3XyXeX.X#XtX7XtX<Xh.< ^ $.>.2.>.>.>.,.*.6.N m.V V m.V m.y % ",
"$ m R./.B.0 b A s :.2.*.) c.3XtX4X! +   |.yXqXyXtXtXyX<Xa. Xw.&.2.>.>.>.>.<.*.| M.N.N.N.V N m.F.m $ ",
"$ m R.R.B.0 c S b k >.2.*._ #XtXyXs.: . .XyXqXqXeX6XK X I 7Xd.@.2.>.>.>.>.>.} A N.m.N.C n g C J.N $ ",
"$ m R.R.B.0 y m v b 4 >.<.&.{ 9XtX6Xy.H eXeXeX0XuXj.    I ,Xb.+.2.>.2.>.>.] b c n n n n g Z.Z.g w % ",
"$ m R.R.B.w t v v v v -.2.>.Q <XtXtXyXrXtXtXeX7XiXP     U ,Xx.@.2.>.>.>.' b v v g g g n M.B.B 9 % % ",
"$ m R.R.C.8 t v v v h ;.>.2. .@X3X0X#X3X5XOXeXeXpXK   o W 9Xu.%.2.>.>.[ f g g i g g g B J.B 8 % % % ",
"$ m R./.C.8 t v v v h O.2.2.$.0.G 3Xv.3XeXv.<X*X|.O   U $X:X[ >.:.2.$.= 0 8 0 0 0 8 8 w i 0 $ $ $ % ",
"% i S.U.B.0 y m v g b ] *.2.%.p.J a.G h.v.2 h.v.&XF 7 2XwXq.$.2.2.*.d r r r w * r n f g f n n g t % ",
"% % u D.S.8 c A v v b z *.<.&.w.;Xb.%XK 5X|.@XiXtXtXyX}./ %.2.>.*.l m.A A M.S 0 B `.R.U.U._.'.R.N $ ",
"% u B.U.B.0 b M.S b v M ;.2.2.+.k.<XtX1XrXyXtXiX4X|._  .=.2.>.>.k V B V N.N.A w S [.).R.R._.'./.V $ ",
"$ m U.T.B.0 b N.m.S v b l *.<.>. .a.*X8X4X;X|.s.! X.&.2.<.=.1.j b h g n A N.A 0 S [._.R.R.R.R.R.V & ",
"$ u C.Y.S.0 b N.m.m.A v b ' >.>.2.#.E ! ! E X.@.>.2.<.>.>.3.s f v v g n m.N.A 0 V [.'.R.R./.R.R.V % ",
"% 0 i N c * r f i f u r w w 5 :.*.2.>.*.>.>.>.2.>.>.>.O.5 w w w w e w r u i f * u S S V V N V V y $ ",
"% % % % $ % $ % % % % % % % % - / ,.2.:.<.>.>.>.-./ 2 $ 8 % $ $ % % % % $ % % % % % % % $ $ % % % % "
};
