/* XPM */
static char *addf5cbb908c426492cf2a3dbfd909e0UxaTqNvPMwS184QK[] = {
/* columns rows colors chars-per-pixel */
"50 50 66 1 ",
"  c #042337",
". c #04253A",
"X c #05293F",
"o c #052B44",
"O c #052E49",
"+ c #06314C",
"@ c #063552",
"# c #083654",
"$ c #063857",
"% c #083857",
"& c #063A5B",
"* c #093C5D",
"= c #053E61",
"- c #093F61",
"; c #054166",
": c #094164",
"> c #05456B",
", c #09456B",
"< c #06486F",
"1 c #0A486F",
"2 c #044771",
"3 c #064B74",
"4 c #094A74",
"5 c #064E79",
"6 c #0A4F7B",
"7 c #05517D",
"8 c #0A517C",
"9 c #055584",
"0 c #0B5583",
"q c #0C5887",
"w c #055788",
"e c #05598A",
"r c #0B5C8D",
"t c #075D93",
"y c #0A5E92",
"u c #0A6296",
"i c #056199",
"p c #0B639B",
"a c #0B699F",
"s c #0667A2",
"d c #0B67A1",
"f c #0569A6",
"g c #0C69A4",
"h c #0569A8",
"j c #0B6EAC",
"k c #106DAA",
"l c #0D70AF",
"z c #1074AE",
"x c #0671B4",
"c c #0C72B2",
"v c #0A79B7",
"b c #0575BA",
"n c #0D77BA",
"m c #0B7BBC",
"M c #1172B2",
"N c #1177BA",
"B c #117DBC",
"V c #0C7EC1",
"C c #117FC0",
"Z c #0D81C4",
"A c #0E85CA",
"S c #0E88CF",
"D c #1183C6",
"F c #1285C9",
"G c #1089CF",
"H c #128CD4",
/* pixels */
"..... .................. .    .   .X . .. .....  .",
"... +,*O+#O.o++#++++Xo-06=<222<<38&.@&&&&&+O+O@>@.",
"..Xo1g8---%X+-------O%VCCnnnvvvvZG8O7e9797<:--4h5 ",
"..o0y61----X+-------+%lVCVbVmmmmZH0o7eee7<::,-4j5 ",
".+-yq:-:---o#-------#&hVVmmmmmmmZH0+rt563::::-4j5 ",
".,k0::::---o+-------+%hVVmmmmmmmZH0+gy:,::::::4c5 ",
".%6-------&X+-&-----O@hVCmmmmmmmZH0o44--=:=-:0gc3 ",
".#66660000-X#000q00-+%jVDZZZZZZZAH0o486688888gmm5 ",
" -lclllllMpO=MMlcljj;&vHHHHHHHHHHS8+dcjcllzcccnN4 ",
".#46444444=o#6444442+o40q80q0qqq09@o>34344446444$.",
"..ooo.O+++@oXXoOo.o+@++++@o.OO.XOoOoooO+@OX  XXXo.",
".O-%--rjhhd-%----*4ghffsff5Oreo=9559779slg: X+**O.",
".O---1qy9pM----4::4yuytttu4#03o=6655560ypy% X@::O.",
".+-----%X0N--------::::::::-:$X$::--------@oX$::@.",
".O-----%X9k6-6--:-:::-::::-::$X@:::----:-,q9o+::O.",
".%qwrq4%X9j-----:::::::::::::$X#::::-,::-,gtO#::@ ",
"X=hjkg0#o0g,-----------*-----#.#------&:-:pyO+;:+.",
"XO==-*+o O-OooOOOOOOOOOOOOOOOo oOooOoooooo&%o@::+.",
" +-Xo&--------o .  .  .  ... O*#O*Oo*:::===@X+::+.",
" 0C--gMkMlMMMd% X.XXXXXX...X -d64g4+kNMvxcbyO@::+.",
" 0V-#0qpNdyNkq-########o.+###:q16z4@zDmmmmZi+&55&.",
" 0C-o--4d0-dq:--:-:::-:+o*:::---8l4+zZmmmmmu+;ee*.",
" 0C-O--111-6,-::-:-::-:Oo*:::::-8l4@zZmmmmVuO;ee&.",
" qH-+-------:::::::::::#.%:-:::-8l<@zCmmmvmiO;ee=.",
" 4c-o%--******&*****&&&OO:1::::-8c4@zCmmmmmu+=77&.",
".O%o.oooooooXooooXoXooo.Opy:-::*6j4+zVvmmmmuoXOOX.",
".oOO++oOOO@:-$X@4&++@&&o+kMq1::8uc<$NGAAAASgO$2<@.",
".O-------*4jg9O5Fq:;39e&OdmM8::pnx<+lFFFAASd+9mm5 ",
".+-----1:-4zNa@6Fr::8ee&o,pNy2,pmc2o&::;::>@o9bb3.",
".#------:-1ugu+8Fr::3ee&X%8daq1pmx2o*@OOoooO+5ii;.",
".+------:-::::o8Fy-:3e9&X*:6gp1pmx<+ar-------:>>+.",
" oooO+++ooOOoO.8Fq-:894#X%-:86:pmx<O44-::-:----:+.",
" +-&@Xo@+++ooo.8Fq::16:+o<88688gmx2o466866666668&.",
" -jc7O;7775:-&X8Fr:::::++pvcccccnx2OpcjjjccclllM<.",
" 2vVyO*353<::-X8Fr-:14:+o>6345443>@o>34344444444@X",
" <vVto&,;-:::;X8Fr::68:+.XXoo.ooo@@OOoOOOoOoOOoOX.",
".<vVtO;7:::-:-X8Fr-:,::+X%******4dcf957755955777&.",
" <vmtO>7:::::-X8Fr-::::+X+%:::::4djs755weew9557s>.",
" <vVtO;7:::::-X8Fr-::::+..+-:::->995,::5e995-,6g1.",
".<vmro&>:::-:-X8Fr-::::+..O:::::-,,,:-:,><<,-rp:O.",
".<mmuO@::::::*X8Fr:::::+..O:::::::::::::--:10q6o .",
".<vmrX@::::-:-X4Bq-----+.XO:*-*:----=------4d1o.X.",
".<vmrO@;:::::-X@:$oOoooX. XXOXOOoOooooOoOoo@*O  ..",
".&uvrO&>:::::-XO&=$X.XX X%%OOOOXO@@@@@+X+,;&=:,:+.",
"XX$aeO;7:::::-X,lleO.X..+yr:*---:777797O4ZmxvDFm3.",
".$7vuO>e8,-;<3O1la4%#@#@*88:::::><<5we7+8HAmmZAV5.",
".>vmeO>ee5,;<5O,l8-:::::::--:::::::,9e7+6GAvmmvm5.",
".=evuO;ee78,::X<z8-:::::::::::::::->7r7O8GAmmmmV3.",
".O=<;X@=&=&O@OX@<&++++++@++++@+++++@***X&8835335&.",
".................................................."
};
