/* XPM */
static char *_317d7bb55794e70f9680649d648dfeeEkyDf9pxLG8uqCIh[] = {
/* columns rows colors chars-per-pixel */
"50 50 226 2 ",
"   c #020102",
".  c #0B0202",
"X  c #070709",
"o  c #0D0A0C",
"O  c #170706",
"+  c #130A0A",
"@  c #060C14",
"#  c #0C0D13",
"$  c #150E13",
"%  c #09121B",
"&  c #0D141C",
"*  c #141115",
"=  c #1B1317",
"-  c #13151D",
";  c #1B161C",
":  c #2A0A06",
">  c #380C04",
",  c #330E09",
"<  c #31100D",
"1  c #3C120D",
"2  c #200F10",
"3  c #28181C",
"4  c #361311",
"5  c #3B1512",
"6  c #331A1C",
"7  c #051725",
"8  c #0C1A25",
"9  c #0C1E2C",
"0  c #121720",
"q  c #131A24",
"w  c #1B1B24",
"e  c #131E2A",
"r  c #021F30",
"t  c #261B20",
"y  c #381F22",
"u  c #0E202F",
"i  c #1B222E",
"p  c #032236",
"a  c #0C2335",
"s  c #04253A",
"d  c #0C2639",
"f  c #05283F",
"g  c #0E2A3F",
"h  c #142433",
"j  c #192736",
"k  c #13293C",
"l  c #27222B",
"z  c #372B26",
"x  c #2B2934",
"c  c #232B3B",
"v  c #362C37",
"b  c #430C03",
"n  c #5A0F03",
"m  c #46120A",
"M  c #4A130B",
"N  c #53160C",
"B  c #59150A",
"V  c #5A170C",
"C  c #471915",
"Z  c #541B13",
"A  c #5C1B13",
"S  c #501D18",
"D  c #770C00",
"F  c #641507",
"G  c #6A1303",
"H  c #641A0E",
"J  c #6C1B0E",
"K  c #721605",
"L  c #741C0E",
"P  c #7D1D0D",
"I  c #651C12",
"U  c #6B1D11",
"Y  c #731F11",
"T  c #791F10",
"R  c #672219",
"E  c #752417",
"W  c #7D2112",
"Q  c #492425",
"!  c #632D22",
"~  c #723529",
"^  c #77493B",
"/  c #002740",
"(  c #052B44",
")  c #0B2D44",
"_  c #042F49",
"`  c #142C41",
"'  c #06314C",
"]  c #0A324C",
"[  c #133148",
"{  c #10344C",
"}  c #053553",
"|  c #093653",
" . c #063857",
".. c #0B3855",
"X. c #003758",
"o. c #053A5B",
"O. c #093C5D",
"+. c #133955",
"@. c #163A56",
"#. c #283548",
"$. c #043E61",
"%. c #093F61",
"&. c #054166",
"*. c #0A4164",
"=. c #05446B",
"-. c #09456B",
";. c #07486E",
":. c #0D486F",
">. c #164769",
",. c #074770",
"<. c #064B75",
"1. c #0A4B74",
"2. c #054E7A",
"3. c #0A4E7B",
"4. c #164D73",
"5. c #05517E",
"6. c #0A517D",
"7. c #175179",
"8. c #5C4E45",
"9. c #6A5247",
"0. c #79594C",
"q. c #766559",
"w. c #717270",
"e. c #8A1C08",
"r. c #9E1C05",
"t. c #8D210E",
"y. c #94220E",
"u. c #9B230D",
"i. c #842314",
"p. c #8C2413",
"a. c #882919",
"s. c #932514",
"d. c #9C2613",
"f. c #9C2916",
"g. c #952918",
"h. c #99301E",
"j. c #A6240B",
"k. c #AC240C",
"l. c #B9240C",
"z. c #A42A16",
"x. c #A92812",
"c. c #A32B18",
"v. c #AC2D19",
"b. c #B52C15",
"n. c #BB2D15",
"m. c #B32F1A",
"M. c #BE2F18",
"N. c #AF301C",
"B. c #B6301A",
"V. c #BD311B",
"C. c #8D3525",
"Z. c #9F3B28",
"A. c #CC2C0F",
"S. c #C22E15",
"D. c #C3331B",
"F. c #C9341B",
"G. c #CA351C",
"H. c #D2361C",
"J. c #D8371C",
"K. c #D3381F",
"L. c #CC3820",
"P. c #D24D34",
"I. c #9B6755",
"U. c #D8644A",
"Y. c #D46951",
"T. c #E56A50",
"R. c #968676",
"E. c #E6967B",
"W. c #055584",
"Q. c #0A5583",
"!. c #095887",
"~. c #05598A",
"^. c #0A5B8D",
"/. c #105C8B",
"(. c #055D92",
"). c #0A5E92",
"_. c #045F98",
"`. c #205D87",
"'. c #096294",
"]. c #05649B",
"[. c #0B639A",
"{. c #136398",
"}. c #0666A1",
"|. c #0D67A2",
" X c #056AA6",
".X c #0C69A4",
"XX c #046EAB",
"oX c #0B6DAC",
"OX c #116BA4",
"+X c #0C71AF",
"@X c #1073AE",
"#X c #066FB1",
"$X c #0373B5",
"%X c #0C73B3",
"&X c #0A79B7",
"*X c #0C76BA",
"=X c #0778BE",
"-X c #0C7BBC",
";X c #1172B2",
":X c #1177BA",
">X c #117DBC",
",X c #037CC4",
"<X c #0D7EC1",
"1X c #117FC0",
"2X c #0C82C5",
"3X c #0784CA",
"4X c #0C85CA",
"5X c #1182C4",
"6X c #1285CA",
"7X c #1189CF",
"8X c #0B89D1",
"9X c #128BD2",
"0X c #1493DE",
"qX c #1498E6",
"wX c #A89A88",
"eX c #B7A38D",
"rX c #BFA893",
"tX c #D4AB93",
"yX c #CBBBA5",
"uX c #D3BAA3",
"iX c #D2C2AC",
"pX c #E3CAB0",
"aX c #F6E4C9",
"sX c #FFEED1",
"dX c #FFF1D2",
"fX c #FFFFE4",
/* pixels */
"s s s s s s s s / / p p s s / p s p s s d d s p p s s s - $ s s s s s s s s p s s p s s s s s s s s ",
"s s s p ] -. ._ ] ] ) / ( ] ] } ] ' ' ] / _ ,.3.,.,.;.<.&.M l <.;.3. .f } $. . .o.o.} ' ' _ } *.} s ",
"s s s ( -.OXQ.O.%.%.%.f ] %.%.%.%.%.%.$._  .<X7X>X*X*X>X$XE t.W.7X6XQ.( 5.-.5.~.~.5.;.%.*.%.1.oX<.p ",
"f s ( Q.).3.:.*.%.%.O.f ' %.%.%.%.%.%.$._ } oX<X1X-X-X-X$XR A.x 3X9XQ.( ~.g i (.2.;.*.%.*.%.<.oX2.s ",
"/ ] -.).^.-.%.%.%.%.%.f ] %.%.%.%.%.%.%.) } .X<X1X-X&X4X].Y J.R =XqXQ._ _.#.F &.<.*.*.*.*.%.1.XX1.p ",
"s %.OXQ.%.*.*.*.%.%.%.) ] %.%.%.:.%.%.%.] } }.<X1X&X3X{.u d.G.P s {.Q.' }.v k.k ;.*.*.*.*.*.3.oX2.s ",
"s  .3.*.%.%.%.%.%.O. ._ ] %.%.%.%.%.O.%._ } }.<X>X3X/.  > D.F.W   . 8 } &.U S.i *.%.%.%.*.Q..X&X<.s ",
"s | 3.3.3.3.Q.3.Q.%.- 0 ' Q.Q.Q.Q.Q.Q.Q.} } #X<X7X@Xo   a.F.G.U   X . % t m.n.c 5.6.6.3.5.OX-X*X<.s ",
"s %.+X%X;X;XoXoX;X<X%.K U ` _.;X;X.X@.~.$.o.*X9X0X+.    W F.D.W I .   : g.L.l.@.*X@XoX%X+X%X:X&X1.s ",
"s | 1.3.1.1.1.1.,.1.$.3 G.k.Z ] 2.3.; U y a <.^.4.. .   V G.V.V.G.z.: : D.D.y._ 3.1.1.1.1.1.1.3. .s ",
"d / / ( / / _ ] ' ' } 9 t.L.F.e.2 p } 5 j.N 4 h 7 .   O c.D.B.V.V.D.m.Y V.G.Z _ } _ ( p s f f f s s ",
"s ( O.O.%.%.)..X}..X[.X.I F.V.L.D.m | _.Q d.J A 1     g.G.S.D.D.V.V.D.D.m.u.{ oX+X.X$.s f ] O.%._ s ",
"s ' %.-.%.-.Q.).W.}.;X$.I K.N.s.T L + ).2.Z M.i.J Y p.G.v.~ Z.k.H.p.c.L.s.w 2.).[.). .s f } *.*.| s ",
"p ' %.%.%.%.%.O./ Q.;X$.A g.U i.v.s.4 X.:.} V H.v.A f.D.M.C.8.0.h.x.m m.S.y $.%.%.%.| ( f } *.*.' s ",
"s _ %.%.%.%.%. ./ Q.oX` b c.D.D.G.T J ] %.*._ H F.I z.D.F.F.G 9.R.Z.L N m.y.( -.%.*.Q.W.( ] *.*.] s ",
"s O.Q.Q.^.Q.1. .( Q.OX+.` I S.D.v.T b.e -.%.:.] H d.M.D.p.d.H.e.C.0.c.s.z.F.Q %.%.-..X_._ | *.*.' s ",
"/ $..XoXoX.XQ.} / Q..X,.=._ Z H.i.p.H.T s *. .$./ I G.i.H i.x.G.b.T N.D.V.F.t.f *.*.[.)._ } *.*.' s ",
"/ _ $.%.$.$.' f p ' %.( ( _ 7 s.Y m.V.G.p.& S Y I $ H T ~ uX0.g.b.V.D.M.D.V.M.6 _ _ o. .f | *.*.' p ",
"p } %.f ( $.$.%.%.%.%.%.%.%.( 1 p.G.V.G.p.L F.G.D.m.v.M.C.wXsXI.N L N.p.f.G.F.E _ &.o. .f } %.&.] f ",
"p 3.1X$.$.|.;X;X;X;X;X;X;X|...O t.x.S.p.J G.V.B.D.f.z.G.m.! iXiXrXZ b E < y.L.k.@.=X%X).( } *.*.' f ",
"p Q.1X%.| Q.Q.{.:X|./.1XOX!.O.w h h i M D.V.D.D.D.f.U M.D.m.! eXpXiX^ D >.+.e.H.Q $X1X[._ o.2.2. .p ",
"p Q.1X%.( %.%.1.|.Q.%.|.^.*.%.*.-.<.s x.D.V.n.g.D.m.m.s.W K.b.C.I.aXw.  >.7X+.t.y.!.3X'._ &.~.~.o.f ",
"a Q.1X,._ %.%.%.,.,.%.1.:.%.%.%.%.o.Z F.V.D.I g.D.D.D.B.m i.G.D.s.I.x  .{.1X3X1.G #.2X'._ &.W.~.o.f ",
"s Q.7X%.} %.%.%.j c @.%.*.*.*.%.-.g d.D.G.i.i.F.V.V.V.D.M.H T M.G.r.;  .@X1X&X8X^.w +X]._ -.~.~.$.p ",
"p 3.;X%.( O.O.$.h e.: h %.O.O.O.%.l n.D.m.H D.V.V.M.V.V.D.V.A 3 S #.,.| @X<X-X&X2XoX&X'.( $.5.5.o.p ",
"s (  .( s ( / ( ( = , = ( ( ( ( / : H D.i.s.G.V.V.D.V.G.T p.p.( 2.*X2.} @X1X&X&X&X2X8X.Xa a ' ( ( s ",
"s / ( ] ' ] ] ( ] ( k b ) o./  .O.M p.D.A Y D.V.V.V.F.z.N G.H =.[.+X,.} :X7X4X6X-X[.4.] % . - ,.} s ",
"s _ %.%.%.%.%.%.%.%.2.v t ^._ Q.7.u.H.v.Y d.m.D.V.V.G.J p.F.5 (.:X$X=.} +X6X6X` # - ; a & + Q.<X<.s ",
"s ] %.-.%.*.*.*.*.%.3.4., ^. .Q.>.r.L.c.Y H.V.V.M.D.f.< B.n.d OX*X#X<.(  .&.%.O k *.=.=.a 1.,X$X<.s ",
"s _ %.%.*.*.*.*.*.%.1.).C c } (.4.j.L.s.T F.V.M.V.D.m.U B.T 3 W.<X,X<.s &...( % 8 ' ( f } &.6.}.&.s ",
"s _ %.%.%.%.%.*.%.%.%.=.x K 3 @.c x.L.s.i.G.V.D.V.V.L.V g.D.n.J z @.t , +.!.<.u u 1.O.O.O.j O 9 ' s ",
"s / ) ) _ _ _ _ ( _ ( _ ( 6 J G > p.K.f.i.D.n.n.n.b.A.n - U d.H.u.: m V G h [ # # ; + o X * + % ] s ",
"s _ o.o.} s _ } } _ } f ( _ p @. XZ d.M H E Y.P.P.P.T.Y.{ &.- M 1 g.i.c.E > # - . ` +.-.3.4.k 1.O.s ",
"s -.oX%X!.( $.5.2.5.<.*.%.O.f (.`.N U g.d.C.yXuXR.q.q.q.o @ - & O d.J g.n v %X[.& oX*XoX+XoX|.;X;.p ",
"s ;.&X&X)._ $.2.2.5.5.;.*...f ..6 S.i.B.E p.z 8.q.q.R.yXtXh ,.1.{ 9 - & 9 *.6.;.o ,.3.Q.3.1.h {  .f ",
"s <.3X8X'.) } O.g a u & + + X o $ s.H I F ~ aXsXdXfXsXE.U.a.7 ( ' o.o. .} ( ( ( + * & @ + O . . u s ",
"s ..+...u + o o + $ u u k [ f 1.1X>.& M L C.E.tX8.R.U.l.l.F.P u 1.[.+X}.5.5.5.5.` + q / ) ..[ e  .f ",
"f ) g ..` u $.2.*.*.*.;.-.*.f 6.6X[.a e.V.n.l.b.$ r m V.D.m.G.V  .oXoX].5.<.5.W.W.Q.!.(.W.W.*.Q.;.s ",
"s ;.2X8X].' &.5.*.*.*.%.*.O.f 6.6X/.} I H.V.V.V.C / s M D.V.V.M.5 <.~.5.-.*.*.5.W.~.W.3.*.%.6.OX:.s ",
"s ;.&X&X^._  .;.*.*.*.*.*.%.f 6.6X^.X.Z F.D.D.F.N p  ./ L G.V.L.y.d <.-.*.*.*.-.-.=.-.-.*.).).-.( s ",
"s ;.&X-X'.( } *.*.*.*.%.*.O.f 5.6X/.o.S V.p.s.F.C p ' *.i x.V.D.J = O.-.*.*.*.%.*.*.*.-.!.^.3.( p f ",
"s ;.&X-X^.( } *.*.*.*.*.*.%.f 1.>X^.X.I s., A b.; s _ -.( N D.V.z.M } *.%.%.%.%.%.%.O.3.OX-.s s s s ",
"s ;.&X-X'.f } *.%.*.*.*.*.%.f } =.| s I G.v.D.p.8 p s _ f C D.V.H.L p ( f ( ( _ ( ( ( ' O._ s p s f ",
"s o.'.&X'._ o.-.*.*.*.%.*.*.f _ o.&.a i.G.V.F.1 p $. .( _ - B.V.F.U f } }  .} f ' -.*.$.$.-.-.*.' s ",
"s f  .].^.( -.2.*.*.*.*.*.*.f -.oX&X] k.D.D.p.% } '.^.%.-.a k.V.F.A 2.5.5.5.5._ 1.2X-X%X%X5X6X-X<.s ",
"s o.~.&X(._ =.~.2.-.*.%.;.;.( ;.%X'.C V.V.n.6 '  .6.3.*.-.a u.D.M.y ;.<.~.~.5._ 6.9X4X-X-X2X4X2X<.s ",
"p =.&X&X(._ =.~.~.2.-.*.;.5._ -.;X-.B D.G.E ' -.*.*.*.%.=.j G N.x.a ;.;.5.^.5._ 6.7X3X&X-X&X-X&X6.p ",
"f o.(.&X'._ &.~.5.~.2.-.-.*.f ;.+Xj P v.z.; $.*.*.*.*.%.=.l u.V.V.Z x [ 5.~.5._ 6.7X4X<X-X<X-X-X5.p ",
"s _ o.;.&.s } o.o.o.o.} _ _ s ..&.H n.L M m 4 i _ ' ' ' ' i Z Z U U B b 2 f $.f ..6.5.<.6.<.<.2...p ",
"f p s p f f p f p f f f p f p f p u 3 C C S M 1 u s s f p f p p p p p u u u s s s s s s s s s s s s "
};
