/* XPM */
static char *a0024aaf5cdf4e29fb17cebe62fa3336Ael8XWZhEpYps5K3[] = {
/* columns rows colors chars-per-pixel */
"50 50 146 2 ",
"   c #070E12",
".  c #080D10",
"X  c #0D161B",
"o  c #0F181E",
"O  c #10191F",
"+  c #0E1A23",
"@  c #0E1F29",
"#  c #121D24",
"$  c #101F29",
"%  c #0E202A",
"&  c #142027",
"*  c #14222B",
"=  c #18262E",
"-  c #0F2533",
";  c #0E2838",
":  c #152632",
">  c #192730",
",  c #162936",
"<  c #1A2A34",
"1  c #152C3B",
"2  c #1A2E3A",
"3  c #17303F",
"4  c #1C313E",
"5  c #21323D",
"6  c #172F40",
"7  c #153243",
"8  c #1C3443",
"9  c #1E3847",
"0  c #15364A",
"q  c #1B3748",
"w  c #16394D",
"e  c #1D394B",
"r  c #163C53",
"t  c #1C3E52",
"y  c #173F58",
"u  c #1A3F58",
"i  c #213643",
"p  c #233946",
"a  c #223C4C",
"s  c #293F4D",
"d  c #223E51",
"f  c #1D4156",
"g  c #1C445C",
"h  c #29404F",
"j  c #234154",
"k  c #2B4353",
"l  c #24455B",
"z  c #29475A",
"x  c #26485E",
"c  c #2B4A5D",
"v  c #1B4661",
"b  c #1D4A64",
"n  c #1D4E6B",
"m  c #1E506E",
"M  c #1E5473",
"N  c #234B63",
"B  c #294C63",
"V  c #234E68",
"C  c #224E69",
"Z  c #214F6A",
"A  c #244F68",
"S  c #274F69",
"D  c #2B4F68",
"F  c #2C5067",
"G  c #24516B",
"H  c #25516C",
"J  c #29506A",
"K  c #2B526B",
"L  c #2C5269",
"P  c #2E526A",
"I  c #2A556F",
"U  c #2D546E",
"Y  c #2E566E",
"T  c #305267",
"R  c #31546A",
"E  c #235571",
"W  c #245470",
"Q  c #275571",
"!  c #205574",
"~  c #225574",
"^  c #215677",
"/  c #205777",
"(  c #2B5671",
")  c #2F5772",
"_  c #275876",
"`  c #2E5873",
"'  c #285874",
"]  c #295976",
"[  c #2B5976",
"{  c #2C5976",
"}  c #2C5B77",
"|  c #235778",
" . c #21597A",
".. c #215A7B",
"X. c #245A7C",
"o. c #235C7D",
"O. c #2A5D7B",
"+. c #285E7D",
"@. c #315A74",
"#. c #335E7A",
"$. c #2E607F",
"%. c #235E81",
"&. c #235F82",
"*. c #2A5F80",
"=. c #236184",
"-. c #246285",
";. c #246286",
":. c #2F6282",
">. c #296285",
",. c #2A6286",
"<. c #26658A",
"1. c #26668C",
"2. c #2B6489",
"3. c #2A658B",
"4. c #26688E",
"5. c #336585",
"6. c #386684",
"7. c #33678A",
"8. c #336A8D",
"9. c #266B92",
"0. c #276B92",
"q. c #2A6B91",
"w. c #286B93",
"e. c #2A6C93",
"r. c #296D94",
"t. c #296F97",
"y. c #2B6F99",
"u. c #2C7098",
"i. c #2D729B",
"p. c #2B729C",
"a. c #2C759F",
"s. c #32759C",
"d. c #2C76A1",
"f. c #2D79A5",
"g. c #2E7CA8",
"h. c #2E7DAB",
"j. c #3074A0",
"k. c #3379A4",
"l. c #387CA6",
"z. c #307BAB",
"x. c #3184B4",
"c. c #3584B5",
"v. c #3A85B4",
"b. c #3186B8",
"n. c #358EC1",
"m. c #3692C7",
/* pixels */
"5 p = > = 5 2 & > < 5 < # > 2 # > < # # 2 5 # 4 k 5 o o & 2 > 2 & p h = s i & : p < o & 5 > o > 5 p ",
"p 5 = # # x R < 8 s a 5 i p d i < p 2 $ 5 4 9 d I 8   , N l f 8 t } c # c e : C j & % & > B 2 , * # ",
"h p 5 2 , ,.[ , d U i 2 2 < l 6 i ( a > j a g v q.X.g t.m 0 w 7 m d.O.2 G f f G $.f , 9 z S l &.e > ",
"p k i l t S ` 2 6 q a > > < a d 6 B d < 9 ( 6 n i.v m -.&.M g w M 9.N 8 G I f m b , , F ) l :.1.S 2 ",
"s p S g u e D 9 q , 6 # 8 d q < d B d 9 p D ; ^ t.b <.v n x.&.w 9.f.f < g u t [ g : = } K l j p.S # ",
"< N 2.e : j t 2 a a a 2 p d d 6 d d 6 6 p D y ^ 9.M 9.g M t.M 1.&.<.f : r e x x z 3 1 B F e ( g.( 5 ",
"< p { B d z B z d d q p d B d B d B : < z p ; M M -.-.v -.&.M b <.n.e 2 j u ( p z * 8 l a r l.g 0 5 ",
"2 p ( N t S 8 t q N U > < D g d t S 6 6 * 8 7 M M p.d.9.<.&.<.h.b.M l d N j g l H 3 N 8 e n d.<.q # ",
"5 d | ,.2.&.m g b y.X.< q j.j.u u 2.n C 8 9 7  .M g a.f.-.m.t.f.0.y.O.1 t | n C k.q.O.Q o.^ g E D s ",
"2 z l e S j q S d t B a : B N 6 : t 7 , 2 2 8 f g 1 q e % N f - 7 K a < S *.[ j 7.O.H 8.l 2 0 a l p ",
"p s 2 > 2 < 2 8 $ d p s > i 2 , p a 9 d j 8 x D j j j 2 > = 4 h i i d 2 * # : e 6 9 2 5 > 2 < 4 i i ",
"# 8 P 8 9 d O.M | m g N $ 8 , i d a , : r r y g M g l 8 g g & : u 7 8 W H e r _ O.~ j 5 5 a 8 8 4 2 ",
"s k D P B l d f 6 0 N , + 6 6 : d , 8 ; - u f 0 f g ; = f f 4 h 0 t l C ( 6 q v N ~ 1 p * : 8 c 2 p ",
"* < e 8 : + : 1 i N &.q 6 a d a 2 8 2 1 , 1 , 8 e x 9 , 4 8 * j d 2 8 l l d a d e d < 2 = & : l = 2 ",
"* i d q 2 p e 1 $ d *.C a #.d 6 , : , a 3 * 4 8 j e j 4 , 4 & : B x l l : a a a 6 9 9 g p j 4 8 > = ",
"5 D N N f u j d # N | d a d 8 1 , : 2 8 4 & e 8 l e 3 8 : & & , 2 ( a 2 6 6 8 d B e C u 4 e 8 2 # o ",
"i d &.v u g N d a l *.d 2 z z 1 6 > 8 6 $ 1 d > 6 p : p 2 + # $ $ d d $ 8 2 , j e l Q f = 4 e f i = ",
"2 6 d 8 , 8 6 * $ 8 d q 2 B p > @ 2 > # 2 p p # 2 8 # = 8 # # # @ k j < # > = < > 2 j j 4 j 9 z 4 = ",
"> 2 q # : : , e 8 d B q B d c s > > + # > 5 # o # = > # = c D 8 * x p 2 2 j a 7 7 , 8 4 4 4 j e 2 & ",
"i U 7.6 6 v Q | 2.d *.*.2.*.d s = = # p k < < # > > & 5 a R v.7., b t p C | ,.M b 7 n u , 4 j l > > ",
"i U f.d 5 D D ,.d.v N *.C q B 2 # * 2 R z p B s 5 2 i z k 1 S j H q.0 a  .M t.M M n o.r 4 l N H 4 i ",
"i l 2.N $ i l [ *.d d ^ t a B : , d d 6 d S #.B 5 8 ( D #.d + X 8 1.j 4 H b t.M &.d.o. .c j _ S e & ",
": _ d.d 6 6 6 e [ 9 a 1 1 6 > 1 8 z > @ 6 B #.R s , S #.D 8 , @ + 0 f c v 0 y v v v r 0 , 3 g 0 e i ",
"= N | d < 1 p d D x d d N d $ d 6 d x 2 d 8 a p < : d d 8 2 z N Q O., , k.9.t.M 9.-.M g , q N E z 5 ",
"< d 2.N < 6 < d z a 1 a 6 > 8 d = : x = 8 4 2 p 5 2 N 7 d @.* + 8 0 @ : t.n v M 1.d.<.,.p N O._ e # ",
"> i i 8 5 i > < 2 2 > 2 $ . # i + + # X < 5 p c p C l.8 c D X * ; ; + j 3.0 g -.v ; m u & & 8 8 4 & ",
"# i i i a d 6 5 2 > 8 l l $ + d e * : * 8 j B P p M n.8.S $ , e 8 0 , l 0 g 9.d.p.=.M E p , 0 : 4 < ",
"i d B d 2 B a z c 1 e w.v , > e m @ 2 , , n 0 a 1 t 2.>.e $ 6 r n r j 9 b H t.<.9. .&.H a m g 9.B 4 ",
"i i z 6 a D 8 a S 8 d c.p.v 2 : x.H B e 6 u g N i ( r ^ *., , ^ n m b & a 9 K e 8 4 B 4 4 e &.p.3 > ",
"# $ 6 #.d d d B B , , C | 7 * N d._ 2 * X n E B p a :.| X.t $ 7 g g f < q j 4 = # i p , p w <.n 2 < ",
"> # p l d d d l : e 2 8 a : p d E H 8 8 @ N [ d 2 p d l b t , v v -., e H H B z F 6.j , 8 c l : 4 2 ",
"> # 4 p p 6 i > & 2 2 2 : = p 1 r H j t v e e a a z l 8 1 8 2 O.w.<.g 2 8 + l 6.l B j , : j l P a 5 ",
"= p l d j < , 9 4 4 2 < 4 2 # , b t B D f H , 8 i D l t t e *.X.n M 1 @ a , e u l 1 l u e N ( N a < ",
"# D ,.t.H 4 j H N g g N P < = e y 6 d B : D B < > n v ^ g ^ c.2.2.y : , u 2.1.f ^ b b u C | N &.e = ",
"* 5.d.M _ R 9 e N N f 4 9 8 k f 0 1 , a B 0 K i : x 1 0 t K g B e % , * & w [ B S 8 & 6 N ) Q t p 5 ",
"= H 9.g s.k , e B 4 4 , 4 P R 3 y t * 6 O.1 l j = 4 & & 5 a > < * * 2 < # # 1 a 8 < X 2 z d : $ < < ",
"# f M &.9.= 8 w x x x N q 4 a x <.g 1 , 8 x 2 2 < 2 < 4 j 8 8 + 7 ^ d.t.O._ C H O.Q u N ( t t 0 8 2 ",
"i O.9.f._ : e H j c 8 B l : i G n e 6 z , d a < # + , d l 8 c d 8 E r 0 C f +.&.+.2.,.X.O.O.X.>.x c ",
"5 j 7 n n p j g , 2 + * : e < 8 0 q a z 8 , D 2 # X 2 D 8 d j 2 : r 7 1 2 @ , 1 w b t e d e : 1 B i ",
"< x g r 0 4 j Y x , * 2 l l = w r e d d q q D X # = & 9 d e 1 8 6 @ q d & : + : t 8 6 6 d N r a h = ",
": w b n g < a P F 8 8 a #.j < e b 6 1 2 8 a 1 < X < * 9 a z 4 a , + * j * , 4 3 8 d 9 9 8 g d 2 > = ",
"h g n M G 2 4 x d j l F d c < : n N e l 8 2 e p < < 2 , , l e , = * 2 e = j 4 * 9 c 8 9 g C 2 # < s ",
"4 f $.a.2.p 4 e j N l l 1 : $ : q * # 2 * < * 2 5 < 4 * = : 2 4 1 + < 2 3 c , o < , a a q k 5 = > 5 ",
"= j N m -.p 8 j 8 8 j j 2 , : * 8 2 2 i o > * X o j 4 * # = 2 p 2 9 4 9 , c p 2 & * N 1 , K x = a p ",
"< 4 h f H p w g 8 S e l D 1 , 8 g u b 1 > & > > = f r * : 3 , & 8 n 3 f w g f 4 0 &.d.7 b 1.g v f 5 ",
"k 9 b m g 4 j N g ` p , 2 8 2 1 n N j d & : , 2 9 B 5.8 h j , % j x e f w f G 2 0 M M M r n g m 9 2 ",
"4 % f f 7 < 8 u f l 7 2 u e 4 B v q a d 8 d 8 : : 2 #.x e 3 % , , e f 9 G f f 2 7 M n g g M g v 3 & ",
"* 3 7 g w > 0 E f v N d e j 2 8 v 1 x @.d 9 9 e B a ` N 4 , % : + 8 8 j g H w j _ M b b 0 n M r : > ",
"h h f [ f 4 h j h 8 f > < 4 & < j 3 4 h 4 < < < k k z h 4 # & < : : & 8 8 9 : 2 l e K 8 e f l N 9 4 ",
"h h h h 4 h h h h 5 < < 4 < < < 4 = = < = & = 4 p 4 < * # & & = # & = & & # = = = = < > > 2 5 2 = < "
};
