/* XPM */
static char *_484d3477f9f4bbb806a432ca1a5d3fbVhFdwr2imcgj48RL[] = {
/* columns rows colors chars-per-pixel */
"50 50 192 2 ",
"   c #042337",
".  c #092537",
"X  c #04253A",
"o  c #06283E",
"O  c #172C39",
"+  c #392D26",
"@  c #3F322A",
"#  c #2C3134",
"$  c #5E2C0D",
"%  c #4F2E1F",
"&  c #512C17",
"*  c #542F19",
"=  c #5D3016",
"-  c #56311C",
";  c #5C351D",
":  c #652F11",
">  c #62361C",
",  c #6A3718",
"<  c #64391E",
"1  c #6C3B1D",
"2  c #713D1D",
"3  c #42352C",
"4  c #4D362E",
"5  c #46382F",
"6  c #523324",
"7  c #5D3721",
"8  c #5E3923",
"9  c #53362B",
"0  c #56392D",
"q  c #5B3C2D",
"w  c #463B33",
"e  c #4C3A33",
"r  c #473C3D",
"t  c #4E3D3B",
"y  c #543B33",
"u  c #5A3E33",
"i  c #543E39",
"p  c #653C22",
"a  c #6B3E22",
"s  c #613D28",
"d  c #713F20",
"f  c #4B433D",
"g  c #564037",
"h  c #5C4136",
"j  c #54423D",
"k  c #5C443C",
"l  c #6D4125",
"z  c #65422E",
"x  c #6D4429",
"c  c #724526",
"v  c #744728",
"b  c #76492A",
"n  c #7A4C2D",
"m  c #654434",
"M  c #6B4632",
"N  c #6B4935",
"B  c #62473A",
"V  c #684739",
"C  c #63493E",
"Z  c #6B4B3B",
"A  c #734A34",
"S  c #7C4F30",
"D  c #724B3A",
"F  c #6E503F",
"G  c #7E5132",
"H  c #76523A",
"J  c #7B543D",
"K  c #032B45",
"L  c #042E48",
"P  c #07314B",
"I  c #08324D",
"U  c #1A3242",
"Y  c #063654",
"T  c #073857",
"R  c #053B5B",
"E  c #083958",
"W  c #1B3F55",
"Q  c #033E63",
"!  c #1C4057",
"~  c #1D435A",
"^  c #054066",
"/  c #04446B",
"(  c #09446B",
")  c #07486D",
"_  c #1E4660",
"`  c #1C4862",
"'  c #1E4E6C",
"]  c #034772",
"[  c #064B76",
"{  c #094C74",
"}  c #034D7A",
"|  c #06507E",
" . c #0B537D",
".. c #1E5577",
"X. c #464644",
"o. c #4A4342",
"O. c #494847",
"+. c #4E474A",
"@. c #464B4C",
"#. c #494B4C",
"$. c #544442",
"%. c #5A4641",
"&. c #574A47",
"*. c #5C4944",
"=. c #554A4B",
"-. c #5C4D4B",
";. c #5E504E",
":. c #4A4E51",
">. c #554D51",
",. c #584F52",
"<. c #48545B",
"1. c #5C5253",
"2. c #565359",
"3. c #5B565A",
"4. c #5E595D",
"5. c #634C44",
"6. c #6C4E43",
"7. c #634E49",
"8. c #724E41",
"9. c #6D5146",
"0. c #64524D",
"q. c #6B544C",
"w. c #735345",
"e. c #7B5745",
"r. c #74564A",
"t. c #645553",
"y. c #695652",
"u. c #655856",
"i. c #6C5A55",
"p. c #625759",
"a. c #645A5C",
"s. c #6A5C5B",
"d. c #715B53",
"f. c #7B5F55",
"g. c #7E604C",
"h. c #6F605E",
"j. c #75615D",
"k. c #465862",
"l. c #4A5B64",
"z. c #5D5A61",
"x. c #5C5E69",
"c. c #635D62",
"v. c #685F63",
"b. c #4D616A",
"n. c #5C606B",
"m. c #656165",
"M. c #6B6365",
"N. c #64646C",
"B. c #6C6669",
"V. c #6D696E",
"C. c #73696A",
"Z. c #636977",
"A. c #676B77",
"S. c #6C6971",
"D. c #716B70",
"F. c #6A717C",
"G. c #804824",
"H. c #805336",
"J. c #84634D",
"K. c #876B58",
"L. c #8D7565",
"P. c #8C796C",
"I. c #947966",
"U. c #827774",
"Y. c #99897D",
"T. c #015080",
"R. c #085584",
"E. c #00598D",
"W. c #1D6085",
"Q. c #02619A",
"!. c #1D6997",
"~. c #1E6B96",
"^. c #1C709E",
"/. c #216A98",
"(. c #0366A2",
"). c #0969A7",
"_. c #036CAE",
"`. c #0571AE",
"'. c #1E73A2",
"]. c #066EB1",
"[. c #0875B8",
"{. c #067BBD",
"}. c #717883",
"|. c #0478C1",
" X c #057DC3",
".X c #0D82C6",
"XX c #0A83CA",
"oX c #9A8C82",
"OX c #9B9998",
"+X c #B9B7B5",
"@X c #C0BCBA",
"#X c #BDBFC1",
/* pixels */
"X X X . w 3 3 3 3 3 3 3 3 3 @ 3 3 3 @ @ 3 3 3 3 3 5 3 3 3 + 3 3 3 + 3 3 3 3 3 3 3 5 3 + 3 4 # X X X ",
"X X X O b c 2 c a a a 2 1 a 1 , a 1 1 1 1 a 1 1 c a c a 1 , 1 1 a > 2 1 1 a 1 1 1 l 1 , c G.f Q Y X ",
"o X X U l a p l a p p p a p p p a < p p a a p p a p p l l l p p l p p < a p p p p p p l l a @._.[ X ",
"X X K ' z a v n n c c v c c n v b l c c c b b b l p c b b b v c n c l c b c b c b c v b x 2 @.].[ X ",
"X I ) ..x a x n n c a v v v b b n c v v v v v b l p x b b v v v n v c l b c v c b c v b c 2 #.].{ X ",
"  ( )...l l c n S a a c l v b v b l c v c b v v l p c n b v c l v c l c v c c c c c v b x 2 #._.[ X ",
"X E T._ l l c n c p 7 7 8 s 7 7 s 7 7 8 a v v n l p l n b a 8 8 s q s p s 8 8 7 p p v b x 2 <.[.[ X ",
"X Y } ' l l v n c s -.0 t.t.i i t.a.h -.m v v b x p x n v l a.-.v.N.-.u -.u.-.&.*.1 v b x 2 l.|.{ X ",
"X ( ]./.x a v S l M a.u t.%.i i j v.-.a.Z c v n a p c n v a B.t.V.=.i 0 i 1.a.1.0.1 v b x 2 l.|.{   ",
"X Y { ' x l v n l z y.y k 9.1.-.5.*.h q.N c v b a p c n c a i.*.7.i 7.B t.k %.7.5.a v b v 1 O.} E X ",
"  o X O l a b S c z 0.9 4 h i i i 4 9 q.A v v n x p c n c a 9.h y 3 *.h *.9 4 *.Z a b n l d w X X X ",
"X L Q W l l b n l M v.%.t.*.*.%.k 1.*.v.F c b n x p c S v a q.5.u.o.1.*.1.-.3.p.y.< b n x d f Q I X ",
"X I ( W e.v b G l N F.o.c.V 6.6.D v.&.S.w.c b n a p v n v a M.-.c.+.e.8.w.1.2.z.s.1 b b l G O.^ I X ",
"X L Q W J x b n l z 1.&.4.C 8.Z w.z.&.*.N v v n x p v S c a 5.i z.$.e.D r.-.3.j C a b n x G O.^ I X ",
"o I Q ! l l b n c m x.V.s.5.7.9.5.t.B.2.M v v n a p v S v a 7.a.M.i r.6.q.*.D.z.*.a b n x d X.^ I X ",
"  E R...x l b n d m c.&.N m i e u N 5.1.D v c S a p v S x a 7.&.Z q j i j x k 1.6.1 b b x 1 f ^ I X ",
"X ^ _.!.x a n b d N N.c.9.h %.i i 5.s.z.D v c S l < b n l l t.4.y.y *.h *.B i.z.7.a c b x 2 f ^ I X ",
"X L Q ! x a n b d s &.p.3.B 8.Z Z 1.t.%.M v c n l p b n l l k *.a.t e.A 8.$.v.-.h l c n x d f / I X ",
"X I ^ U a a b v d V a.$.c.m D M A a.i t.D c v n l < v n l l s.k a.$.J D 8.7.2.=.q.c b b x 2 f ^ I X ",
"   .{.~ a x n v a Z S.>.x.*.5.u u ,.i y.D v c n l 7 b b a a C.;.p.+.0.B t.3.z.z.i.a b b x 1 X.Q I X ",
"   ..X` a l n v c N s.1.a.%.&.j i 7.B 7.N v v n a p v n a a i.5.y.o.>.k 4.=.h.4.q.1 v b x 1 @.} E X ",
"   ..X` a x n v l M y.y j k -.%.%.y 0 i.N v v n l < v n l l i.k i j t.k c.j f 4.y.< n b x 2 :.E.R o ",
"X  ..X` a c n c d M 7.i -.B %.k h *.i 7.N v c b x p v b a a q.k ;.o.7.k 4.-.2.3.q.1 n v x 1 #.E.R X ",
". R..X` a a v c l M t.%.u.h y 9 i i.5.7.N v J n a > v G x l y.B u.;.g 0 k 4.h.4.0.p n v x 2 @.E.R X ",
"  { [.~ l l b l l x k y 7.7.i y 9.5.g k l c @XI.p p c +XL.: C u 5.a.0.h u.h.;.&.C 1 H.c x a @.T.E X ",
"X L T U l l b l l l 6 % 9 q 6 6 g 9 & 8 F J.@XI.1 > c +XY.H C 6 y %.u 6 k j g e u 1 n c l a w L K o ",
"X o L U l l b c l z 0.k i.7.u y 0.y.g h.P.P.OXK.a > A OXoXL.U.k s.m.5.h c.S.m.3.q.< H.c l c X.] I X ",
"X I Q ! x l b l l M 0.=.a.h 4 y j u.k *.z c @XI., 7 n @XP.$ q.5.c.$.y 0 f ;.m.3.q.< H.c l , k.|.{ X ",
"  I ^ ~ c l b c l M q.j ;.q.-.;.1.k h y.N b #XY.a ; n +XP.> j.*.-.&.t.k q.h k -.*.1 G c x 1 <.|.{ X ",
"X I ^ ~ x l b l d M u.i $.*.$.&.;.f 0 y.m v oXJ.a < b Y.g.< d.k =.r 1.h -.4 y k B < G c l 1 :.(.^ X ",
"X P Q ! l l b c d M y.$.3.k j -.1.3.k u.m c v c l ; v d < l h.-.N.O.1.k 2.*.1.7.C < n c l 1 o.) I X ",
"X o K U x l b v l Z s.t a.V A 9.q.N.&.M.N v n v l < v v a a C.;.A.=.w.D r.-.,.3.q.< G c l 1 o.Q I X ",
"X P R W l l b c l x g j 4.Z A 9.g.n.$.k z c n b l < c b l l 5.$.Z.=.r.D r.-.z.$.i a H.c l 1 O. .E X ",
"X ^ `.!.x l v c l N n.V.u.C 5.q.t.4.V.z.m c G b l ; v b < p m.F.F.O.q.w.s.1.}.A.-.< J v l , <.[.) X ",
"X ) {.'.x l v v 1 z >.j M m 4 t j N k =.m l n b x < b b 1 l ;.=.Z q e 0 i 8 k >.B p S v x 1 O.} E X ",
"X ) {.'.x x v v l N m.m.q.C h -.;.0.h.n.Z l G b l ; c b l l u.p.q.y 5.C *.m i.c.5.1 S v l a w L o X ",
"X ) {.'.x l v v a z $.p.z.5.Z 9.M.p.3.j z c S v l ; b b l l k *.N.+.j.e.d.&.N.&.h 1 S b x 1 O.| E X ",
"X ) {.'.l l v v a N a.t c.Z D 8.g.N.$.a.N 2 S v l ; b c l < h.&.N.=.f.r.r.1.3.2.t.1 n b c , :.(.) X ",
"X ) {.'.x l b b a M s.$.3.k k 5.;.4.j h.Z c S v l > b v l p j.*.3.o.q.C 7.&.>.1.q.> S b x , @.).) . ",
"  ) {.^.l l b c a M t.k 7.k i =.=.&.k 0.N l S b l ; b b l < q.k 5.r -.j &.i *.7.5.< n b x , :./ L o ",
"X ) {.^.H v v v 1 M y.4 y 5.k -.1.g 0 q.N l S v l > n b l < d.k 0 e q.C t.0 0 -.C < n b l b #.L   X ",
"X ) {.^.e.v n v c M 0.h 0.m i $.-.;.g 0.M a S v l ; b b l l q.k 0.e *.h *.h -.*.V < n n a G r X X X ",
"X ) {.'.v x n c , M 0.k t.h 6 9 g y.h *.M l n c < ; n b l p 9.g 7.h 0 9 0 *.*.k B < n b l p w   X o ",
"X R Q.!.x l n l < M C h 9.q.m h 9.F z m M d b b < ; n c l p Z z Z 9.Z m 9.6.m h m < b b l , X.Q I X ",
"X o R W.x l n < < l p < l p a a l < p p l a n v < ; n x < l l p p l p a l < l l l l v b l : b. X{ X ",
"X E E.~.x c n > a b c a n l v b v l v v b v b b < ; n l < b c l v n x v c a b c v b c n z : b.XX{ X ",
"X / {.^.x l S > a n v c n c v n v c b c b c b n > ; S d > b n c b n c n b l S c b b x n l : l. X{ X ",
"  R Q.~.x c n > < b v a b a c v l d v v l d c b < > n l < v b c c b c v c a b c l c l b l : l.XX{ X ",
"X P Q ` z < ; & - 8 ; ; 8 - ; ; - & ; ; - - ; 8 - - l ; & ; ; ; ; ; - ; ; & ; ; * - ; ; ; = @.} T X ",
"X X X X . . . . . . . . . . . . . . . .   . . . .       . . . . .   . .   . . X . . . . X . .   X X "
};
