/* XPM */
static char *_984d619bcff45c7e840ee66d97aa21cPF9q9tPS8KbRZzlt[] = {
/* columns rows colors chars-per-pixel */
"50 50 216 2 ",
"   c #020102",
".  c #0B0202",
"X  c #08070A",
"o  c #0C0A0D",
"O  c #130605",
"+  c #190806",
"@  c #140B0C",
"#  c #060D13",
"$  c #0B0D11",
"%  c #130E12",
"&  c #0D1017",
"*  c #0C121A",
"=  c #14151C",
"-  c #181419",
";  c #290A07",
":  c #360D07",
">  c #2F100D",
",  c #3B120D",
"<  c #27181B",
"1  c #371817",
"2  c #031523",
"3  c #0C1823",
"4  c #061D2D",
"5  c #0C1D2A",
"6  c #111923",
"7  c #1C1C26",
"8  c #141D29",
"9  c #281C23",
"0  c #311D21",
"q  c #0E202F",
"w  c #1C232D",
"e  c #032236",
"r  c #0C2233",
"t  c #04253A",
"y  c #0B263A",
"u  c #04283F",
"i  c #0B283E",
"p  c #132434",
"a  c #13293B",
"s  c #182839",
"d  c #23212B",
"f  c #2C2128",
"g  c #362529",
"h  c #282A37",
"j  c #392F3A",
"k  c #440D05",
"l  c #5B0F05",
"z  c #491006",
"x  c #45140C",
"c  c #4C140B",
"v  c #55160C",
"b  c #5C1408",
"n  c #5E190E",
"m  c #431612",
"M  c #491A15",
"N  c #541B13",
"B  c #5D1B12",
"V  c #571E18",
"C  c #770E00",
"Z  c #6B1405",
"A  c #641608",
"S  c #641A0E",
"D  c #6B1B0D",
"F  c #721807",
"G  c #741C0D",
"H  c #7B1D0D",
"J  c #651D12",
"K  c #6C1D11",
"L  c #741E11",
"P  c #791E10",
"I  c #5D291F",
"U  c #692119",
"Y  c #762012",
"T  c #7C2113",
"R  c #472223",
"E  c #5B2421",
"W  c #703225",
"Q  c #77483A",
"!  c #042B44",
"~  c #052B44",
"^  c #0B2D44",
"/  c #052F49",
"(  c #132D42",
")  c #06314D",
"_  c #0A324C",
"`  c #12334B",
"'  c #19334A",
"]  c #053552",
"[  c #0A3653",
"{  c #063857",
"}  c #0B3856",
"|  c #00375A",
" . c #053A5B",
".. c #093C5D",
"X. c #153955",
"o. c #323444",
"O. c #043E61",
"+. c #093F61",
"@. c #054166",
"#. c #0A4164",
"$. c #06446A",
"%. c #09456B",
"&. c #06486F",
"*. c #134365",
"=. c #154769",
"-. c #024770",
";. c #064B75",
":. c #094A74",
">. c #064E7A",
",. c #0A4F7A",
"<. c #124E75",
"1. c #05517E",
"2. c #0A517D",
"3. c #564A43",
"4. c #695248",
"5. c #77584B",
"6. c #766559",
"7. c #727472",
"8. c #821908",
"9. c #8D1D0A",
"0. c #951E07",
"q. c #A31C05",
"w. c #8D210F",
"e. c #95220E",
"r. c #9C230D",
"t. c #832314",
"y. c #8B2413",
"u. c #882B1A",
"i. c #932614",
"p. c #9B2612",
"a. c #9C2816",
"s. c #982B1A",
"d. c #97311F",
"f. c #A02109",
"g. c #AB240C",
"h. c #B9240C",
"j. c #A42712",
"k. c #A42A16",
"l. c #A72A16",
"z. c #AA2A14",
"x. c #AC2E19",
"c. c #B42B15",
"v. c #BB2C15",
"b. c #B42F19",
"n. c #BE2F18",
"m. c #A0311D",
"M. c #B4301C",
"N. c #BD311B",
"B. c #8B3323",
"V. c #A03B28",
"C. c #C22E15",
"Z. c #C3331B",
"A. c #CC3319",
"S. c #CA351C",
"D. c #D1361D",
"F. c #D5381F",
"G. c #D8381D",
"H. c #CC3820",
"J. c #D34D34",
"K. c #8E5240",
"L. c #BB6A52",
"P. c #887667",
"I. c #D8654B",
"U. c #D36951",
"Y. c #E56A50",
"T. c #968575",
"R. c #A38A78",
"E. c #E5957A",
"W. c #055484",
"Q. c #0A5583",
"!. c #085788",
"~. c #055A8B",
"^. c #0A5B8D",
"/. c #165B88",
"(. c #045D93",
"). c #0A5E92",
"_. c #096195",
"`. c #0B639A",
"'. c #08659C",
"]. c #116499",
"[. c #0769A5",
"{. c #0C69A4",
"}. c #0B6DAC",
"|. c #126BA1",
" X c #106FAD",
".X c #0D70AF",
"XX c #1073AE",
"oX c #0673B7",
"OX c #0B73B3",
"+X c #0A78B7",
"@X c #0D77BB",
"#X c #0B7BBC",
"$X c #1074B2",
"%X c #1579B6",
"&X c #117CBB",
"*X c #0B7FC1",
"=X c #117FC0",
"-X c #0D81C4",
";X c #0684CA",
":X c #0D85CB",
">X c #1182C5",
",X c #1286CA",
"<X c #0C8BD5",
"1X c #128CD3",
"2X c #118FD9",
"3X c #1292DD",
"4X c #A79987",
"5X c #B7A38E",
"6X c #CFAB94",
"7X c #C8B8A2",
"8X c #D5BCA5",
"9X c #D1C1AA",
"0X c #E3C9B0",
"qX c #F8E7CB",
"wX c #FFEED1",
"eX c #FFFFE4",
/* pixels */
"t t t t t t t t t t t e t t t t t t t ~ % 6 t t t t e t e t t e e t t t t t t t t e e t t t t t t t ",
"t t t e ) %.} / / ) _ ~ ~ / / ) ) _ ) < k ~ :.:.:.$.&.;.&.&.&.&.;.>.{ u { { { { | #.) ) / ) ] @.] t ",
"t t t ~ %.{.Q.+.%.+.} i ^ +.+.+.+.%.! t.L ] &X,X&X@X+X+X+X#X+X+X=X1X!.! 1.W.W.W.1.1.&.#.+.+.;.}.>.e ",
"u t ^ Q.).2.%.+.+.+.O.- 6 +.+.%.+.O.0 A.J ] .X*X=X#X#X#X#X#X#X#X*X2XQ.~ 1.~.~.~.1.&.#.#.#.#.;.}.>.e ",
"~ _ %.).^.#.+.#.+.%._ A d $.#.+.%.O.J F.G ) OX#X=X#X#X#X#X#X#X#X-X1XQ.) ^.^.,.>.&.@.#.#.#.#.:.}.:.e ",
"e +.{.Q.#.+.#.#.+.&.p g.g O.%.+.( 2 T S.a.& !.:X=X#X#X#X#X#X#X#X:X1XQ.) {.).#.%.%.#.#.#.#.#.,.}.>.t ",
"t } ,.+.+.+.+.+.+.O.9 C.K | +.6 .   t.S.Z.:   /.,X#X#X+X#X#X#X+X-X1XQ.~ :.,.%.+.#.#.#.#.#.Q.{.OX>.e ",
"e } ,.,.,.Q.,.Q.Q.W.h v.c.9 4 .     D S.Z.t.  @ %X,X-X-X=X-X:X<X:X1X2./ >.$.s - *.2.:.,.2.'.#X#X:.t ",
"e $..X.X.X.X.X.X X*XX.h.H.p.;   . S T Z.S.T     ` 3X1X1X2X<XXX=.:X1XQ.~ s U Z :.@X X.X.X$XOX@X@X:.t ",
"t ] :.,.:.:.:.:.:.,.^ w.Z.S.; ; l.S.N.N.S.v   . X <.~.~.=.j S = !.W.y c g.A.< ;.:.:.:.:.:.:.:.:.] t ",
"t t ~ ~ ~ ~ / ) ) ) / v S.M.L M.S.N.N.N.Z.d.+   . 2 p , b f.m ] t ; 9.Z.H.w.5 ] ] _ ~ e t t ~ u ~ t ",
"t / O.} } O.).}.[.[.`.( r.n.Z.Z.N.N.Z.C.C.A.i.    , B L p.R ~ u m Z.H.N.S.J -.{.}.{.O.t i ] ..+./ t ",
"t ) +.+.%.+.!.).W.'. X+.9 i.D.a.u.A.g.V.W b.D.y.L K t.C.N { / O L T i.b.F.J ;.).).^.} e t [ #.#._ t ",
"t ) +.+.+.+.+.} u W.oXO.0 Z.M.x z.m.5.4.B.n.Z.a.v x.D.v ] #.e , i.x.y.K i.B O.*.%.+.] ~ t ] #.#.) t ",
"t / +.+.+.+.+.} u Q. X) e.x.v G V.T.4.Z S.Z.Z.k.S D.S / %.{ e D T Z.Z.Z.l.k i #.+.+.!.W.~ [ #.#.) t ",
"e } !.!.).!.:.} u Q.}.R C.l.i.s.5.B.9.S.p.y.Z.N.l.S _ %.#.{ - v.Y l.Z.C.B ( ` ..%.%.}.)./ ] #.#._ t ",
"u O.[.}.}.[.Q.[ ~ !.:.9.H.N.Z.x.L v.H.j.t.U t.A.J ~ @.| ..4 H H.y.t.D.v / $.#.+...#.`.)./ _ #.#._ t ",
"u / O.O.O.O./ ^ t ) g v.M.Z.v.Z.M.c.i.5.7XW H n % J G M * y.S.Z.M.L i.5 ) ~ ~ ~ / ~ ..} ~ ] #.#.) t ",
"e ) +.~ u O.+.+.+.) H S.S.l.y.b.L n T.qX4XB.v.x.M.S.S.S.G y.S.N.S.t., t +.+.+.O.O.O.O.] u _ #.#._ t ",
"e Q.=X+...{. X X&XX.g.H.i.> K k N 6X8X8XE v.S.l.l.Z.b.N.S.K y.v.g.9.+ ] {.&X%XoXoX.XoX(./ ] @.#.] t ",
"e Q.=X+.] Q.!.].OXR G.9.( ' C Q 8X0X5XE v.H.M.Y l.Z.Z.N.N.N.m p ( =.s _ OX>X#X-X#X#X*X'./ | >.>.{ t ",
"e Q.*X+.~ +...Q.#.i.w.` _.s % 7.wXP.B.v.S.Y i.x.b.Z.a.b.N.H.j.a !.+X,._ XX*X#X+X+X#X#X_.) @.~.~.@.e ",
"e Q.=X+.) +.+.+.f Z ^ :.%...@.h K.i.C.H.t.x Z.Z.v.Z.a.J Z.N.S.v :.XX:.] XX>X#X-X;X&X&X`.) @.~.W.#.t ",
"e !.2X+.) +.+.+.- [ +.+.#.#.@.9 q.H.N.H S N.Z.v.N.N.S.t.t.Z.Z.r.} OX:._ XX-X#X].X.=.-X_./ @.~.~.| t ",
"e ,.OXO./ } +.} } #........... .9 N < n N.Z.N.N.N.N.v.Z.S M.Z.c.h @X;.] XX>X*.: 8.=.;X_.) O.1.1.{ t ",
"t / ] ~ 5 q _ / ~ ~ ~ t ~ ~ ~ ~ ! ! 4 y.y.G S.N.N.Z.N.S.y.y.Z.S > {.:.] XX-X( > w #X@X_.~ u / ~ u t ",
"t i / % . & * 5 y ~ ] %.O.] ~ [ ;.+.t J D.c k.Z.N.N.N.S.Y S A.i.m ).>.) >X/.z /.XX2X1X[.) { -.;.] t ",
"t / +.` O 6 5 - % X 6 {.[.W.) ,.>X^. .1 S.y.D S.N.N.Z.b.i.K x.D.r.%.>.) +Xg o.<X>X>X,X'.) W.*XoX>.t ",
"t _ +.:.[ } %.+.+.a @ }.@X[.] ,.>X^.%.p v.M.: l.Z.n.N.N.D.L l.S.r.*.>.u { : ' @.#.@.#...~ W.oXoX;.t ",
"t / %.` } %.+.+.:.q 5 `.{.`./ ;.2X^./ 0 t.x.n N.N.Z.N.N.S.T i.H.r.#.W.~ 7 c ~ u ~ ~ ~ ~ ) ;.'._.@.t ",
"t / 5 O a } +...%.5 4 :.+.y : 0 =.g S n.Z.p.B S.N.N.N.N.S.t.i.S.r.h ' < F h @.#.#...#.#...#.%.%.) t ",
"e ~ X O % X @ + = $ $ r 7 Z b z ; p.D.k.K = l C.c.v.v.v.Z.t.a.F.y., A D g ;.#...#.#.#.#.#.#.#.#.) t ",
"t / [ 8 _ u u y q . % o : Y l.T a.x c % | _ L.Y.J.J.J.U.W A c a.V _.X.t ;.,.,.,.,.,.Q.,.,.,.,.Q.{ t ",
"t %.+X[.1./ #.1.1.& %.@.0 b p.Z 0.O $ % # @ 6.6.6.R.6X7Xd.i.i.K v 2.W.) `.OX.X.X.X}..X.X.X X.X.X&.t ",
"t %.%.' )._ $.1.%.o %.$.} r = ( *.=.=...w 6X9XT.6.6.4.g y.Y N.T v.1 t ~ %.,.,.2.Q.2.:.:.;.:.:.:.{ t ",
"t ` . o % * * y q + #.#.#.@.! ~.2X_.#.4 u.I.E.wXeXwXwXqXW A U A i.@ . X . O o # & 5 t ~ ~ ) ] ) ~ t ",
"t :.a =.X.3 4 = + q #.#.#.#.t ,.>X].q H A.c.h.I.R.3.6XE.B.H c & X.).{.`.#.` / y 6 @ $ $ % 6 e r ^ u ",
"t ;.].`.[.) ;.1.#.#.#.#.#.#.u ,.2X%.A A.N.N.N.k 2 & b.v.v.v.H y Q.{.}.[.W.1.W.~.!.W.W.;.` p i p ^ u ",
"t &.#X-X~./ @.1.#.#.#.#.#.#.u 2.@X1 C.N.N.C.x u u M C.N.N.D.S ] %.W.W.1.%.+.#.>.W.W.W.W.&.:.!. X:.t ",
"e &.+X#X)./ { $.#.#.#.#.#.#.y ^.#.0.S.N.S.G ~ } e N S.N.Z.Z.N | #.%.%.%.#.#.#.%.%.%.:.+.+.^.).+.^ t ",
"t &.#X#X^./ ] #.#.#.#.{ #.{ u ;.= G S.N.j.7 %._ e m C.s.y.N.x @.#.#.#.#.#.#.#.#.+.+.+.%.!.^.,.^ e t ",
"t &.+X#X^./ ] #.#.#.#.#.#.#.! @.M k.N.N.v ) #.) t < M.n : w.U { #.#.#.#.#.#.#.#.+.+.+.:.{.%.~ t u t ",
"t &.+X#X_.~ ] #.#.#.#.#.#.#./ 4 G D.N.Z.M ~ ) u u * e.N.x.S.K u i u ~ ~ u u / ~ / ~ ~ ] ../ e e t t ",
"e @._.+X_.~ { &.#.#.#.#.#.#.~ t K S.N.c.= t e t ~ { 1 S.N.S.H 5 ) ] ] ] ] ] ) u ) %.+.O.O.%.%.+.) t ",
"t t ] '.(.! @.1.#.#.#.#.#.#.u @.J S.N.j.* ~ t t ) `...w.S.N.z.p &.1.1.1.1.W.1./ :.>X#XOXOX>X,X#X;.t ",
"t #.~.OX)./ $.W.>.%.#.#.$.&.! @.g v.S.i.q { [ ) { 1.;.1 v.N.C.1 @.&.&.>.W.~.1.) 2.1X:X#X#X-X:X*X>.e ",
"e @.OX+X).! @.~.W.>.$.#.&.>./ 1...g.M.A s &.#.#.#.#.#.) Y S.S.v ) #.#.%.W.~.1./ ,.1X:X+X#X+X@X#X,.t ",
"t @.(.+X)./ $.~.~.W.1.$.#.#.q h I N.N.r.d @.#.#.#.#.@.@.= z.x.H w $.#.%.1.~.1./ ,.1X:X#X#X*X#X#X;.t ",
"t u @.&.@.u ) @.#.#.] ] r + , A D J N N w ) ) ) ) ) w , c c G v.S ~ _ ] | #.{ u { Q.2.;.>.;.:.>.{ t ",
"u u t t e t t e t t e t e w 5 e e e e e e t t t u 5 , x N 1 R < 6 t t t t t t t t t t t t t t t t u "
};
