/* XPM */
static char *_b501033c93b48c9a7e0c03f59784225IfhBHF4uj7UHtNRj[] = {
/* columns rows colors chars-per-pixel */
"50 50 180 2 ",
"   c #070707",
".  c #080807",
"X  c #070708",
"o  c #080709",
"O  c #0A0A0A",
"+  c #11110F",
"@  c #0E0A11",
"#  c #110B16",
"$  c #150D1B",
"%  c #141414",
"&  c #17141A",
"*  c #1A141F",
"=  c #1C1C1C",
"-  c #1A0F24",
";  c #161223",
":  c #1D1524",
">  c #1E1B21",
",  c #1C1329",
"<  c #1F1B2E",
"1  c #1C1F34",
"2  c #22162D",
"3  c #251D2F",
"4  c #1A2C3F",
"5  c #242424",
"6  c #262428",
"7  c #282728",
"8  c #272828",
"9  c #2A2A2A",
"0  c #2E2734",
"q  c #28273A",
"w  c #39373B",
"e  c #311D43",
"r  c #34184B",
"t  c #381E50",
"y  c #1C3040",
"u  c #272946",
"i  c #26344A",
"p  c #2D2E53",
"a  c #3B2357",
"s  c #312A58",
"d  c #2B3954",
"f  c #30345E",
"g  c #3D2C64",
"h  c #2D3D60",
"j  c #3C3667",
"k  c #313964",
"l  c #43374D",
"z  c #422858",
"x  c #4A315E",
"c  c #4E3865",
"v  c #40356E",
"b  c #523A66",
"n  c #553D68",
"m  c #433A75",
"M  c #1D4355",
"N  c #21425A",
"B  c #2A4667",
"V  c #2A4A63",
"C  c #2E4469",
"Z  c #2D4C6E",
"A  c #245264",
"S  c #25576D",
"D  c #2C4E71",
"F  c #2B5273",
"G  c #2C5679",
"H  c #2B5B7D",
"J  c #26657A",
"K  c #226C7F",
"L  c #454646",
"P  c #5A486D",
"I  c #524070",
"U  c #685379",
"Y  c #296783",
"T  c #256C82",
"R  c #296A86",
"E  c #316789",
"W  c #26758B",
"Q  c #29748D",
"!  c #25798D",
"~  c #287690",
"^  c #267E93",
"/  c #2B7B95",
"(  c #484886",
")  c #495087",
"_  c #4D5394",
"`  c #505C9D",
"'  c #4C7490",
"]  c #796688",
"[  c #6D7193",
"{  c #525EA2",
"}  c #4A6CA6",
"|  c #586BB2",
" . c #4E7BB6",
".. c #5474B6",
"X. c #5B72BA",
"o. c #5F7CC6",
"O. c #1E8E97",
"+. c #268399",
"@. c #258C9E",
"#. c #258CA0",
"$. c #2F88A5",
"%. c #378AAE",
"&. c #2494A5",
"*. c #249BAB",
"=. c #1DA3A9",
"-. c #22A4B1",
";. c #22A9B5",
":. c #21AEB9",
">. c #2AA9BC",
",. c #37A8B6",
"<. c #21B3BD",
"1. c #4198AB",
"2. c #4387B6",
"3. c #5891BA",
"4. c #7692A8",
"5. c #53ABB9",
"6. c #1FBFC6",
"7. c #36A9C8",
"8. c #24B4C1",
"9. c #20BCC4",
"0. c #22BFC8",
"q. c #32BAC3",
"w. c #589FDE",
"e. c #698EC6",
"r. c #6689D4",
"t. c #44ADD5",
"y. c #51A5DC",
"u. c #5DBED4",
"i. c #6A94E3",
"p. c #6C9DEE",
"a. c #47BBE6",
"s. c #59BBF6",
"d. c #5DB9F9",
"f. c #6EA5F7",
"g. c #71A6FA",
"h. c #75A8FA",
"j. c #63B3F9",
"k. c #1FC1C7",
"l. c #1FC5CA",
"z. c #1ECACE",
"x. c #1ECED1",
"c. c #1DD3D5",
"v. c #1ED6D8",
"b. c #1CDCDB",
"n. c #32C3CA",
"m. c #29C9D7",
"M. c #32C8DB",
"N. c #27D2D5",
"B. c #1BE2DF",
"V. c #39C7E4",
"C. c #23D9E0",
"Z. c #31DAED",
"A. c #3FD7F7",
"S. c #3DDAF7",
"D. c #1BE4E2",
"F. c #1AEAE6",
"G. c #1DEBE9",
"H. c #19F3EC",
"J. c #19F8EF",
"K. c #1CF6F1",
"L. c #18FEF5",
"P. c #21E9E9",
"I. c #30E6F6",
"U. c #22F4F5",
"Y. c #50C7F8",
"T. c #44D2F6",
"R. c #91839E",
"E. c #998CA6",
"W. c #9C99AF",
"Q. c #8A9BB0",
"!. c #A196AD",
"~. c #A69AB0",
"^. c #8FAEBE",
"/. c #B9AFC1",
"(. c #BEB5C5",
"). c #C3BBCA",
"_. c #DAD6DF",
"`. c #DFDAE2",
"'. c #F4F3F5",
"]. c white",
/* pixels */
"O O O O + O O O O O O O O O O . . . . . . . X . # 4 T O.@ X X X . . . o . . O o O O O O O O O O O O ",
"+ + + O O O O + O O O O . O . . . . . . X X @ +.c.L.L.c.# X     . . . . . o . . O > = O X O O O O O ",
"5 + O O O O O O O O . O O . . O . . . . X X T 3.E.W.n.l.$         . . . o . o . X + + X O O O O O O ",
"= + O O + O O O O . O . . . . . X X X . X $ t._.].`.4.b.$             . . o . o X X O . . O O O O O ",
"O + + O O O O O . . + + .       X X       4 u.].].'.Q.L.4               . . . . X X . . O . o O O O ",
"O O . . O O O O . . % = .       X X       S e.R._.U [ L.K                   . . . . . . X O O . O O ",
"O O . . O . O . . . .   . X     X X X X   @.p.E.~.).^.L.:.O                     . . . . . . . O O O ",
"+ O O O . .   O .         X     X X     @ >.g.[ /.(.E L.H.,                     X X . . . . . . . . ",
". O . . . o O . X X X X X X X           , V.h.) t P Q L.J.K O   .                   X X X X X X . O ",
". . O . . o X X X X X X X X             M Y.h.e.I n 1.L.H.D.N   . .           .   X X X X O X O O O ",
". O O O o . . . X X X   . .             W V.h.r.b a @.L.H.L.l.# + .           .     X X X O o O . O ",
"O . 5 % . o . . . . .   ; * .         X -.V.g.i.P U ,.L.D.L.H.W e 0 O o     . . . . X . . X . . . X ",
". O . . . o O . . . 6 P $.N.&.! -     @ c.N.j.i.] z q.L.b.L.H.P.P E.' B @ X . X . . O X X O X . . O ",
"O O . . o . o . . . l ] R.] J.B.y.h - , F.c.T.r.x n n.L.b.L.H.F.5.P !.,.*.Z $ X . . . . X X . . . O ",
". . . . . o . o . . o , %.I B.c.Y.g.f.w.L.b.I.| r r 9.L.c.L.L.B.L.M.n / L.s.} @ O . X O O O O O O O ",
". . . . o . o . . . . , P.v c.J.M.g.f.d.L.L.S.{ r r N.L.v.L.H.B.L.A.j G L.Z.p.& O X O O X O O O O X ",
"O . O . O . . . o o X , K.m J.L.b.j.g.d.L.H.d.( n t 8.L.D.L.v.F.L.Z.X.E L.F.f.- o o O O O O O O . . ",
"o O o O O O O O O o o - H.%.L.L.L.T.g.A.L.8.g.( z c ;.L.x.H.c.D.L.b.s.$.L.B.w.$ O O O O O O O O + + ",
"O o o O . O O O O O O $ b.v.L.v.K.K.g.L.L.7.g.( r r 8.K.B.c.c.B.L.b.U.Z.L.b.t.# O O O O O O O O . . ",
"O O O o O O O O O O o $ -.v.L.B.6.L.T.U.L.m.g.m r r 0.D.F.c.L.<.b.z.b.J.J.v.a.$ @ O O O O O + O + O ",
"= O O O O O O O O O @ & ;.l.B.L.0.L.K.U.L.G.j.g r r z.B.L.z.H.B.B.B.x.L.x.L.m.$ O O O O O @ O O . O ",
"O O O O O O O + @ O O $ *.l.l.D.F.H.J.L.L.L.Y.a r s B.H.L.L.H.H.H.b.c.L.b.c.b.& O @ + O O + @ + O + ",
"O + + O O + O + O O @ % ^ 6.J.H.L.D.F.L.L.L.S.g r p b.L.L.F.G.F.L.v.l.D.6.k.B.M % O + O + O + O + O ",
"O O @ + O + O O + + @ O i ^ H.l.~ z.b.F.L.L.I.g r r k.L.L.B.v.b.L.6.v.z.*.z.c.O.O + O % @ + O + O + ",
"+ + + @ @ + @ + @ + + + y :.&.;., ;.l.b.L.L.U.j r r :.L.H.B.J.L.F.z.F.F.*.F.c.=.+ @ + @ @ @ + + + + ",
"+ # + + + + + + + + + @ < *.Y ~ - #.F.b.L.L.L.) r r x.L.H.D.v.L.H.c.b.z.6.L.;.J + + + + + + + + + + ",
"% + % + % + + + O % % % 2 R < Y ; S L.b.K.L.L.} r s L.L.F.c.D.L.H.B.G.+.c.z.D * + + + + + % + + + % ",
"% % % % % + % % % % % % 2 u # B & 1 v.H.z.L.L.%.r k L.L.D.b.J.L.G.L.c.S -.-.u % % % + % % + % % # + ",
"% % % % % % % = % % % % % = % * % : *.<.6.J.L.2.r F L.b.k.L.H.L.c.H.<.A @.&.% % % % % + % % % % % % ",
"= % = % % & = w = % % % % % % % % & D :.l.H.L. .r G b.l.L.L.D.H.-.k.-.K 4 F., % % % % % % % % % % % ",
"= % = % = % % % % % % % % % % % % % 2 Y ;.B.L...r H b.z.B.v.L.z.D W @.T 2 H.4 % % % % & % % % % & % ",
"= = = % = = % = = % = = % = % = = % * F W l.L.| r G D.z.l.<.L.D.A 2 2 Y 2 J ; = % = % % = % = = % = ",
"= = = = = = % = = % = = = = % = % = = 3 F F.L.X.v k L.C.8.<.b.b.S % : R i < % % = % = % = % % = = = ",
"5 = 5 = = = = = = = = = % = = % = % % = V c.L.o.| k 6.D.:.b.-.6.T = > p p = = & = = % = = = = = = w ",
"5 5 = 5 = 5 = = = = = = = = = = = = = = T 6.N.o.i.( F B.z.J.-.k.T = = = = = = = = % = = = = = = = 5 ",
"5 5 = 5 = 5 5 = 5 = = = = = = = = = = = &.6.b.i.i.X.k B.b.L.^ z.O.& = = = = = = = = = = = = = = = = ",
"5 5 5 5 = 5 = 5 5 = = = = = = 5 = = = = ! l.l.g.r.o.k G.b.H.O.6.;.> = = = = = = = = = = = = = = 5 = ",
"5 5 8 5 5 5 5 5 5 5 5 5 5 = 5 = = 5 5 = J c.v.g.o.o.E J.l.8.f e :.> 5 = = = = = = 5 = = = 5 > 5 = = ",
"5 8 8 5 5 5 5 5 5 5 5 = 5 = 5 = 5 = = = A <.L.g.r.p.$.L.&.-.k < &.5 > = 5 = = = 5 = = 5 = = 5 5 = 5 ",
"8 8 8 5 8 8 8 5 5 5 5 5 5 5 5 5 = 5 5 5 d #.L.g.| f.7.L.~ G C > C > > > = 5 5 5 = 5 5 5 5 5 5 = 5 5 ",
"8 8 8 8 9 8 9 8 5 5 5 5 5 5 5 5 5 5 5 5 7 Q L.g.` p.<.L.-.s V 5 5 = = 5 = 5 = 5 5 5 5 L 5 5 = 5 = 5 ",
"9 8 9 8 8 8 8 9 8 8 8 8 8 5 8 5 5 5 5 5 5 @.L.g._ ` B.J.+.6 6 5 5 5 5 5 5 5 5 5 = 5 5 5 5 5 5 5 5 5 ",
"8 7 8 9 9 8 9 9 8 8 8 8 8 8 8 5 8 5 5 5 5 #.K.g._ e N.+.Z 5 5 5 5 5 5 5 5 5 5 5 5 5 5 5 5 5 5 5 5 5 ",
"8 9 8 9 8 9 9 9 8 8 8 8 8 8 8 8 7 7 7 7 5 @.P.g.` q d 6 5 5 5 5 5 5 5 5 5 5 5 5 5 5 5 5 5 5 5 5 5 5 ",
"8 7 9 9 9 9 9 9 9 9 9 9 9 8 9 9 9 9 9 9 9 J P.g.` 9 9 6 5 9 5 5 5 5 7 5 5 5 9 5 5 7 7 5 5 5 5 5 5 5 ",
"5 9 7 9 9 9 9 9 9 9 9 9 9 9 9 9 9 9 9 9 9 i G.h.) 9 7 7 9 5 8 9 9 7 7 9 9 5 5 9 9 5 7 8 5 5 8 5 5 5 ",
"5 9 9 9 9 9 9 9 9 9 9 w 9 9 9 9 9 9 9 9 9 0 k.h.j 7 7 7 9 9 9 9 5 9 9 5 9 8 9 5 9 5 8 5 8 8 8 5 5 5 ",
"5 5 9 5 9 9 9 9 9 9 9 9 9 9 9 9 9 9 9 9 9 9 @.f.0 9 9 9 9 9 9 9 9 9 9 9 9 5 9 8 9 9 7 9 5 5 8 5 5 5 ",
"5 9 9 7 9 9 9 9 9 9 9 9 9 9 9 w 9 9 9 9 9 9 A 3.9 9 9 9 9 9 9 9 9 9 9 9 9 9 9 9 9 9 9 9 5 9 5 5 5 5 ",
"5 5 5 8 5 9 9 9 9 9 w 9 9 w 9 9 9 9 w 9 9 9 0 l 9 9 9 0 9 w 9 9 9 9 9 9 9 9 9 9 9 9 9 5 9 5 9 5 8 5 "
};
