/* XPM */
static char *_69dd13a02a243aa8ef2da2a01236484w3LQS3IUEHvCiAmr[] = {
/* columns rows colors chars-per-pixel */
"50 50 250 2 ",
"   c #020102",
".  c #0A0301",
"X  c #0A0A05",
"o  c #04050A",
"O  c #050A0C",
"+  c #0B0C0C",
"@  c #080807",
"#  c #100E0D",
"$  c #140705",
"%  c #0E110D",
"&  c #12110E",
"*  c #1B120E",
"=  c #0C0E12",
"-  c #060A18",
";  c #110E11",
":  c #0D1113",
">  c #0C141C",
",  c #08131A",
"<  c #131213",
"1  c #181818",
"2  c #281C15",
"3  c #352419",
"4  c #302516",
"5  c #040726",
"6  c #0C1422",
"7  c #0D192B",
"8  c #0C1826",
"9  c #131A23",
"0  c #0B1B36",
"q  c #0F1231",
"w  c #0E203A",
"e  c #14253A",
"r  c #15212F",
"t  c #382C26",
"y  c #323233",
"u  c #4D3210",
"i  c #4B3828",
"p  c #4A3B35",
"a  c #553E33",
"s  c #4E3525",
"d  c #633D2C",
"f  c #67390D",
"g  c #734400",
"h  c #594438",
"j  c #54412F",
"k  c #664836",
"l  c #6D533C",
"z  c #76543D",
"x  c #774E30",
"c  c #5C4010",
"v  c #031942",
"b  c #092848",
"n  c #122845",
"m  c #1B3B59",
"M  c #16324E",
"N  c #2C394B",
"B  c #0E3866",
"V  c #403F5F",
"C  c #0F406E",
"Z  c #25466B",
"A  c #294D74",
"S  c #29567A",
"D  c #335B7C",
"F  c #364B65",
"G  c #34546C",
"H  c #4E4B4D",
"J  c #6A4C41",
"K  c #6D5645",
"L  c #735341",
"P  c #7B5C44",
"I  c #775948",
"U  c #695A57",
"Y  c #7D4943",
"T  c #7B624B",
"R  c #796559",
"E  c #505874",
"W  c #6C5D6D",
"Q  c #736B72",
"!  c #875634",
"~  c #885D46",
"^  c #84644B",
"/  c #89664C",
"(  c #896954",
")  c #956C57",
"_  c #8E755C",
"`  c #98745B",
"'  c #946B4E",
"]  c #A6785A",
"[  c #A5704F",
"{  c #986961",
"}  c #8A7367",
"|  c #997863",
" . c #867676",
".. c #967C76",
"X. c #876D67",
"o. c #A77C67",
"O. c #AC716A",
"+. c #945D60",
"@. c #928072",
"#. c #A6816B",
"$. c #AA8773",
"%. c #B48B79",
"&. c #B68A72",
"*. c #A9815E",
"=. c #114A84",
"-. c #2B5782",
";. c #365D87",
":. c #284D82",
">. c #2E6287",
",. c #36668A",
"<. c #2F6A97",
"1. c #3D6B94",
"2. c #366A99",
"3. c #39749A",
"4. c #346CA3",
"5. c #3A6DA4",
"6. c #3D72A4",
"7. c #3574AA",
"8. c #3C76AC",
"9. c #3B79AD",
"0. c #3574A9",
"q. c #3B7DB3",
"w. c #387CB7",
"e. c #2D6CB1",
"r. c #426E9A",
"t. c #436D95",
"y. c #43739B",
"u. c #54688C",
"i. c #70738B",
"p. c #4275A4",
"a. c #447AA4",
"s. c #4A7CA4",
"d. c #4275AA",
"f. c #467BAA",
"g. c #437DB2",
"h. c #4B7FB4",
"j. c #727DA2",
"k. c #847C8C",
"l. c #3C82B5",
"z. c #3C84BA",
"x. c #3B88BC",
"c. c #3980AE",
"v. c #4B83AD",
"b. c #4784AB",
"n. c #5487AB",
"m. c #4482B4",
"M. c #4B84B3",
"N. c #4C8AB4",
"B. c #4184BB",
"V. c #4D86BA",
"C. c #438CBC",
"Z. c #4E8CBA",
"A. c #4289B6",
"S. c #528CB5",
"D. c #528CBB",
"F. c #5A8AB4",
"G. c #4893BD",
"H. c #5493BD",
"J. c #5B94BC",
"K. c #5895B9",
"L. c #6B89B7",
"P. c #6999BB",
"I. c #718FAD",
"U. c #758096",
"Y. c #3E87C5",
"T. c #438CC4",
"R. c #4689C5",
"E. c #548EC5",
"W. c #4593C4",
"Q. c #4C95C4",
"!. c #4492CA",
"~. c #4C95C9",
"^. c #4B9CCC",
"/. c #4699C7",
"(. c #5594C1",
"). c #5B94C2",
"_. c #559AC3",
"`. c #5C9CC4",
"'. c #579CCC",
"]. c #4C99D2",
"[. c #549CD5",
"{. c #639AC3",
"}. c #679BC8",
"|. c #729CCE",
" X c #4DA4CA",
".X c #5BA3CA",
"XX c #5DA9CC",
"oX c #58A3C8",
"OX c #53A4D3",
"+X c #5AABDB",
"@X c #57A9D5",
"#X c #5EB1D8",
"$X c #4DA2D3",
"%X c #6CA1C5",
"&X c #64A3C9",
"*X c #62ACCC",
"=X c #6AA5CA",
"-X c #74A3C4",
";X c #7CABCA",
":X c #79A8C8",
">X c #62ADD3",
",X c #6AAAD4",
"<X c #73ACD2",
"1X c #7BADD5",
"2X c #63B4D4",
"3X c #6ABEDB",
"4X c #68B7D8",
"5X c #7CB2D5",
"6X c #7BB5DB",
"7X c #73BCDD",
"8X c #7CBBDC",
"9X c #74B4D9",
"0X c #63B2CE",
"qX c #58B0EC",
"wX c #66B8E3",
"eX c #79BBE2",
"rX c #6AAFEF",
"tX c #6BC2DC",
"yX c #6AC7DD",
"uX c #77C3DE",
"iX c #6CC7E3",
"pX c #78C6E5",
"aX c #6ECCF4",
"sX c #8B838F",
"dX c #B89483",
"fX c #A88E85",
"gX c #8989A5",
"hX c #9092B1",
"jX c #82ADCA",
"kX c #85ADC7",
"lX c #84A9D7",
"zX c #84B5D5",
"xX c #83BBDC",
"cX c #8CBCDC",
"vX c #87B7D7",
"bX c #91BEDC",
"nX c #89B5CE",
"mX c #85BCE1",
"MX c #8CB6E3",
"NX c #8396C0",
"BX c #8DC1DE",
"VX c #92C2DD",
"CX c #84C3E2",
"ZX c #8CC4E2",
"AX c #89CCE7",
"SX c #93CBE4",
"DX c #93C3E2",
"FX c #95D1E6",
"GX c #95D4E9",
"HX c #80D2E8",
/* pixels */
"<.<.A. X XG.l.l.q.9.0.2.2.2.C._.Q.Z.b.8.g.8.p.5.r.M.oX@X_.V.v.v.S.0XyXyX0XK.F.XX3X0X%XK.J.K.v.y.t.t.",
"<.4.0.C.G.x.A.c.9.l.A.9.2.6.G.W.G.C.C.G.~.(.b.6.6.m..XXX_.V.M.v.M.0XuXyX*XK.H.0XyXtX0X`.H.K.v.s.t.t.",
"4.4.7.C. X XW.9.9.x.G.A.4.6.l.B.m.m.E.^..X XQ.p.2.h.(.'.D.M.v.M.v.H.XXoXJ.G.K.*XtXyX0XoXF.v.s.s.t.t.",
"7.7.q. X@X XW.m.q.z.C.l.4.4.9.m.B.A.^.^.OXOXQ.g.5.d.m.V.d.d.M.M.N.oX0X0XH.H.H.XX3XyX2X`.f.s.s.p.y.t.",
"0.9./.@X@X/.x.x.l.z.A.l.4.4.9.B.T.Q.^.^.OXOX~.g.5.8.g.m.d.g.m.M.Q.2XyXyXXXV._.0XtX3X0XoXv.p.s.a.t.y.",
"0.c.x. X XY.c.x.x.Y.W.l.7.4.q.W./.W.^.^.].^.C.9.5.8.Q.(.h.g.m.m._.yXaXyX2XZ.Z.XXtX2XXXH.b.a.s.p.t.y.",
"0.0.q.x././.x.l.C.W./.C.4.7.z.W.~.W.C.R.W.B.m.8.5.q.~.OXZ.g.m.h.Z.2XiXyXXXV.m.'.2X0XoXH.M.y.a.a.t.r.",
"4.<.4.z. X/.z.q.q.x.W.l.4.7.x.~.W.T.q.9.7.g.q.9.5.g.'.OX~.g.g.h.M.oX4X#XoXN.f.(.0X#X_.N.f.6.a.3.1.t.",
"<.4.9.W. X/.z.l.w.l.x.l.4.4.0.<.>.-.m r 9 m A A :.2.W.+X'.g.M.m.N.oX#XXX_.V.M.H.XXXX_.M.p.p.a.3.1.1.",
"4.7.x.^./.x.z.l.w.7.z.0.A e <       @   $ . . + 6 ; b ,.g.g.V.V.H.XX3X2X_.V.M.H.XXoXH.Z.h.v.g.a.t.1.",
"4.9.x./.W.z.w.w.w.w.x.S   . + = > > < = - , > > ; = .   q Z 6.b.G.#XyX3XoXV.Z.oX#XXXH.G.Z.H.M.p.t.1.",
"4.9.q.x.z.z.z.q.7.x.l.e . > o + + O = + = + + = @ o : > , - Z d.A..X3X3X.XV.D.oX3X2XoXH._.(.N.a.2.2.",
"4.7.9.w.z.z.w.w.w.x.c.. + @ = X % # + + = + - = + ; > o - 8 7 -.V.XX3X2X.XZ.V.oX3X3XoX(.H.H.M.a.r.t.",
"2.7.7.q.q.w.z.w.w.x.<.  , + + o X + @ + o o o + ; 6 7 = - O v ;.(.>XwX3X.XH.D.*X3X3XXXH.D.S.N.a.t.2.",
"4.7.9.q.z.z.z.Y.z.l.M   = @ @ . + X ; * 4 s 2 @ & 6 = 7 6 X 5 A (.4XiX3X.XF.H.*X3X3X*XH.V.v.b.a.r.r.",
"4.8.w.!.^.^.x.w.z.q.9   = @ + = + & ; s l ' ~ *   . + q 8 . M ,.).4XwXwX>XJ.).*X3X4X&XH.D.S.v.b.p.t.",
"5.q.l.^.@XOXW.w.<.Z 6   = = # ; < 1 a ( o.&.] z t + , 7 7 6 m d.E.,XiXwX4X`.J.&X4X9X.XJ.J._.N.s.b.n.",
"8.q.B.^.@XOX!.Y.7.r . + + O   # 4 k ' ] *.] ] ' z u   . > 5 Z h.`.4XiXeX,X}.).`.9X4X*X).&X&XK.n.b.n.",
"g.m.B.!.$X^.T.z.Y.S . > + t k ^ o.O.] ] ] ] o.o.} Q S.-..   t.}.,XwXpXiX,X&X&X<X,X7X9X&X&X&XJ.S.n.K.",
"8.q.x.!. XY.Y.R.w.m . = t a K | %.dX%.&.&.%.dX%...Q rXqXq q V.,X,XpXiXeX,X&X<X9XuX7X9X%X&X=X).F.S.S.",
"d.q.g.].$X XY.Y.R.:.  9 t > 9 y J } fXdXdXdX| R p $ 7.qX=.v ).|.9XwXpXeX<X<X6XpXpXpX8X<X&X&XP.J.K.K.",
"d.g.g.~.+XOX!.z.Y.4.  y t J K k j 3 ( dX%.K 2 s J f ;.qXe.m '.|.,XeXpXeX1X<X6XpXHXpXuX,X<X<X}.P.P.`.",
"g.g.B.~.OX[.R.Y.R.e.. p a k a J I x z ] ' k L U K W i.qXw.:.}.}.9XeXpXpXeX<XeXeXCXpXHX5X1X1X%XP.P.%X",
"h.V.R.~.OX].!.R.p.H y i d 3 N y U H d ! I f U H N :.u.qXw.V ).|.eXpXHXAXeX1XmXCXCXHXBX8XxX1X-XP.%X%X",
"h.R.~.OX+X$X!.!.u.g a a d d J T ~ d Y [ NXW x I K u.j.aX].i.j.}.9XpXHXAXBX6XmXAXAXAXCXzXzX5X:XP.%X%X",
"h.V.E.+XwX+X].!.Q ! a a k ( ) | ~ x L [ lX1X~ ] o...NXrX[.|.k.I.5X8XCXCXxXxXCXSXAXAXBXzXzXjX:X:X:X:X",
"F.D.~.+XwXqXOX].i.! a H Y ) o.o.) Y +.[ k.rX| ] o.fXlXrXE.X.k.lX1X1XmXmXzXvXMXZXAXAXZXcXcXzX;X;X5X<X",
").E.'.+XOXOXqX].h.f a a L ) o.O.o.L +.dXk.j.o.O.$.hXMXrX|.~ L.mX6XxXmXmXcXvXcXDXSXSXSXcXcXcXnX;X;X:X",
").).'.+X@XOX+X$XR.H a p L ( $.%.o.J J X.Q W $.dXdXhXlXqXF.i.1XeXeXxXZXZXVXbXbXDXSXSXZXVXBXBXnXkX:X:X",
").).[.+X#XOXOX[.Y.u.g t J ( o.%.$.( R {  .X.o.&.&.gXlX~.j.|.rXMXmXmXAXAXZXVXDXSXSXFXSXVXVXbXnXkX:X:X",
"}.'.@XwXwX+X$X].!.R.b.V k / o.| X.^ _ | X.i. .` O.sX:XR.j.|.5XeXeXxXAXSXDXDXDXFXGXFXSXVXVXbXnXkXkX;X",
"}.)..X>XqX+XOX].T.Y.].1.u ^ ) ) a k Y ~ Y W U ~ sXsXL.R.J.=X6XmXmXvXmXZXDXbXVXSXFXFXFXVXVXVXnXkXkX;X",
"`.E.'.>X+X$X$X].R.Y.T.7.i P ` ' j k ) O.+.k.E ! ..gXn.V.}.|.5XeXmXzXcXmXbXbXDXSXGXGXSXVXVXcXnXkXkX:X",
"{.E.'.+X+X].[.].!.Y.Y.q.N l / ` ` T ) { +. .gX..} U.s.J.{.%X9X6X6XvXCXZXZXbXDXSXSXGXSXVXBXbXcXjX:X:X",
").D.}.wXwX+X!.z.R.!.!.Y.H s I / / *.@.*.) o.k.k.k.u.g.E.J.}.<X6X6XxXBXAXDXbXDXSXGXGXDXDXBXBXnXjXjX0X",
").E.'.+X2X2.n 7 m :.w.w.H 4 h z T *.@.$.$.....gXj.t.E.E.F.{.=X9XzXmXAXAXZXcXZXZXSXSXZXbXcXcXnXkXjXkX",
"J.D.H.@Xb.    .       b p i t j K R @.@.@.R Q Q E 5.[.E.E.}.,X=XF.P.F.n.;XbXcXZXAXHXBXBXcXvXjX;X;X:X",
"V.V.OXb.  , - o = > ,   i k p 4 4 y j K h y N M V F.'.p.t.D F 6     o 5 y.vXxXxXBXBXBXcXzXjX;X:X-X-X",
"V.8.a.M . ,   @ + @ X - i l h i t 4 t t 4 1 y E W I.~.        , e n M b D zXzXBXBXBXxXvXjXkX:X-X-XP.",
"S.N   X = O @ O = O O   a z z h h l T T K l E Q Q I.E.  < 9 0 e n w n v D zX5XxX8XuX8X5X:X-X-XP.P.%X",
"N.M . > X + + + O O O   i P ~ l l l ( _ T R Q U. .U.D.  : 9 7 0 n w n v Z -X<X6X8XuX8X<X-XP.P.P.P.P.",
"1.  : X + O + + + @ O   j P ^ I z T T ^ T R Q Q  .j.E   9 8 < 7 w e w n 5 n.<X9X7XuX8X=X%XP.P.P.n.n.",
"S   , X + + + + X + + o j T / ^ z ( _ ' T R  . .@.U $ > < , = > 7 v v n 5 ,.<X,X7XiX7X<X%XP.K.n.n.t.",
"A   , O @ @ + + : + % O 4 z ( ( ^ _ @.` _ } } *.I $ , , % + : 6 9 w 0 n 5 ;.>X,X7X7X7X=X%XK.K.n.b.b.",
"D   : X + O + & + ; + &   3 T _ / ^ _ ) _ ( ` K   , % + % : : < 8 8 0 w w b  X0X0XtX0X&XK.S.n.b.b.D ",
"<.%   = X % : 1 % o % = & o 2 T _ ^ T z T ^ j   & % % % % + , , 6 7 7 w e   3.#X2XtX0XoXH.N.n.b.b.D ",
"M % % % + + + 1 1 + X + % < o < l ( / T z t . < < + % % = = : , 6 7 : M C B S b.2X0X0XK.G.n.b.y.c.D ",
". + : % < + + < 1 1 @ + < + < O   j T k 1   < + : + % : < % = 6 > > o b C b B C c.XXoXG.b.3.3.3.,.D ",
"< + < < < X + + % 1 1 % + : + < &   2 < O & < & + < % # + + > 6 @ 1 H 8 X % B C b <. Xc.c.D c.D D c.",
"% & < & % + % + + < < y 1 @ : % = < + + : + = % < + O + - % % +   H H   % 8 0 e B =.S c.D D D D D S "
};
