/* XPM */
static char *result[] = {
/* columns rows colors chars-per-pixel */
"50 50 97 2 ",
"   c #040404",
".  c #07070B",
"X  c #08090C",
"o  c #0B0B16",
"O  c #0D0E1C",
"+  c #0D1414",
"@  c #0C1118",
"#  c #131E1F",
"$  c #0F0F20",
"%  c #101124",
"&  c #14152D",
"*  c #121C2A",
"=  c #161632",
"-  c #171835",
";  c #191A3B",
":  c #162324",
">  c #18222D",
",  c #1A2B2C",
"<  c #1E2A3C",
"1  c #20333B",
"2  c #1D1E44",
"3  c #1F214A",
"4  c #21224E",
"5  c #222B4A",
"6  c #243E40",
"7  c #243548",
"8  c #212650",
"9  c #242C52",
"0  c #262F5B",
"q  c #273555",
"w  c #25305B",
"e  c #263F5D",
"r  c #2C3C5D",
"t  c #283663",
"y  c #2B3C66",
"u  c #2B3C6C",
"i  c #2A474A",
"p  c #2B484B",
"a  c #315358",
"s  c #2A4564",
"d  c #314565",
"f  c #324A66",
"g  c #314669",
"h  c #354D6E",
"j  c #365A60",
"k  c #36506D",
"l  c #38546F",
"z  c #2E4473",
"x  c #314A7B",
"c  c #355171",
"v  c #3A5774",
"b  c #3B5D75",
"n  c #33527C",
"m  c #3C5C7E",
"M  c #3D6175",
"N  c #3E627A",
"B  c #41667E",
"V  c #42697E",
"C  c #334F81",
"Z  c #395683",
"A  c #3B5E84",
"S  c #37568C",
"D  c #39568F",
"F  c #3B5F88",
"G  c #3B5F95",
"H  c #406682",
"J  c #436A83",
"K  c #41698E",
"L  c #467286",
"P  c #46748F",
"I  c #48768C",
"U  c #426B95",
"Y  c #4D7C93",
"T  c #4C7D99",
"R  c #426EA1",
"E  c #4A7CA3",
"W  c #4370AC",
"Q  c #4778B3",
"!  c #4D858A",
"~  c #548C9C",
"^  c #538CA2",
"/  c #5895A1",
"(  c #5A99A5",
")  c #5998A8",
"_  c #5492B2",
"`  c #599BB3",
"'  c #5896B9",
"]  c #5A9BBA",
"[  c #60A3B1",
"{  c #63A9B5",
"}  c #66B0BB",
"|  c #5998C1",
" . c #62AAC4",
".. c #69B6C5",
"X. c #6EBFCD",
"o. c #72C7D0",
"O. c #79D2DB",
/* pixels */
"                                                                                                    ",
"                                                                                                    ",
"                                                                                                    ",
"                                                                                                    ",
"                                                                                                    ",
"                                                                                                    ",
"                                                                                                    ",
"                                                                                                    ",
"                                              , / / j +                 .                           ",
"                                          * > b 4 4 l < i                                           ",
"                                        . 5 0 4 4 4 4 4 f $                                         ",
"                                        2 4 4 4 4 4 4 4 4 3 O                                       ",
"                                      ; 4 4 4 4 9 z 4 8 4 8 4 o                                     ",
"                                    O 2 4 4 u 8 C 0 0 u 4 4 4 =                                     ",
"                                    = 4 8 4 D 8 4 4 4 G 4 4 4 4                                     ",
"                                  $ 4 4 2 0 0 4 4 4 4 3 x 4 4 4 ;                                   ",
"                                X 4 4 4 9 u 8 4 4 4 4 4 3 z 4 4 4 =                                 ",
"                                . 4 8 u x Y Y Z 4 4 u J Y m x 8 4 =                                 ",
"                                X 4 u 0 4 ` O...4 4 J o.X.Z 8 x 4 =                                 ",
"                                X t t 4 4 f f 4 4 4 4 4 ~ 3 4 3 G =                                 ",
"                              6 % u u 4 4 4 4 4 3 k 4 4 3 4 4 4 W ; 1 +                             ",
"                            @ / 8 0 x 8 4 4 k 9 4 4 4 v 4 4 8 u x 4 Y 7                             ",
"                            = 9 L 4 S 9 4 4 9 B 4 4 v r 4 4 8 G 4 r f 4                             ",
"                          a f 4 4 V 4 C 3 4 4 4 { { d 4 4 4 x 8 5 B 5 4 ( +                         ",
"                        * Y l Y d r v 5 x w 4 4 4 4 4 4 4 u 0 r B 9 N Y 4 !                         ",
"                        # Y 4 4 d 4 r 4 J u w 4 4 4 4 4 x h r r 8 9 9 8 4 !                         ",
"                        ! 5 4 4 4 r r 4 q b z 8 4 4 4 z 9 B 4 4 L 4 4 4 3 k 1                       ",
"                    : n 4 4 9 4 4 4 4 9 4 f ) E 8 8 F T ~ 4 5 4 4 4 4 8 4 4 z i                     ",
"                  * M 9 4 0 D z x 4 4 v 4 u u v ' U T 8 W 4 c 9 4 0 D z x 4 4 v e                   ",
"                X b 9 4 4 4 8 0 t u 4 4 4 u u 4 l T 9 4 W 4 4 4 4 z u 4 4 4 4 4 t p                 ",
"                O z 4 4 4 4 4 4 4 0 0 4 4 y y 4 4 3 4 8 U 4 4 4 x 3 4 4 4 4 4 4 3 s                 ",
"                $ 4 4 4 4 4 4 4 4 4 4 8 4 r r 4 4 8 4 4 I r r 9 4 4 4 8 4 4 4 4 4 ; .               ",
"                4 4 4 4 4 4 4 4 4 4 4 v 4 h 4 4 4 K 4 4 4 h 4 v 4 4 4 4 4 4 4 4 4 4 O               ",
"              % 4 4 4 4 4 4 4 4 4 4 4 4 4 9 4 4 3 Z 4 4 4 9 4 4 4 4 4 4 4 4 4 4 4 4 2               ",
"              & 4 4 4 4 4 4 4 4 4 4 4 4 4 4 4 4 4 B 4 4 4 4 4 4 4 4 4 4 4 4 4 4 4 4 4 .             ",
"              & 8 4 4 4 4 4 4 4 4 4 4 4 4 4 4 4 4 A 4 4 4 4 4 4 4 4 4 4 4 0 4 4 x 4 4 .             ",
"              & 4 0 0 4 4 4 4 4 4 4 4 4 4 4 4 4 4 K 4 4 4 4 4 4 4 4 4 4 x u u D 4 4 8               ",
"              & 4 4 4 z 4 u 4 4 G K ~ ~ C 4 4 4 4 V 4 4 4 w P ~ Y G w 4 W 8 8 9 4 4 &               ",
"                4 4 4 4 4 4 4 G O.O.v 3 ( x 4 4 4 Q y 4 4 E d 4 O.O.] 0 4 4 4 4 4 3 O               ",
"                - 4 8 4 4 8 U ` o. .X.B d 4 4 4 4 d d 4 4 9 l [  ....._ t 4 4 4 3 $                 ",
"                . = 4 4 4 g H R } u ^ B f k 4 4 4 U g 4 4 b k [ u H | c ^ 4 4 4 O                   ",
"                  . - 4 4 4 4 8 5 4 9 4 4 5 4 4 4 I 4 4 4 9 4 5 4 8 9 4 9 4 4 %                     ",
"                                                                        .                           ",
"                                                                                                    ",
"                                                                                                    ",
"                                                                                                    ",
"                                                                      .                             ",
"                                                                                                    ",
"                                                                                                    ",
"                                                                                                    "
};
