/* XPM */
static char *result[] = {
/* columns rows colors chars-per-pixel */
"50 50 51 1 ",
"  c #000000",
". c #080707",
"X c #080708",
"o c #0C0C0C",
"O c #100F0F",
"+ c #100F10",
"@ c #131313",
"# c #171718",
"$ c #1B1B1B",
"% c #1E1E20",
"& c #232323",
"* c #282727",
"= c #292728",
"- c #2C2B2B",
"; c #333333",
": c #383737",
"> c #3C3B3B",
", c #434343",
"< c #4C4C4C",
"1 c #535353",
"2 c #585757",
"3 c #5A5A5A",
"4 c #60605E",
"5 c #646464",
"6 c #696767",
"7 c #6B6B6B",
"8 c #706F6F",
"9 c #6F706F",
"0 c #737373",
"q c #7B7B7B",
"w c #838383",
"e c #8B8B8B",
"r c #908F90",
"t c #949494",
"y c #999897",
"u c #9B9B9B",
"i c #A4A4A4",
"p c #ABABAB",
"a c #B3B3B3",
"s c #B8B6B7",
"d c #BCBCBB",
"f c #C4C4C3",
"g c #C7C7C8",
"h c #CDCDCD",
"j c #D0CFCF",
"k c #CFD0CF",
"l c #D0D0CF",
"z c #CFCFD0",
"x c #D0CFD0",
"c c #CFD0D0",
"v c #D4D4D4",
/* pixels */
"                                                  ",
"                                                  ",
"                                                  ",
"           .oooo@@$@o.                            ",
"          O@$$%%$%%&><:$o .                       ",
"         .@@###@@@$-:,1<>-:,&@o                   ",
"         .@@@##$$@@&><11<>,3111;%@                ",
"          O@@@@$@@@$&&*;&&*:,12<1<*o              ",
"          o@@@@%$@@@@@@@@$#$&;,11<1;#             ",
"          o@+@@&$@@###@@@$$$&-*;,<,1<-.           ",
"         .o@@+@$###$&**%$$****->,:,,;,*           ",
"         +@@@@@@@##&:<1,;-;*--*1w7<<-->o          ",
"       .+@@$@@@@$;>,4qww5,<11<,5w2>,;*:#          ",
"       +@@#@$@$$>4wtiipapeqqetw92*-,,><>.         ",
"       @+o$&&-&>9iadfgddghhdaaaw:&*;>>2<$         ",
"      .o@@$$%**3uddhkcvvvvvvvvha6&&$$&<,:         ",
"       OO@@@##&5pdkcvvvvvvhgddghd4$$#@%-,O        ",
"       o@O@O@@>qiafgcvvvkiw00wifha6*$@#&,$        ",
"       o@O@@O#:,,<5qpcvvhietagkvvvke<>*%&o        ",
"       .@@OO@@#%---:6hvvvhafkcccvvvvdr,&O         ",
"        .@O@+@;qii0,1dvvvliurqtpfvvvvs7-o         ",
"         o@O@#;qpsa73hvvvvaitwudhvvvvhe>.         ",
"          oO@@%>,,544hvvvvvkfgkkvvvvvvs5&o        ",
"           O@@#%>5w76hvvvvvvvvvvvvvvvvvfs0o       ",
"           o@@$<epu20vvvvvvvvvvvvvvvvvvvja;       ",
"           .@$<udst<4gvklvvvvvvvvvvvvvvvvv0       ",
"            @$<yapq>;4aiwavvvvvvvvvvvvvvhvy.      ",
"            o$;qiy3-*;ycfkvvvvvvvvvvvvvvvv6       ",
"            X#*3eq>&*,svvvvvvvvvvvvvvvvvvv,       ",
"             @&>61;--wvvvvvvvvvvvvvjhljvvs$       ",
"             o$-<>>>,qakvvvvvvvvvvllhjt08;        ",
"              @&;;,>->7ypfhvvvvvvlhhhg>           ",
"              o$*-,::wafkkvkkvvcchhhhh5           ",
"              .@%*1<<wsdfkvvvvvkkhzhhht.          ",
"               o%&>:;<9eikvvvvvvzzhzjjp@          ",
"                @%-->9iskvvvvvvczhhhhjs$          ",
"                .$&*,0akvvvvvvvcchhgghd&          ",
"                 O%&>5tfvvvvvvvvchfdhkf=          ",
"                  O$*:1rfkkkkhgfaadhklg>          ",
"                   o##%:4qqq0q00tshckkl2          ",
"                    O@@#$&---:1wdhvvvxve.         ",
"                    .@#@#$$*>4yfvvvzjhhg7@        ",
"                     @###$-1wakvvvvvxhhhhi1#    . ",
"                     O##$&<eagcvvvvhvzhhhjhaw1=,1;",
"                  ..o@##$&,wagcvvvvvczhhhzhzfiq757",
"      ...ooO@oOoooO@@@@$%&,wagvvvvvvvczvhhdieq8659",
"     .++@@+++O@@@OO@O@@$%*<esgccvvvvvvzfaywq078000",
"   .@@@@+O@+@@O@@O@O@O@@%-<widhkvhhfaieq0907770877",
" .@$$$@@@@@@@++@++@O@@O@#&>30wwwq06311125999005755",
"o&*&&$$$@@@o+@+@+@+@O@@O@@$&*-;;;;-;><250qq0945755"
};
