/* XPM */
static char *result[] = {
/* columns rows colors chars-per-pixel */
"50 50 139 2 ",
"   c #040404",
".  c #080707",
"X  c #080807",
"o  c #0D0C0A",
"O  c #110F0C",
"+  c #18150F",
"@  c #1A1714",
"#  c #1B1817",
"$  c #1B1917",
"%  c #231D15",
"&  c #221F1E",
"*  c #262017",
"=  c #29231A",
"-  c #2F281D",
";  c #352D1F",
":  c #201F24",
">  c #292525",
",  c #2D2824",
"<  c #25242C",
"1  c #2A272A",
"2  c #2D292C",
"3  c #342D27",
"4  c #3B3225",
"5  c #36302C",
"6  c #3E362C",
"7  c #2D2B31",
"8  c #312D30",
"9  c #343030",
"0  c #3D3532",
"q  c #38343A",
"w  c #443927",
"e  c #433A2D",
"r  c #423B34",
"t  c #493F33",
"y  c #4E412D",
"u  c #53442E",
"i  c #4E423B",
"p  c #564731",
"a  c #5D4D34",
"s  c #54483C",
"d  c #624E2F",
"f  c #64533A",
"g  c #735A33",
"h  c #494241",
"j  c #584D44",
"k  c #534B4C",
"l  c #5D5142",
"z  c #4F4C5E",
"x  c #544E54",
"c  c #585156",
"v  c #575058",
"b  c #685743",
"n  c #6B5B46",
"m  c #6B5D4B",
"M  c #675750",
"N  c #6C5A52",
"B  c #6D604C",
"V  c #7A6648",
"C  c #6E625C",
"Z  c #736456",
"A  c #7E6B52",
"S  c #7D6C5D",
"D  c #464763",
"F  c #474863",
"G  c #4B4B63",
"H  c #504E63",
"J  c #565264",
"K  c #5A5665",
"L  c #5F5A68",
"P  c #635C66",
"I  c #645D6A",
"U  c #6E6463",
"Y  c #676069",
"T  c #6B636D",
"R  c #716563",
"E  c #7B6D63",
"W  c #6A6273",
"Q  c #82673C",
"!  c #8A724D",
"~  c #9D7E4F",
"^  c #816E56",
"/  c #826F58",
"(  c #8D7653",
")  c #8F7957",
"_  c #85725D",
"`  c #947B56",
"'  c #927C5A",
"]  c #846E66",
"[  c #837263",
"{  c #897663",
"}  c #8D7964",
"|  c #8C7A6E",
" . c #937E64",
".. c #937E6D",
"X. c #84757B",
"o. c #9C825A",
"O. c #AB864B",
"+. c #A1845D",
"@. c #A68A5D",
"#. c #AE8B59",
"$. c #978064",
"%. c #9C8464",
"&. c #9B857D",
"*. c #A08764",
"=. c #A58A64",
"-. c #AA8E64",
";. c #AE9164",
":. c #B29464",
">. c #C39957",
",. c #D3A357",
"<. c #C09F6E",
"1. c #CBA569",
"2. c #C5A676",
"3. c #CDA973",
"4. c #E4B363",
"5. c #E9B561",
"6. c #F3BB60",
"7. c #8D7C83",
"8. c #907E87",
"9. c #938083",
"0. c #999391",
"q. c #A99986",
"w. c #AA918F",
"e. c #B49E81",
"r. c #A48D91",
"t. c #B19695",
"y. c #B99D96",
"u. c #B59A99",
"i. c #C09E85",
"p. c #C8A799",
"a. c #E6B98D",
"s. c #CDADA5",
"d. c #D1AFAC",
"f. c #E0BBB3",
"g. c #E6BFB8",
"h. c #ECC4BD",
"j. c #EFC6C0",
"k. c #F0C7C1",
"l. c #F2C8C2",
/* pixels */
"                                                                                                    ",
"                                                                                                    ",
"                                            .                                                       ",
"                                                                                                    ",
"                                                                                                    ",
"                                  o                                                                 ",
"                              * 1.2.2.B                                                             ",
"                              g 6.5.0.q.*       .                                                   ",
"                              ~ 3.4.2.e.r                                                           ",
"                              ,.5.5.4.2.M 9 #                                                       ",
"                              u ,.6.6.a.X.P L x 1                                                   ",
"                                >.6.4.y.X.s.y.I L h                                                 ",
"                                % d [ T h.j.h.u.J J i                                               ",
"                                    @ P l.l.g.j.G G J >                                             ",
"                                      x h.j.j.f.L J L P X                                           ",
"                                      q d.j.l.j.T G L J 7                                           ",
"                                      0 t.g.h.h.Y J I I v                                           ",
"                                    t f.l.l.h.s.H G L K F #                                         ",
"                                . ] k.k.l.h.g.X.K G K J G _ d                                       ",
"                            X X M g.h.l.h.t.I G G G J K F J +.b                                     ",
"                              g 5.i.p.N # 8 P K J J I P K J #.d                                     ",
"                              O.<.Q ~     X K H G G H H D 8.t                                       ",
"                              g N   )       c H J G K X.w.I Z                                       ",
"                                Z           9.W 8.r.u.7.R *.:.                                      ",
"                              + m           s | &... .:.:.-.:.                                      ",
"                              * b           l }  .} *.=.-.-.@.                                      ",
"                              4 i           @.*.[ =.:.;.:.:.!                                       ",
"                              6 y         4 ;.-.[ :.;.:.:.-.f                                       ",
"                              e 0         f :.:._ ;.;.:.;.-.a                                       ",
"                            . r 6         o.:.:.[ -.:.:.;.;.t                                       ",
"                              r 4       o :.-.:.R -.:.:.-.-.u                                       ",
"                              n =       w :.-.=.E  .-.;.:.:.a                                       ",
"                              m %       f @.-.%.*.Z =.;.:.:.@.o X                                   ",
"                              ^         ` -.-. .$.* ` :.;.:.;.f                                     ",
"                              )     . O -.:. .{ /   4 :.;.:.;.=.;                                   ",
"                              '       w =.%.$.[ e     ! ;.:.;.} _ O                                 ",
"                              `       f -.%.[ { O     % $.*.%.%.{ j                                 ",
"                              (       ` =. .E k         f [ %.} E E 3                               ",
"                            % V     + =.$.[ E >         o S [ } E [ S                               ",
"                            , A , 2 k *. .R C             e $. .} U F 1                             ",
"                            4 [ K G G H R R r             X _ E J D G $                             ",
"                            y a 2 x G G G G @             : z G J x @                               ",
"                            u p       . & >               < 1 8 5 X                                 ",
"                            w -                                                                     ",
"                                                                                                    ",
"                                                                                                    ",
"                                                                                                    ",
"                                                                                                    ",
"                                                                                                    ",
"                                                                                                    "
};
