/* XPM */
static char *result[] = {
/* columns rows colors chars-per-pixel */
"50 50 183 2 ",
"   c #040404",
".  c #080A0A",
"X  c #0A100F",
"o  c #0A1211",
"O  c #0A1C1B",
"+  c #111412",
"@  c #171B15",
"#  c #1A1F1E",
"$  c #1D211D",
"%  c #222519",
"&  c #0E2A29",
"*  c #1E2625",
"=  c #1F2A31",
"-  c #153837",
";  c #133D3C",
":  c #23242C",
">  c #222B29",
",  c #26302F",
"<  c #2E3029",
"1  c #252932",
"2  c #2C3432",
"3  c #363A39",
"4  c #3B393C",
"5  c #13403E",
"6  c #3E422A",
"7  c #36413F",
"8  c #404229",
"9  c #4F443B",
"0  c #65572C",
"q  c #174947",
"w  c #185251",
"e  c #195857",
"r  c #1B5C5B",
"t  c #3B4543",
"y  c #285856",
"u  c #1D6564",
"i  c #1E6866",
"p  c #1F6D6B",
"a  c #286F6E",
"s  c #237C7B",
"d  c #3D7776",
"f  c #474B49",
"g  c #514F4C",
"h  c #4B5146",
"j  c #5B584C",
"k  c #465350",
"l  c #4D5754",
"z  c #585D56",
"x  c #605B4D",
"c  c #59625F",
"v  c #68675A",
"b  c #756654",
"n  c #595F62",
"m  c #4B6663",
"M  c #5F6864",
"N  c #457A77",
"B  c #527471",
"V  c #626B66",
"C  c #6C7E6E",
"Z  c #7B7569",
"A  c #767571",
"S  c #7D7A75",
"D  c #927A3D",
"F  c #847164",
"G  c #2D827F",
"H  c #608B7E",
"J  c #659E7F",
"K  c #B4994D",
"L  c #83807B",
"P  c #A4947B",
"I  c #95A86F",
"U  c #92AD7D",
"Y  c #DBAC4E",
"T  c #C7AA56",
"R  c #D5AE55",
"E  c #E1AD4B",
"W  c #E2B155",
"Q  c #E4B55E",
"!  c #D6AC6E",
"~  c #E5B967",
"^  c #E8C079",
"/  c #278C8A",
"(  c #2C9695",
")  c #2C9B99",
"_  c #369694",
"`  c #3A9795",
"'  c #2FA39F",
"]  c #2DA3A1",
"[  c #30A4A2",
"{  c #3DA6A1",
"}  c #4B9E8C",
"|  c #52918A",
" . c #768681",
".. c #51A58F",
"X. c #5DA58A",
"o. c #49A49B",
"O. c #6DA682",
"+. c #7BA091",
"@. c #42A9A5",
"#. c #4DAAA2",
"$. c #45ACA9",
"%. c #4BACAA",
"&. c #53ADA7",
"*. c #53B1AE",
"=. c #5EB5B2",
"-. c #65ACA6",
";. c #68B8B4",
":. c #73BCB7",
">. c #77BCB8",
",. c #7FC2BD",
"<. c #8B8A85",
"1. c #8A9591",
"2. c #969B97",
"3. c #B29A83",
"4. c #9CA18D",
"5. c #8CB087",
"6. c #9CA497",
"7. c #AFAB91",
"8. c #B4B896",
"9. c #8FA5A0",
"0. c #8CB7A4",
"q. c #90BAAC",
"w. c #9CB5B0",
"e. c #A2ABA4",
"r. c #A4B2AC",
"t. c #AABDB7",
"y. c #C4AD8F",
"u. c #CCAB8D",
"i. c #D2BE80",
"p. c #C2AE90",
"a. c #CBAE90",
"s. c #D1AE90",
"d. c #C2B194",
"f. c #CAB596",
"g. c #DAB797",
"h. c #E0BC97",
"j. c #E5BF9B",
"k. c #BBC4AE",
"l. c #A4C0BB",
"z. c #C6C59E",
"x. c #E7C78A",
"c. c #F2C68E",
"v. c #EAC79A",
"b. c #EACB99",
"n. c #EDD19E",
"m. c #D7C5A4",
"M. c #DACCAA",
"N. c #CBC5B7",
"B. c #D8CDB9",
"V. c #CCD1B9",
"C. c #E6CBA6",
"Z. c #ECC9A4",
"A. c #F4CCA5",
"S. c #F9CFA7",
"D. c #EDD1A0",
"F. c #EDD6AD",
"G. c #F0D7AE",
"H. c #E8D5B7",
"J. c #8EC7C2",
"K. c #95CAC4",
"L. c #A2CBC1",
"P. c #A2CFC9",
"I. c #A5D0CA",
"U. c #A9D1CB",
"Y. c #B7D4C9",
"T. c #BBD8D1",
"R. c #CDCAC4",
"E. c #C2D2C7",
"W. c #D3D3C2",
"Q. c #D3D5CE",
"!. c #DDD5CF",
"~. c #C3DBD3",
"^. c #EDDEC4",
"/. c #E6D9C9",
"(. c #F8DDC2",
"). c #E0D8D1",
"_. c #D9E3DB",
"`. c #F6E2CB",
"'. c #E7E5D9",
"]. c #EBE3DB",
"[. c #EEEBE2",
"{. c #F3ECE3",
"}. c #F8EFE6",
/* pixels */
"                                                                                                    ",
"                                                                                                    ",
"                                                                                                    ",
"                                                                                                    ",
"                                                                                                    ",
"                              = = X +           . @ # V +                                           ",
"                              1 : 1 1 g       l W.{.{.{.A                                           ",
"                              . 3 4 F h.4     k.Z.B.).R.t                                           ",
"                                g 3.a.3.v   3 a.s.g.a.Z                                             ",
"                                a.A.h.u.j   + a.u.u.S.j                                             ",
"                                < 3.S.S.h & ; 7.v.S.p.                                              ",
"                                  X Z.u.H.] ] #.6.4.H + $                                           ",
"                                  y E.(.`.] ] [ >.' ;./.g.V                                         ",
"                                r ] ] @.>.] ] #.{.@.T.}.}.}. .                                      ",
"                              - ] ] ] ] ] ] ) P.{.U.}.}.}.}.$.&                                     ",
"                              u ] ] ) ] ] [ +.B.}.{.}.}.].{.J.N                                     ",
"                              i ] ] ( ] ] #.g.W.{.}.}.}.).}.P./                                     ",
"                              u ] ] ( [ 0.A.M.}.!.}.}.Y.:.Q.[.~.2                                   ",
"                              q @.0.6.m.S.C.&.}.{.).].U.;.l.}.}.k                                   ",
"                              o v S.S.S.C.#.$.[.I.!.}.*.%.-._.}.>                                   ",
"                                  y.S.C.#.] J.:.,.).'.~.q.] _./.@                                   ",
"                                  @ C { ] ] _.~.( E E E 5.[ _.~ 0                                   ",
"                                    ; ' ] &.}.E.} E E E ^.'.v.E K                                   ",
"                                    X / ( _ %.o.J E E R o.r.W E E %                                 ",
"                                      ` w.m.-.$.5.Q Q x.b.T Y Y E 0                                 ",
"                                    V U.z.8.L.J.V.`.b.v.b.D.E E E D                                 ",
"                                    r.] ] ] ' p 8.^ E ! W F.E E E K                                 ",
"                                    l.] ] ] )   z.Q E E E G.E E E T                                 ",
"                                  + 2.] ] ] /   M.W E E E c.~ E E E                                 ",
"                                  t  .] ] ] G   H.E E E E x.^ E E E @                               ",
"                                  A m ] ' ' i   F.Y E E E ~ x.E E E %                               ",
"                                  <.; ] ' ' w   F.E E E E W n.E E E 6                               ",
"                                  t.& ] ] ] ; * n.Y E E E E F.Y E E 3                               ",
"                                  r.; ] ] ] & f x.Y T E E Y F.Y E E 8                               ",
"                                * <.q ] ] ] O V i.O.' I Y Y Y.o.Y T 5                               ",
"                                l M ; ] ] ]   A X.] ] ] U X.K.@.....r                               ",
"                                A 7 ; ] ] )   2.a ] ] ] ] ] ,.=.[ ] i                               ",
"                                e.. w ] ] (   t.u ] ] ] ] ] ;.>.] ] s                               ",
"                                t.  w ] ] s   t.; H d d s / | r.a a w                               ",
"                              . e.  w ] ] p   r.  7.h.3.  o j.N.9 .                                 ",
"                              3 A   e ] ] r , S . F S.p.    C.R.b                                   ",
"                              c l   i ] ] w k V . b S.y.    d.B.b                                   ",
"                              L ,   B K.*.- V k   x S.8.    P /.c                                   ",
"                              r.2 2.{.{.R.  L ,   b v.f.    P ^.c                                   ",
"                              9.@ : n 2.1.  2.  f 4 f f   3 : z h                                   ",
"                                                                                                    ",
"                                                                                                    ",
"                                                                                                    ",
"                                                                                                    ",
"                                                                                                    "
};
