/* XPM */
static char *a5f8b71adc0a4c10aff59f3f59b95d3dhH8BQOSPTUeQsgns[] = {
/* columns rows colors chars-per-pixel */
"50 50 97 2 ",
"   c #040404",
".  c #090705",
"X  c #0B0806",
"o  c #150E09",
"O  c #1B110A",
"+  c #22150C",
"@  c #2A190E",
"#  c #331E10",
"$  c #372111",
"%  c #3C2312",
"&  c #462915",
"*  c #492A16",
"=  c #533119",
"-  c #5D361B",
";  c #643A1D",
":  c #6A3D1E",
">  c #6A3E20",
",  c #734322",
"<  c #7C4723",
"1  c #7F4824",
"2  c #844C26",
"3  c #8C4E26",
"4  c #99572B",
"5  c #9D5A2D",
"6  c #A35E2F",
"7  c #AC6331",
"8  c #B86631",
"9  c #B76934",
"0  c #BC6C36",
"q  c #C67137",
"w  c #CC753A",
"e  c #D17639",
"r  c #D2793B",
"t  c #DD7D3D",
"y  c #E7803F",
"u  c #E9823F",
"i  c #E68341",
"p  c #EB8542",
"a  c #EE8843",
"s  c #E98748",
"d  c #E9894C",
"f  c #F18B44",
"g  c #E88D54",
"h  c #EA9557",
"j  c #EA935B",
"k  c #EE9D5D",
"l  c #F09F5F",
"z  c #E89562",
"x  c #EA9865",
"c  c #EA9B6B",
"v  c #EB9F71",
"b  c #EFA061",
"n  c #F2A363",
"m  c #F5A866",
"M  c #F7AD6A",
"N  c #F7B06F",
"B  c #EBA175",
"V  c #ECA57B",
"C  c #F6AF73",
"Z  c #F7B172",
"A  c #F8B475",
"S  c #F7B37A",
"D  c #F8B67B",
"F  c #F8B97C",
"G  c #EDAA83",
"H  c #EDAE8A",
"J  c #EEB08C",
"K  c #F7B681",
"L  c #F8B780",
"P  c #F8BA83",
"I  c #F8BD8A",
"U  c #EFB493",
"Y  c #EFB99A",
"T  c #F0B795",
"R  c #F0BB9C",
"E  c #F1BFA2",
"W  c #FAC087",
"Q  c #FAC289",
"!  c #F9C193",
"~  c #FAC69C",
"^  c #FAC89F",
"/  c #F2C2A6",
"(  c #FACAA3",
")  c #F3C7AC",
"_  c #FACEAB",
"`  c #FBD0AF",
"'  c #F5CCB2",
"]  c #FBD2B4",
"[  c #F6D1BB",
"{  c #FBD6BC",
"}  c #FCD8BE",
"|  c #F6D6C2",
" . c #F9D7C3",
".. c #FCDAC4",
"X. c #FADDCC",
"o. c #FBE0CF",
"O. c #FDE2D1",
/* pixels */
"                                                                                                    ",
"                                                                                                    ",
"                                                                                                    ",
"                                                                                                    ",
"                                                                                                    ",
"                                                                                                    ",
"                                                                                                    ",
"                                                                                                    ",
"                                      . $ - < 4 9 7 6 1 - O                                         ",
"                                  * 5 i a f a a f a f a f f 7 %                                     ",
"                          .   $ 0 a a a i j V G T J H V g y f a 4 o                                 ",
"                            ; a a s V E X.o.X.o.O.o.o.o.o.' V a a t $                               ",
"                          ; p a j |  .o.o...` ] O.^ ! ( } o.O.' j u i &                             ",
"                        = p a B X.X.X.~ N M M M ..M M M M P O.o.X.B a a $                           ",
"                      + y a B O.X.O.O.M M M h M _ M M F M M O.O.O. .G a t O                         ",
"                      8 a z ..O.{ _ O.K M M M N _ m b N Z S O.( ] O.X.c f 8                         ",
"                    , f g { X._ M M Q ] M P M W ] M M M A _ _ M M _ X.X.g f ;                       ",
"                  O i p / O.{ M M N M ] L A M M } M F M D ..m M N M { O.E p t X                     ",
"                  3 p v X.X.P m M W M S { M m M { M Z M ] P m A N m A o.X.c a ;                     ",
"                . t p [ X.O.P F M M M M _ F l M ] M M P ( Z n M n l M ..X./ p q                     ",
"                $ f j X.X.} } N M n m A F ] M M ` N N ` Z D M A l m I O.O.X.g f o                   ",
"                ; f G X.{ M I ] A M m Z M _ F F _ Z P ~ m m P N I ~ I M I X.V a -                   ",
"                , p H X.~ Z D N ( ( C M M A ( F ( M ` N k m Q ( F M D A M X.Y p 2                   ",
"                , f H O.I M M l b F ] ! M x ^ N ~ F ~ I S ( F F Z M M M M { [ a 7                   ",
"                : p H X.! M D M A M m I _ K Z ^ ( ~ Z ! P M M m l m F F M _ X.i w                   ",
"                = a H X...! F M N M M D M F ! ] X.] I M N F m m l M M M A } o.y w                   ",
"                * a V O.O.O.O.o.} ] _ ( ~ ! ( ..O.X.~ ( ~ ~ _ ] ] { ] ..O.X...p w                   ",
"                + p x X._ N M C C S I I I I P ( ..] _ Z A m l M P M M N ~ o.X.i 9                   ",
"                . p d X.Q M M Z l n N F I I Q I I _ S ..F M m M Z M M M M X.) a 5                   ",
"                  q p X.( M A A F C l m ! ( D ( C X.k L X.L l A N Z N F C O.U a >                   ",
"                  3 p Y ..M h M m M C { ^ M D ] M } I P I O.S N S C A M I O.v a %                   ",
"                  & a z O.! M F N ( ..I F l C ` F ( ] M M ! ..S M M M M {  .s r                     ",
"                    9 a R X.S I ..^ N M Z M ( ! C F O.C Z M ! ..D M A P o.H p ,                     ",
"                    # p s | X...S h l C Z M } F A h ..I C M N ~ X.P N ..| s i o                     ",
"                      > p j  .} M m F C N Z o.n A n ^ { k m S M ( O...X.c a <                       ",
"                        6 a x X.] C M M P P } l M A I O.K M M M P X...T p w X                       ",
"                        X q p v X...I M M ~ _ D M A N O.} Z A C { X.Y y i #                         ",
"                          O w a x X.X.O.{ X._ C M M N O.O._ ~  .o.U p p &                           ",
"                            O 0 p g / O.X.X.X.( ^ ( ..X.O.O.X.[ c a t %                             ",
"                              X 4 f p j J ) | O.O.X.O.O.[ T c a p 0 @                               ",
"                                  * 7 p f p i i s d s y u f p q -                                   ",
"                                      @ = 1 6 8 r e r q 4 > $                                       ",
"                                                                                                    ",
"                                                                                                    ",
"                                                                                                    ",
"                                                                                                    ",
"                                                                                                    ",
"                                                                                                    ",
"                                                                                                    ",
"                                                                                                    "
};
