/* XPM */
static char *fe9e34e966ac47a7de260e64c8c2c72doXhgCfXhSYvk0xSz[] = {
/* columns rows colors chars-per-pixel */
"50 50 74 1 ",
"  c #000001",
". c #0B0205",
"X c #01020B",
"o c #0B040A",
"O c #140303",
"+ c #1A0504",
"@ c #190806",
"# c #13030A",
"$ c #1A050B",
"% c #17080F",
"& c #1A0B0B",
"* c #020412",
"= c #0B0615",
"- c #0B0719",
"; c #120714",
": c #1A0410",
"> c #1B0D10",
", c #15081A",
"< c #220503",
"1 c #250903",
"2 c #2D0B01",
"3 c #290209",
"4 c #260B0C",
"5 c #280E0E",
"6 c #2A0E0A",
"7 c #310D00",
"8 c #310D01",
"9 c #3F0C01",
"0 c #35040C",
"q c #310A0A",
"w c #3A0E0B",
"e c #331002",
"r c #331103",
"t c #381205",
"y c #220713",
"u c #2C0711",
"i c #280F14",
"p c #281015",
"a c #271819",
"s c #27181A",
"d c #3D1A1A",
"f c #1F1F20",
"g c #313136",
"h c #4B1801",
"j c #4B170C",
"k c #4F180B",
"l c #471211",
"z c #4A1210",
"x c #541312",
"c c #521A11",
"v c #531B13",
"b c #591812",
"n c #5F1811",
"m c #621407",
"M c #621911",
"N c #611912",
"B c #4D2201",
"V c #503206",
"C c #742706",
"Z c #773607",
"A c #412020",
"S c #7B4F0E",
"D c #504F20",
"F c #7C7B37",
"G c #535448",
"H c #812A1B",
"J c #822B1B",
"K c #812B1C",
"L c #812C1C",
"P c #843716",
"I c #D87944",
"U c #D97E44",
"Y c #808274",
"T c #EAC29D",
/* pixels */
" X#<hhhVDGf                                       ",
"X=:0mCZSFYg     X X X   X    X  X   X    X  X   X ",
"X*X  XX  XX XX X X XX X X XXX XXX X X XXX XX XX *X",
"X*                                              *X",
"X*                                              **",
"**                      X                       **",
"X*                                              *X",
"**            .                                 **",
"X*            $$         o                      **",
"**             #.       ..                      *X",
"X*                      ..O                     **",
"**                      ..1.                    *X",
"X*         XX           .##                X    *X",
"**         XX           O@        X    X        **",
"X*                      +O      O@    X         **",
"**          o           O+      .   ..  ..      *X",
"X*            .         +O         .X   oq.     *X",
"**         O+ ..        O+        .O.   +6.     **",
"X*         4@  OO       ++       OO #   .       **",
"**              OO      @@    OOOO              *X",
"X*               <2   .o&&     2+               *X",
"**                18  Xo&>o   22                **",
"X*                 1t.  >>X .r1 X               *X",
"**                *X2k=XaaXoj2              X   **",
"X*               X X 5v,AA,bi X             %X  **",
"**         X:      X XpMKZNpX                   **",
"X*        Xoo.     .Xo=xUIx-oXo        X        **",
"**      XX%yXXXO##$3ujMPTTPblu3+##OXXXXoXXXX.   *X",
"X*        Xo       .Xo-xUIx-Xoo    .      .o    **",
"**          X      X XpMLKMp      .O            *X",
"X*                .  5c;dd;v5 X                 *X",
"**               X  1t.X55 ot1                  **",
"X*               X 18  X&&#o e1                 *X",
"**               X<2    @%  . 8<                **",
"X*               O+.@.  @@o O  +O               *X",
"**              .O oo   @$wo.   O.              **",
"X*             ..       OO.      ..             **",
"**             .X       O$         .            *X",
"X*           XX X       1j         X            **",
"**                      O#        .. X          *X",
"X*         X            ..            X         **",
"**        X             X.                X     *X",
"X*                      $:                      **",
"**                      ;#            X         *X",
"X*                                     .        **",
"**  X                    X X                    *X",
"***XX*XXX                o.                   XX**",
"X*XXXX XXXXX XX XX XX X X XXX XX XX XX XX X X XX*X",
"   X  X   X  X  X  X  X   X  X  X   X  X  X  X  X ",
"                                                  "
};
