/* XPM */
static char *result[] = {
/* columns rows colors chars-per-pixel */
"50 50 130 2 ",
"   c gray1",
".  c #040303",
"X  c #030403",
"o  c #040403",
"O  c #030304",
"+  c #040304",
"@  c #040404",
"#  c #050404",
"$  c #040504",
"%  c #050504",
"&  c gray2",
"*  c #241C0B",
"=  c #241D0B",
"-  c #271E0B",
";  c #271F0B",
":  c #140D26",
">  c #150D26",
",  c #170E2C",
"<  c #180F2C",
"1  c #180F2D",
"2  c #180F2E",
"3  c #190F2E",
"4  c #190F2F",
"5  c #19102F",
"6  c #1B1033",
"7  c #1B1134",
"8  c #261A2C",
"9  c #55420C",
"0  c #56430C",
"q  c #66500A",
"w  c #6D443D",
"e  c #774A38",
"r  c #73483C",
"t  c #28184F",
"y  c #2C1A57",
"u  c #2D1A59",
"i  c #2E1B5B",
"p  c #452E4E",
"a  c #573647",
"s  c #573747",
"d  c #5A3947",
"f  c #8E6F05",
"g  c #8F6F05",
"h  c #8F7005",
"j  c #95740D",
"k  c #96740D",
"l  c #B56F1E",
"z  c #835433",
"x  c #8B5531",
"c  c #8A5432",
"v  c #C87F0E",
"b  c #CC7D14",
"n  c #C27A19",
"m  c #A7820A",
"M  c #A8830A",
"N  c #DB8906",
"B  c #C0950C",
"V  c #C0960C",
"C  c #C59A0B",
"Z  c #C59A0C",
"A  c #DA900E",
"S  c #C18612",
"D  c #C18613",
"F  c #CF8013",
"G  c #CE8213",
"H  c #C79A15",
"J  c #C89B15",
"K  c #E38A0A",
"L  c #E48B09",
"P  c #E18F0B",
"I  c #F99500",
"U  c #F99A00",
"Y  c #FA9E00",
"T  c #D6A70B",
"R  c #DEA609",
"E  c #DEA709",
"W  c #D8A908",
"Q  c #D7A711",
"!  c #FAA300",
"~  c #FBAC00",
"^  c #EAB705",
"/  c #EBB807",
"(  c #ECB806",
")  c #E4B208",
"_  c #FDB500",
"`  c #FDBA00",
"'  c #FEBD00",
"]  c #FEBE00",
"[  c #FEBF00",
"{  c #D59D3F",
"}  c #CCA427",
"|  c #DEA136",
" . c #DDA33C",
".. c #FBB635",
"X. c #FFC800",
"o. c #FECE21",
"O. c #FECF28",
"+. c #FED135",
"@. c #96834D",
"#. c #97844D",
"$. c #978554",
"%. c #988654",
"&. c #DCBA5D",
"*. c #DDBA5D",
"=. c #FBBA42",
"-. c #FCCA43",
";. c #FDCE49",
":. c #FED64F",
">. c #F2CD53",
",. c #FCCB5D",
"<. c #FDD150",
"1. c #FDD253",
"2. c #FEDB58",
"3. c #FEDD5A",
"4. c #FFDD5A",
"5. c #FDD85D",
"6. c #DEC170",
"7. c #FCD36A",
"8. c #FDDA77",
"9. c #FFE269",
"0. c #FEE16C",
"q. c #FDDF84",
"w. c #FFE883",
"e. c #FDE292",
"r. c #FFEF9D",
"t. c #FEEEAB",
"y. c #FEEFAB",
"u. c #FFF2AA",
"i. c #FEF2B1",
"p. c #FFFCD2",
/* pixels */
"@ o @ @ @ @ @   @ @ @ o o @ o @ @ @ @ @ @ o o @ @ % @ % @ @ @ @ @ @ @ #   X @ @ @ @ o o o o o   @ o ",
"@ o o @ @ o @ o @ # @ o @ @ @   @ @ @ o o @ @ @ @ .   @ % @ o o @ o o @ @ @ o @ @   . @ @   @ % o @ ",
"  @ @ @ @ @ @ @ @ % @ o o o @ @ @ @ o o @ @ @ @ @ @ @ @ @ @ @ @   @ @ o @ o @ o @ @ @ @   @ @ @ @   ",
"@ o @ @ @ @ @ # @ @ @ @   @ o @   @ @ @ @ @ @ @ @ o @ @ @ @ o @ . @ @ @ o # @ o @ @ @ @ @ @ o @ o @ ",
"@ @ @ @ o @ @ %   o @ @ @ @ @ @ @ @ o @ @ @ @ @ @ @ @ @ @ o o @ @ @ @ @ @ # o o @ @ @ @ @ o @ @ % o ",
"% @ o @ @   o @ @ @ @ o   o @ @ o % o @ o @ @ o @ @ @ o @ o @ @ @ @ @ @ @ @ % @ o @ @ @ @ @ @ @ % . ",
"o @ o % @ o o o o @ @ % @ @ @ o o @ @ o o @ @ @ @ @ @ o @ @ @ @ @ @ @ % o o @ @ @ o @ o o @ @ @ @ o ",
". o @ @   @ o @ @ @ o % @ @ o @ o @ o o o @ @ @ # @ @ @ @ o @ o o @ @ @ @ @ @ @ @   @ o % @ @ @ @ o ",
"@ @ @ o o @ o o o @ % @ o @ @ o @ @ o @ o @ o h X.X.g @ % @ @ @ @ @ @ @ @ o @ @ @   @ o @ o @ @ @ @ ",
"@ % o   @ o @ @ o @ o @ @ @ @   # o @ @ @ @ @ h X.X.f @ @ @ @ @ @ @ @ @   @ @ o o @ @ @ o @ @ @ @ @ ",
"@ @ @ @ @ @   @ @ . @   @ % o o @ @ @ @ @ @ @ h X.X.f @ @ % @ @ o @ o @ @ @   @ @ @ @ o @ o o @ @ @ ",
"@ @ @ @ o % @ . o @ @ @ @ o o @ o   @ @ @ @ o #.q.q.@.@ @ @ @ @ @ X @ @ @ @ o @ @ @ @ @ @ o @ @ @ @ ",
"@ @ o o o . @ @   o @ @ @ @ @ o o @ % . @ @ @ %.e.e.$.@ @ @ o @ @ % @ @ o @ @ @ o o @ o o o o @ % @ ",
"@ @ o @ @ @ % @ @ @ o o % @ . @ @ @ o @ @ @ @ %.e.e.$.@ o @ o @ o @ @ @ o & @ o @ @ X @ @ @ o @ @ @ ",
"@ o @ @ @ @ & @ @ @ @ @ @ @ o @ @ @ o % k ) ) >.e.e.>.) ) j @ o @ @ @ @ @ @ @ @ @ o o @ @ o @ @ o @ ",
"@ % o @ @ @ @ @ @ @ @ @ @ @ @ o o & o @ M X.X.:.e.e.:.X.X.m o @ o o @ @ @ @ @ o @ @ . @ @ @   o o o ",
"o @ @ @ @ @ . @ @ @ o o @ @ @ @ o o @ @ M X.X.:.e.e.:.X.X.m o o @ @ @ @ o @ @ @ o @   o @ @ @ % @ @ ",
"o @ @ @ @ @ @ @ t t t v N N &.6.6.} Z C ^ X.X.4.i.i.3.X.X.^ C Z } 6.6.*.N N v t t t     @ @ @ @ @ . ",
"@ . @   @ @ @ @ i i i L I I 8.e.e.O.X.X.X.X.X.9.p.p.9.X.X.X.X.X.O.e.e.8.I I L i i i @ @ @   @ o   @ ",
"o @ o @ @ @ @ @ i i i L I I 8.e.e.O.X.X.X.X.X.9.p.p.9.X.X.X.X.X.O.e.e.8.I I L i i i @ @ o @ o @ @ @ ",
"o @ o o o @ @ @ , , , w r r | ....<.5.5.0.w.w.u.p.p.u.w.w.0.5.5.<.....| r r w , < , o o @ @ @ o o . ",
"o @ @ + @ @ @ o @ @ O u i i b I I 7.e.e.y.p.p.p.p.p.p.p.p.y.e.e.7.I I b i i u @ @ @ @ @ @ @ @ o o @ ",
"@ @ @ # % @ @ o @ o   u i i b I I 7.e.e.y.p.p.p.p.p.p.p.p.y.e.e.7.I I b i i u o @ @ @ o @ @ o @ @ @ ",
"o @ @ @ @ o . @ @ @ @ 2 4 4 z x x  .=.=.1.9.9.r.p.p.r.9.9.1.=.=. .x x z 4 4 3 @ @ @ o o @ @ o @ o @ ",
"@ o   o @ @ @ @ @ % % o @ @ p i i n I I _ X.X.9.p.p.9.X.X._ I I n i i p @ @ @ @ @ @ o $ @ @ o o o @ ",
"@ @ @ @ @ @ o @ @ @ o @ @ X p i i n I I _ X.X.9.p.p.9.X.X._ I I n i i p @ @ o % @ @ o % o . @ @ @ @ ",
"@ o . @ @ @ @   @ @   @ @ @ 8 7 6 S ~ ~ ] X.X.2.t.t.2.X.X.] ~ ~ D 6 6 8   @ o o @ @ @ o . @ o @ @ @ ",
"@ @ o o @ @ @ @ @ @ @ @ @ o o @ @ V X.X.X.X.X.:.e.e.:.X.X.X.X.X.B @ @ o @ @ @ @ @ % @ @ @ @ o @ @ @ ",
"@ @ @ @ @ @ @ @ @   @ o o @ . o @ V X.X.X.X.X.:.e.e.:.X.X.X.X.X.B + @ o @ @   @ % @ @ @ @ o @ @ o @ ",
"@ @ @ @ @ @ @ @ # @ @ . @ @ 0 q q W X.X.o.+.+.;.,.,.;.+.+.o.X.X.W q q 9 @ @ @ @ o @ @ o @ o @ @ @ o ",
"o o o @ @ @   # o o o . @ @ T X.X.X.X.X.5.e.e.=.I I =.e.e.5.X.X.X.X.X.T @ @ @ o @ @ o @ @ @ @ o . % ",
"@ @ @ o @ @ o @ @ @ o o o o T X.X.X.X.X.5.e.e.=.I I =.e.e.5.X.X.X.X.X.T @ @ @ @ o o @ @ o @ # @ @ o ",
"  @ @ # @ o . @ o @ @ @ @ @ T X.X.' ` ` -.7.7.{ l l { 7.7.-.` ` ' X.X.T @ o @ o @   o @ o @ @ @ @   ",
"@ @ @ @ @ @ o o @ % @ @ @ @ T X.X.! I I U I I c i i c I I U I I ! X.X.T o % @ o @ @ @ @ @ @ @ @ @ o ",
"@ @ o @ # @ @ % o @ @ @ @ @ T X.X.! I I U I I c i i c I I U I I ! X.X.T o @   @ @ @ @ .   @ @ @ X o ",
"@ @ @ o o @ # @ @ @ @ * ; ; E [ [ A F F G F F e y y e F F G F F A [ [ R - ; = @ % @ @ o @ @ % o @ @ ",
"% @ @ o @ o @   @ @ @ ( X.X.Y I I d i i i i i 4 @ o 4 i i i i i d I I Y X.X./ @ @ @ @ @ @ @ @ @ @ % ",
"% @ @ @ @ % @ o % @ @ ( X.X.Y I I d i i i i i 5 @ @ 3 i i i i i d I I Y X.X./ @ o o @ o @ @ @ @ o @ ",
"o @ o o   o @ o   o o J Q Q P K K a u u u u u 1 @ @ 1 u u u u u s K K P Q Q H @ @ @ @ @ o o o o @ @ ",
"@   o o @ @ % o @ @ @ u i i i i i : @ @ @ @ @ @ o o o @ @ @ @ @ : i i i i i u @ @   o o % @ o o   @ ",
"@ @ @ @ @ # @ @ o @ @ u i i i i i : @ o @ % @ @ @ @ @ @ @ @ @   : i i i i i u @ @ @ @ @ @ % @ @ @   ",
"o @ @ @ o o @ % o @ @ u i i i i i > o @ @ & @ @ @ @ o @ @ @ @ @ : i i i i i u @ @ @ @ @ o @ @ @ @ @ ",
"@ @ @ @ @ o . @ o @ o @ @ @ o @ @ o @ @ . o o @ @ @ @ @ @ @ o o @ o @ @ @ @ @ @ @ @ @ @ @ @ o @ @ @ ",
"  @ @ @ o o @ o @   o @ @ o o @ @ o @ @ @ @ @ @ @ o @ @ @ o @ @ @ @ o @ @ @ o o @ @ @ # @ @ @ o o @ ",
"@ o @   @ @ @ @ @ o     @     @ @ o @ % @ o @ o @ o o @ @ o % @ @ @ @ @ @ @ % @ o @ @ o o @ o   % @ ",
"@ o @ o @ @ .   @ @ @ @ @ @   o @ o . @ @ @ @ @ o @   @ o o @ @ @ & @ % o @ @ @ @ @ o @ o o @ @ @ @ ",
"o @ @ @ o @ o o @ @ @   o @ @ @ @ o o @ @ @ @ @ @ @ @ @ @ o @   @ o @ @ @ @ @ @ @ @ @ @ @ @ @ @ @ @ ",
"@ @ . @ @ o o @ @ % @ @ @ @ @ @ @ o   . @   o @ @ @ @ @ o o @   @ @ o @ @ @ @ @ @ @ @ @ @ @ @ . @ @ ",
"@ o @ @ o o @ @ @ @ @ @ @ @ @ % # @   o o . @ @ @ @   . @ @ @ @ @ @ @ @ @ @ @ @ @ @ @ @ @ @ # @ o o ",
"o + @ @ @ % @ @ % @ # . % @ @ @ o o @ o @ @ @ o @ @ @ @ @ % @ @ @   @ @ @ @ @ @ @ @ @ @ X o # . o   "
};
