/* XPM */
static char *result[] = {
/* columns rows colors chars-per-pixel */
"50 50 210 2 ",
"   c gray1",
".  c #040303",
"X  c #030403",
"o  c #040403",
"O  c #030304",
"+  c #040304",
"@  c #040404",
"#  c #050404",
"$  c #040504",
"%  c #050504",
"&  c gray2",
"*  c #0C0813",
"=  c #0B0814",
"-  c #0C0814",
";  c #0C0914",
":  c #0D0914",
">  c #0C0815",
",  c #0C0915",
"<  c #0D0816",
"1  c #0D0916",
"2  c #1B1034",
"3  c #1B1134",
"4  c #1C1134",
"5  c #1C1135",
"6  c #2E1B5B",
"7  c #2E1B5C",
"8  c #2F1B5C",
"9  c #2E1C5C",
"0  c #2F1C5C",
"q  c #311D5F",
"w  c #341F62",
"e  c #372165",
"r  c #3D246B",
"t  c #3D256C",
"y  c #3A2D79",
"u  c #3B2F7C",
"i  c #3C2F7D",
"p  c #3D317F",
"a  c #40266F",
"s  c #452A75",
"d  c #442A77",
"f  c #462B76",
"g  c #432C77",
"h  c #452B78",
"j  c #472C7B",
"k  c #492C79",
"l  c #4B2E7B",
"z  c #4B2F7F",
"x  c #4D2F7D",
"c  c #713E72",
"v  c #7F4367",
"b  c #3D3381",
"n  c #3E3382",
"m  c #3E3484",
"M  c #3F3484",
"N  c #3E3585",
"B  c #3E3586",
"V  c #3C3C8F",
"C  c #4B2F80",
"Z  c #4C2F81",
"A  c #433484",
"S  c #423587",
"D  c #4F3080",
"F  c #4E3183",
"G  c #45378B",
"H  c #40388A",
"J  c #513182",
"K  c #513283",
"L  c #523384",
"P  c #533385",
"I  c #543385",
"U  c #553486",
"Y  c #51338B",
"T  c #51348B",
"R  c #573589",
"E  c #573689",
"W  c #54348A",
"Q  c #52378C",
"!  c #56368D",
"~  c #58368A",
"^  c #59368A",
"/  c #5A388D",
"(  c #5B388D",
")  c #5B388E",
"_  c #5C398F",
"`  c #503A93",
"'  c #513B95",
"]  c #5D3A90",
"[  c #5E3A90",
"{  c #5E3A91",
"}  c #5F3B91",
"|  c #5C3A93",
" . c #5F3B92",
".. c #5E3B96",
"X. c #5F3C96",
"o. c #603C93",
"O. c #613C94",
"+. c #613D94",
"@. c #623D95",
"#. c #623D96",
"$. c #633D96",
"%. c #633E96",
"&. c #633E97",
"*. c #603E98",
"=. c #643E98",
"-. c #653E98",
";. c #643F98",
":. c #653F98",
">. c #653F99",
",. c #663F99",
"<. c #663F9A",
"1. c #633F9C",
"2. c #42449C",
"3. c #43459E",
"4. c #41469F",
"5. c #66409A",
"6. c #67409B",
"7. c #61419D",
"8. c #66409F",
"9. c #68419C",
"0. c #69419D",
"q. c #69429D",
"w. c #69429E",
"e. c #6A429E",
"r. c #6A439F",
"t. c #4547A1",
"y. c #4746A1",
"u. c #4946A0",
"i. c #4749A6",
"p. c #444EAC",
"a. c #454FAF",
"s. c #564FB0",
"d. c #4651B1",
"f. c #4C57BB",
"g. c #5153B5",
"h. c #6B43A0",
"j. c #6C44A1",
"k. c #6D44A2",
"l. c #6E45A2",
"z. c #6B44A5",
"x. c #6E46A9",
"c. c #6F46A9",
"v. c #6749A9",
"b. c #7046A5",
"n. c #7147A6",
"m. c #7247A7",
"M. c #7348A8",
"N. c #7449AA",
"B. c #7549AA",
"V. c #764AAB",
"C. c #764AAC",
"Z. c #774AAC",
"A. c #774BAD",
"S. c #784BAD",
"D. c #784BAE",
"F. c #794CAF",
"G. c #6D4EB2",
"H. c #6F48B4",
"J. c #6C4AB4",
"K. c #6C4AB5",
"L. c #744AB0",
"P. c #7049B5",
"I. c #7049B6",
"U. c #714AB7",
"Y. c #7A4CB0",
"T. c #7C4EB2",
"R. c #7C4EB3",
"E. c #7D4FB4",
"W. c #7E4FB6",
"Q. c #764CB9",
"!. c #774DB9",
"~. c #744CBC",
"^. c #794EBE",
"/. c #7454BB",
"(. c #7D50B9",
"). c #7D50BB",
"_. c #7F51BE",
"`. c #4C5CC3",
"'. c #4F5CC3",
"]. c #4A5EC6",
"[. c #4B5FC8",
"{. c #5E5BC3",
"}. c #784FC1",
"|. c #625CC5",
" X c #7B50C1",
".X c #7E51C1",
"XX c #5263CF",
"oX c #4D65D2",
"OX c #4D66D2",
"+X c #5268D7",
"@X c #536ADA",
"#X c #566BDB",
"$X c #516DDE",
"%X c #546DDD",
"&X c #6560CB",
"*X c #8052BC",
"=X c #8253BE",
"-X c #8354C2",
";X c #8454C3",
":X c #8053C4",
">X c #8757C9",
",X c #8757CA",
"<X c #8958CD",
"1X c #8B5BD7",
"2X c #8F5DDA",
"3X c #8E5DDC",
"4X c #905FDD",
"5X c #9260E1",
"6X c #9261E2",
"7X c #9A67F2",
/* pixels */
"@ o @ @ @ @ @   @ @ @ ; 6 6 6 6 6 6 6 6 6 6 6 6 6 6 6 6 6 6 6 6 6 6 6 6 6 6 3 @ @ @ o o o o o   @ o ",
"@ o o @ @ o @ o @ # @ 1 y f.q >.8 o.e E a D k f K t / w %.6 &.w ( r L s V 2.5 @ @   . @ @   @ % o @ ",
"  @ @ @ @ @ @ @ @ % @ < u `.;.j.=.h.>.e.5.q.9.6.q.5.r.>.j.=.j.>.r.5.w.6.s.4.5 o @ @ @ @   @ @ @ @   ",
"@ o @ @ @ @ @ # @ @ @ > n +XS.S.S.1X3X3X3X3X3X3X3X3X3X3X3X3X3X3X3X(.S.S.|.p.3 o @ @ @ @ @ @ o @ o @ ",
"@ @ @ @ o @ @ %   o @ > M %XT.T.5Xj z.F 1.! | ..W 8.Z x.d L.d c.C ^.-XT.&Xd.3 o @ @ @ @ @ o @ @ % o ",
"% @ o @ @   o @ @ @ @ - M %XE.2XT t.7.~ O.) {  ./ #.R ,.I 0.P <.u.` Q.;X&Xd.4 @ o @ @ @ @ @ @ @ % . ",
"o @ o % @ o o o o @ @ ; M %XW.7X9 oXG.N.N.N.N.N.N.N.N.N.N.N.N.N.XXB P.<X&Xd.4 @ @ o @ o o @ @ @ @ o ",
". o @ @   @ o @ @ @ o : M %XW.7X0 $X/.T.T.T.T.T.T.T.T.T.T.T.T.T.#XH U.<X&Xd.4 @ @   @ o % @ @ @ @ o ",
"@ @ @ o o @ o o o @ % - M %XW.7X0 $X/.T.T.T.T.T.T.T.T.T.T.T.T.T.#XH U.<X&Xd.3 @ @   @ o @ o @ @ @ @ ",
"@ % o   @ o @ @ o @ o - M %XW.7X0 $X/.T.T.T.T.T.T.T.T.T.T.T.T.T.#XH U.<X&Xd.3 o o @ @ @ o @ @ @ @ @ ",
"@ @ @ @ @ @   @ @ . @ = M %XW.7X0 $X/.T.T.T.T.T.T.T.T.T.T.T.T.T.#XH U.<X&Xd.3 @ @ @ @ o @ o o @ @ @ ",
"@ @ @ @ o % @ . o @ @ - M %XW.7X0 $X/.T.T.T.T.T.T.T.T.T.T.T.T.T.#XH U.<X&Xd.3 @ @ @ @ @ @ o @ @ @ @ ",
"@ @ o o o . @ @   o @ , M %XW.7X0 $X/.T.T.T.T.T.T.T.T.T.T.T.T.T.#XH U.<X&Xd.3 @ o o @ o o o o @ % @ ",
"@ @ o @ @ @ % @ @ @ o - M %XW.7X0 $X/.T.T.T.T.T.T.T.T.T.T.T.T.T.#XH U.<X&Xd.3 o @ @ X @ @ @ o @ @ @ ",
"@ o @ @ @ @ & @ @ @ @ - M %XW.7X0 $X/.T.T.T.T.T.T.T.T.T.T.T.T.T.#XH U.<X&Xd.3 @ @ o o @ @ o @ @ o @ ",
"@ % o @ @ @ @ @ @ @ @ ; M %XW.7X0 $X/.T.T.T.T.T.T.T.T.T.T.T.T.T.#XH U.<X&Xd.3 o @ @ . @ @ @   o o o ",
"o @ @ @ @ @ . @ @ @ o - M %XW.7X0 $X/.T.T.T.T.T.T.T.T.T.T.T.T.T.#XH U.<X&Xd.3 @ o @   o @ @ @ % @ @ ",
"o @ @ @ @ @ @ @ % o @ - M %XW.7X0 $X/.T.T.T.T.T.T.T.T.T.T.T.T.T.#XH U.<X&Xd.2 @ @ .     @ @ @ @ @ . ",
"@ . @   @ @ @ @ @ % @ - M %XW.7X0 $X/.T.T.T.T.T.T.T.T.T.T.T.T.T.#XH U.<X&Xd.3 @ @ @ @ @ @   @ o   @ ",
"o @ o @ @ @ @ @ X @   - M %XW.7X0 $X/.T.T.T.T.T.T.T.T.T.T.T.T.T.#XH U.<X&Xd.3 @ @ o @ @ o @ o @ @ @ ",
"o @ o o o @ @ @ @ o o ; M %XW.7X0 $X/.T.T.T.T.T.T.T.T.T.T.T.T.T.#XH U.<X&Xd.4 @ % @ o o @ @ @ o o . ",
"o @ @ + @ @ @ o @ @ O - M %XW.7X7 ].v.k.k.k.k.k.k.k.k.k.k.k.k.k.'.b H.<X&Xd.3 @ @ @ @ @ @ @ @ o o @ ",
"@ @ @ # % @ @ o @ o   - M %XR.,X~.G g s s s s s s s s s s s s s p J..X*X&Xd.3 o @ @ @ o @ @ o @ @ @ ",
"o @ @ @ @ o . @ @ @ @ = M %XT.T.>X=.} } } } } } } } } } } } } } } _.X.6.&Xd.3 @ @ @ o o @ @ o @ o @ ",
"@ o   o @ @ @ @ @ % % - M %XT.T.T.T.T.T.T.T.T.T.T.T.T.T.T.T.T.T.T. .v c g.d.3 @ @ @ o $ @ @ o o o @ ",
"@ @ @ @ @ @ o @ @ @ o - M %XT.T.T.T.T.T.T.T.T.T.T.T.T.T.T.T.T.T.T. .v c g.d.3 % @ @ o % o . @ @ @ @ ",
"@ o . @ @ @ @   @ @   - M %XT.T.>X@.b.$.j.5.0.e.:.l.+.n.[ N.] m.O.).X.6.&Xd.3 o @ @ @ o . @ o @ @ @ ",
"@ @ o o @ @ @ @ @ @ @ - M %XR.,X}.S *.x _ L R ^ J { l =.s 0.s -.A K.:X*X&Xd.4 @ @ % @ @ @ @ o @ @ @ ",
"@ @ @ @ @ @ @ @ @   @ - M %XW.7X0 [.v.k.k.k.k.k.k.k.k.k.k.k.k.k.'.N U.<X&Xd.2 @ % @ @ @ @ o @ @ o @ ",
"@ @ @ @ @ @ @ @ # @ @ - M %XW.7X0 $X/.T.T.T.T.T.T.T.T.T.T.T.T.T.#XH U.<X&Xd.3 @ o @ @ o @ o @ @ @ o ",
"o o o @ @ @   # o o o - M %XW.7X0 $X/.T.T.T.T.T.T.T.T.T.T.T.T.T.#XH U.<X&Xd.3 o @ @ o @ @ @ @ o . % ",
"@ @ @ o @ @ o @ @ @ o - M %XW.7X0 $X/.T.T.T.T.T.T.T.T.T.T.T.T.T.#XH U.<X&Xd.3 @ o o @ @ o @ # @ @ o ",
"  @ @ # @ o . @ o @ @ - M %XW.7X0 $X/.T.T.T.T.T.T.T.T.T.T.T.T.T.#XH U.<X&Xd.3 o @   o @ o @ @ @ @   ",
"@ @ @ @ @ @ o o @ % @ - M %XW.7X0 $X/.T.T.T.T.T.T.T.T.T.T.T.T.T.#XH U.<X&Xd.3 o @ @ @ @ @ @ @ @ @ o ",
"@ @ o @ # @ @ % o @ @ - M %XW.7X0 $X/.T.T.T.T.T.T.T.T.T.T.T.T.T.#XH U.<X&Xd.2 @ @ @ @ .   @ @ @ X o ",
"@ @ @ o o @ # @ @ @ @ ; M %XW.7X0 $X/.T.T.T.T.T.T.T.T.T.T.T.T.T.#XH U.<X&Xd.4 @ % @ @ o @ @ % o @ @ ",
"% @ @ o @ o @   @ @ @ - M %XW.7X0 $X/.T.T.T.T.T.T.T.T.T.T.T.T.T.#XH U.<X&Xd.4 @ @ @ @ @ @ @ @ @ @ % ",
"% @ @ @ @ % @ o % @ @ - M %XW.7X0 $X/.T.T.T.T.T.T.T.T.T.T.T.T.T.#XH U.<X&Xd.3 @ o o @ o @ @ @ @ o @ ",
"o @ o o   o @ o   o o - M %XW.7X0 $X/.T.T.T.T.T.T.T.T.T.T.T.T.T.#XH U.<X&Xd.3 @ @ @ @ @ o o o o @ @ ",
"@   o o @ @ % o @ @ @ * M %XW.7X0 $X/.T.T.T.T.T.T.T.T.T.T.T.T.T.#XH U.<X&Xd.4 @ @   o o % @ o o   @ ",
"@ @ @ @ @ # @ @ o @ @ ; M %XW.7X0 $X/.T.T.T.T.T.T.T.T.T.T.T.T.T.#XH U.<X&Xd.3 @ @ @ @ @ @ % @ @ @   ",
"o @ @ @ o o @ % o @ @ - M %XW.7X0 $X/.T.T.T.T.T.T.T.T.T.T.T.T.T.#XH U.<X&Xd.3 @ @ @ @ @ o @ @ @ @ @ ",
"@ @ @ @ @ o . @ o @ o - M %XW.7X0 $X/.T.T.T.T.T.T.T.T.T.T.T.T.T.#XH U.<X&Xd.3 @ @ @ @ @ @ @ o @ @ @ ",
"  @ @ @ o o @ o @   o - M %XW.7X8 OXG.N.N.N.N.N.N.N.N.N.N.N.N.N.XXB I.<X&Xd.3 o @ @ @ # @ @ @ o o @ ",
"@ o @   @ @ @ @ @ o   = M %XE.2XY i.Q U U U U U U U U U U U U U y.' !.;X&Xd.5 @ o @ @ o o @ o   % @ ",
"@ o @ o @ @ .   @ @ @ > M %XT.T.5Xz h h h h h h h h h h h h h h h  X-XT.&Xd.3 @ @ @ o @ o o @ @ @ @ ",
"o @ @ @ o @ o o @ @ @ = M %XT.T.T.4X6X6X6X6X6X6X6X6X6X6X6X6X6X6X6X=XT.T.&Xd.3 @ @ @ @ @ @ @ @ @ @ @ ",
"@ @ . @ @ o o @ @ % @ - m @Xn.Y.b.F.m.A.M.V.B.N.C.M.S.n.Y.b.Y.n.D.M.Z.N.{.a.3 @ @ @ @ @ @ @ @ . @ @ ",
"@ o @ @ o o @ @ @ @ @ - i f.q >.8 o.e E a D k f K t / w %.6 &.w ( r L s V 3.3 @ @ @ @ @ @ @ # @ o o ",
"o + @ @ @ % @ @ % @ # * 6 6 6 6 6 6 6 6 6 6 6 6 6 6 6 6 6 6 6 6 6 6 6 6 6 6 3 @ @ @ @ @ X o # . o   "
};
