/* XPM */
static char *result[] = {
/* columns rows colors chars-per-pixel */
"50 50 132 2 ",
"   c black",
".  c #010003",
"X  c gray1",
"o  c #040303",
"O  c #030403",
"+  c #040403",
"@  c #030006",
"#  c #040304",
"$  c #040404",
"%  c #050404",
"&  c #040504",
"*  c #050504",
"=  c gray2",
"-  c #070706",
";  c gray3",
":  c #0A0909",
">  c #0C0C0C",
",  c #0F0F0E",
"<  c gray6",
"1  c #0A0014",
"2  c #0C0017",
"3  c #0E001A",
"4  c #0E001B",
"5  c #111111",
"6  c #151515",
"7  c gray9",
"8  c gray10",
"9  c #1B1B1B",
"0  c #1D1D1D",
"q  c #1E1E1E",
"w  c gray12",
"e  c #150028",
"r  c #19012F",
"t  c #1C0135",
"y  c #1D0136",
"u  c #202020",
"i  c #232323",
"p  c #2D2D2D",
"a  c #2F2F2F",
"s  c gray19",
"d  c #343434",
"f  c #353534",
"g  c gray22",
"h  c #393939",
"j  c #3A3A3A",
"k  c #3B3B3A",
"l  c #3F3F3F",
"z  c #270149",
"x  c #27014A",
"c  c #2B0150",
"v  c #2B0151",
"b  c #340161",
"n  c #39026B",
"m  c #3D0272",
"M  c #400279",
"N  c gray25",
"B  c #414040",
"V  c #414141",
"C  c #424241",
"Z  c #464646",
"A  c #4B4B4A",
"S  c #4B4B4B",
"D  c #535353",
"F  c #545453",
"G  c gray34",
"H  c gray36",
"J  c #5F5F5F",
"K  c #676766",
"L  c #676767",
"P  c gray43",
"I  c #6F6F6F",
"U  c gray48",
"Y  c #7C7C7C",
"T  c gray49",
"R  c #7E7E7D",
"E  c gray50",
"W  c #470286",
"Q  c #4B028D",
"!  c #4F0294",
"~  c #5603A1",
"^  c #5A03A8",
"/  c #6503BC",
"(  c #6603BF",
")  c #6803C3",
"_  c #6C03C9",
"`  c #7304D7",
"'  c #7F04D0",
"]  c #9F03BF",
"[  c #AE03B7",
"{  c #A603BB",
"}  c #B703B2",
"|  c #FB038E",
" . c #EA0397",
".. c #C803A9",
"X. c #8403CD",
"o. c #9303C5",
"O. c #9503C4",
"+. c #9D03C0",
"@. c #818181",
"#. c gray53",
"$. c #898989",
"%. c #8A8A89",
"&. c gray54",
"*. c #8D8D8C",
"=. c #8D8D8D",
"-. c #9B9B9B",
";. c #9F9F9F",
":. c gray63",
">. c #A7A7A7",
",. c gray67",
"<. c #AEAEAD",
"1. c gray69",
"2. c #B3B3B2",
"3. c #B7B7B7",
"4. c gray",
"5. c gray75",
"6. c #C0C0C0",
"7. c #C1C1C1",
"8. c #C3C3C3",
"9. c gray78",
"0. c gray79",
"q. c #CACACA",
"w. c #CBCBCB",
"e. c gray80",
"r. c #CDCDCD",
"t. c #D0D0D0",
"y. c gray83",
"u. c gray84",
"i. c #D7D7D7",
"p. c #DFDFDE",
"a. c #DFDFDF",
"s. c #EFEFEF",
/* pixels */
"$ + $ $ $ $ $ X $ $ $ + + $ + $ $ $ $ $ $ + + $ $ * $ * $ $ $ $ $ $ $ % X O $ $ $ $ + + + + + X $ + ",
"$ + + $ $ + $ + $ % $ + $ $ $ X $ $ $ + + $ $ $ $ o X $ * $ + + $ + + $ $ $ + $ $ X o $ $ X $ * + $ ",
"X $ $ $ $ $ $ $ $ * $ + + + $ $ $ $ + + $ $ $ $ $ $ $ $ $ $ $ $ X $ $ + $ + $ + $ $ $ $ X $ $ $ $ X ",
"$ + $ $ $ $ $ % $ $ $ $ X $ + $ X $ $ $ $ $ $ $ $ + $ $ $ $ + $ o $ $ $ + % $ + $ $ $ $ $ $ + $ + $ ",
"$ $ $ $ + $ $ * X + $ $ $ $ $ $ $ $ + $ $ $ $ $ $ $ $ $ $ + + $ $ $ $ $ $ % + + $ $ $ $ $ + $ $ * + ",
"* $ + $ $ X + $ $ $ $ + X + $ $ + * + $ + $ $ + $ $ $ + $ + $ $ $ $ $ $ $ $ * $ + $ $ $ $ $ $ $ * o ",
"+ $ + * $ + + + + $ $ * $ $ $ + + $ $ + + $ $ $ $ $ $ + $ $ $ $ $ $ $ * + + $ $ $ + $ + + $ $ $ $ + ",
"o + $ $ X $ + $ $ $ + * $ $ + $ + $ + + + $ $ $ % $ $ $ $ + $ + + $ $ $ $ $ $ $ $ X $ + * $ $ $ $ + ",
"$ $ $ + + $ + + + $ * $ + $ $ Z $.$.$.%.$.$.L $ $ $ : &.%.$.$.$.$.$.q $ $ + $ $ $ X $ + $ + $ $ $ $ ",
"$ * + X $ + $ $ + $ + $ $ $ $ @.G u u u u u 4.$ * $ < 9.u u u u u ,.f $ X $ $ + + $ $ $ + $ $ $ $ $ ",
"$ $ $ $ $ $ X $ $ o $ X $ * + @.l           4.$ $ $ , 5.          ;.f $ $ $ X $ $ $ $ + $ + + $ $ $ ",
"$ $ $ $ + * $ o + $ $ $ $ + 2.a.l           s.6.6.6.8.5.          ;.e.U $ $ + $ $ $ $ $ $ + $ $ $ $ ",
"$ $ + + + o $ $ X + $ $ $ $ r.    y ` ` n                 / ` `     w :.+ $ $ $ + + $ + + + + $ * $ ",
"$ $ + $ $ $ * $ $ $ + + * $ r.    y ` ` n                 / ` `     w :.+ = $ + $ $ O $ $ $ + $ $ $ ",
"$ + $ $ $ $ = $ $ d t.6.6.6.7.    r / / n 3 3 3 3 3 3 3 3 ^ / /     9 y.6.6.6.0.$ + + $ $ + $ $ + $ ",
"$ * + $ $ $ $ $ $ j E                   n ` ` ` ` ` ` ` ` 4                   q.$ $ o $ $ $ X + + + ",
"+ $ $ $ $ $ o $ 6 F E                   n ` ` ` ` ` ` ` ` 4                   e.i > X + $ $ $ * $ $ ",
"+ $ $ $ $ $ $ $ =.9.J   t t r     1 t t W ` ` ` ` ` ` ` ` z t t     @ t t e   >.i.B X X $ $ $ $ $ o ",
"$ o $ X $ $ $ $ =.w     ` ` /     v ` ` ` ` ` ` ` ` ` ` ` ` ` `     4 ` ` ~     J V $ $ $ X $ + X $ ",
"+ $ + $ $ $ $ $ =.w     ` ` /     v ` ` ` ` ` ` ` ` ` ` ` ` ` `     4 ` ` ~     J V $ $ + $ + $ $ $ ",
"+ $ + + + $ $ $ =.w     ` ` _ n n ! ` [ } } ` ` ` ` ` X.} } +.` n n M ` ` ~     J V + + $ $ $ + + o ",
"+ $ $ # $ $ $ + =.w     ` ` ` ` ` ` `  .| | ` ` ` ` ` O.| | ..` ` ` ` ` ` ~     J V $ $ $ $ $ + + $ ",
"$ $ $ % * $ $ + =.w     ` ` ` ` ` ` `  .| | ` ` ` ` ` O.| | ..` ` ` ` ` ` ~     J V $ + $ $ + $ $ $ ",
"+ $ $ $ $ + o $ =.w     ` ` ` ` ` ` ` ] { { ` ` ` ` ` ' { { o.` ` ` ` ` ` ~     J V + + $ $ + $ + $ ",
"$ + X + $ $ $ $ =.w     ` ` ` ` ` ` ` ` ` ` ` ` ` ` ` ` ` ` ` ` ` ` ` ` ` ~     J V + & $ $ + + + $ ",
"$ $ $ $ $ $ + $ *.w     ` ` ` ` ` ` ` ` ` ` ` ` ` ` ` ` ` ` ` ` ` ` ` ` ` ~     J V + * + o $ $ $ $ ",
"$ + o $ $ $ $ X =.w     ` ` ) y y m ` ` ` ` ` ` ` ` ` ` ` ` ` ` y y x ` ` ~     J V $ + o $ + $ $ $ ",
"$ $ + + $ $ $ $ =.w     ` ` /     v ` ` ` ` ` ` ` ` ` ` ` ` ` `     4 ` ` ~     J C $ $ $ $ + $ $ $ ",
"$ $ $ $ $ $ $ $ =.w     ` ` /     v ` ` ` ` ` ` ` ` ` ` ` ` ` `     4 ` ` ~     J V $ $ $ + $ $ + $ ",
"$ $ $ $ $ $ $ $ Y w.I   4 4 2     v ` ` M 4 4 4 4 4 4 4 4 ( ` `     . 4 4 1   6.e.h $ + $ + $ $ $ + ",
"+ + + $ $ $ X % + j E             v ` ` n                 / ` `               q.$ $ + $ $ $ $ + o * ",
"$ $ $ + $ $ + $ $ k E             v ` ` n                 / ` `               q.+ + $ $ + $ % $ $ + ",
"X $ $ % $ + o $ + p 6.6.u.J       v ` ` n     ;.w.a.l     / ` `         5.8.6.1.$ X + $ + $ $ $ $ X ",
"$ $ $ $ $ $ + + $ * $ $ H J       v ` ` n     ;.s Y l     / ` `         5.5 $ + $ $ $ $ $ $ $ $ $ + ",
"$ $ + $ % $ $ * + $ $ 1.w.D . 3 3 b ` ` n     ;.s Y l     / ` ` 3 3 2   >.0.P $ $ $ $ o X $ $ $ O + ",
"$ $ $ + + $ % $ $ $ $ 0.    4 ` ` ` ` ` n     ;.s Y l     / ` ` ` ` /     l R $ * $ $ + $ $ * + $ $ ",
"* $ $ + $ + $ X $ $ $ 0.    4 ` ` ` ` ` n     ;.s Y l     / ` ` ` ` /     l R $ $ $ $ $ $ $ $ $ $ * ",
"* $ $ $ $ * $ + * $ $ 0.l 7 1 ~ ~ ~ ~ ~ c   l 3.s Y I a   Q ~ ~ ~ ~ Q   a I T $ + + $ + $ $ $ $ + $ ",
"+ $ + + X + $ + X + + K <.J                 p.@.8 N #.5.                5.#.N $ $ $ $ $ + + + + $ $ ",
"$ X + + $ $ * + $ $ $ + H J                 4.$ + + , 5.                5.5 + $ $ X + + * $ + + X $ ",
"$ $ $ $ $ % $ $ + $ $ $ H -.J J J J J J J J 4.$ $ $ < i.J J J J J J J J i.5 $ $ $ $ $ $ $ * $ $ $ X ",
"+ $ $ $ + + $ * + $ $ $ 0 S S A A S A S S S g $ $ $ - S S S S S A S S S A ; + $ $ $ $ $ + $ $ $ $ $ ",
"$ $ $ $ $ + o $ + $ + $ $ $ + $ $ + $ $ o + + $ $ $ $ $ $ $ + + $ + $ $ $ $ $ $ $ $ $ $ $ $ + $ $ $ ",
"X $ $ $ + + $ + $ X + $ $ + + $ $ + $ $ $ $ $ $ $ + $ $ $ + $ $ $ $ + $ $ $ + + $ $ $ % $ $ $ + + $ ",
"$ + $ X $ $ $ $ $ + X X $ X X $ $ + $ * $ + $ + $ + + $ $ + * $ $ $ $ $ $ $ * $ + $ $ + + $ + X * $ ",
"$ + $ + $ $ o X $ $ $ $ $ $ X + $ + o $ $ $ $ $ + $ X $ + + $ $ $ = $ * + $ $ $ $ $ + $ + + $ $ $ $ ",
"+ $ $ $ + $ + + $ $ $ X + $ $ $ $ + + $ $ $ $ $ $ $ $ $ $ + $ X $ + $ $ $ $ $ $ $ $ $ $ $ $ $ $ $ $ ",
"$ $ o $ $ + + $ $ * $ $ $ $ $ $ $ + X o $ X + $ $ $ $ $ + + $ X $ $ + $ $ $ $ $ $ $ $ $ $ $ $ o $ $ ",
"$ + $ $ + + $ $ $ $ $ $ $ $ $ * % $ X + + o $ $ $ $ X o $ $ $ $ $ $ $ $ $ $ $ $ $ $ $ $ $ $ % $ + + ",
"+ # $ $ $ * $ $ * $ % o * $ $ $ + + $ + $ $ $ + $ $ $ $ $ * $ $ $ X $ $ $ $ $ $ $ $ $ $ O + % o + X "
};
