/* XPM */
static char *_968ea1f161b4347d1fc38b4ae4488ed4whh5Xy58Y5ek8zE[] = {
/* columns rows colors chars-per-pixel */
"50 50 237 2 ",
"   c #000001",
".  c #0C0401",
"X  c #080807",
"o  c #090907",
"O  c #03050B",
"+  c #06090C",
"@  c #0B0B0B",
"#  c #100E0E",
"$  c #14120F",
"%  c #010511",
"&  c #050B14",
"*  c #0A0D12",
"=  c #080C1B",
"-  c #110011",
";  c #0D1113",
":  c #04111C",
">  c #0B121D",
",  c #121212",
"<  c #1B1512",
"1  c #16171A",
"2  c #1D1C1B",
"3  c #251A16",
"4  c #231C19",
"5  c #301E19",
"6  c #1D201F",
"7  c #25211D",
"8  c #2C231E",
"9  c #38261D",
"0  c #0C1524",
"q  c #0A1628",
"w  c #121822",
"e  c #111B2C",
"r  c #0B1A32",
"t  c #161F32",
"y  c #1B2124",
"u  c #152233",
"i  c #13223B",
"p  c #2A2522",
"a  c #292827",
"s  c #332720",
"d  c #342A23",
"f  c #3B2D25",
"g  c #332D2A",
"h  c #36312B",
"j  c #3C322C",
"k  c #252D36",
"l  c #2F373A",
"z  c #373333",
"x  c #451E00",
"c  c #502E0D",
"v  c #653000",
"b  c #442A24",
"n  c #44342A",
"m  c #4B362B",
"M  c #4D3A2D",
"N  c #52382B",
"B  c #5B3D2D",
"V  c #443833",
"C  c #4C3B33",
"Z  c #523C32",
"A  c #5A3F35",
"S  c #633B2B",
"D  c #653D36",
"F  c #4B4239",
"G  c #564337",
"H  c #5A4233",
"J  c #5C443B",
"K  c #5E493D",
"L  c #64422D",
"P  c #6E462F",
"I  c #744B2A",
"U  c #644433",
"Y  c #6B4634",
"T  c #664A36",
"R  c #6D4A35",
"E  c #64443A",
"W  c #644A3B",
"Q  c #6B4C3B",
"!  c #744D39",
"~  c #6A523F",
"^  c #73513D",
"/  c #7A523B",
"(  c #08244B",
")  c #182B48",
"_  c #12324C",
"`  c #132E53",
"'  c #2F3A4E",
"]  c #173764",
"[  c #103674",
"{  c #443F46",
"}  c #364253",
"|  c #15466D",
" . c #274665",
".. c #2A5175",
"X. c #365070",
"o. c #4C4A4D",
"O. c #594B46",
"+. c #574A58",
"@. c #624745",
"#. c #644D43",
"$. c #6A4E41",
"%. c #774540",
"&. c #665447",
"*. c #6D5243",
"=. c #745442",
"-. c #7C5542",
";. c #755847",
":. c #7C5B45",
">. c #745D4C",
",. c #7D5C4A",
"<. c #685657",
"1. c #775953",
"2. c #7D624F",
"3. c #7C6553",
"4. c #796659",
"5. c #525670",
"6. c #665C67",
"7. c #5F6060",
"8. c #786A66",
"9. c #726C6F",
"0. c #696978",
"q. c #776B79",
"w. c #845A36",
"e. c #92603B",
"r. c #8C4E4D",
"t. c #835B44",
"y. c #835E4B",
"u. c #895A4A",
"i. c #8A5D54",
"p. c #955657",
"a. c #896345",
"s. c #84624B",
"d. c #8A654C",
"f. c #94654A",
"g. c #856756",
"h. c #8C6452",
"j. c #8D6B53",
"k. c #8B6B5C",
"l. c #936D53",
"z. c #976955",
"x. c #94735C",
"c. c #9A7558",
"v. c #9B745C",
"b. c #A26E51",
"n. c #A2745B",
"m. c #A47658",
"M. c #AA7A5D",
"N. c #836A67",
"B. c #8A7569",
"V. c #9D7563",
"C. c #9D7B65",
"Z. c #967968",
"A. c #876C74",
"S. c #877578",
"D. c #8C7C7A",
"F. c #967D77",
"G. c #A37662",
"H. c #A47B62",
"J. c #AB7D63",
"K. c #A47D6A",
"L. c #AA7E6B",
"P. c #AB7870",
"I. c #B37979",
"U. c #9B8278",
"Y. c #AD8266",
"T. c #A4816B",
"R. c #AB846C",
"E. c #B2866C",
"W. c #A48472",
"Q. c #AC8473",
"!. c #AD8874",
"~. c #A4887D",
"^. c #AC8A7A",
"/. c #B48A74",
"(. c #B68A75",
"). c #B38C7B",
"_. c #B7927D",
"`. c #0B3A82",
"'. c #184F94",
"]. c #2C5B8C",
"[. c #306495",
"{. c #3870A9",
"}. c #576888",
"|. c #466995",
" X c #4D6992",
".X c #5C769A",
"XX c #6C6681",
"oX c #7B7888",
"OX c #6A7997",
"+X c #787998",
"@X c #5179AD",
"#X c #697FB3",
"$X c #2E79C1",
"%X c #867C86",
"&X c #957F82",
"*X c #8778A5",
"=X c #7A829C",
"-X c #5782B7",
";X c #6D8CB7",
":X c #748AB3",
">X c #3985C9",
",X c #4489C6",
"<X c #568BC3",
"1X c #5F94CB",
"2X c #4A98DB",
"3X c #589BD8",
"4X c #668DC4",
"5X c #7B9AC6",
"6X c #659BD4",
"7X c #65A3DF",
"8X c #499FE3",
"9X c #5A9FE0",
"0X c #4CAAE7",
"qX c #56A7E9",
"wX c #5AB8F9",
"eX c #69A8E5",
"rX c #74ABE8",
"tX c #71B2F1",
"yX c #74B8F6",
"uX c #5EC2FF",
"iX c #65C7FF",
"pX c #8E858F",
"aX c #938387",
"sX c #878597",
"dX c #A28888",
"fX c #B79685",
"gX c #BA9885",
"hX c #A69192",
"jX c #8688A3",
"kX c #918FAE",
"lX c #8891B4",
"zX c #879AC7",
"xX c #939EC6",
"cX c #839DD4",
"vX c #88A2CE",
"bX c #88A7D7",
"nX c #82A9E1",
/* pixels */
"                            X X @ @ @ @ @ + @ , , , , ; > e t ) ) u 0 : %                           ",
"                        * ; , # @ X X   X @ @ + ; , + * q : + w u w w ; q q O                       ",
"                    O * + X @ , X X X X o # @ @ X X & , * , , w X X X @ & = = > r %                 ",
"                    * * @ @ @ @ O X + X o @ @ @ + X O + + , # + X X @ X O X O e ) ) :               ",
"                    * X X @ @ o X @ @ @ @ @ # @ @ @ * X + + + + X . X ; * X O 0 e ) t               ",
"                    X @ o X X O @ @ @ @ @ @ * @ @ * # ; , * ; * X @ & * @ X & * 0 ) i %             ",
"                  O + o o O o o @ o # # # # o X @ X X O & * * @ @ @ > > O X % X 1 @ = 0 X           ",
"                X O @ o o @ @ # o @ * o @ # @ X o X @ * @ ; @ # , , , w > O * X X % 0 &             ",
"                  + @ @ o + @ + O X X X @ X @ * @ * @ @ # @ @ @ ; > e > > * * X @ * = =             ",
"                + @ @ @ @ @ o o o @ X @ @ @ @ @ < 3 9 9 3 < X # ; * ; 0 * e 0 + O % 0 0 O           ",
"              O + @ @ @ X X @ @ o @ # @ @ $ < 3 b m U ! P 9 X X @ O   ; * e e X . = e : O           ",
"                ; @ @ X @ X @ @ @ @ @ @ @ < < f Z ^ d.l.l.R < # X X X + q 0 q @ + > e &             ",
"          O O O + X X X @ @ @ # @ @ @ $ 2 4 m Q t.b.Y.Y.Y.a.H 4 # X X X 0 & > e e 0 0               ",
"          O * * @ @ X X @ * @ @ @ $ 3 p s N :.l.m.Y.E.Y.Y.x.s.T M 8   + > ; * r i ; e               ",
"            * , @ @ X @ @ < , X O % , , f ^ l.m.Y.Y.Y.Y.Y.c.l.a.^ M , X > > X + e i r               ",
"              @ X X X @ # < + 2 d N B =.f.l.m.m.m.m.m.c.b.c.b.d.w.^ m u - . + & O t 0               ",
"              @ @ @ X @ # 4 M Q t.l.H.J.J.J.M.M.M.M.M.M.M.J.M.H.Z.8.9.<X,XX.. 0 , e O               ",
"            X @ @ X # , 8 H T :.j.C.).)._./.Y.J.J.J.E.(.(.(./.W.S.%X+XeXuX<X- w 0 0                 ",
"            O * X @ < 2 M Z n O.3.B.~.fXgXgX_._./._._.gXfX_.^.U.B.9.0.7XwXqX] ( ( q                 ",
"              @ @ @ , d f , ; y g o.&.4.U.fXgXgXgX_.gXgXfX~.D.4.O.l d |.wXwX'.) ` q                 ",
"              O @ # , f 4 p k a & O     y 4.!.fX_.).R.B.O.j y + O : y O ,XwX$X( ` q   O             ",
"              X @ # 9 j j G ;.>.;.Q Q H Z m B._./.).x.j 7 8 m J K #.o.5.>XwX>X[ ] r                 ",
"              @ @ < C V M *.! Y ,.-.-./ / R s.Y.E.R.a.R ^ ^ / a.2.=./ 0.3XuX>X'.[ : % O             ",
"                O 7 F V H L b 5 j V o.#.Y R Y a.f.a./ R R #.J O.G 0.}.L <XuX2X'.]                   ",
"          O f b * d G C B N $ o.o., <.q.b B S w.f.=.P S Z q.o.k l }  X+.-XiX0X`.( .  .0             ",
"      .   5 S D N a Z A B m 3 O.O.N &.E Y N Y f.z.q.<.S E 1.&.9 6.5. .+.6XiXqX[ Z 0.;X .  &         ",
"      . . N / -.H d H U S L R R =.i.y.*.U S / n.m.zX:Xv ^ =.;.>.W }.#X#XrXiX0X.XA.5XXXx O .         ",
"      .   E -.-.H j E U R ^ y.d.x.V.z.w.Y ! -.n.M.bXtX+X/ j.v.V.k.A.%X:XrXiXwX1XlXbXoXv % .         ",
"          t.u.y.Z n J Q ! u.d.v.x.n.f.t.! Y / n.P.cXtXrXA.e.m.L.L.F.D.lXtXiXwX@XsXvXaXc O .         ",
"          A u.u.J j J E / h.v.H.H.n.p.f.t.Y -.H.M.jXrXcXD.f.m.J.L.~.hXcXyXwXqX.Xw.kXpXx % .         ",
"      .   3 / r.$.j G Q =.j.G.L.H.n.c.c.-.B z.L.b.%X4XXXG.G.J.P.Q.dXkXbXyXrX8X;Xa.D.6.X +           ",
"          # S S $.z Z $.=.d.G.L.P.P.V.v.-.u.G./.E.kXlXlXaXJ.J.I.I.hXxXnXtXeX0X5Xi.s.'   o           ",
"        .   M B m h C $.*.d.v.P.^.!.K.k.^ E >.^.~.+X6.+XaXH.).).^.hXzXnXrX9X8X+XI D   .             ",
"        X   4 *.*.d V #.=.y.V.Q.).^.^.C.%.O.E *.<.8.^ R C.).fX).fXhXxXrXeX9X,X<.;X|.  :             ",
"            O #.g.Z g E =.s.v.R.!./.!.T.d.y.N.k.B.aXA.N.H.!._.).!.dXxXnXeX,X-XjX6X| O :             ",
"              n $.O.p Z =.s.l.T.R.R.T.x.x.>.k.Z.V.B.q.S.V.m.R.!.L.dXlXcXeX$X:XlX.X  +               ",
"                * < a C *.,.l.m.T.T.Z.g.1.3.x.v.h.V.N.oXoXg.v.W.K.U.jX5X6X{.{ 5.O   O               ",
"              .     4 C W 2.d.x.c.k.>.>.y.i.i.i.u.i.N.*X+X&.3.Z.&X&XsX:X3X[.      O                 ",
"                .   + V J 3.d.l.V.g.C A U D Y %.%.D @.+.+.J ;.Z.pXsX=X;X,X|   0                     ",
"                      h H ;.s.x.m.d.N b D -.p.r.p.p.r.XX5.x $.j.aXsXjX;X@Xr   O                     ",
"                      6 G *.2.j.Y.a.a.I ~ j.I.I.I.I.P.*X5X9.a.c.D.sX=X-X[.  +                       ",
"                      + j W :.s.a.l.T.T.j.s.g.j.g.i.i.8.jXkXU.x.q.oX=X@X]   %                       ",
"                        4 F ~ :.2.T.a.T.T.j.j.d.1.j.x.U.aXsX=X8.q.=X.X{._ @ %                       ",
"                        X d K =.:.a.2.a.x.T.T.T.T.T.T.T.U.pXU.q.oXoX|.{...  &                       ",
"                      < n 8 M W ^ :.a.T.x.T.U.T.Q.W.W.T.U.=XpX=X=X.X].2X..  &                       ",
"                  X   2 H j 8 H T T 2.a.x.B.T.U.T.W.F.S.S.pX=XOX.XX.{.3X .  &                       ",
"                      < H H d f F H ~ >.3.3.T.T.T.Z.4.7.9.0.5. XX...-XqX_ . %                       ",
"                  . X $ H H H 8 d d h F F &.>.g.k.3.K O.7.} } X.X.|.1X7X_   +                       ",
"                      < H T T M 9 8 7 < p j F ~ ~ F h z z k k ' 5.@X1X3X_   +                       ",
"                      < H Q ~ U H f 8 7 < < 7 8 8 6 < 1 6 k } 7.6.OX;X3X_ o +   o                   "
};
