/* XPM */
static char *result[] = {
/* columns rows colors chars-per-pixel */
"50 50 90 1 ",
"  c #040404",
". c #090706",
"X c #090807",
"o c #0C0B0A",
"O c #1B0709",
"+ c #110F0D",
"@ c #1C0E0E",
"# c #181307",
"$ c #1C130D",
"% c #230E0F",
"& c #241D0B",
"* c #281E08",
"= c #2E0F10",
"- c #251010",
"; c #2B1012",
": c #311113",
"> c #391214",
", c #2D230C",
"< c #34240D",
"1 c #3B2C0C",
"2 c #420E12",
"3 c #4A0F13",
"4 c #451216",
"5 c #4B1217",
"6 c #4C1D14",
"7 c #4D1318",
"8 c #531319",
"9 c #5B141A",
"0 c #5B191C",
"q c #63151B",
"w c #6C151D",
"e c #6D181E",
"r c #73151E",
"t c #79151F",
"y c #76191F",
"u c #46340B",
"i c #4A380C",
"p c #482511",
"a c #6A2219",
"s c #7C1520",
"d c #7C1920",
"f c #552325",
"g c #573E3F",
"h c #5B440C",
"j c #644A0C",
"k c #684D0C",
"l c #754D0E",
"z c #7C5B0B",
"x c #484746",
"c c #4B4B49",
"v c #535251",
"b c #8C1723",
"n c #841A22",
"m c #8C1A23",
"M c #931C24",
"N c #9D1C26",
"B c #A31D27",
"V c #A71E28",
"C c #AC1E29",
"Z c #B31F2A",
"A c #B81F2B",
"S c #BD202C",
"D c #B7303B",
"F c #805E0A",
"G c #85610B",
"H c #89640B",
"J c #956A0C",
"K c #9E730B",
"L c #A2750B",
"P c #AB7C0B",
"I c #D47217",
"U c #B1800B",
"Y c #B8850A",
"T c #BF8B0B",
"R c #C6820E",
"E c #C7900A",
"W c #CE950A",
"Q c #DC920E",
"! c #DC9D0B",
"~ c #E8A70A",
"^ c #FAB40A",
"/ c #A68A77",
"( c #B8A068",
") c #B59FA0",
"_ c #D09599",
"` c #DBB6B9",
"' c #C7C2B7",
"] c #DFC6C8",
"[ c gray91",
"{ c white",
/* pixels */
"                                                  ",
"                                                  ",
"                                                  ",
"                                                  ",
"                                                  ",
"                                                  ",
"                                                  ",
"                                                  ",
"                                                  ",
"               ooX                                ",
"             .->>>o         .X..XX                ",
"            .$NSSS8o       Xo+odt0X               ",
"           .-NSANSZ0+oXXoo+++qVMCN-X              ",
"          .-MSCrdmBS8++;44454nq+4e>o              ",
"          @MSBtq7sssB7;s>pqssrq8++oo              ",
"          dAN8qsq788dVss6L19ssss8++X              ",
"         :C0r93>9JTT7Zdss:+@;;;;;+o               ",
"        o>S4sss9KYLLzqsssw0`{S_[xX                ",
"        .>S>sssp^i+++wbs>--D]M)vX                 ",
"         :C=-==<^i+++;mN@GQC;++o                  ",
"        .osdsssp^Yo+7>>B-G!>ziLz                  ",
"          9Nsqq7j~!Y988sMLh+TkzEz1                ",
"          oVN7444lF14454a^i;RkU,GWu.              ",
"           4Vsssswqq9;;;8H(K/$P& h!1#             ",
"            >Vn85@44@544+c'PIGWT. GJG*            ",
"             >s999s4@+887fg&Y~^P. *H1$            ",
"              3nBs5>s>>->-o.ouLo   $hX            ",
"               +>nns=794;@+X ..     X             ",
"                ..sdVb8998>>>>@                   ",
"                  XX8Mbw88>>>:@.                  ",
"                     .=Mb9wq9sq5.                 ",
"                       .o8Nq7288%                 ",
"              .+:>-oXXXXXX@809->:+  oo+.          ",
"             +>9Sdqqq:+oo+o:Bd444+  o+++.         ",
"            XNwnddBZ>dm$+++onSV9q@ ++@r8o         ",
"            +0>o++;;dSV>6++o+SS>o+ oXOb4:.        ",
"           o+9>++@++@6qMZ8+++V0-+o   o88>         ",
"           o489:8s->+8yNdne>+++++=o23:s>-         ",
"           %w;sq5s@95++q>SSZm++++qq4nq==@         ",
"            oo:5+>>+++++++++++++>885=8>.          ",
"               .    ..  . .       . .             ",
"                                                  ",
"                                                  ",
"                                                  ",
"                                                  ",
"                                                  ",
"                                                  ",
"                                                  ",
"                                                  ",
"                                                  "
};
