/* XPM */
static char *result[] = {
/* columns rows colors chars-per-pixel */
"50 50 40 1 ",
"  c #040404",
". c #0B0505",
"X c #120507",
"o c #150508",
"O c #1B060A",
"+ c #24070C",
"@ c #2A070E",
"# c #2D080F",
"$ c #30080F",
"% c #340810",
"& c #3A0912",
"* c #430A14",
"= c #4B0A17",
"- c #530B19",
"; c #5B0C1B",
": c #630D1D",
"> c #6A0D1F",
", c #6E0E20",
"< c #740E22",
"1 c #7B0F23",
"2 c #7D1024",
"3 c #810F25",
"4 c #841026",
"5 c #891027",
"6 c #8C1128",
"7 c #93112A",
"8 c #9C132C",
"9 c #A3132E",
"0 c #AB1431",
"q c #B51533",
"w c #BD1635",
"e c #C21637",
"r c #C71738",
"t c #CA1739",
"y c #CE183A",
"u c #D1173B",
"i c #D4183C",
"p c #DC193E",
"a c #E11A3F",
"s c #E41B41",
/* pixels */
"                                                  ",
"                                                  ",
"                                                  ",
"                                                  ",
"                                                  ",
"                                                  ",
"                                                  ",
"                   2w&      o6eo                  ",
"                   &wu*    X9i,.                  ",
"                    OqyO   4p-                    ",
"                     %p<  +i5.                    ",
"                      00. ;p%                     ",
"                      *<%#&,                      ",
"     o.             #4wipiy9;.                    ",
"     w:           X<isssssssp0#                   ",
"     w8          o8assssssssssy=            .     ",
"     1iO        .8ssssssssssssau&          -0     ",
"     @i1        <p<5issssssssy6qrO         7r     ",
"     .6i#      #up#.&8pssssp7#.>s4        ot3     ",
"      @y9X     6ssy3&o-qss0*o&5usi@       ,p%     ",
"       -p1    +pss9,09-<ay%;971rss1      +t8..    ",
"        4p>   <ssyo $pppsataq. ;asr     .7i$      ",
"        X8i,. 0ssrX @pssssss9. =ass#    ,p,       ",
"         X6p6Oysss7;0sssaasap<-qssa,   -y7.       ",
"          .,9@issspr92;=**-<7wissss4  -y9O        ",
"            X%aar5=+O@&;;:-&+O*3tss9 1i0O         ",
"             &sr@O*3qyssssaay8;@+0s9.q5o          ",
"             %sp0rassssssssssssr6ws9 O.           ",
"             @assssssssssssssssssss6              ",
"     .=;;,,,XOyssssssssssssssssssss<@;;,,,=       ",
"     @yuiyyr@ qssssssssssssssssssss*2iiyyy8       ",
"     .+++OOo  4sssssssssssssssssssi.X+++Oo.       ",
"              %sssssssssssssssssss6               ",
"               0ssssssssssssssssss&..             ",
"            O,$*pssssssssssssssss9.>3+            ",
"           $wi-.7sssssssssssssssu# ;ie&           ",
"          %rr*  Owassssssssssssp;   &er%          ",
"         +rw@    @wassssssssssp,.    @weo         ",
"         8i%      +0assssssssu;       %i5         ",
"        $p<        .;0passsy3@         6u@        ",
"        4pX          .+*;-%X           +a:        ",
"       .q8                              e7        ",
"        w:                              <2        ",
"                                                  ",
"                                                  ",
"                                                  ",
"                                                  ",
"                                                  ",
"                                                  ",
"                                                  "
};
