/* XPM */
static char *_9b80c163c3c4819c2198d726da8da50ueWjIt4BaLMHrDeN[] = {
/* columns rows colors chars-per-pixel */
"50 50 182 2 ",
"   c #010102",
".  c #080607",
"X  c #060609",
"o  c #09070A",
"O  c #07080A",
"+  c #090A0A",
"@  c #130F0C",
"#  c #0E0D11",
"$  c #040814",
"%  c #0F1012",
"&  c #07101F",
"*  c #141415",
"=  c #16151A",
"-  c #17181A",
";  c #1B1A1A",
":  c #1D1C21",
">  c #1F2025",
",  c #232324",
"<  c #2B2926",
"1  c #262628",
"2  c #292728",
"3  c #2A2A2B",
"4  c #2E2E31",
"5  c #272B36",
"6  c #323234",
"7  c #3B3A3D",
"8  c #35373E",
"9  c #403F3E",
"0  c #42413D",
"q  c #2C3B52",
"w  c #3F4044",
"e  c #3E424E",
"r  c #4A4B4C",
"t  c #424146",
"y  c #594C44",
"u  c #504E4A",
"i  c #5D544F",
"p  c #4E4E51",
"a  c #424D5F",
"s  c #535155",
"d  c #585657",
"f  c #5C5A5D",
"g  c #56555A",
"h  c #625751",
"j  c #655B52",
"k  c #645D5B",
"l  c #6A5F5A",
"z  c #685A51",
"x  c #6A615C",
"c  c #5E5E62",
"v  c #605E61",
"b  c #5C606B",
"n  c #646365",
"m  c #64636B",
"M  c #69676A",
"N  c #6B6A6B",
"B  c #6E6560",
"V  c #756B66",
"C  c #7F6E67",
"Z  c #776E6B",
"A  c #71706D",
"S  c #7C736B",
"D  c #6D6C71",
"F  c #6F7075",
"G  c #737274",
"H  c #7B7574",
"J  c #7F7A76",
"K  c #75757A",
"L  c #78777A",
"P  c #7C7B7B",
"I  c #81756C",
"U  c #837976",
"Y  c #867A76",
"T  c #8B817F",
"R  c #948477",
"E  c #7F7E81",
"W  c #747881",
"Q  c #807F85",
"!  c #848385",
"~  c #8C8483",
"^  c #84858B",
"/  c #89868C",
"(  c #87888D",
")  c #8C8A8C",
"_  c #9B8E87",
"`  c #938C8A",
"'  c #938884",
"]  c #94918F",
"[  c #9A928A",
"{  c #8C8C91",
"}  c #918E94",
"|  c #988F94",
" . c #8F929B",
".. c #949293",
"X. c #9B9392",
"o. c #9F9A96",
"O. c #95949B",
"+. c #999398",
"@. c #9C999D",
"#. c #A4958D",
"$. c #A39C9C",
"%. c #AB9F99",
"&. c #AEA49D",
"*. c #A6A19E",
"=. c #B5A59B",
"-. c #B1A89F",
";. c #9E9DA3",
":. c #A69FA3",
">. c #A6A5A6",
",. c #ABA4A3",
"<. c #AEAAA7",
"1. c #A6A4AA",
"2. c #AAA6AC",
"3. c #ABAAAD",
"4. c #B1A6A2",
"5. c #B3ABAA",
"6. c #B9AFAD",
"7. c #B3A8A4",
"8. c #B6B1AE",
"9. c #BAB1AE",
"0. c #ADABB2",
"q. c #B1ADB2",
"w. c #B3B1B5",
"e. c #BAB5B3",
"r. c #BEB9B6",
"t. c #B6B4B9",
"y. c #BBB6BB",
"u. c #BCBABD",
"i. c #C5B8AD",
"p. c #C3B7B7",
"a. c #C4BAB5",
"s. c #C3BCBB",
"d. c #C8BDBC",
"f. c #C8BBB2",
"g. c #CBC2BD",
"h. c #C8C2B9",
"j. c #D0C5BF",
"k. c #BEBCC1",
"l. c #C1BEC3",
"z. c #C8BFC2",
"x. c #C3C2C4",
"c. c #CBC4C3",
"v. c #CEC9C6",
"b. c #C6C4C9",
"n. c #CCCACB",
"m. c #CCC2CB",
"M. c #D4CAC7",
"N. c #D3CCCB",
"B. c #D5C8CA",
"V. c #D3D0CE",
"C. c #DBD2CE",
"Z. c #CDCCD1",
"A. c #D3CED1",
"S. c #D5D2D5",
"D. c #DBD4D4",
"F. c #DCD9D7",
"G. c #D7D5DA",
"H. c #D9D6DA",
"J. c #DCD9DC",
"K. c #E0D3CD",
"L. c #E4DBD6",
"P. c #E3DBDB",
"I. c #E7E2DF",
"U. c #E9E1DE",
"Y. c #DFDDE0",
"T. c #E1DFE2",
"R. c #E4E1E4",
"E. c #EAE4E2",
"W. c #ECE8E7",
"Q. c #E9E7E9",
"!. c #EBE6EA",
"~. c #EAE8EB",
"^. c #EDEBED",
"/. c #EEEBEB",
"(. c #E6E4E9",
"). c #F2EDEC",
"_. c #F1E7E7",
"`. c #E6E4F2",
"'. c #F2EDF3",
"]. c #F4F2F3",
"[. c #FAF4F4",
"{. c #FBF9FA",
/* pixels */
"    +                 .               +         X     O #   .     .     .               . .         ",
"  .                                 + +   O X     .   +   .           . +               . .         ",
". +                               . + +   X X O .   O O O       .   X #   .                         ",
"                                  + .     X X X   +   X   # # X     #                               ",
"                                  . .   O O   O .   o q { 0.O.F 4 + O   .                           ",
"              .                       O X   O O   7 2.Y.Y.Z.b.k.0.K : X X                           ",
"              .                   .       O X   g T.Y.Z.G.G.Z.b.k.k.O.6   O X                       ",
"            +                       O O X O   7 (.(.Y.Y.Y.Y.S.G.Z.k.0.O.4   X   + .                 ",
"            .               +   X     X +   * Z.'.~.R.Y.Y.H.G.G.Z.b.t.1.{ =   + +                   ",
"        .                 +         O X X   ^ {.~.~.R.H.Y.Y.S.S.Z.b.k.0.1.D   + .             .     ",
"        . .             . .     .   X   X > J.].^.^.R.H.Y.Y.S.G.Z.k.k.0.1.;.,                 +     ",
"      . .               .       X   X +   M [.^.'.~.Y.Y.G.G.G.G.Z.k.k.w.1.3.m X             .       ",
"    . .               .             O +   3.[./.Q.R.P.J.S.J.J.S.b.k.w.1.1.1.{ #             .       ",
"                    + .       . X X X O * n.^.R.~.Q.R.S.S.H.H.N.l.t.q.2.1.;.;.8   .     . .         ",
"                    +             X X   1 H.^.).'.^.T.S.A.S.N.l.q.t.t.q.0.;.1.c         .           ",
"                  .             X X O   6 R.W.'.].T.P.J.N.A.c.5.q.l.k.0.1.;.;.G       + .           ",
"                  .             X X O   r `.).T.f.6.M.P.B.B.e...~ | <.k.2.O.O.Q #   + O             ",
"                              .   X O   p '.L.&.R #.p.K.D.z.) J l h S ,.2.( O.( ;   X .             ",
"                              . + X O   s ).i.R #.=.i.T.P.l.~ Y l h C 7.5.} } ( 1   .               ",
"                            . + + X O   f ).=.=.q.i.i.B.'.Z.%.I Y $.~ #.z.} { { 2   .               ",
"            .               + + X   +   n Q.=.c.a t c.f.).k.@.C Q q / Q p. .^ { 3   +           . O ",
"          O .               + . O   +   N R.9.m.q 5 g.M.).k.} U W & v | X.;.^ / 1   X           .   ",
"        .                 . .   X   O   D E.g.B.e c D.K.T.y.X.U D $ m _ ' 0. ./ ,   X         . .   ",
"        .               . +       . $   m ).h.C.B.B.K._.$.,.,.U ` D } Y %.k.;.Q :             .     ",
"      .               . +       X   O   d ).C.d.M.C.E.K.I _ 6.X.T -.[ Y d.5./ Q ;   O X     +       ",
"    . .                 .           .   r ].U.N.g.P.P.f.z y %.7.5.Z V 6.c.q.Q K *   X   . . .       ",
"    .                               #   t ).E.P._.g.N._ x y V 5.M.p.p.d.t.2.Q K #       O .         ",
"  . .                           O   + * 3./.D.d.&.4.E.V C z h 5.$.X.) ) q.:.{ K + X     .           ",
"  .                               +   7 J.J.D.p.4.B.[.B U h l y.H ~ ~ :.2.} ;.L X                   ",
"                                  .   ; u.J.v.d.d.T.[.l V i V y.| ,.5.e.| ) ..m                     ",
"                                    o   ! V.6.9.B.W.[.` [ l X.u.X.$.a.<./ ) ! 7                     ",
"              . .                   . . + ] s.,.N.).W.Q.P.4.z.0.X.+.) A n M m :   . .               ",
"* ,         + .                       o   n W.o.>.[.R.].H.t.b.q.;.U < 0 f G G     +                 ",
"* ,           .             .         o   r F.*.J [.W.E.J.N.A.q.2.n @ u M ^ M   @                   ",
"- 1       .                 .         .   4 H.5.~ W.I.F.v.8.>.*.2.k ; M D Q p   +                   ",
"* ,     . .               .               = >.x.u c.I.V.r.e.o.` L 6 ; A F P 6   .             +     ",
"* ,     +               . .             X + u x.< e.I.F.v.S.r.) ~ 2 , L A r %               . .     ",
"; <   .                 .               +   > s.0 w.) P ..S f d P ; - ^ d * .               +       ",
"; 2   .               .               . +   , w.V c.v.<.>.~ f N ) 7 3 ) 7   .               .       ",
"* ;                 . .                     - >.8.N.v.8.o.[ ] J ) 0 n ! 7               . .         ",
"+ *               . .                       * ] x.V.v.r.8.*.) ~ ! ) ! E 1             . .           ",
"* ,                                           L t.x.V.j.8.,...L Q { L G *             .             ",
"- ,                                           t >.x.S.S.V.h.8.@.} P D c   .           .             ",
", 2                             .             ; ..u.n.b.x.u.>.) Q K c ;                             ",
". -                             .         .     6 A E n N G N b n s %                               ",
"- <         .               . +                             . + #   X                               ",
"* 2         .               .                 +   O           .                                 . O ",
"; 1       . .               .               + .               . .             +                 .   ",
"* :     . .               +               +               . .               . .               .     ",
"  .                     . .               .               . +               +                 .     "
};
