/* XPM */
static char *result[] = {
/* columns rows colors chars-per-pixel */
"50 50 44 1 ",
"  c #010101",
". c #0A0A0A",
"X c #0E0E10",
"o c #131313",
"O c #1C1C1C",
"+ c #232323",
"@ c #2B2B2B",
"# c #333333",
"$ c #3C3C3C",
"% c #434343",
"& c #4B4B4B",
"* c #535353",
"= c #5B5B5C",
"- c #636363",
"; c #6C6C6D",
": c #727272",
"> c #7B7B7B",
", c #848484",
"< c #878789",
"1 c #8A8A8B",
"2 c #949494",
"3 c #979799",
"4 c #9B9B9C",
"5 c #9F9FA1",
"6 c #A3A3A3",
"7 c #A6A6A8",
"8 c #ACACAC",
"9 c #AEAEB0",
"0 c #B3B3B3",
"q c #B7B7B9",
"w c #BBBBBC",
"e c #BFBFC1",
"r c #C3C3C4",
"t c #C6C6C8",
"y c #CBCBCC",
"u c #CFCFD1",
"i c #D3D3D4",
"p c #D6D6D8",
"a c #DBDBDB",
"s c #E3E3E4",
"d c #E7E7E9",
"f c #EBEBEB",
"g c #F3F3F3",
"h c #FDFDFD",
/* pixels */
"  .        .       ...oooOoOo.              .     ",
".                 ++O         OO.  .              ",
"                OO   o&;>,>-*   OO                ",
"               +  =20uiasppiyq4=  +               ",
"      ..      O $qpsgsdsiiappipy8$ +              ",
"             O >pdssggfffggfgsappy> .o .          ",
"    .       + <idfghhhghhhhghggfaii7  . .         ",
"           + >afghhhhhhhhhhhhghggpyp3 +        .  ",
"   .      O =ifghhhhhhhhhhhhhhhhgstru> +     .    ",
"          o tpfhhhhhhhhhhhhghhhhhdywww* o   .     ",
"         + <saghhhhhhhhhhhhhhhhhhgatqy4 .. .      ",
"        .  tasgghhhhhhhhhhhhhhhhhhaerwt* ..       ",
"        + -paggghhhhhhhhgghhhhhhhhp0wer< O        ",
"      . @ 2sdggfhhhhhhhgggghhhhhgfuqwee4 O      . ",
"        O 8sdgghhhhhhggffsfghhhgfaewq9e5 o        ",
"    .  .O 8ffsgghhhhgfffssfhhhhgduqqwqe4 o        ",
"   .   .o 8ssafghgggfsddsssfgggfpw2608w5 o    .   ",
"  .    .o 8iiiyfggggggfsipsassssr64665w3 o   .    ",
" .     .. 6ww0ysgfgghhgfaafggfgfrw074,05 o        ",
"        O 3t088agggfdafgasggggffi0w3,>t3 o        ",
"       .+ 2aiw6saw<2>:pgisgpu0yadaw<:>q< O        ",
"        O 1ya8yw&     0atri0& @-1qs7;,q; o        ",
"        + <yi06X O+o+ :www6$ o    2r:>e- o        ",
"    .   + >tytw@ .  @ >ett3 O.oo+ ow:28% .        ",
"    .   O =wwrs% ..O  0yiyw# O  O %y323# .    .   ",
"        o @07ta* @  ;4issri, Oo+@ &a8>>           ",
"         + 66wg,   >tsgd61et-     %s4:* .   .     ",
"        o o0wtfa2<tpsggi +wipw62% 7a2>& .  .      ",
"        o +tsgfssay0yfs3%%8ytasiiist82> .  .      ",
"         O -addatw8widr 4:<i8tr3qyww<:#           ",
"          o >tiyw0rtyp7 4--iiitryyr2>= o          ",
"     .     o >813076ti2 3*.eryisfs8>># o        ..",
"    .      + =q6=>wqyp0 1%=rriy08y4:# o        .  ",
"   .       . #ep> 6iyspq00wwyu6 ;64# o            ",
"  .        o  0a0 2yisppitautp4 783  o       .    ",
"           .o 0si&>russasaiiri4:qw2 o             ",
"        .   O 7pi6,paiiaiatiyie30q2 .             ",
"         .  O 8pstwassssispsype898< O             ",
"@% .  ..   .  wiaspisasfpspyww4w47; O             ",
"%* .  .     + 2pissaiaaiityi8168>7; o   .         ",
"$* . .      o #8isasapiuiruw<7w1>2& o  .          ",
"$* ..        O +issghfiaaaa08e01>= .  .        .  ",
"$& .          O <dsahhasffsir800= .  .        .   ",
"@$        ..   o 8ghhhghhyaiwwq: .          .     ",
"#&             oo 6hhhhhg0wit8= ..          .     ",
"%* .            .O <ghhhhyii7% o                  ",
"#% .             o+ >pgfgay4  O  .                ",
"#* .  .        .   +  ::::%  o  .                .",
"%* . .              +      o   .        .       . ",
"O@  .        .       O++++O   .        .          "
};
