/* XPM */
static char *f7297bce609c402ae6cb906ea44132f0W1T61ZYxl6UqlnAO[] = {
/* columns rows colors chars-per-pixel */
"31 50 181 2 ",
"   c None",
".  c #090A07",
"X  c #120B05",
"o  c #180E09",
"O  c #1D120B",
"+  c #0B0F19",
"@  c #0D101A",
"#  c #151913",
"$  c #1A1C15",
"%  c #18171C",
"&  c #3A0F0F",
"*  c #23160B",
"=  c #24190D",
"-  c #2C1C0E",
";  c #321D0D",
":  c #2D1F10",
">  c #221D1D",
",  c #231910",
"<  c #3D1212",
"1  c #371715",
"2  c #33210F",
"3  c #2D2012",
"4  c #26261C",
"5  c #332312",
"6  c #392612",
"7  c #3C2A15",
"8  c #34271A",
"9  c #352A1A",
"0  c #3C2C1A",
"q  c #3E201A",
"w  c #121624",
"e  c #161A2B",
"r  c #1D1D27",
"t  c #191E31",
"y  c #1F2336",
"u  c #1E243B",
"i  c #242020",
"p  c #2C2D23",
"a  c #272B20",
"s  c #382C25",
"d  c #2C3125",
"f  c #3D3C2A",
"g  c #3A3327",
"h  c #22263C",
"j  c #242A37",
"k  c #343A34",
"l  c #4B0C0C",
"z  c #5A0B0E",
"x  c #460C10",
"c  c #421010",
"v  c #531514",
"b  c #640C0F",
"n  c #690C11",
"m  c #6F1113",
"M  c #7A1214",
"N  c #7D1A1C",
"B  c #781416",
"V  c #43230F",
"C  c #4C2911",
"Z  c #432E19",
"A  c #482B14",
"S  c #45311A",
"D  c #4B351D",
"F  c #4F381E",
"G  c #53391E",
"H  c #5A3D1E",
"J  c #583619",
"K  c #472726",
"L  c #4E3D2C",
"P  c #523B22",
"I  c #593F22",
"U  c #5E3B3A",
"Y  c #632124",
"T  c #663838",
"R  c #633234",
"E  c #3E4535",
"W  c #5A4124",
"Q  c #454A36",
"!  c #444B3A",
"~  c #47483C",
"^  c #594938",
"/  c #4C553E",
"(  c #614525",
")  c #604628",
"_  c #694C2F",
"`  c #694F35",
"'  c #775635",
"]  c #785635",
"[  c #212740",
"{  c #242B46",
"}  c #262D49",
"|  c #282F4B",
" . c #29304D",
".. c #2D3555",
"X. c #2F3856",
"o. c #2F3758",
"O. c #313A5B",
"+. c #353E62",
"@. c #364064",
"#. c #384266",
"$. c #3B456A",
"%. c #554844",
"&. c #4E5640",
"*. c #525543",
"=. c #535C44",
"-. c #55524C",
";. c #5C574E",
":. c #545D4A",
">. c #5C5F4C",
",. c #6E4D47",
"<. c #576147",
"1. c #5A634A",
"2. c #5F684D",
"3. c #57604B",
"4. c #616B4F",
"5. c #636D55",
"6. c #656959",
"7. c #677254",
"8. c #66715A",
"9. c #6B765A",
"0. c #6E7A5A",
"q. c #697556",
"w. c #717D5E",
"e. c #76725D",
"r. c #434D75",
"t. c #46507A",
"y. c #6E6968",
"u. c #736E6A",
"i. c #6D7960",
"p. c #747263",
"a. c #717E63",
"s. c #7B736C",
"d. c #727371",
"f. c #7F7B78",
"g. c #822122",
"h. c #903A3C",
"j. c #8B653D",
"k. c #933E40",
"l. c #8B4447",
"z. c #A05556",
"x. c #768264",
"c. c #778469",
"v. c #7C8A6C",
"b. c #7A876A",
"n. c #7E8C71",
"m. c #818F73",
"M. c #8A8875",
"N. c #819075",
"B. c #859478",
"V. c #88967B",
"C. c #8B9A7C",
"Z. c #889676",
"A. c #8C8A87",
"S. c #8F9F81",
"D. c #91908E",
"F. c #9A9896",
"G. c #99AA89",
"H. c #96A686",
"J. c #A2A09B",
"K. c #A7B798",
"L. c #A3B392",
"P. c #BAB597",
"I. c #ABA7A5",
"U. c #B3AEAC",
"Y. c #B6B1AF",
"T. c #C5BF9A",
"R. c #C2BB95",
"E. c #CAC49F",
"W. c #CDC7A2",
"Q. c #D3CDAD",
"!. c #D6D0AE",
"~. c #D9D4B5",
"^. c #E2DDBC",
"/. c #D7D6C1",
"(. c #DCD8C0",
"). c #E6E2C1",
"_. c #EDE9C9",
"`. c #E8E6D3",
"'. c #F2EFD6",
"]. c #F3F1E6",
"[. c #FEFDFA",
/* pixels */
"                                                              ",
"                  # #                                         ",
"          ! n.N.N.N.N.N.v.d                                   ",
"        N.N.N.N.N.N.N.N.w.0./                                 ",
"      S.N.N.a.5.m.m.m.V.b.0.w.$                               ",
"    V.N.N.8.5.n.S.C.L.b.Z.x.0.1.                              ",
"    C.C.N.N.N.N.N.>.~.Q.>.b.0.7.                              ",
"    . $ 8.N.N.N.7.[.'.^.Q./ w.5.$                             ",
"    ]._.P.n.N.n.9.'.).p.E.9.9.0.d                             ",
"    ).^.(.n.V.:.5.~.Q.W.E.g 0.0.                              ",
"    p.P.d N.9.:.m.7.T.R.e./ 0.*.                              ",
"    Q 1.n.n.B.B.m.n.E 4 1.<.4.5 2                             ",
"      Q T `.,.M.& 6.a.w.w.=.Q 6 5 2                           ",
"          -.1 K & & *.w.x.>.;.6 D D 5                         ",
"          J.< c < /.g a.=.d.;.7 D D D *                       ",
"          K.G.H.H.V.m.1.%.I.^ P D D D S                       ",
"          Q C.m.b.8.1 n x U._ _ D D D D 7                     ",
"                = 3 -.m y.d.j.] D D D D S O                   ",
"                : 5 m N A.y.j.] D D D D S S                   ",
"                : q N b A.L j.' G D D S Z D -                 ",
"                O M M Y F.u.j.' G D D 3 D D D X               ",
"                U g.M v F.U.j._ D D D 3 D D D 6               ",
"                M M k.R J.Y.` 9 D D Z S D D D D *             ",
"              K g.M M z f.Y.s.F D D 5.S D D D D 7 o           ",
"              l M z.h.v 2 Y.A.D D 0 m.Z D D D D D 5           ",
"                M M b Z 2 %.W D D 5 D D D D D > 8 {           ",
"              5 ^ l.= 2 3 2 G D D - D D D D D 4 { {           ",
"              H D 6 6 2 6 : G D Z : D D D D S { { {           ",
"              H D D 8 2 O Z D D 7 8 D D D D { { { {           ",
"              Z 9 f E -   H D 6 5 s D D = 9 { { } } @         ",
"              n.n.n.0.d Z G D D Z r Z D = [ { o.+.{ w         ",
"              V.3.0.q.p   0 D D Z r > h   u ..@.@.} y         ",
"            d / &.9.9.    n.x.q.5.j { { @ { X.@.@.| u         ",
"            a.0.7.*.=.1.:.N.m.m.n.:.{ { e    .@.@...{         ",
"              c.=.9.1.p S.1.c.a.i.x.9.{ h       2.w w         ",
"                  !   =.9.  n.7.b.=.k { }       x.            ",
"                      :.7.  ! w.=.1.O.{ { +     x.            ",
"                              4 ~ @.+...{ w   G.n.<.          ",
"                              j @.@.+.{ w       8.N.*.        ",
"                              t.@.@...{           N.0.        ",
"                            $.#.+.O.} t             n.        ",
"                          r.$.$.+.o.{           j j k O.@.|   ",
"                        $.$.O...| h u t         #.o.{ [ u e   ",
"                        9 0 W F 7 : : -       h #.+.o.{ { [   ",
"                      5 I ( I O O O * : ) P : 4 } | { } { [   ",
"                        6 P = O ; ; * 7 W ( W 5 W , Z , % h u ",
"                        o 5 * C V 2 2 2 6 * 5 6 : 5 5 3 : : @ ",
"                                  C ; 2 2 ; 5 - 5 3 - O o *   ",
"                                    C J ; 2 2 2 o *           ",
"                                            X = o             "
};
