/* XPM */
static char *ac95f798916749f7b005303c3a427ba4zsqoGGcbZu8XvVQU[] = {
/* columns rows colors chars-per-pixel */
"31 50 181 2 ",
"   c None",
".  c #090A07",
"X  c #120B05",
"o  c #180E09",
"O  c #1D120B",
"+  c #0B0F19",
"@  c #0D101A",
"#  c #151913",
"$  c #1A1C15",
"%  c #18171C",
"&  c #3A0F0F",
"*  c #23160B",
"=  c #24190D",
"-  c #2C1C0E",
";  c #321D0D",
":  c #2D1F10",
">  c #221D1D",
",  c #231910",
"<  c #3D1212",
"1  c #371715",
"2  c #33210F",
"3  c #2D2012",
"4  c #26261C",
"5  c #332312",
"6  c #392612",
"7  c #3C2A15",
"8  c #34271A",
"9  c #352A1A",
"0  c #3C2C1A",
"q  c #3E201A",
"w  c #121624",
"e  c #161A2B",
"r  c #1D1D27",
"t  c #191E31",
"y  c #1F2336",
"u  c #1E243B",
"i  c #242020",
"p  c #2C2D23",
"a  c #272B20",
"s  c #382C25",
"d  c #2C3125",
"f  c #3D3C2A",
"g  c #3A3327",
"h  c #22263C",
"j  c #242A37",
"k  c #343A34",
"l  c #4B0C0C",
"z  c #5A0B0E",
"x  c #460C10",
"c  c #421010",
"v  c #531514",
"b  c #640C0F",
"n  c #690C11",
"m  c #6F1113",
"M  c #7A1214",
"N  c #7D1A1C",
"B  c #781416",
"V  c #43230F",
"C  c #4C2911",
"Z  c #432E19",
"A  c #482B14",
"S  c #45311A",
"D  c #4B351D",
"F  c #4F381E",
"G  c #53391E",
"H  c #5A3D1E",
"J  c #583619",
"K  c #472726",
"L  c #4E3D2C",
"P  c #523B22",
"I  c #593F22",
"U  c #5E3B3A",
"Y  c #632124",
"T  c #663838",
"R  c #633234",
"E  c #3E4535",
"W  c #5A4124",
"Q  c #454A36",
"!  c #444B3A",
"~  c #47483C",
"^  c #594938",
"/  c #4C553E",
"(  c #614525",
")  c #604628",
"_  c #694C2F",
"`  c #694F35",
"'  c #775635",
"]  c #785635",
"[  c #212740",
"{  c #242B46",
"}  c #262D49",
"|  c #282F4B",
" . c #29304D",
".. c #2D3555",
"X. c #2F3856",
"o. c #2F3758",
"O. c #313A5B",
"+. c #353E62",
"@. c #364064",
"#. c #384266",
"$. c #3B456A",
"%. c #554844",
"&. c #4E5640",
"*. c #525543",
"=. c #535C44",
"-. c #55524C",
";. c #5C574E",
":. c #545D4A",
">. c #5C5F4C",
",. c #6E4D47",
"<. c #576147",
"1. c #5A634A",
"2. c #5F684D",
"3. c #57604B",
"4. c #616B4F",
"5. c #636D55",
"6. c #656959",
"7. c #677254",
"8. c #66715A",
"9. c #6B765A",
"0. c #6E7A5A",
"q. c #697556",
"w. c #717D5E",
"e. c #76725D",
"r. c #434D75",
"t. c #46507A",
"y. c #6E6968",
"u. c #736E6A",
"i. c #6D7960",
"p. c #747263",
"a. c #717E63",
"s. c #7B736C",
"d. c #727371",
"f. c #7F7B78",
"g. c #822122",
"h. c #903A3C",
"j. c #8B653D",
"k. c #933E40",
"l. c #8B4447",
"z. c #A05556",
"x. c #768264",
"c. c #778469",
"v. c #7C8A6C",
"b. c #7A876A",
"n. c #7E8C71",
"m. c #818F73",
"M. c #8A8875",
"N. c #819075",
"B. c #859478",
"V. c #88967B",
"C. c #8B9A7C",
"Z. c #889676",
"A. c #8C8A87",
"S. c #8F9F81",
"D. c #91908E",
"F. c #9A9896",
"G. c #99AA89",
"H. c #96A686",
"J. c #A2A09B",
"K. c #A7B798",
"L. c #A3B392",
"P. c #BAB597",
"I. c #ABA7A5",
"U. c #B3AEAC",
"Y. c #B6B1AF",
"T. c #C5BF9A",
"R. c #C2BB95",
"E. c #CAC49F",
"W. c #CDC7A2",
"Q. c #D3CDAD",
"!. c #D6D0AE",
"~. c #D9D4B5",
"^. c #E2DDBC",
"/. c #D7D6C1",
"(. c #DCD8C0",
"). c #E6E2C1",
"_. c #EDE9C9",
"`. c #E8E6D3",
"'. c #F2EFD6",
"]. c #F3F1E6",
"[. c #FEFDFA",
/* pixels */
"                                                              ",
"                                        # #                   ",
"                                  d v.N.N.N.N.N.n.!           ",
"                                / 0.w.N.N.m.N.m.m.N.N.        ",
"                              $ 0.0.v.B.N.N.m.5.a.N.N.S.      ",
"                              1.0.x.Z.b.L.C.S.m.6.8.m.N.V.    ",
"                              7.0.b.>.Q.~.1.m.N.n.N.n.C.C.    ",
"                            $ 7.0.=.Q.^.'.[.5.N.N.N.i.$ .     ",
"                            d 0.0.p.E.p.).`.9.n.N.N.P._.].    ",
"                              0.0.g T.E.!.~.5.<.B.n.(.^.).    ",
"                              =.0.=.e.R.E.7.n.:.i.B.d P.p.    ",
"                            2 5 2.:.=.4 E m.N.n.N.n.n.1.!     ",
"                          2 5 5 Q <.0.0.x.5.& M.,.`.T Q       ",
"                        3 D D 6 ;.<.x.w.-.< & K 1 -.          ",
"                      * D D D 7 ;.d.=.w.g /.& c < J.          ",
"                      D D D D P ^ I.%.1.n.C.H.H.G.K.          ",
"                    7 D D D D _ _ U.x n 1 8.b.n.C.E           ",
"                  O S D D D D ' j.d.y.M -.8 *                 ",
"                  S Z D D D D ' j.6.A.N m 9 :                 ",
"                - D S S D D F ' j.L D.n N c :                 ",
"              X D D D - D D G ' j.u.F.Y M M *                 ",
"              6 D D F 3 D D F _ j.U.F.v M g.U                 ",
"            * D D D D S S S D 0 ` Y.J.R k.M M                 ",
"          o 7 D D D D S 5.D D G s.Y.f.z M M N K               ",
"          5 F D D D D S n.s D F A.Y.3 v h.z.M l               ",
"          { 8 > D D D D D 2 D D L %.5 Z n M M                 ",
"          { { 4 D D D D D - D D G 2 5 5 * l.^ 5               ",
"          { } [ S D D D D - S D G - 6 5 7 5 S H               ",
"          { } { { S D D D 9 7 D D Z O 2 7 D D H               ",
"        @ } { { { 9 = D D s 2 6 D H   - f f 9 S               ",
"        w { +.o.{ [ = D S % S D D G S d w.v.n.n.              ",
"        t } +.#...u   u 4 r S D D g   4 7.a.:.C.              ",
"        u | @.@...} @ { { j 4.q.a.m.    0.9./ ~ d             ",
"        { ..@.+. .  e { { :.N.N.N.m.:.3.=./ 7.0.a.            ",
"        w w 4.      [ } q.x.0.a.c.3.S.p 1.0.=.b.              ",
"            x.      { { k =.v.q.n.  0.=.  !                   ",
"            a.    + { { O.2.=.w.!   q.=.                      ",
"          1.m.G.  w { ..+.@.~ 4                               ",
"        =.m.8.      w { @.@.+.h                               ",
"        9.N.          { ..@.@.t.                              ",
"        n.            e } O.+.@.$.                            ",
"  } @.X.k y j           } ..@.$.$.r.                          ",
"  e u { [ O.$.        t u h | ..O.#.r.                        ",
"  [ } { X.@.#.h       - 5 5 7 D W 7 8                         ",
"  [ } { } | } 4 3 H ) - O O O O I ( I ;                       ",
"u u % , 0 = W 5 W ( W 7 * ; - O * P 6                         ",
"@ 3 5 5 3 5 - 6 6 * 6 2 2 5 c C * 5 O                         ",
"  O o o - 5 5 - 2 2 2 2 2 C                                   ",
"          O O 2 2 ; ; J C                                     ",
"            o * X                                             "
};
