/* XPM */
static char *fbe3fee9771643019b32e4bf592a97bf6OfETsfiIxTz2m4r[] = {
/* columns rows colors chars-per-pixel */
"50 50 230 2 ",
"   c None",
".  c #1A0F11",
"X  c #33050E",
"o  c #372931",
"O  c #6A0D19",
"+  c #711927",
"@  c #4E363D",
"#  c #7A2835",
"$  c #570C16",
"%  c #67573B",
"&  c #654F3B",
"*  c #233546",
"=  c #34364C",
"-  c #383D4E",
";  c #363454",
":  c #2F2A4D",
">  c #0A3941",
",  c #443B5A",
"<  c #4F3A44",
"1  c #493B64",
"2  c #085848",
"3  c #125A4C",
"4  c #1B5D51",
"5  c #23474A",
"6  c #27574B",
"7  c #3D4C55",
"8  c #275953",
"9  c #385357",
"0  c #006349",
"q  c #046B56",
"w  c #007459",
"e  c #276255",
"r  c #366958",
"t  c #287959",
"y  c #307150",
"u  c #007D65",
"i  c #1E7A77",
"p  c #14736B",
"a  c #396A67",
"s  c #30766E",
"d  c #47435B",
"f  c #465458",
"g  c #584C51",
"h  c #704F48",
"j  c #4A675B",
"k  c #45735E",
"l  c #786C54",
"z  c #4E4B62",
"x  c #4E4769",
"c  c #524D67",
"v  c #485966",
"b  c #565869",
"n  c #5B5C74",
"m  c #496666",
"M  c #5A696B",
"N  c #43796B",
"B  c #59776A",
"V  c #5A6B71",
"C  c #567974",
"Z  c #4E7B72",
"A  c #636A76",
"S  c #687578",
"D  c #75787A",
"F  c #64666C",
"G  c #8A4D58",
"H  c #8B7258",
"J  c #8F717A",
"K  c #A2747C",
"L  c #8A5E68",
"P  c #2B885F",
"I  c #2A845D",
"U  c #398351",
"Y  c #318948",
"T  c #38A947",
"R  c #38A554",
"E  c #008B74",
"W  c #18867E",
"Q  c #008C72",
"!  c #368D63",
"~  c #358D6F",
"^  c #38A167",
"/  c #43874A",
"(  c #489A48",
")  c #43855C",
"_  c #4D9F5F",
"`  c #47A845",
"'  c #58AA47",
"]  c #58B243",
"[  c #4AAB55",
"{  c #54AE50",
"}  c #67B544",
"|  c #75BB44",
" . c #68B254",
".. c #5A8769",
"X. c #5A886C",
"o. c #499766",
"O. c #59986E",
"+. c #5C8879",
"@. c #57957A",
"#. c #468E75",
"$. c #60996F",
"%. c #648779",
"&. c #76837D",
"*. c #669477",
"=. c #6C9177",
"-. c #5AA476",
";. c #4EA96C",
":. c #68AA79",
">. c #71A77B",
",. c #6DB27C",
"<. c #77B974",
"1. c #7CC24D",
"2. c #AD9364",
"3. c #BEA570",
"4. c #C0A56C",
"5. c #85C546",
"6. c #89C85C",
"7. c #91CD67",
"8. c #6C7685",
"9. c #6F7683",
"0. c #A47A83",
"q. c #089A8C",
"w. c #00A68C",
"e. c #00AE94",
"r. c #04A895",
"t. c #00B59C",
"y. c #3A8686",
"u. c #5D9D81",
"i. c #408280",
"p. c #6E8C8B",
"a. c #788888",
"s. c #689884",
"d. c #72948C",
"f. c #7A9885",
"g. c #7B8E93",
"h. c #58AD84",
"j. c #5AB085",
"k. c #67A485",
"l. c #73A485",
"z. c #79AA8A",
"x. c #6EB48B",
"c. c #74B18E",
"v. c #79B686",
"b. c #7DB794",
"n. c #74AB93",
"m. c #7DC096",
"M. c #898786",
"N. c #968A8B",
"B. c #849A89",
"V. c #839A98",
"C. c #96949A",
"Z. c #AB9699",
"A. c #B79D9F",
"S. c #A7848A",
"D. c #88A68D",
"F. c #83BD8A",
"G. c #84B78C",
"H. c #88A496",
"J. c #96A899",
"K. c #83BB93",
"L. c #89B895",
"P. c #96B299",
"I. c #97BA9A",
"U. c #90AD8E",
"Y. c #B59CA2",
"T. c #8CA8A2",
"R. c #97B8A9",
"E. c #9CA6A3",
"W. c #A9A3A6",
"Q. c #B8A7A7",
"!. c #B1B4B0",
"~. c #9896A6",
"^. c #C7B9BA",
"/. c #C0B3AF",
"(. c #8AC08F",
"). c #8DC294",
"_. c #8CC19C",
"`. c #83C198",
"'. c #94C59B",
"]. c #9BC59F",
"[. c #9BCB9D",
"{. c #94C899",
"}. c #A0CE9F",
"|. c #9CCCA2",
" X c #97C8A3",
".X c #9FD0AA",
"XX c #A6C3A3",
"oX c #A3CDA3",
"OX c #AAC9A9",
"+X c #A3D0A4",
"@X c #AAD3A6",
"#X c #ADD5AB",
"$X c #A5D1AA",
"%X c #B2D5AC",
"&X c #B4D9AE",
"*X c #A5CDB8",
"=X c #B6C6B4",
"-X c #ABD8BF",
";X c #A9D4BB",
":X c #B6D9B1",
">X c #BEDDB4",
",X c #BAD8B8",
"<X c #B1CCAB",
"1X c #BFE0B5",
"2X c #C0DFB6",
"3X c #C2DEBC",
"4X c #D6C1BE",
"5X c #C1E0B6",
"6X c #C4E1BA",
"7X c #C8E3BF",
"8X c #ADDCC1",
"9X c #B0E1C4",
"0X c #D7CBC8",
"qX c #DED5D3",
"wX c #CFD1C8",
"eX c #E2DAD5",
"rX c #E6D9D6",
"tX c #CBE4C3",
"yX c #CFE7CB",
"uX c #D3E9CC",
"iX c #D3E5CE",
"pX c #DBEDD5",
"aX c #DAEBD5",
"sX c #EAE2DD",
"dX c #E7E1DD",
"fX c #E3F1DE",
"gX c #EDE9E5",
"hX c #EAE6E4",
"jX c #E9F4E6",
"kX c #F9F6F7",
/* pixels */
"                                                                                                    ",
"                                                  z F F S A M z                                     ",
"                                            c a.J.OX:X>X>X>X&XXXU.D d                               ",
"                                        z M.<X>X5X5X2X2X>X2X2X5X5X>XP.b                             ",
"                                    , D }.2X2X2X>X2X>X2X>X2X>X2X2X>X5XOXA                           ",
"                                  z D.&X2X2X>X2X2X>X2X>X2X>X2X>X>X2X2X5XXXc                         ",
"                                c P.1X5X2X2X2X>X2X2X5X5X2X1X2X2X2X2X2X5X6XB.                        ",
"                              z P.5X5X>X:X2X:X>X#X:X$X>X#X#X&XL.#X2X2X5X5XOXM                       ",
"                            z G.:X$X@X&Xz.{.c.'.k.c.@.c.s.#.@.N k.b.n.b._.+X&.                      ",
"                          , f.s.].l.*.>.N #.a ) r y 8 I y y / e / U a a Z s.s.d                     ",
"                          C :.9 ) y / ( y ' / | / ] ( | ` [ 5.} 5.] #.k._.$X].M                     ",
"                        9 / U 6 ' ' } 5.T }  .6.] 5.| 5.} R ( { } ;..X:X>X1X>Xa.                    ",
"                      z ) 1.| Y } 7.5. .R ] 6.6.] 5.5.5.} Y -.j.j.|.2X2X>X>XtXOXc                   ",
"                      B.,.] { ^ ` <.v.R.j.] 6.6.` ' _ ;.` :.:X1X:X2X2X2X>X>XtXiXS                   ",
"                    V oX|._ k. Xh.x.:X5X.X;.6.6.T [ m.j.j.#X1X1X2X2X1X>X3X>X1XpXJ.                  ",
"                  , D.:X>X&X1X5X:X:X%X<X:Xx.[ | T v.1X#X:X1X1X1X X%.S H.%X5X1XyXwXc                 ",
"                  A #XtX2X>X5X<XH.V v C '..X;.R [ $X7X5X>X6X3X>X[.*.v ; m  X>X6XjXa.                ",
"                d D.yX7X2X3XP.z ; v z.OX:X>X.Xb..X1XtX3X2X5X2X>X@X[.{.n.v v oX5XjXOXd               ",
"                M ,XpX2X5XP.1 v z.|.3X2X2X>X2X2X1X5XtX>X5X5X:X[.b.c.K.|._.s.OX1XjXaXM               ",
"                B.pXtX2X$XC u.K.'.].:X>X>X2X2X>X1X>X:X5X1X#Xl.a i y.i #.c.|.%X1XiXjX=.              ",
"              f <XfX7X>XI.d.V.W.C.a.f.].>X>X>X2X2X2X2X2X&X*.3 u e.t.t.q.i l.@X2XtXjXI.7 1 8.8.x     ",
"      1 S g.n V uXuX5X%XH.~.!.0XqX0XY.a.I.>X2X>X2X2X5X5Xz.3 q w.t.t.t.t.Q 8 L.2X2XjX#Xj 8.;X8XT.x   ",
"    x T.;X8Xd.f.fX7X>XXXC.Q.hXgXqXqXrX^.&.].>X2X2X2X2X<Xa 2 w e.t.t.t.t.Q 0 N &X2XpX>X%.a.8X*X8Xa.  ",
"    a.*XR.*XS I.fX6X:XR.C.eXgX^.h 0.0XhXW.f.:X2X>X2X2X}.8 8 a y.i W q.r.Q 0 4 L.2XyX3X>.V R.R.8XT.  ",
"    T.8XR.8.M $XfX5X:XR.Z.rXgXK + ^.hXrX0X&.oX2X2X>X5X).#.0.0XA.+ 0.!.g.C 4 2 %.:XtX6Xv.m 8.T.*XV.  ",
"    V.8XV.x B &XfX7X&XH.A.rXrXG X &.kX^.qXM.I.6X>X2X>X`.a J 0XK O M.kX0XqXY.F C &X6X1Xv.M a.*X8X8.  ",
"    8.8X;XS *.@XpXyX#Xf.^.gXrXG X . J S.rXK L.uX2X>X2X_.8 3 i.b X o ^.Y.hXdXZ.+.#X5X:X(...p.8XR.x   ",
"    1 T.8XS *.oXyXpX:Xf.A.sXgXK $ . $ S.qXN.P.uX2X2X2X].e q w.w.p > = G qXdXC.u.#X1X&X(.X.A R.A     ",
"      x p.b *.].%X7X:Xs.N.rXgX^.# + # /.0XM.P.uX6X>X2X#XN q t.t.t.r.q.s p.N.D k.&X>X&X(.$.;         ",
"          ; j (.}.@X&XK.D 0XgXgX/.G A.rXQ.D P.wXtX2X>X&Xk.q r.t.t.t.t.t.E 3 6 b.#X1X@Xv.$.=         ",
"            = k v.{.[.{.+.N.qXrXgXeXqX/.D a.!.2XtX>X>X>X].#.q.t.t.t.t.e.u 0 r L.@X#X[.<.$.=         ",
"              * r ;.-.-.l.v J Z.!.W.0.D D }.<XR.7X5X>X>X:XI.s q.t.t.e.Q 0 8 V n.[.oX[.v.O.=         ",
"                * I P P :.H.n c b n 8.9.I.6X%XJ.>X2X>X<X>X&Xf.a i q.e e m V d.d. X$X{.<...          ",
"                  6 P P -.$X!.E.~.W.C.R.5X2XJ.d.>X2X=XH.<X1X#Xs.a V C p.p.g.d.R.:X:X(.:.j           ",
"                  * t P o.{.OX!.!.a.2.:X>XR.U.D.=XtXz.#.+.I.:X%XJ.V.g.d.p.n.=X>X1X#Xv.:.7           ",
"                    5 I P v.'.H.z.G.;X>X>X:X1X].d.d.~ h.x.).}.$X:X3X,X;X,X1X:X3X1X{.,...            ",
"                      8 P o.{.#X2X2X2X2X>X2X3X:Xb.x.b.{.}.}.[.K.s.|.>X>X>X2X2X7X&Xv.:.f             ",
"                      * t P -.[.:X6X2X2X>X>X1X>X1X.X`.*.+.B *.G.+.C #X>X2X>X2X2X{.:.f               ",
"                        5 t P ,.oX2X7X>X2X2X>X#XK.Z f @ h @ g f c.m L.3X5X2X3X@X<.j                 ",
"                          5 I o.{.:X5X2X>X#Xz.M g G & % 3.l H @ Z k.L.6X6X2X@X,.j                   ",
"                            6 I :.#X:X:XL.M < h 2.2.% % 4.l H & f c.+X6X5X@X>.f                     ",
"                              6 ! ).oX*.9 f B X.X...k j l g h h g c.@X&X).B -                       ",
"                                6 O.{.l.L.oX#X#X#X|.{.m.,.@.m f B v.G.X.f                           ",
"                                  9 >.[.:X2X3X2X1X1X1X1X:X@X+XI.l.X.f                               ",
"                                    7 ..G.&X2X2X5X2X2X2X2X2XP.B f                                   ",
"                                        f B U.oX&X:X&X<XI.S ;                                       ",
"                                            - b M V M b                                             ",
"                                                                                                    ",
"                                                                                                    ",
"                                                                                                    "
};
