/* XPM */
static char *cfea2004234c4bf4c7faf3e51c0d56a0xkDgftx1JR6qZqnW[] = {
/* columns rows colors chars-per-pixel */
"50 50 195 2 ",
"   c #1D0E02",
".  c #1D0F02",
"X  c #1E1003",
"o  c #1F1204",
"O  c #220F02",
"+  c #250F03",
"@  c #201404",
"#  c #201405",
"$  c #211706",
"%  c #291004",
"&  c #2B1104",
"*  c #2A1305",
"=  c #2F1105",
"-  c #231A07",
";  c #241508",
":  c #241C08",
">  c #241D08",
",  c #29190C",
"<  c #351305",
"1  c #361305",
"2  c #3A1406",
"3  c #3C1506",
"4  c #26210A",
"5  c #27240B",
"6  c #28260D",
"7  c #29270D",
"8  c #2A290E",
"9  c #2D3111",
"0  c #2F3412",
"q  c #313814",
"w  c #313815",
"e  c #363519",
"r  c #431608",
"t  c #4D1809",
"y  c #4F190A",
"u  c #541A0A",
"i  c #581B0B",
"p  c #631D0C",
"a  c #641E0D",
"s  c #6A1F0D",
"d  c #6C1F0E",
"f  c #523113",
"g  c #583415",
"h  c #6E2611",
"j  c #792210",
"k  c #7E2310",
"l  c #7E2311",
"z  c #7E2714",
"x  c #752E1C",
"c  c #7C3618",
"v  c #733C1A",
"b  c #793C1A",
"n  c #7D3522",
"m  c #36441A",
"M  c #37451A",
"N  c #38471B",
"B  c #3A4D1E",
"V  c #3E5521",
"C  c #3F5621",
"Z  c #3C662D",
"A  c #3E692F",
"S  c #5B421B",
"D  c #674A1F",
"F  c #68481E",
"G  c #405923",
"H  c #524030",
"J  c #6D4432",
"K  c #744331",
"L  c #7A4D3A",
"P  c #456227",
"I  c #456327",
"U  c #406C2F",
"Y  c #496B2B",
"T  c #4A6E2C",
"R  c #5B6229",
"E  c #556E2F",
"W  c #4B702D",
"Q  c #4D732F",
"!  c #4D742F",
"~  c #4D752F",
"^  c #437332",
"/  c #457633",
"(  c #4E7630",
")  c #4F7731",
"_  c #4F7831",
"`  c #497D36",
"'  c #507931",
"]  c #507A32",
"[  c #527E33",
"{  c #527F34",
"}  c #616128",
"|  c #7A5F4C",
" . c #796552",
".. c #802411",
"X. c #862512",
"o. c #8E2914",
"O. c #922A15",
"+. c #962914",
"@. c #962B15",
"#. c #9F2A16",
"$. c #A72C17",
"%. c #A82D17",
"&. c #A92D18",
"*. c #AE2E18",
"=. c #B32F19",
"-. c #A8331D",
";. c #B53019",
":. c #BF321B",
">. c #953521",
",. c #9B432E",
"<. c #C6523A",
"1. c #9A5E49",
"2. c #83725B",
"3. c #88735F",
"4. c #A96752",
"5. c #AD6953",
"6. c #A8745E",
"7. c #AC755F",
"8. c #8B7662",
"9. c #9B7864",
"0. c #927D68",
"q. c #947F6A",
"w. c #4A8036",
"e. c #4D8739",
"r. c #4E8739",
"t. c #4F8A3A",
"y. c #538034",
"u. c #538035",
"i. c #558436",
"p. c #5F873F",
"a. c #568838",
"s. c #578A39",
"d. c #508B3C",
"f. c #528E3D",
"g. c #588B39",
"h. c #5F8839",
"j. c #5A8F3B",
"k. c #53913D",
"l. c #55953F",
"z. c #5B913C",
"x. c #5C933D",
"c. c #5C943D",
"v. c #5D973E",
"b. c #5B9C44",
"n. c #5D9F45",
"m. c #619E41",
"M. c #62A143",
"N. c #64A444",
"B. c #65A645",
"V. c #61A947",
"C. c #6AAA47",
"Z. c #61A648",
"A. c #65AD4B",
"S. c #69AF49",
"D. c #65B04A",
"F. c #67B34C",
"G. c #69B04A",
"H. c #6AB74E",
"J. c #6CB64D",
"K. c #6BBA4F",
"L. c #6FBB4E",
"P. c #6FC151",
"I. c #6FC152",
"U. c #71C151",
"Y. c #71C453",
"T. c #73C754",
"R. c #73C854",
"E. c #75C854",
"W. c #75CB56",
"Q. c #77CE57",
"!. c #78D058",
"~. c #7BD55A",
"^. c #7DD95C",
"/. c #96816C",
"(. c #98836E",
"). c #9C8570",
"_. c #A08772",
"`. c #A18B75",
"'. c #AD967F",
"]. c #B49D86",
"[. c #BBA38C",
"{. c #BCA58D",
"}. c #C6A088",
"|. c #C0A890",
" X c #C2AA92",
".X c #CAB299",
"XX c #D2B9A0",
"oX c #D7BDA4",
"OX c #DBC2A8",
"+X c #E5CCB1",
"@X c #E8CEB3",
"#X c #EED4B9",
"$X c #F0D5BA",
"%X c #F8DDC1",
"&X c #FCE1C5",
/* pixels */
"b.n.^.` H.^.U Q.Q.Z ~.Y./ ^.A.d.^.d.A.^./ Y.~.A !.T.U ^.H.` ^.n.b.^.w.K.^.U Q.Q.U ^.U./ ^.A.t.^.f.Z.",
"^.^.^.^.^.^.^.^.^.^.^.^.^.^.^.^.^.^.^.^.^.^.^.g.P o Q J.^.^.^.^.^.^.^.^.^.^.^.^.^.^.^.^.^.^.^.^.^.^.",
"^.^.^.^.^.^.^.^.^.^.^.^.^.^.^.^.^.^.^.^.^.L.w         - B.^.^.^.^.^.^.^.^.^.^.^.^.^.^.^.^.^.^.^.^.^.",
"^.^.^.^.^.^.^.^.^.^.^.^.^.^.^.^.^.^.G.^.!.4             @ W.^.^.^.^.^.^.^.^.^.^.^.^.^.^.^.^.^.^.^.^.",
"^.^.^.^.^.^.^.^.^.^.^.^.^.^.^.^.^.^.] p.s.,  .; 8. X0.,   g E ) ^.^.^.^.^.^.^.^.^.^.^.^.^.^.^.^.^.^.",
"^.^.^.^.^.^.^.^.^.^.^.^.^.^.^.^.^.^.!.2.e `.&X%X&X&X&X'.  n 9.c G.^.^.^.^.^.^.^.^.^.^.^.^.^.^.^.^.^.",
"^.^.^.^.^.^.^.^.^.^.^.^.^.^.^.^.^.J.D >.3.'.q.OX[.[.+X XH ].,.:.@.C.^.^.^.^.^.^.^.^.^.^.^.^.^.^.^.^.",
"^.^.^.^.^.^.t.R.k.r.^.^.^.^.^.^.h.o.:.:.7.| L .XJ x K /.{.6.:.:.:.O.G.^.^.^.^.^.^.^.^.^.^.^.^.^.^.^.",
"^.^.^.^.^.^.D.I.W.F.^.^.^.^.^.R &.:.:.:.-.).XX%XoX#X#X(.5.:.:.:.:.:.b !.^.^.^.^.^.^.^.^.^.^.^.^.^.^.",
"^.^.^.^.^.^.^.^.^.^.^.^.^.^.S.F X.:.:.:.:.O. .4.}._.+X$.:.:.:.:.:.:.:.R ^.^.^.^.^.^.^.^.^.^.^.^.^.^.",
"^.^.^.^.^.^.^.^.^.^.^.^.^.^.^.^.N.% s =.:.:.l *.>.<.1.:.:.:.:.%.l h v S U.^.^.^.^.^.^.^.^.^.^.^.^.^.",
"^.^.^.^.^.^.^.^.^.^.^.^.^.^.^.^.B X o % X.:.*.*.$.O.:.:.#.p <     q ^.^.^.^.^.^.^.^.^.^.^.^.^.^.^.^.",
"^.^.^.^.^.^.^.^.^.^.^.^.^.^.^.^.X X   X   u :.:.:.:.l 2             y.^.^.^.^.^.^.^.^.^.^.^.^.^.^.^.",
"^.^.^.^.^.^.^.^.^.^.^.^.^.^.^.~.X           r =.j %                 M ^.^.^.^.^.^.^.^.^.^.^.^.^.^.^.",
"^.^.^.^.^.^.^.^.^.^.^.^.^.^.^.m.              2 %                   > ^.^.^.^.^.^.^.^.^.^.^.^.^.^.^.",
"^.^.^.^.^.^.^.^.^.^.^.^.^.^.^.m.            k *.=.@                 - ^.^.^.^.^.^.^.^.^.^.^.^.^.^.^.",
"^.^.^.^.^.^.^.^.^.^.^.^.^.^.^.m.            l +.$.&                 X K.I.^.^.^.^.^.^.^.^.^.^.^.^.^.",
"^.^.^.^.^.^.^.^.^.^.^.^.^.^.^.x.            @ d r                   > l.^.^.^.^.^.^.^.^.^.^.^.^.^.^.",
"^.^.^.^.^.^.^.^.^.^.^.^.^.^.^.y.              p                 X   > ^.^.^.^.^.^.^.^.^.^.^.^.^.^.^.",
"^.^.^.^.^.^.^.^.^.^.^.^.^.^.^.y.              p                 X X o ^.^.^.^.^.^.^.^.^.^.^.^.^.^.^.",
"^.^.^.^.^.^.^.^.^.^.^.^.^.^.^.y.              i                     o ^.^.^.^.^.^.^.^.^.^.^.^.^.^.^.",
"^.^.^.^.^.^.^.^.^.^.^.^.^.^.^.y.            X p                     > ^.^.^.^.^.^.^.^.^.^.^.^.^.^.^.",
"^.^.^.^.^.^.^.^.^.^.^.^.^.^.^.y.              p                   X X ^.^.^.^.^.^.^.^.^.^.^.^.^.^.^.",
"^.^.^.^.^.^.^.^.^.^.^.^.^.^.^.y.              p O               X   X ^.^.^.^.^.^.^.^.^.^.^.^.^.^.^.",
"^.^.^.^.^.^.^.^.^.^.^.^.^.^.^.u.              a 1                   X ^.^.^.^.^.^.^.^.^.^.^.^.^.^.^.",
"^.^.^.^.^.^.^.^.^.^.^.^.^.^.^.u.              i 1                     ^.^.^.^.^.^.^.^.^.^.^.^.^.^.^.",
"^.^.^.^.^.^.^.^.^.^.^.^.^.^.^.u.              t 1                     ^.^.^.^.^.^.^.^.^.^.^.^.^.^.^.",
"^.^.^.^.^.^.^.^.^.^.^.^.^.^.^.u.              t 1                     ^.^.^.^.^.^.^.^.^.^.^.^.^.^.^.",
"^.^.^.^.^.^.^.^.^.^.^.^.^.^.^.u.              t 1               X     ^.^.^.^.^.^.^.^.^.^.^.^.^.^.^.",
"^.^.^.^.^.^.^.^.^.^.^.^.^.^.^.{               u <                 X   ~.^.^.^.^.^.^.^.^.^.^.^.^.^.^.",
"^.^.^.^.^.^.^.^.^.^.^.^.^.^.^.{               t <               X   X ^.^.^.^.^.^.^.^.^.^.^.^.^.^.^.",
"^.^.^.^.^.^.^.^.^.^.^.^.^.^.^.{               t t                 X X ^.^.^.^.^.^.^.^.^.^.^.^.^.^.^.",
"^.^.^.^.^.^.^.^.^.^.^.^.^.^.^.u.              t t                     ^.^.^.^.^.^.^.^.^.^.^.^.^.^.^.",
"^.^.^.^.^.^.^.^.^.^.^.^.^.^.^.u.              < t X                   ^.^.^.^.^.^.^.^.^.^.^.^.^.^.^.",
"^.^.^.^.^.^.^.^.^.^.^.^.^.^.^.y.              < u                     ^.^.^.^.^.^.^.^.^.^.^.^.^.^.^.",
"^.^.^.^.^.^.^.^.^.^.^.^.^.^.^.y.              < t                     ^.^.^.^.^.^.^.^.^.^.^.^.^.^.^.",
"^.^.^.^.^.^.^.^.!.{ [ ^.^.^.^.y.              < t X                   ^.^.^.^.i.Q ~ Q.^.^.^.^.^.^.^.",
"^.^.^.^.^.^.^.G.@ @ @ N ^.^.^.y.              < t                   - ^.^.^.u.      8 !.^.^.^.V.R.K.",
"^.^.^.^.^.^.^.0 X L.^.[ E.^.^.~               < u                   - ^.^.^.T ^.Q.w   C ^.^.^.t.e.R.",
"^.^.^.^.^.^.m.O 4 ^.^.^.^.^.^.~               < a                   w ^.^.^.^.^.^.M.    ^.^.^.^.^.^.",
"^.^.^.^.^.^.-   - ^.^.^.^.^.^.~               < u                   w ^.^.^.^.^.^.^.  X ^.^.^.^.^.^.",
"^.^.^.^.^.^.4 o   c.^.^.^.^.^.~               % p                   w ^.^.^.^.^.^.c.  { ^.^.^.^.^.^.",
"^.^.^.^.^.^.S.@   ) ^.^.^.^.^.G                 p                   w ^.^.^.^.^.M.X   ^.^.^.^.^.^.^.",
"^.^.^.^.^.^.^.Y   9 U.^.^.^.^.6                 p                   8 ^.^.^.^.m.    8 ^.^.^.^.^.^.^.",
"^.^.^.^.~ - x.a.      4 E.^.S.@                 a                   X !.U.I o       ) ^.B.J.^.^.^.^.",
"^.^.^.^.- N !.!.-       @ 8                     a X                                 j.^.W 6 ^.^.^.^.",
"^.^.^.^.P   : B G                               p           X                     - ~ ) 9 - ^.^.^.^.",
"^.^.^.^.B.                                      s         X                               u.^.^.^.^.",
"^.^.^.^.^.^.K.x.[ ] ~ ~ ~ ~ ~ ~ Q V M M M M 0 5 f 8 5 8 M M ~ ~ ~ ~ [ y.s.y.y.z.v.M.M.m.E.^.^.^.^.^.",
"I.K.I.K.K.I.I.K.I.K.K.P.P.K.P.K.P.K.P.K.K.P.U.K.I.K.K.I.P.K.P.K.I.K.I.K.K.I.P.K.P.K.P.K.K.P.K.P.P.P."
};
