/* XPM */
static char *f0b757fc3db04419c0aef819244492d2kzhr2LMx5gixD76M[] = {
/* columns rows colors chars-per-pixel */
"50 50 185 2 ",
"   c #1D0E02",
".  c #1E1003",
"X  c #1F1204",
"o  c #251003",
"O  c #201404",
"+  c #291003",
"@  c #291004",
"#  c #2F1105",
"$  c #231A07",
"%  c #241508",
"&  c #241D08",
"*  c #29190C",
"=  c #351305",
"-  c #371406",
";  c #3C1506",
":  c #26200A",
">  c #27230B",
",  c #27240B",
"<  c #29270D",
"1  c #29290E",
"2  c #2D3011",
"3  c #313814",
"4  c #313815",
"5  c #363519",
"6  c #411607",
"7  c #4B1809",
"8  c #4F190A",
"9  c #541A0A",
"0  c #551A0A",
"q  c #5A1B0B",
"w  c #5E1C0C",
"e  c #611D0C",
"r  c #631D0C",
"t  c #641E0D",
"y  c #6A1F0D",
"u  c #6C1F0E",
"i  c #513113",
"p  c #583415",
"a  c #6F2611",
"s  c #792210",
"d  c #7E2311",
"f  c #7C2613",
"g  c #752E1C",
"h  c #7C3618",
"j  c #733C1A",
"k  c #793C1A",
"l  c #7D3522",
"z  c #354118",
"x  c #36441A",
"c  c #37451A",
"v  c #3B4E1E",
"b  c #3E5521",
"n  c #3F5722",
"m  c #3C662D",
"M  c #3E692F",
"N  c #5B421B",
"B  c #674A1F",
"V  c #68481E",
"C  c #415B24",
"Z  c #524030",
"A  c #6D4432",
"S  c #744331",
"D  c #7C4E3C",
"F  c #446227",
"G  c #476729",
"H  c #406C2F",
"J  c #496C2B",
"K  c #586229",
"L  c #4B712D",
"P  c #4D732F",
"I  c #4D752F",
"U  c #437332",
"Y  c #457633",
"T  c #4A7731",
"R  c #4E7730",
"E  c #4F7730",
"W  c #4F7831",
"Q  c #497D36",
"!  c #577130",
"~  c #507A32",
"^  c #517E33",
"/  c #616128",
"(  c #775C49",
")  c #796552",
"_  c #832411",
"`  c #852512",
"'  c #852712",
"]  c #8C2914",
"[  c #932814",
"{  c #922A15",
"}  c #962914",
"|  c #962B15",
" . c #9E2A15",
".. c #A72C17",
"X. c #AA2D17",
"o. c #AB2D18",
"O. c #AE2E18",
"+. c #A8331D",
"@. c #B53019",
"#. c #BC311A",
"$. c #BD311A",
"%. c #BF321B",
"&. c #943420",
"*. c #973621",
"=. c #9B432E",
"-. c #C24A33",
";. c #9A5E49",
":. c #806855",
">. c #87765F",
",. c #A96752",
"<. c #AA6852",
"1. c #AE755F",
"2. c #8B7562",
"3. c #907B66",
"4. c #9B7864",
"5. c #927D68",
"6. c #AC7862",
"7. c #4A8036",
"8. c #4E8739",
"9. c #4F8A3A",
"0. c #538034",
"q. c #548336",
"w. c #558436",
"e. c #5F873F",
"r. c #578A39",
"t. c #508B3C",
"y. c #528E3D",
"u. c #588B39",
"i. c #5F8839",
"p. c #5A8F3B",
"a. c #53913D",
"s. c #55953F",
"d. c #5B913C",
"f. c #5C953D",
"g. c #5D973E",
"h. c #5B9C44",
"j. c #5D9F45",
"k. c #619E41",
"l. c #62A143",
"z. c #63A344",
"x. c #65A645",
"c. c #61A947",
"v. c #6AAA47",
"b. c #61A648",
"n. c #65AD4B",
"m. c #65B04A",
"M. c #67B34C",
"N. c #6AB24B",
"B. c #6BB24B",
"V. c #6AB74E",
"C. c #6CB64D",
"Z. c #6BBA4F",
"A. c #6FBB4E",
"S. c #70BF50",
"D. c #6FC151",
"F. c #6FC152",
"G. c #71C151",
"H. c #71C453",
"J. c #73C854",
"K. c #75C854",
"L. c #75CB56",
"P. c #77CE57",
"I. c #78D058",
"U. c #7BD55A",
"Y. c #7DD95C",
"T. c #98826D",
"R. c #9A8570",
"E. c #9C8570",
"W. c #A18B75",
"Q. c #A48B76",
"!. c #AD967F",
"~. c #B39B84",
"^. c #B9A18A",
"/. c #C5A087",
"(. c #C3AB93",
"). c #CAB299",
"_. c #D1B8A0",
"`. c #D7BDA4",
"'. c #DBC2A8",
"]. c #E5CCB1",
"[. c #EBD1B6",
"{. c #EED4B9",
"}. c #F0D5BA",
"|. c #F8DDC1",
" X c #FCE1C5",
/* pixels */
"h.j.Y.Q V.Y.H P.P.m U.H.Y Y.n.t.Y.t.n.Y.Y H.Y.M L.P.H Y.Z.Q Y.j.h.Y.Q Z.Y.M P.I.H Y.H.U Y.m.t.Y.t.c.",
"Y.Y.Y.Y.Y.Y.Y.Y.Y.Y.Y.Y.Y.Y.Y.Y.Y.Y.Y.Y.Y.Y.B.P   F u.Y.Y.Y.Y.Y.Y.Y.Y.Y.Y.Y.Y.Y.Y.Y.Y.Y.Y.Y.Y.Y.Y.Y.",
"Y.Y.Y.Y.Y.Y.Y.Y.Y.Y.Y.Y.Y.Y.Y.Y.Y.Y.Y.Y.Y.x.$         4 H.Y.Y.Y.Y.Y.Y.Y.Y.Y.Y.Y.Y.Y.Y.Y.Y.Y.Y.Y.Y.Y.",
"Y.Y.Y.Y.Y.Y.Y.Y.Y.Y.Y.Y.Y.Y.Y.Y.Y.Y.Y.Y.L.O             : I.Y.N.Y.Y.Y.Y.Y.Y.Y.Y.Y.Y.Y.Y.Y.Y.Y.Y.Y.Y.",
"Y.Y.Y.Y.Y.Y.Y.Y.Y.Y.Y.Y.Y.Y.Y.Y.Y.Y.~ ! p   * 5.(.2.% ) * u.e.~ Y.Y.Y.Y.Y.Y.Y.Y.Y.Y.Y.Y.Y.Y.Y.Y.Y.Y.",
"Y.Y.Y.Y.Y.Y.Y.Y.Y.Y.Y.Y.Y.Y.Y.Y.Y.N.h 4.l   !. X|. X|. XW.5 >.P.Y.Y.Y.Y.Y.Y.Y.Y.Y.Y.Y.Y.Y.Y.Y.Y.Y.Y.",
"Y.Y.Y.Y.Y.Y.Y.Y.Y.Y.Y.Y.Y.Y.Y.Y.v.| $.=.~.Z (.].(.^.'.3.!.2.*.V C.Y.Y.Y.Y.Y.Y.Y.Y.Y.Y.Y.Y.Y.Y.Y.Y.Y.",
"Y.Y.Y.Y.Y.Y.9.J.a.8.Y.Y.Y.Y.Y.N.{ $.%.%.6.^.R.S g A ).D ( 6.%.$.] i.Y.Y.Y.Y.Y.Y.Y.Y.Y.Y.Y.Y.Y.Y.Y.Y.",
"Y.Y.Y.Y.Y.Y.m.F.L.M.Y.Y.Y.Y.I.k %.%.%.%.$.<.T.{.}.`.|._.E.+.%.%.$.X.K Y.Y.Y.Y.Y.Y.Y.Y.Y.Y.Y.Y.Y.Y.Y.",
"Y.Y.Y.Y.Y.Y.Y.Y.Y.Y.Y.Y.Y.Y./ $.%.%.%.$.$.$.o.[.Q./.<.) | $.%.%.#.' B N.Y.Y.Y.Y.Y.Y.Y.Y.Y.Y.Y.Y.Y.Y.",
"Y.Y.Y.Y.Y.Y.Y.Y.Y.Y.Y.Y.Y.S.N j a _ o.$.$.%.%.;.-.&.X.f %.$.@.u + x.Y.Y.Y.Y.Y.Y.Y.Y.Y.Y.Y.Y.Y.Y.Y.Y.",
"Y.Y.Y.Y.Y.Y.Y.Y.Y.Y.Y.Y.Y.Y.Y.Y.4     # e o.%.$.[ ..X.O.%.` @     v Y.Y.Y.Y.Y.Y.Y.Y.Y.Y.Y.Y.Y.Y.Y.Y.",
"Y.Y.Y.Y.Y.Y.Y.Y.Y.Y.Y.Y.Y.Y.Y.0.            ; f $.%.%.$.0         . Y.Y.Y.Y.Y.Y.Y.Y.Y.Y.Y.Y.Y.Y.Y.Y.",
"Y.Y.Y.Y.Y.Y.Y.Y.Y.Y.Y.Y.Y.Y.Y.c                 @ s @.6             Y.Y.Y.Y.Y.Y.Y.Y.Y.Y.Y.Y.Y.Y.Y.Y.",
"Y.Y.Y.Y.Y.Y.Y.Y.Y.Y.Y.Y.Y.Y.Y.&                   @ -               k.Y.Y.Y.Y.Y.Y.Y.Y.Y.Y.Y.Y.Y.Y.Y.",
"Y.Y.Y.Y.Y.Y.Y.Y.Y.Y.Y.Y.Y.Y.Y.$                 o @.o.d             k.Y.Y.Y.Y.Y.Y.Y.Y.Y.Y.Y.Y.Y.Y.Y.",
"Y.Y.Y.Y.Y.Y.Y.Y.Y.Y.Y.Y.Y.Y.Y.$                 @ o.| d             T A.D.Y.Y.Y.Y.Y.Y.Y.Y.Y.Y.Y.Y.Y.",
"Y.Y.Y.Y.Y.Y.Y.Y.Y.Y.Y.Y.Y.Y.Y.$                   6 u o             7.s.Y.Y.Y.Y.Y.Y.Y.Y.Y.Y.Y.Y.Y.Y.",
"Y.Y.Y.Y.Y.Y.Y.Y.Y.Y.Y.Y.Y.Y.Y.&                     t               w.Y.Y.Y.Y.Y.Y.Y.Y.Y.Y.Y.Y.Y.Y.Y.",
"Y.Y.Y.Y.Y.Y.Y.Y.Y.Y.Y.Y.Y.Y.Y.&                     e               0.Y.Y.Y.Y.Y.Y.Y.Y.Y.Y.Y.Y.Y.Y.Y.",
"Y.Y.Y.Y.Y.Y.Y.Y.Y.Y.Y.Y.Y.Y.Y.&                     q               0.Y.Y.Y.Y.Y.Y.Y.Y.Y.Y.Y.Y.Y.Y.Y.",
"Y.Y.Y.Y.Y.Y.Y.Y.Y.Y.Y.Y.Y.Y.Y..                     t               0.Y.Y.Y.Y.Y.Y.Y.Y.Y.Y.Y.Y.Y.Y.Y.",
"Y.Y.Y.Y.Y.Y.Y.Y.Y.Y.Y.Y.Y.Y.Y..                     t               0.Y.Y.Y.Y.Y.Y.Y.Y.Y.Y.Y.Y.Y.Y.Y.",
"Y.Y.Y.Y.Y.Y.Y.Y.Y.Y.Y.Y.Y.Y.Y.                    + t               0.Y.Y.Y.Y.Y.Y.Y.Y.Y.Y.Y.Y.Y.Y.Y.",
"Y.Y.Y.Y.Y.Y.Y.Y.Y.Y.Y.Y.Y.Y.Y.                    = t               0.Y.Y.Y.Y.Y.Y.Y.Y.Y.Y.Y.Y.Y.Y.Y.",
"Y.Y.Y.Y.Y.Y.Y.Y.Y.Y.Y.Y.Y.Y.Y.                    = 0               0.Y.Y.Y.Y.Y.Y.Y.Y.Y.Y.Y.Y.Y.Y.Y.",
"Y.Y.Y.Y.Y.Y.Y.Y.Y.Y.Y.Y.Y.Y.Y.                    = 8               0.Y.Y.Y.Y.Y.Y.Y.Y.Y.Y.Y.Y.Y.Y.Y.",
"Y.Y.Y.Y.Y.Y.Y.Y.Y.Y.Y.Y.Y.Y.Y.                    = 8               0.Y.Y.Y.Y.Y.Y.Y.Y.Y.Y.Y.Y.Y.Y.Y.",
"Y.Y.Y.Y.Y.Y.Y.Y.Y.Y.Y.Y.Y.Y.Y.                    = 8               0.Y.Y.Y.Y.Y.Y.Y.Y.Y.Y.Y.Y.Y.Y.Y.",
"Y.Y.Y.Y.Y.Y.Y.Y.Y.Y.Y.Y.Y.Y.Y.                    = 8               0.Y.Y.Y.Y.Y.Y.Y.Y.Y.Y.Y.Y.Y.Y.Y.",
"Y.Y.Y.Y.Y.Y.Y.Y.Y.Y.Y.Y.Y.Y.Y.                    7 8               0.Y.Y.Y.Y.Y.Y.Y.Y.Y.Y.Y.Y.Y.Y.Y.",
"Y.Y.Y.Y.Y.Y.Y.Y.Y.Y.Y.Y.Y.Y.Y.                    8 0             . 0.Y.Y.Y.Y.Y.Y.Y.Y.Y.Y.Y.Y.Y.Y.Y.",
"Y.Y.Y.Y.Y.Y.Y.Y.Y.Y.Y.Y.Y.Y.Y.                    8 8               0.Y.Y.Y.Y.Y.Y.Y.Y.Y.Y.Y.Y.Y.Y.Y.",
"Y.Y.Y.Y.Y.Y.Y.Y.Y.Y.Y.Y.Y.Y.Y.                    0 =               0.Y.Y.Y.Y.Y.Y.Y.Y.Y.Y.Y.Y.Y.Y.Y.",
"Y.Y.Y.Y.Y.Y.Y.Y.Y.Y.Y.Y.Y.Y.Y.                    8 =               0.Y.Y.Y.Y.Y.Y.Y.Y.Y.Y.Y.Y.Y.Y.Y.",
"Y.Y.Y.Y.Y.Y.Y.Y.Y.Y.Y.Y.Y.Y.Y..                   8 =               0.Y.Y.Y.Y.Y.Y.Y.Y.Y.Y.Y.Y.Y.Y.Y.",
"Y.Y.Y.Y.Y.Y.Y.J.I I q.Y.Y.Y.Y..                   8 =               0.Y.Y.Y.Y.^ 0.I.Y.Y.Y.Y.Y.Y.Y.Y.",
"Y.Y.Y.Y.Y.Y.P.1     . q.Y.Y.Y..                   8 =               0.Y.Y.Y.z O . & B.Y.Y.Y.Y.c.J.Z.",
"Y.Y.Y.Y.Y.Y.n   4 P.Y.R Y.Y.Y.&                   w -               I Y.Y.P.w.Y.Z.  2 Y.Y.Y.Y.t.9.P.",
"Y.Y.Y.Y.Y.Y..   l.Y.Y.Y.Y.Y.Y.4                   e =               I Y.Y.Y.Y.Y.Y.:   l.Y.Y.Y.Y.Y.Y.",
"Y.Y.Y.Y.Y.Y.    Y.Y.Y.Y.Y.Y.Y.4                   w =               P Y.Y.Y.Y.Y.Y.$   & Y.Y.Y.Y.Y.Y.",
"Y.Y.Y.Y.Y.Y.^   g.Y.Y.Y.Y.Y.Y.4                   e                 P Y.Y.Y.Y.Y.f.    & Y.Y.Y.Y.Y.Y.",
"Y.Y.Y.Y.Y.Y.Y.  . k.Y.Y.Y.Y.Y.3                   e                 C Y.Y.Y.Y.Y.I   O N.Y.Y.Y.Y.Y.Y.",
"Y.Y.Y.Y.Y.Y.Y.1 .   k.Y.Y.Y.Y.1                   t                 < Y.Y.Y.Y.H.2 . I Y.Y.Y.Y.Y.Y.Y.",
"Y.Y.Y.Y.Z.x.Y.~       . F H.I..                   t                   N.Y.K.,       u.g.$ ~ Y.Y.Y.Y.",
"Y.Y.Y.Y.& J Y.u.            . .                   t                     1 . .     $ P.I.3 1 Y.Y.Y.Y.",
"Y.Y.Y.Y.. 2 I I &                                 t                               C v $   G Y.Y.Y.Y.",
"Y.Y.Y.Y.^                                         t                                       z.Y.Y.Y.Y.",
"Y.Y.Y.Y.Y.J.l.k.k.k.d.^ 0.u.0.0.I I I L c c < , 1 i < 3 c c c c n P I I I I I I I 0.d.A.Y.Y.Y.Y.Y.Y.",
"Z.A.H.Z.S.Z.F.Z.F.Z.Z.D.H.Z.Z.A.F.Z.F.Z.Z.D.Z.D.Z.D.Z.D.D.Z.D.Z.H.Z.A.Z.Z.F.F.Z.D.Z.Z.F.Z.D.Z.D.Z.D."
};
