/* XPM */
static char *_279af2fc21447c5cbff8e38ccc03a17CTJOYFHcYhd9PxG3[] = {
/* columns rows colors chars-per-pixel */
"50 50 184 2 ",
"   c #070707",
".  c #080807",
"X  c #070708",
"o  c #080709",
"O  c #0A0A0A",
"+  c #11110F",
"@  c #0F0A13",
"#  c #110C15",
"$  c #140D1B",
"%  c #180F1F",
"&  c #141414",
"*  c #17141A",
"=  c #19151D",
"-  c #1C1C1C",
";  c #1A0E23",
":  c #1D0F28",
">  c #161323",
",  c #1C1523",
"<  c #1E1923",
"1  c #1C1329",
"2  c #1B1D33",
"3  c #211D25",
"4  c #22152C",
"5  c #231B2C",
"6  c #251731",
"7  c #201F35",
"8  c #1C2B3D",
"9  c #242424",
"0  c #282729",
"q  c #272828",
"w  c #2A2A2A",
"e  c #2B2332",
"r  c #262639",
"t  c #30273D",
"y  c #342C3B",
"u  c #393A3A",
"i  c #311E44",
"p  c #34184B",
"a  c #381E50",
"s  c #272944",
"d  c #27364D",
"f  c #2F2F56",
"g  c #352758",
"h  c #2D3156",
"j  c #32355D",
"k  c #3D2F67",
"l  c #313964",
"z  c #3A3C67",
"x  c #3F316A",
"c  c #442A59",
"v  c #4A315E",
"b  c #4A3667",
"n  c #543C67",
"m  c #423A75",
"M  c #1D4054",
"N  c #21445A",
"B  c #2B445A",
"V  c #294965",
"C  c #2D4469",
"Z  c #2C4B6D",
"A  c #235263",
"S  c #28546F",
"D  c #2E4E70",
"F  c #2C5274",
"G  c #235B71",
"H  c #2C5A7C",
"J  c #35537D",
"K  c #276479",
"L  c #226C7F",
"P  c #454646",
"I  c #5A486D",
"U  c #524070",
"Y  c #614C73",
"T  c #685379",
"R  c #296682",
"E  c #266C83",
"W  c #296D88",
"Q  c #326487",
"!  c #26758B",
"~  c #25778B",
"^  c #29748D",
"/  c #2B7792",
"(  c #267E94",
")  c #494987",
"_  c #48548C",
"`  c #4E5596",
"'  c #505A9C",
"]  c #4D7490",
"[  c #7B6A8A",
"{  c #6F7294",
"}  c #456FA4",
"|  c #5260A2",
" . c #4E70AC",
".. c #586DB4",
"X. c #4F7CB8",
"o. c #517AB7",
"O. c #5B72BA",
"+. c #5D77C1",
"@. c #5F7CC6",
"#. c #8D7F9D",
"$. c #278299",
"%. c #258B9D",
"&. c #268BA0",
"*. c #3289A8",
"=. c #2493A4",
"-. c #249BAB",
";. c #3C8DB5",
":. c #22A1AF",
">. c #23A4B1",
",. c #22A8B5",
"<. c #22AEBA",
"1. c #2AA8BB",
"2. c #38A6B5",
"3. c #21B4BE",
"4. c #2CB3BD",
"5. c #429AAD",
"6. c #4489B9",
"7. c #5994BE",
"8. c #7791A8",
"9. c #53ABB9",
"0. c #1FBDC4",
"q. c #35AEC3",
"w. c #27B1C1",
"e. c #20BCC4",
"r. c #36B3D0",
"t. c #579EDC",
"y. c #6A8EC6",
"u. c #6180CC",
"i. c #6489D6",
"p. c #6E8CD2",
"a. c #668DDB",
"s. c #51A5DC",
"d. c #5EBDD5",
"f. c #6B98E9",
"g. c #7098E4",
"h. c #6D9DF0",
"j. c #50B1E5",
"k. c #59BBF6",
"l. c #5DB9F9",
"z. c #6EA2F4",
"x. c #6BABF9",
"c. c #71A6FA",
"v. c #75A8FA",
"b. c #63B3F9",
"n. c #1FC1C7",
"m. c #1FC5CA",
"M. c #1ECBCE",
"N. c #1ECDD0",
"B. c #1DD3D5",
"V. c #1CD7D8",
"C. c #1CDCDB",
"Z. c #35C5CC",
"A. c #2BC5D0",
"S. c #32C8DB",
"D. c #24D2DA",
"F. c #1BE2DF",
"G. c #39C7E4",
"H. c #23D9E0",
"J. c #35D6EC",
"K. c #3FD7F7",
"L. c #3CDBF7",
"P. c #1BE4E2",
"I. c #1AEBE6",
"U. c #1DEBE9",
"Y. c #19F4ED",
"T. c #19F8EF",
"R. c #18FEF5",
"E. c #22E9E8",
"W. c #2FE4F3",
"Q. c #2BEBF6",
"!. c #22F4F5",
"~. c #50C7F8",
"^. c #44D2F6",
"/. c #91839E",
"(. c #998CA5",
"). c #9B97AE",
"_. c #8A9BB0",
"`. c #A69AB0",
"'. c #8FAEBF",
"]. c #BAB0C1",
"[. c #C2BAC9",
"{. c #DED9E2",
"}. c #F4F3F5",
"|. c #FFFFFF",
/* pixels */
"O O O O + O O O + . O O O . . . . O o O o @ ( L 8 $           . . . . o . . O O X O O O O O O O O O ",
"+ + + O O O O + O . O . . O . O . O o o o $ B.R.R.B.$.$       . . . o . . o X O O - - O . O O O O O ",
"9 + O O O O O O O O . O O . . O . .       O m.m.).(.y.E +         . . . o . o X   + +   O . O O O O ",
"- + O O + O O O O . O . . . . .         O $ F.8.{.|.{.r.$             . . o O X     O X O O . O O O ",
"O + O O O O O O . . + + o                 8 R._.}.|.|.d.8               . . . .     . . O O . . O O ",
"O O O O O O O O . . & -                   L R.{ T {./.y.G                   . . O X X . . . O O O O ",
"O O O O O . O . O   o                   O <.R.'.[.`.#.h.%.                        . .   O . O O O . ",
"+ O O . . O . . .                       1 Y.R.Q [.].{ x.1.@                         X O         . O ",
". O O . . . o . X     X             o o L T.R.^ I a ` z.G.1 X X                         X . X X . O ",
". O . . . O . X X X                   N I.Y.R.5.n U y.c.^.d X X                         . O X O O O ",
"O . O O . o . . X X         o o     # m.R.I.R.%.a n p.v.G.~ X X                     . . . X X O . O ",
"O O 9 & o . o . . . .   o o o O y y ~ Y.R.P.R.2.T Y g.c.G.:.. X         > >     X X . O X X X O . . ",
". . . . . . . o . . . . . @ V ] (.I F.Y.R.F.R.q.c [ f.x.V.N.@ o . > ( =.B.] Y 9 X . . X X X X X . O ",
"O . . . . . o . . . . @ Z :.2.).Y 9.I.Y.R.C.R.Z.n b i.^.m.U.: ; j s.V.R.T #.#.f X O O X X X X O X O ",
". . . . . o . o . . @  .k.R./ U S.R.P.R.R.B.R.3.p p +.Q.C.R.t.x.c.~.B.F.U 2.1 O X . . O X O O O O O ",
". . . . o . o . . o > h.J.R.J x J.R.F.T.R.B.R.A.p p | L.T.R.l.c.c.S.R.N.z E.> O O O X O O O X O O X ",
"O X O X O X X O o o 1 c.P.R.Q O.W.R.P.D.R.F.R.4.g n ) b.Y.R.b.c.b.F.R.R.m R.: O O o O O O O O O . . ",
"O O O O O O O X O o > t.F.T.*.l.F.R.F.V.Y.M.R.,.v c ) c.w.R.L.c.^.R.R.R.;.U.: O O O O O O O O O + . ",
"X O X O X O X O O O # r.C.R.J.!.C.R.F.B.N.F.R.3.p p ) v.q.R.R.c.T.T.V.R.D.V.$ O O O O O O O O O . . ",
"O O O O O O O O O O $ j.C.T.R.C.B.F.3.R.V.I.F.m.p p m v.D.R.!.^.R.0.P.R.C.:.$ O O O O O + O O O O + ",
"- O O O O O O O O O $ S.R.B.R.N.F.V.F.T.M.R.F.M.p p x x.U.R.!.R.R.0.R.C.n.<.= O O @ + O O O O O . . ",
"O O O O O O O + O O % V.V.C.R.B.V.Y.T.Y.R.R.I.F.g p g ~.R.R.R.T.Y.I.P.M.m.-.= O O O O O @ + + O + + ",
"O + + O + O O + O O M P.0.0.F.m.V.R.I.I.I.R.R.V.g p x K.R.R.R.U.P.R.U.R.e.( # O + + O + + O + + + . ",
"O O O + @ + O O + + =.B.m.-.M.P.3.R.C.V.P.R.R.n.p p k W.R.R.I.H.m./ m.U.$.d + O + @ + O O + @ O + + ",
"+ + + + @ O @ + @ + 0.M.I.-.Y.I.M.I.R.T.P.Y.R.3.p p x R.R.R.H.m.,.1 >.-.,.8 O & + + @ + & O O + O + ",
"+ + + + + + + + + + ~ <.R.0.N.C.B.T.R.V.C.T.R.M.p p _ R.R.R.C.U.%.= ( R -.4 + + + + + + + + & + + + ",
"+ & # & & + + + & + , F B.N.$.I.P.Y.R.P.V.Y.R.T.f p } R.R.Y.C.R.S $ L 2 R 6 # & + + @ + & + + & + & ",
"& & & & & & & & & & & s ,.:.G N.R.I.R.R.C.C.R.R.l p ;.R.R.0.Y.B.r $ Z 9 d 4 # + $ + & + & + + & # + ",
"& & - & & & & > & & & & &.%.A ,.Y.V.R.T.R.0.H.R.F p 6.R.R.0.,.-.> & < 9 & * & & & & & & & & & & & & ",
"& - & & & & - u - & & 3 I.8 E ,.0.,.I.P.R.R.m.P.F p X.R.T.m.<.Z * & & & & & & & & & & & & & & & & & ",
"- - - & & - & & & & * 6 Y.1 E &.~ S B.R.B.F.N.C.R p o.R.F.,.W : & & - & & & & & & & & & & & & & * & ",
"- - & - - & - - - * * < K 4 E 6 4 A F.R.,.m.M.P.D p ..R.n.^ F > - & & & & - & - & - & & - & - & - - ",
"- - - - - - - & - & - - 8 s ~ < * G C.C.3.3.C.R.l m O.R.I.S 5 - & & & - & & - & - & - & - & & - - - ",
"- - - 9 - - - - - - - - < d f - - L e.:.F.3.F.3.l ..@.R.V.V - * - - - & - & & - - - & - - - - - 9 u ",
"9 - 9 - - 9 - - - - - - - < - - - ^ n.>.T.M.F.H ) f.u.H.3.E & - & - - & - - - - - & - - - - - - - 9 ",
"9 9 9 9 - 9 9 - 9 - - - - - - - - &.M.$.R.C.F.l O.f.a.D.n.=.- - - - - - & - - - - - - - - - - - - - ",
"9 9 9 9 - 9 - 9 - 9 - 9 - - - - < ,.3.( Y.C.U.z O.i.c.m.M.~ - - - - - - - - - - - - - - - - - - - - ",
"0 9 9 9 9 9 9 9 9 - 9 - 9 < 9 9 3 <.8 l 3.M.T.Q i.@.c.C.B.K - - - - - - - 9 9 - - 9 - - - 9 9 9 9 - ",
"9 9 q 9 9 9 q 9 9 9 - 9 9 - - 9 9 =.3 l <.=.R.*.h.i.c.T.3.A 9 - - - 9 - - - 9 - 9 - - 9 9 - - 9 - 9 ",
"w q q q q 9 9 9 9 9 9 9 9 9 9 9 < C 9 Z F ^ R.r.c...c.R.$.d - 9 9 - - 9 9 - - 9 - 9 9 9 - 9 - 9 9 9 ",
"w 9 w 9 w 9 w 9 w 9 9 9 9 9 9 9 9 9 9 C h >.R.3.z.` c.R.^ w - 9 9 - - 9 - 9 - 9 9 9 9 P 9 9 - 9 9 - ",
"w w w w w w 9 q q 0 w q 9 9 w 9 9 9 9 e 9 $.R.F.| ` c.R.%.9 9 9 9 9 9 9 9 9 9 9 - 9 9 9 9 9 9 9 9 9 ",
"q w w w w q w q q q w 9 w 9 9 w 9 9 q 9 9 Z ( V.i ' c.T.%.9 9 9 9 9 9 9 9 9 9 9 9 9 9 9 - 9 9 9 9 9 ",
"w 9 9 w w w w w w w 9 w w w w 9 w 9 q q 9 0 0 j t | v.E.%.9 9 9 9 9 9 9 9 9 9 9 9 9 9 9 9 9 9 9 9 9 ",
"w 9 w w w w w w w w w w w w 9 w w w w w w q q q 0 ' c.U.K 0 9 0 9 9 0 9 9 9 9 9 9 9 9 q 9 9 q 9 9 9 ",
"9 w w w w w w w w y w w w w w w w w w w w q q w w _ c.E.d 0 0 0 q q q q w 9 w w w 0 0 9 q 9 q 9 9 9 ",
"9 w w w w w u w w w w w w w w w w w w w w w w w q b c.n.e 0 w 0 q q q q w w 0 9 0 w q q 9 q 9 q 9 9 ",
"9 9 w 9 w w w w w w w w w w w w w w w w w w w w w t z.%.w w w w w w q w w 9 w q w q 0 q q 9 q 9 9 9 ",
"9 q w q w w w w w w w w w w w w w u w u w w w w w w 7.B w w u w w w w w w w w w w q w 0 9 q 9 w 9 9 ",
"9 9 9 w 9 w w w w w u w u w w w w w w w w w u w w w f e w w w w w w w w w w w w w w w 0 w q 9 9 9 9 "
};
