/* XPM */
static char *b92c4e4cb155484ff3a6387a82b7b58dV0lZMzRXwCom1qDB[] = {
/* columns rows colors chars-per-pixel */
"50 50 250 2 ",
"   c #000000",
".  c #0A0202",
"X  c #00000B",
"o  c #070A08",
"O  c #1B0002",
"+  c #07130C",
"@  c #1B100D",
"#  c #020019",
"$  c #091A16",
"%  c #131C18",
"&  c #260003",
"*  c #33080D",
"=  c #260217",
"-  c #002605",
";  c #0D2913",
":  c #14241D",
">  c #19231B",
",  c #283B0F",
"<  c #242217",
"1  c #010127",
"2  c #0A102E",
"3  c #34152C",
"4  c #042F2E",
"5  c #192A22",
"6  c #1D332A",
"7  c #2B2C2A",
"8  c #23352C",
"9  c #263B36",
"0  c #363937",
"q  c #420105",
"w  c #4F120F",
"e  c #6D0811",
"r  c #502912",
"t  c #6D3C1F",
"y  c #4E0C2E",
"u  c #5D0833",
"i  c #471A39",
"p  c #6B1428",
"a  c #502C2B",
"s  c #49253B",
"d  c #562538",
"f  c #6D2F2C",
"g  c #682834",
"h  c #683636",
"j  c #7A3735",
"k  c #275A11",
"l  c #0E4730",
"z  c #00463B",
"x  c #284539",
"c  c #35563B",
"v  c #4D7302",
"b  c #55473A",
"n  c #6E4430",
"m  c #7B443B",
"M  c #4E7435",
"N  c #0B0055",
"B  c #2F3646",
"V  c #000079",
"C  c #25156D",
"Z  c #31326E",
"A  c #4E3846",
"S  c #591260",
"D  c #09564C",
"F  c #2D4C41",
"G  c #355748",
"H  c #35554D",
"J  c #395B4D",
"K  c #13664D",
"L  c #226C53",
"P  c #3E6354",
"I  c #3A6A5B",
"U  c #354E71",
"Y  c #397665",
"T  c #4B4848",
"R  c #504D4F",
"E  c #4B584C",
"W  c #535554",
"Q  c #6B5757",
"!  c #436656",
"~  c #446C5C",
"^  c #57655D",
"/  c #4A715A",
"(  c #756853",
")  c #645E61",
"_  c #546863",
"`  c #457564",
"'  c #4A7463",
"]  c #4D7966",
"[  c #4E7C69",
"{  c #577365",
"}  c #517E6C",
"|  c #696768",
" . c #6D7571",
".. c #813718",
"X. c #813C34",
"o. c #8C5212",
"O. c #854436",
"+. c #905131",
"@. c #A35B2F",
"#. c #B36836",
"$. c #8C5448",
"%. c #946B47",
"&. c #956656",
"*. c #B3704D",
"=. c #937866",
"-. c #CB794C",
";. c #37A100",
":. c #598402",
">. c #6D9D23",
",. c #3C856B",
"<. c #61A353",
"1. c #52816E",
"2. c #588869",
"3. c #4F8C72",
"4. c #558572",
"5. c #588776",
"6. c #578975",
"7. c #598A76",
"8. c #5A8D79",
"9. c #5E927D",
"0. c #519A7E",
"q. c #678B7B",
"w. c #6B917E",
"e. c #8CAD00",
"r. c #86A736",
"t. c #D3811F",
"y. c #D28537",
"u. c #E9903B",
"i. c #E89638",
"p. c #FAA43B",
"a. c #90DB0D",
"s. c #A5E808",
"d. c #95D22C",
"f. c #A3E739",
"g. c #AAF130",
"h. c #EDEE14",
"j. c #96856B",
"k. c #AA8F72",
"l. c #C88058",
"z. c #D5875A",
"x. c #E38D5C",
"c. c #D09470",
"v. c #E69566",
"b. c #F19C64",
"n. c #DAA57E",
"m. c #E9A67A",
"M. c #F1AA7B",
"N. c #88C351",
"B. c #98DB57",
"V. c #9BE547",
"C. c #9BE455",
"Z. c #9DE25A",
"A. c #A8EA4E",
"S. c #A3E659",
"D. c #97DD6F",
"F. c #87E060",
"G. c #9CE466",
"H. c #A8E864",
"J. c #E0E27B",
"K. c #00198D",
"L. c #0003A1",
"P. c #2A35A5",
"I. c #543691",
"U. c #5A3AA4",
"Y. c #005681",
"T. c #334B9B",
"R. c #00658D",
"E. c #3C51AC",
"W. c #4B4F93",
"Q. c #616F9F",
"!. c #4848AA",
"~. c #4852A9",
"^. c #574CB2",
"/. c #594AB4",
"(. c #4856B7",
"). c #6747B6",
"_. c #684BB0",
"`. c #646CB1",
"'. c #2E79CF",
"]. c #0085B0",
"[. c #5B9781",
"{. c #619681",
"}. c #649B85",
"|. c #679C87",
" X c #70908C",
".X c #779A8B",
"XX c #66A18A",
"oX c #6AA48D",
"OX c #6BA889",
"+X c #75A58E",
"@X c #64A993",
"#X c #6DAB92",
"$X c #79A190",
"%X c #72AE95",
"&X c #69B899",
"*X c #75B49B",
"=X c #75B69C",
"-X c #7E84B0",
";X c #76BBA2",
":X c #7ABDA2",
">X c #7DC2A6",
",X c #7FC4A8",
"<X c #7CCAAF",
"1X c #7BC6B9",
"2X c #1E99E8",
"3X c #3D98EA",
"4X c #4C96D4",
"5X c #7B83C5",
"6X c #67B2DD",
"7X c #4DA8F2",
"8X c #75C4D6",
"9X c #6CC5E2",
"0X c #898A8A",
"qX c #929395",
"wX c #A9949D",
"eX c #85A798",
"rX c #B7A283",
"tX c #8AB9A5",
"yX c #B8B2B6",
"uX c #CAAF8F",
"iX c #D4BB98",
"pX c #EAB28A",
"aX c #8FD589",
"sX c #81C6AA",
"dX c #89C6AC",
"fX c #83CAAD",
"gX c #89CDB1",
"hX c #94CEB3",
"jX c #96CAB4",
"kX c #C8D599",
"lX c #E9C89D",
"zX c #F4C69C",
"xX c #F4CBA3",
"cX c #EDD2AB",
"vX c #F6D6AB",
"bX c #F6DAB2",
"nX c #FADDB3",
"mX c #ECE1A5",
"MX c #FDE1B6",
"NX c #FDE5BA",
"BX c #8E95C3",
"VX c #9AA1D2",
"CX c #A5C5D6",
"ZX c #C9C6C8",
"AX c #D8D9D8",
"SX c #D1EFC6",
"DX c #F5EFD0",
"FX c #E9E9E9",
"GX c gray94",
"HX c #FEFEFE",
/* pixels */
"| | ) eXjXjXjX.X) | | tXjXjXgXq.) |  .tXhXjXtX .|  .)  .jXhXtX| | ) .XjXjXjXeXW | ) eXjXjXjX.X) | | ",
"      ,.&X&X*XK       0.&X&X@Xl .     Y ,.0.@X          K @X[.      L &X&X=X,.  .   3.&X&X&XK       ",
"= =   |.gXsXgX{   = O %XgXdXsXE   < = = . ^ %XE = 0 0 0   q.+X= O   4.gXsXgXw.. =   |.gXsXgX] . & = ",
"J G x 9.%X#X%X[ F G G [.%X#X#X~ F P x   a n z o     = i f b z J ! 9 } #X#X%X6.F J x 8.#X#X%X[ F H J ",
":X=X:X1.  8 o }.:X=X:X~   6 8 oX:X:X[.  h j * w a = 3 d j e w P [.,X[.% 8   6.:X;X>X1.o 8   }.:X=X=X",
">X:X,X1.  +   }.,X:X,X!     o #XsX:XXX  f X.j X.f A i d f j Q O ` gX|.  .   4.>X;X,X1.  +   }.,X>X:X",
"sX>XgX1.      |.fX,X,XP       #XfXsXoX  h j j j j u i i s g X.p w D [ 6 $   8.,X>XfX1.      oXdX>XsX",
"oX|.oX4.! ~ I 9.oXXXoX1.! ~ ' 9.|.oX1.  f j j j X.#.+.i i g X.X.t o.^ $ r O ' oXXXoX4.! ' I 8.oXoXoX",
"o $   8.>X:X>X'   +   oX,X>X:XJ   % . X g j g u +.p.#.y i g X.u #.p.o.  g w     5   9.>X:X,X'     o ",
"% %   9.>X>X>X]   $   oX>X:X=XJ   3 = o y @.u.@.O.i.i.y.O.i h u #.p.m h i.+.    .   9.>X:X>X'   + % ",
"      9.fX,XsX'       oXfXsX,XG   A 3 < y @.u.@.O.u.i.y.+.d g u @.u.Q j i.o.+ o 8   {.dX>XfX~     . ",
"1.[ } 7.{.9.9.4.[ } [ 9.{.9.[.~ o 3 i i i d X.p @.p.y.g X.j m m X.X.X.j j *   5     1.}.[.9.4.[ [ } ",
"sX:XfX1.      |.sX>X,X!       x   i s i i d j g X.@...u p p p ..e e X.j d d f   ~ %X]       |.,X>X,X",
":X=X>X1.  :   }.>X:X:X~   5     @ 3 i A i d g X.X.&.&.&.&.&.&.$.&.=.O.g 3 h n @ 9.fX1.  5   |.>X:X:X",
"dX>XgX1.      |.fX,XsXP       3 i @     = A d q &.xXnXbXvXnXnXxXDXHXqX. R . x :XsXfX1.      XXfX,XsX",
"8.4.4.6.8.8.8.6.4.6.4.7.9.4.$ = A   ( uX( 1 A +.c.nXnXnXnXnXnXnXNXFXuX+.= ] ] 4.6.4.6.8.8.8.7.6.4.5.",
"      9.fX>XfX'       oXgX:Xx = A   j.NXk.X A *.pXcXcXcXbXnXnXbXnXcXM.l.  @X{.      9.dX,XfX~       ",
"> :   9.>X=X>X'   :   oX>X:X=XJ     j.nXpX#.1 -.z.&   Q cXNXbXMXxXb.O.    OX9.  :   9.>X=X>X'   $ > ",
"      9.fX>X,X'       oXsX,X>XG     j.MXzXn.&.z.pXyX Xv k.pXpXzXn.%.M K   #X9.      [.sX>XsX~       ",
"|.{.}.4.' ] ' 9.|.{.}.1.' ] ] 9.{.4 =.nXMXxXb.y.pXHXSX;.+ X.v.b.#.  <.<.  G 8.}.{.}.4.] ] ' 9.}.{.|.",
"sX>XdX1.      |.fX>X,XP       *XgX:X|.a r o.c.x.n.bXMXlXz.pXvXbXpXz.v.l.7   8.sX>XgX[       XXfX,XsX",
":X:X,X1.  :   }.,X:X>X~   : 8 {.}.[.9.:.R.W.y.l.m.vXNXnXpXlXMXNXzXv.l.%.>   7.>X;X,X1.  :   |.>X:X:X",
">X;X,X1.      }.sX:X>XP   + 6 /     :.S.8X2X  #.M.vXMXvXnXMXvXMXzXx.t   <   4.>X:X,X1.  o   XX,X>XtX",
"! P P 8.#XoXoX[ P P ! oX]   # <.B.N.B.B.G.fX4XW.o.m.xXMXMXzXm.pXc.q { %XoXoX6.P ! J 9.oXXXoX[ P P ~ ",
"      9.fX>XsX'       0.w.&.M >.H.S.H.Z.g.D.8X].Z *.c.iXiXn.#.-.%.k ,.=X,XgX7.      9.fX>XsX'       ",
". +   [.sX:X,X'   < >   c.NXC.V.S.B.B.S.B.V.s.8X4X4     o   -   >.H.v 4 :XfX7.  +   9.,X:X>X'     . ",
"6 6   8.>X=X:X] x $ 0 iXcXNXmXkXV.A.A.B.Z.S.Z.aXaXN.N.N.d.#X4X'.=Xf.v H =X>X4.+ 8   9.:X=X>X'   5 6 ",
"%X#X=X4.x H x 8.9.E $.vXcXiXlXkXN.aXD.A.S.B.B.f.f.Z.S.S.f.gX7X7X8XaX! # J x 4.%X#X=X1.x G x 9.*X%X*X",
"sX>XfX1.    . 4.$ *.v.x.%.  -   # 2XCXh.H.F.S.G.Z.C.B.D.d.>X3X7X7X3XY.  =   4.sX>X<X}       XXsX:XsX",
"sX:XfX1.  8 . W uXlXlX+.e . o c 1 4X6XCXJ.h.f.V.Z.C.V.f.A.aXT.R.-XwXc.+.4   9.sX>XdX}       |.sX>X>X",
"%X%X=X4.:   b j.NXmXiX4 z c I / 2 4X3X2XkXJ.aXG.S.B.D.aXB.>.&   o.t.b.z.n   [ %X#X%X1.x F 9 {.=X%X*X",
"9 x   {.XX  iXMXbXj.  +XtX=X=Xc # 4X7X7X7X7X7XsXs.C.6X3X9 2.@X9 1 4 l.v.x.t         9.:X=X=X] : 9 9 ",
"      |.|.  uXxXnXiXk.` #X<X:Xc X 4X7X3X8X<X1XaXf.C.gX<X. 1.+X<   4 t l.zXuXrXuXuXk.^ XX=XsX/       ",
"      {.&XF #.v.vXMXvX  1.gX:Xc X 4X7X6XD.s.f.C.G.Z.g.a., 8.#X    * o ( cXMXMXvXMXnX* Y sXfX'       ",
"! P J 9.oX}.G +.m.zXvX. [ %XoXJ # 3X9XS.D.G.G.V.a.a.S.G., ~ w.! P E   $.v.cXcX  uXMXr Y #X#X[ J P ! ",
">X=X>X1.. x   E @.k.k.x   % x / X Q. Xe.r.r.r.kXSXSXkX:.k   1.=X:XsX,.r o.pXpXo ( rXE   6   }.>X:X:X",
">X:XsX1.    < 4.4   z ~     : ' # r g S S u y ZXHXGXyX* 0   ! :X:X,XXX>   *.l.a   z ' o +   |.>X:X>X",
"sX>XfX}       {.>X=X:XP     9 ]   T.^.!.W.~.~.`.BX5X`.!.~.C ; *XfXfX9.    q r   4.sX]       XXdX>XsX",
"|.{.XX4.' ] ' 9.oXoXXX1.] ' 5 I Z E.E.E./.!.T.V V V T./.(.T.Z 4.9.XX8.' ] Y D   } #X6.' ] ' 9.}.{.|.",
"      9.sX:X>X'       XXfX%X8 C (.~.(.~._.U.  @ < @ Z ).~.(.!.N     1.>X>XsX9..     9.>X:X>X'     . ",
"% :   9.>X:X>X'   %   #X{.B W.!.E.E.(.).C B |.x   6 < C U./.E.~.U   ] >X;X,X8.  5   9.>X:X>X'   $ % ",
"      9.fX>XfX'       #X9.  ).).!./.U.I._ [.;X%     . 2 U./.!.(.!.  1.,X,XgX6.      [.fX>XgX~       ",
"7.4.4.6.8.8.8.4.4.4.4.9.! 3 _._.).).I.  [ [.4.4.4.8.G 2 U.).).).I.. / 9.8.8.6.4.6.4.6.8.8.8.6.4.4.5.",
"sX>XfX1.      }.sXfX:X  N K.L.P.!.C H x X   x ;XsX,X4.1 !.E.L.P.V - ~ #     6.,X>XfX[       XXsX:XsX",
":X=XsX1.  5   }.sX&X9.T Q.VXVXBX`.B c P     G %X,X:X1.1 Q.-XBXVXqX_ _ 7 .   6.>X=XsX1.  5   |.>X:X:X",
"sX>XfX1.      |.fX/ & qXAXHXHXAX .T G c     8 ;XfXsX1.3 0XAXHXHXAXqX    6   4.fXsXfX}       XXfXsXsX",
"} [ [ 7.[.{.{.4.} x 7 wXAXHXHXHXFX| + |.{.{.[.} [ 5.x 7 qXyXZXHXHXFXFXZX  ` 9.[ [ ] 8.9.[.{.4.] [ } ",
"      9.dX>XsX'   o 0 0XZXFXFXGXFX|   :XsXsX=X5   O   0 0X0X0XAXGXFXHXZX  oX{.      9.<XtXsX'       ",
"      8.>X=X>XI                     - #X;X;X#X;       .                   XX8.      0.:X;X>XP       ",
"W W A $XgXdXhXq.T W R  X$X.X.X^ R R ^ tXgXjXtX_ R R _ .X.X$Xw.W R T { $X.XtX.XR W A .XhXdXgXq.T W W "
};
