/* XPM */
static char *ce0424150d44465fd74c7fcb523d592ax5X2TTQ8iWMhyT2k[] = {
/* columns rows colors chars-per-pixel */
"50 50 151 2 ",
"   c #000000",
".  c #0A0001",
"X  c #030806",
"o  c #050C09",
"O  c #0E0A0C",
"+  c #190000",
"@  c #06120D",
"#  c #09140F",
"$  c #0A1511",
"%  c #0D1A15",
"&  c #0F1E18",
"*  c #121513",
"=  c #121815",
"-  c #131D19",
";  c #210006",
":  c #22000B",
">  c #250012",
",  c #26081A",
"<  c #00210C",
"1  c #002614",
"2  c #13231C",
"3  c #1A231F",
"4  c #162720",
"5  c #162821",
"6  c #1A2C25",
"7  c #1D332A",
"8  c #20352C",
"9  c #21382F",
"0  c #243C32",
"q  c #293E36",
"w  c #323333",
"e  c #004226",
"r  c #00472C",
"t  c #274136",
"y  c #284237",
"u  c #2A453A",
"i  c #2C4A3E",
"p  c #4B3D45",
"a  c #2E4D41",
"s  c #304F43",
"d  c #2C5344",
"f  c #325245",
"g  c #355649",
"h  c #385649",
"j  c #36594B",
"k  c #395C4E",
"l  c #3B5E50",
"z  c #12634A",
"x  c #226C54",
"c  c #3D6354",
"v  c #3C6D5A",
"b  c #367D64",
"n  c #4D4449",
"m  c #4F4B4D",
"M  c #524F50",
"N  c #455C52",
"B  c #535454",
"V  c #555856",
"C  c #61575C",
"Z  c #635A5E",
"A  c #406657",
"S  c #486056",
"D  c #426758",
"F  c #446C5B",
"G  c #59635F",
"H  c #47705F",
"J  c #645F62",
"K  c #467261",
"L  c #4A7563",
"P  c #4C7867",
"I  c #4E7C69",
"U  c #547567",
"Y  c #517E6C",
"T  c #666364",
"R  c #676768",
"E  c #696969",
"W  c #6B716F",
"Q  c #63786F",
"!  c #6C7370",
"~  c #3E856B",
"^  c #41886E",
"/  c #52816E",
"(  c #4F8671",
")  c #558673",
"_  c #5A8071",
"`  c #578874",
"'  c #598A76",
"]  c #558F78",
"[  c #5A8D78",
"{  c #4F967B",
"}  c #5E937E",
"|  c #519A7E",
" . c #6B877B",
".. c #6B887C",
"X. c #74847D",
"o. c #62937F",
"O. c #5F9580",
"+. c #5F9D84",
"@. c #6E8E80",
"#. c #609681",
"$. c #649B85",
"%. c #699986",
"&. c #669F88",
"*. c #799086",
"=. c #7C958B",
"-. c #769C8C",
";. c #5BA78A",
":. c #61A087",
">. c #67A089",
",. c #6AA48D",
"<. c #6DAA92",
"1. c #79A190",
"2. c #71AE95",
"3. c #66B496",
"4. c #68B698",
"5. c #6CBB9C",
"6. c #72B097",
"7. c #75B49B",
"8. c #76B99E",
"9. c #78B99F",
"0. c #76BEA1",
"q. c #7ABDA2",
"w. c #7DC2A6",
"e. c #7FC4A8",
"r. c #83A294",
"t. c #85A798",
"y. c #81AE9B",
"u. c #8AB2A1",
"i. c #86B8A3",
"p. c #92BEAB",
"a. c #80C2A7",
"s. c #81C6AA",
"d. c #86C7AC",
"f. c #8DC4AD",
"g. c #82C9AC",
"h. c #83CAAD",
"j. c #83CAAE",
"k. c #84CBAF",
"l. c #88CAAF",
"z. c #8FC7B0",
"x. c #85CDB0",
"c. c #88CAB0",
"v. c #8FC8B0",
"b. c #89CCB1",
"n. c #8BCFB3",
"m. c #95C6B2",
"M. c #90C9B2",
"N. c #97CAB5",
"B. c #98C9B5",
"V. c #99CCB7",
"C. c #9ACEB8",
/* pixels */
"E R T *.V.m.V.t.Z E J r.C.m.N.=.C E E u.C.B.m.X.J T ! p.B.N.p.! T T X.m.m.C.u.T E Z =.C.m.V.t.C E E ",
"      z 5.3.5.^       b 5.3.5.x       { 5.4.3.r       ;.5.5.;.      e 3.3.8.|       z 5.4.5.~       ",
"> : . U l.d.b.%.  , . o.n.d.l._   : ; 2.n.x.a.N . + w q.l.l.9.w + . N d.h.b.2.+ >   U c.d.b.%.  , : ",
"j g a P 6.<.2.[ i j s ` 6.<.<./ i g g o.<.<.<.K a f c >.2.<.,.l f d F <.<.2.$.f k a I 6.<.<.[ a k k ",
"9.8.q.$.  9 o / q.8.q.`   8 2 } q.0.8.K   6 0 ,.q.9.6.h - & g 6.8.q.,.7 7   F q.8.q.$.X 7   / q.9.q.",
"q.q.e.&.  @   / e.q.e.`   X   $.s.q.e.F     - <.e.e.9.i     i 8.e.e.<.X     D e.q.e.&.  @   / e.q.q.",
"d.e.h.>.      I h.e.h.`       $.x.e.e.D       <.s.s.9.0     0 q.s.h.6.      c s.e.h.&.      Y x.q.h.",
",.>.,.} D F D ) ,.&.,.` D F D [ ,.&.,.Y D F F $.,.,.&.L F F K $.>.>.$.F F D Y >.>.,.[ D K D ` ,.&.,.",
"O     K e.9.e.}   %   ' e.q.w.I   X   >.s.q.q.l     8 6.e.q.6.7     j q.q.e.,.  #   K e.9.e.}   % O ",
"= @   K e.q.e.}   2   ' e.q.q.I   $ o >.e.q.8.l     0 6.w.e.6.9     k q.q.e.,.  &   K e.q.e.}   & * ",
"      F k.e.h.}       ' k.e.s.P       ,.h.s.e.f     @ 7.s.h.8.      f e.e.k.,.      H h.e.h.}       ",
"Y Y Y ` #.O.#.' I Y I ` $.} } ) I Y I ' $.} } / I Y Y } #.#.} Y Y I / } } O.} I Y Y ) $.} } ' I Y Y ",
"a.e.d.&.      Y h.q.s.`       $.h.e.e.D       <.s.e.9.y     y 9.e.e.<.      A e.q.s.$.      / h.q.a.",
"q.q.q.$.  5   Y e.q.q.`   2   } e.9.q.F   @ 6 <.e.q.7.s     s 8.q.e.<.2 &   D q.q.e.$.  2   / s.q.q.",
"a.e.h.&.      I k.e.h.`       $.k.e.s.D       2.h.s.q.0     8 q.s.h.6.      c h.e.h.&.      Y k.e.s.",
"' ` ` ` [ [ [ ' ) ` ) ` [ [ [ ` ) ` ` ' [ [ ' ` ) ) ) [ [ [ ' ) ) ` ) [ ' [ ' ` ) ` ` ' ' [ ' ) ) ' ",
"      K h.e.h.}       ' h.e.s.I       ,.h.e.q.g     - 7.s.h.7.$     g e.e.s.,.      K h.e.h.}       ",
"3 %   K e.9.e.}   4   ' e.q.q.I   & % >.e.q.9.l     0 2.w.q.6.0     k q.9.e.,.  2   K e.9.e.}   2 3 ",
"      F h.w.h.o.      ' h.e.s.I       ,.h.e.e.g     2 7.e.e.7.%     f e.e.h.,.      K h.e.s.}       ",
"$.$.$.} K K K ) $.$.&.' K K K ' &.$.$./ K P P } $.$.#.I P P I O.$.$.} P P K / $.$.$.[ L P K ) &.#.&.",
"a.e.h.&.      Y h.e.s.)       $.h.e.e.D       <.h.s.9.0     0 q.e.h.<.      c e.a.h.&.      / h.e.d.",
"q.q.e.&.  2   Y s.q.e.)   &   #.e.q.q.K     5 <.e.e.7.s     a 7.q.e.<.& @   F q.q.e.$.  2   / e.8.q.",
"a.q.a.&.  X   Y s.q.e.)       $.e.q.w.F     % <.e.q.8.i     i 8.e.e.<.      D e.q.s.$.      / h.q.a.",
"D c l Y <.,.,.[ k A c ` <.,.,./ k D c O.<.,.>.P c c F >.,.,.&.D c l P ,.,.<.#.c c c Y ,.,.<.' k A D ",
"      F x.e.h.}       ' h.e.a.P       ,.h.s.q.h     2 8.s.e.7.%     g a.e.h.,.      K h.e.h.}       ",
".     K a.q.e.}   $   [ s.q.w.I       &.s.q.q.j     8 6.e.e.6.7     j q.q.e.,.  o   K e.q.e.}   @ . ",
"8 6   P q.8.q.}   7 o ' w.8.q.I   6 6 &.q.q.8.c   2 u <.q.q.<.u 2   l 8.9.q.,.- 7   P q.8.q.[   7 7 ",
"6.2.6.#.y g i Y 7.<.6.` t f a } 7.2.2.I y s g &.6.6.<.c a i A <.2.6.&.g f u K 6.2.6.} u g u ) 6.<.6.",
"e.e.s.&.      Y h.q.s.`       #.h.e.e.D       <.s.e.q.y     y q.e.s.<.      c e.q.s.&.      / h.q.h.",
"e.q.s.&.      Y h.q.e.`       $.h.q.s.D     X <.a.e.9.u     y 8.e.s.<.      D e.e.s.&.      Y h.q.a.",
"6.2.7.#.0 s q / 8.2.2.` 8 f u } 7.2.6.P 0 i f >.7.6.<.l y y c <.6.7.,.s a 0 K 7.2.7.} q s q ) 8.2.7.",
"q 0 5 L q.6.0.} $ t 6 ' q.7.8.I $ 0 0 $.q.8.6.D 5 7 a <.q.9.<.a 8 5 c 6.8.q.:.7 q 2 P 8.6.q.[ $ q q ",
"      K e.q.e.}   X   ' s.q.e.I       ,.e.e.q.j     7 7.e.e.6.6     j q.q.s.,.      L s.q.s.}       ",
"      H h.e.h.}       ' h.e.e.P       ,.s.e.e.j     - 7.s.s.7.%     f a.e.h.,.      K s.e.h.}       ",
"A c l Y <.,.<.[ j A l ' <.,.<.) j A c #.<.,.,.L k c D >.<.<.&.D c k L ,.,.<.#.c c k ( <.,.<.[ j c D ",
"q.9.e.$.  6   Y e.9.q.'   5   } e.9.q.K   % 7 ,.e.q.7.f     s 7.q.e.<.5 2   F q.q.e.#.  5   / s.q.q.",
"i.q.e.&.  %   Y e.q.e.`   $   #.s.q.q.H     2 <.e.q.8.i     a 8.q.a.<.$     D e.q.a.&.  %   / s.q.q.",
"e.e.s.,.      Y h.e.s.)       $.h.e.e.D       2.h.e.0.0     9 q.s.h.2.      c s.e.h.&.      / k.q.d.",
"&.$.&.[ K L L ) &.$.&.` F P P ' &.$.$./ K L L #.&.&.o.I P K I $.$.&.} L L K ) $.$.&.[ L L K ) &.$.&.",
"      K s.q.s.}       ' h.q.e.I       ,.s.e.q.j     7 6.e.e.2.6     g q.e.a.,.      K s.q.s.}       ",
"- %   K e.8.e.}   2   ' e.q.q.I   % # >.e.q.8.l     0 2.e.q.2.0     k q.q.e.,.  -   P e.9.e.}   2 - ",
"      F h.e.h.}       [ x.e.s.I       ,.k.e.e.g     o 8.h.s.8.      a e.s.k.,.      K h.e.h.}       ",
"' ) ` ` [ ' [ ` ` ) ) ` [ [ [ ` ` ) ` ` [ [ ' ` ) ) ) ' ' [ ` ) ` ` ` [ ' ' ' ` ) ) ` ' ' [ ` ) ' ' ",
"a.e.s.&.      Y h.w.e.`       #.h.w.w.F       <.s.s.9.y     q 0.e.s.<.      A e.e.s.&.      / h.q.a.",
"q.q.e.$.  5   / e.9.e.)   2   #.e.9.q.H   $ 6 <.e.q.7.f     s 7.q.e.<.2 &   F q.9.e.&.  5   / e.q.q.",
"a.a.h.&.      I h.e.s.`       $.k.s.e.F       <.h.s.9.0     0 q.e.h.2.      c s.e.h.&.      Y x.q.h.",
"Y I I ) #.} #.' P I I ` $.O.o.) P I I [ $.} O./ L Y I } #.#.} I I P / } o.$.} I P P ) #.} $.' P I Y ",
"      K h.e.d.#.      ' h.e.s.I       ,.k.e.i.k     6 7.s.s.8.3     h e.a.h.,.      K s.e.h.o.      ",
"      v q.8.w.]       ( w.8.w.b       +.w.0.5.d     1 <.0.w.<.<     i 5.8.w.;.      v w.8.w.]       ",
"V B n  .v.f.c.1.p V m -.v.f.f.@.p B B y.v.f.f.Q n M G i.z.l.i.G B n Q f.f.v.y.m V n ..M.f.l.-.p B V "
};
