/* XPM */
static char *_a014c3e5bdc48e8e41bc5bbaae0edb0dHvQCnLodUIP8piR[] = {
/* columns rows colors chars-per-pixel */
"50 50 176 2 ",
"   c gray1",
".  c #040404",
"X  c gray2",
"o  c #060606",
"O  c #070707",
"+  c gray3",
"@  c #0B0B0B",
"#  c #0C0C0C",
"$  c gray6",
"%  c #1F050A",
"&  c #1D0C18",
"*  c #101010",
"=  c #111111",
"-  c #131112",
";  c gray7",
":  c #131313",
">  c #141213",
",  c gray8",
"<  c #151515",
"1  c gray9",
"2  c #181013",
"3  c #1A1113",
"4  c #1B1216",
"5  c #1C1214",
"6  c #181818",
"7  c gray10",
"8  c #1B1B1B",
"9  c gray11",
"0  c #1D1D1D",
"q  c gray12",
"w  c #24060B",
"e  c #2E050B",
"r  c #28060C",
"t  c #2F060D",
"y  c #310408",
"u  c #38060C",
"i  c #250C17",
"p  c #240D17",
"a  c #280C18",
"s  c #290D1A",
"d  c #2B0C1B",
"f  c #280C1C",
"g  c #261216",
"h  c #271217",
"j  c #271317",
"k  c #25131B",
"l  c #391017",
"z  c #391118",
"x  c #2E0E28",
"c  c #2F0F29",
"v  c #330E22",
"b  c #340E22",
"n  c #320D24",
"m  c #22102E",
"M  c #22112F",
"N  c #321321",
"B  c #371225",
"V  c #381325",
"C  c #381327",
"Z  c #391327",
"A  c #34142E",
"S  c #38132A",
"D  c #39142A",
"F  c #232323",
"G  c gray15",
"H  c #2C2426",
"J  c #282828",
"K  c #2B2C2C",
"L  c #48050D",
"P  c #48060E",
"I  c #56060D",
"U  c #4C0F17",
"Y  c #510E16",
"T  c #510F17",
"R  c #5E0D15",
"E  c #5E0E15",
"W  c #4D1018",
"Q  c #66040A",
"!  c #790305",
"~  c #6E0C12",
"^  c #790B13",
"/  c #780C16",
"(  c #7B0C17",
")  c #54122E",
"_  c #5B112C",
"`  c #6E0E2D",
"'  c #7A0D2E",
"]  c #740F34",
"[  c #780F32",
"{  c #6D1139",
"}  c #731036",
"|  c #7C1139",
" . c #49243B",
".. c #381440",
"X. c #2E1B5B",
"o. c #3B1955",
"O. c #46164A",
"+. c #46174B",
"@. c #46174C",
"#. c #4C1548",
"$. c #541547",
"%. c #5C1443",
"&. c #591445",
"*. c #5F1446",
"=. c #411852",
"-. c #631340",
";. c #621444",
":. c #850B14",
">. c #880B15",
",. c #9E0719",
"<. c #9D081B",
"1. c #A20309",
"2. c #A50309",
"3. c #A5040A",
"4. c #BA0309",
"5. c #B8030B",
"6. c #B0091F",
"7. c #9B0D2B",
"8. c #9E0C2A",
"9. c #8E0E31",
"0. c #A52639",
"q. c #C40001",
"w. c #C40103",
"e. c #CA0000",
"r. c #CF0206",
"t. c #C6040C",
"y. c #C9030B",
"u. c #CF0208",
"i. c #C60909",
"p. c #D20000",
"a. c #D40000",
"s. c #D30206",
"d. c #DA0000",
"f. c #DD0000",
"g. c #D80309",
"h. c #D51717",
"j. c #D91313",
"k. c #DC1111",
"l. c #DD1111",
"z. c #E10000",
"x. c #E70000",
"c. c #EA0000",
"v. c #E80207",
"b. c #E40208",
"n. c #F50000",
"m. c #F60000",
"M. c #FA0000",
"N. c #FE0000",
"B. c #FF0606",
"V. c #FF1212",
"C. c #FF1D1D",
"Z. c #CF201F",
"A. c #D62727",
"S. c #D73A3A",
"D. c #E12121",
"F. c #E12626",
"G. c #FE2524",
"H. c #E73636",
"J. c #EC3E3D",
"K. c #D94E4D",
"L. c #DC5F5E",
"P. c #FD4343",
"I. c #FF4343",
"U. c #FF4747",
"Y. c #FF4D4D",
"T. c #FD5050",
"R. c #FE5A59",
"E. c #FC6160",
"W. c #FB7776",
"Q. c #FA8583",
"!. c #FB8685",
"~. c #FC9694",
"^. c #FBA4A2",
"/. c #FBA6A4",
"(. c #F7B2B0",
"). c #F8FFFB",
/* pixels */
"; ; ; $ ; ; ; $ ; * * ; * ; ; ; ; ; ; $ ; $ ; ; * $ ; ; ; $ $ $ ; ; ; $ > ; ; ; ; ; ; ; ; * ; ; ; ; ",
"; ; ; ; ; ; ; > 3 : 5 5 3 3 4 5 3 3 3 ; ; ; ; $ ; ; ; ; ; $ ; 3 < < > 2 3 5 3 3 3 H F ; * ; * ; * ; ",
"J 1 ; ; 1 ; ; C X.X.X.9.N.N.N.N.N.N.N.W : ; ; : ; ; ; G 8 ; B X.X.X.| N.N.N.N.N.N.N.R ; ; ; ; ; ; $ ",
"F 1 ; ; ; ; ; S X.X.X.9.N.N.N.N.N.N.N.W : : ; ; ; ; : 7 1 : C X.X.X.9.N.N.N.N.N.N.N.R ; ; ; * ; * ; ",
"; 1 ; ; ; ; > S X.X.X.9.N.N.N.N.N.N.N.W 1 ; : : ; ; ; ; : ; C X.X.X.| N.N.N.N.N.N.N.R ; ; ; ; ; ; ; ",
"; : : 5 S C C _ { { { 6.N.N.N.N.N.N.N.( Y Y Y 5 : 1 : C C D ) ;.;.;.8.N.N.N.N.N.N.N.>.T T T 5 > ; ; ",
"; 1 ; N X.X.X.] w.w.q.f.N.N.N.N.N.N.N.N.N.N.N.k : : k X.X.X.;.N.N.N.N.N.N.N.N.N.N.N.N.N.N.N.z : ; ; ",
": ; 1 N X.X.X.] w.w.w.z.N.N.N.N.N.N.N.N.N.N.N.g : : k X.X.X.;.N.N.N.N.N.N.N.N.N.N.N.N.N.N.N.z ; ; ; ",
": ; 1 d X.X.X.] w.w.w.f.N.N.N.N.N.N.N.N.N.N.N.g : : k X.X.X.;.N.N.N.N.N.N.N.N.N.N.N.N.N.N.N.l ; ; ; ",
"A A A ) ' ' ' 0.L.L.L.J.C.C.C.C.C.C.C.B.N.N.N.^ ~ ~ / | | | 7.N.N.N.N.N.N.N.N.N.N.N.N.N.N.N.:.~ ~ ~ ",
"X.X.X.&.w.4.w.K.).).).^.Y.Y.Y.Y.Y.Y.Y.V.N.N.N.N.N.N.N.N.N.N.N.N.N.N.N.N.N.N.N.N.N.N.N.N.N.N.N.N.N.N.",
"X.X.X.&.w.w.w.K.).).).^.Y.Y.Y.Y.Y.Y.Y.V.N.N.N.N.N.N.N.N.N.N.N.N.N.N.N.N.N.N.N.N.N.N.N.N.N.N.N.N.N.N.",
"X.X.X.&.w.w.w.K.).).).^.Y.Y.Y.Y.Y.Y.Y.V.N.N.N.N.N.N.N.N.N.N.N.N.N.N.N.N.N.N.N.N.N.N.N.N.N.N.N.N.N.N.",
"X.X.X.&.w.w.w.A.W.W.W.!.^.^.^.T.C.C.C.B.N.N.N.N.N.N.N.N.N.N.N.N.N.N.N.N.N.N.N.N.N.N.N.N.N.N.N.N.N.N.",
"X.X.X.&.w.4.q.h.Y.Y.Y.~.).).).E.N.N.N.N.N.N.N.N.N.N.N.N.N.N.N.N.N.N.N.N.N.N.N.N.N.N.N.N.N.N.N.N.N.N.",
"X.X.X.&.w.w.q.h.Y.Y.Y.~.).).).E.N.N.N.N.N.N.N.N.N.N.N.N.N.N.N.N.N.N.N.N.N.N.N.N.N.N.N.N.N.N.N.N.N.N.",
"X.X.X.&.w.w.w.h.Y.Y.Y.~.).).).E.N.N.N.N.N.N.N.N.N.N.N.N.N.N.N.N.N.N.N.N.N.N.N.N.N.N.N.N.N.N.N.N.N.N.",
"X.X.X.&.4.w.w.S.(.(.(.!.R.R.R.G.N.N.N.N.N.N.N.N.N.N.N.N.N.N.N.N.N.N.N.N.N.N.N.N.N.N.N.N.N.N.N.N.N.N.",
"X.X.X.&.q.q.w.K.).).)./.Y.Y.Y.C.N.N.N.N.N.N.N.N.N.N.N.N.N.N.N.N.N.N.N.N.N.N.N.N.N.N.N.N.N.N.N.N.N.N.",
"X.X.X.*.w.w.w.K.).).)./.Y.Y.Y.C.N.N.N.N.N.N.N.N.N.N.N.N.N.N.N.N.N.N.N.N.N.N.N.N.N.N.N.N.N.N.N.N.N.N.",
"X.X.X.&.w.4.q.K.).).)./.Y.Y.Y.C.N.N.N.N.N.N.N.N.N.N.N.N.N.N.N.N.N.N.N.N.N.N.N.N.N.N.N.N.N.N.N.N.N.N.",
"X.X.X.&.w.w.q.i.Z.Z.Z.H.Y.Y.Y.U.I.I.I.k.e.e.e.M.N.N.N.N.N.N.N.N.N.N.N.N.N.N.N.N.N.N.N.N.N.N.N.N.N.N.",
"X.X.X.&.w.w.q.4.w.w.w.A.Y.Y.Y.Y.Y.Y.Y.j.q.w.w.M.N.N.N.N.N.N.N.N.N.N.N.N.N.N.N.N.N.N.N.N.N.N.N.N.N.N.",
"X.X.X.&.w.w.q.w.w.q.q.F.Y.Y.Y.Y.Y.Y.Y.j.w.w.w.M.N.N.N.N.N.N.N.N.N.N.N.N.N.N.N.N.N.N.N.N.N.N.N.N.N.N.",
"@.o.=.-.w.w.w.w.w.w.w.D.I.I.I.I.P.I.I.k.e.e.e.N.N.N.N.N.N.N.N.N.N.N.N.N.N.N.N.N.N.N.N.N.N.N.v.b.b.b.",
"$ @ @ d X.X.X.] q.q.w.f.N.N.N.d.w.w.w.n.N.N.N.N.N.N.N.N.N.N.N.N.N.N.N.N.N.N.N.N.N.N.N.N.N.N.t     O ",
"$ @ @ a X.X.X.] w.5.q.z.N.N.N.d.w.w.w.c.N.N.N.N.N.N.N.N.N.N.N.N.N.N.N.N.N.N.N.N.N.N.N.N.N.N.t       ",
"@ @ @ a X.X.X.} w.w.w.z.N.N.N.d.5.w.w.n.N.N.N.N.N.N.N.N.N.N.N.N.N.N.N.N.N.N.N.N.N.N.N.N.N.N.e O O   ",
"@ @ @ i @.O.O.] 5.5.5.s.n.c.n.f.p.p.p.c.c.n.c.N.N.N.N.N.N.N.N.c.c.n.n.N.N.N.N.N.N.N.g.t.t.t.w       ",
"@ @ @ O @ o $  .X.X.X.' w.w.w.x.N.N.N.p.w.w.w.M.N.N.N.N.N.N.n.q.w.w.d.N.N.N.N.N.N.N.I O O     O O O ",
"@ @ @ @ O @ O n X.X.X.' w.5.w.x.N.N.N.p.w.w.q.M.N.N.N.N.N.N.n.w.w.w.d.N.N.N.N.N.N.N.I     O   O   O ",
"@ $ @ @ @ @ O n X.X.X.' q.q.w.c.N.N.N.p.w.w.w.M.N.N.N.N.N.N.c.w.w.w.d.N.N.N.N.N.N.N.I O O   O   O   ",
"$ @ $ @ @ o @ s ......` ,.,.,.u.c.x.x.d.d.a.d.x.x.x.c.N.N.N.n.d.d.d.c.N.N.N.s.2.2.2.u O . O . . O O ",
"$ @ @ @ @ @ O @ + o o M X.X.X.<.q.q.q.n.N.N.N.e.w.w.q.N.N.N.N.N.N.N.N.N.N.N.! o .   . . . . . O O K ",
"$ $ $ @ @ @ @ @ @ + o M X.X.X.<.w.5.w.n.N.N.N.q.w.w.e.N.N.N.N.N.N.N.N.N.N.N.! O . . O O . O . O . O ",
"; $ $ $ $ @ @ @ @ o # M X.X.X.<.w.w.w.c.N.N.N.e.w.w.e.N.N.N.N.N.N.N.N.N.N.N.!   . .   . . . . . . O ",
"; ; ; * $ @ @ @ @ @ @ & c c c ` ' ' ' s.d.a.d.x.x.x.x.d.d.a.z.N.N.N.w.Q Q Q e   . . O . O O . . . . ",
"; ; ; ; $ $ $ @ @ @ @ @ @ o o ..X.X.X.5.w.w.w.M.N.N.M.w.w.q.p.N.N.N.1.  O     O . .   . . . . O O . ",
"> ; ; ; ; $ $ $ $ @ @ @ @ O @ ..X.X.X.4.w.w.q.M.N.N.M.w.w.w.e.N.N.N.1.+   O     . .   . . O . O O . ",
"1 1 : : ; ; ; $ $ $ @ $ @ @ @ ..X.X.X.5.w.w.q.M.N.N.M.q.w.w.p.N.N.N.1..         . . O O . . . . . . ",
"1 1 1 ; : ; ; ; $ $ $ $ @ @ @ s n n v } { { { a.p.p.p.n.c.n.r.L L L e   .   . . . . O K O . O . . O ",
"7 7 1 1 1 1 : : ; $ $ $ $ @ $ @ @ @ + O.X.X.X.q.w.w.w.N.N.N.y.  .     .   . . . . . . O . . O . . . ",
"7 7 7 7 1 1 1 : ; ; ; ; $ $ $ $ @ @ @ O.X.X.X.q.w.w.w.N.N.N.y.  . .   . .   . . . . . . . .   . . O ",
"7 7 7 7 7 7 1 1 1 1 ; ; $ $ $ $ # $ # O.X.X.X.q.w.w.e.N.N.N.t.  . .       .     . . . . . . . O . O ",
"8 9 9 9 7 7 7 1 1 1 > ; ; ; ; $ $ $ @ p s a a %.$.$.&.r r r % o . . . .     . . . . . . . . . . . . ",
"9 9 9 9 8 7 7 7 1 1 1 1 ; ; ; ; $ $ $ # # @ @ o.X.X.o.o o   o   . . . . . . . . . . . . . .   O O . ",
"9 9 9 9 8 8 7 7 7 7 1 1 ; 1 ; ; ; $ $ # # # @ o.X.X.o.o O o o o . . . .   . . . . . . . . . . . O . ",
"9 F 9 9 9 9 7 7 7 7 7 1 1 1 1 ; ; $ $ $ $ # $ #.O.O.#.o O o o   . . . .   .     . . . . . . . . . . ",
"F 9 F 9 9 9 9 9 9 9 8 7 1 1 1 1 ; ; ; $ $ $ @ @ @ @ @ @ o O O o . . . .     .   . . . . . . . . . O ",
"q q 9 q 9 q 9 9 9 9 8 7 7 1 1 1 1 ; ; $ $ $ @ $ @ @ @ o @ O O O . O . . . . .   .   . . . . . . . . "
};
