/* XPM */
static char *_a67bd7cd85d4173b54667ea41314cc5rd0jdexYN56lpyQo[] = {
/* columns rows colors chars-per-pixel */
"50 50 48 1 ",
"  c #070706",
". c #070707",
"X c #090907",
"o c gray3",
"O c #090909",
"+ c #0A0A08",
"@ c gray4",
"# c #0B0B0B",
"$ c #0C0C0B",
"% c #0C0C0C",
"& c gray5",
"* c #0E0E0D",
"= c #0E0E0E",
"- c #11110F",
"; c #101010",
": c #111111",
"> c gray8",
", c #151515",
"< c #161616",
"1 c gray9",
"2 c #181818",
"3 c #181919",
"4 c #191919",
"5 c gray11",
"6 c #1D1D1C",
"7 c #1C1D1D",
"8 c #1D1D1D",
"9 c #1E1E1E",
"0 c gray12",
"q c #202020",
"w c #222122",
"e c #232323",
"r c gray14",
"t c #252525",
"y c #272727",
"u c #282728",
"i c #272828",
"p c #282828",
"a c gray16",
"s c #292A2A",
"d c gray17",
"f c #2C2B2C",
"g c #2B2C2C",
"h c #2C2C2C",
"j c #2D2D2D",
"k c #343535",
"l c #3E3E3E",
"z c #454646",
/* pixels */
"**$$$#####o## #  ooo.  ...o...ooooooo.OOOOOO#O# #X",
"*$$$$#### # #o#   # ..oo..oo...ooooooo oO88O#XO#X&",
"e-#####X##o##  #oo  .......5=. oooooooo o#&OO Xo#o",
"6-###$X##o##     o  .......##...o  oooooOoOOO##O##",
"#####X#Xoo== ...o  o........ o......   oooo.Oo#oo#",
"$X###X#X o>3o... oo ........oo......ooo.oooo # #o#",
"###XX#  oo . o..oo o....................o..o  oo#o",
"###XX  #oo ..o..o o .................... ooooO# oo",
"XX# ooo  o o................................oooo O",
"X## oo oo o ................................oooO#O",
"# ##oo oo o .. o.......................... oooooOO",
" #e;oooooooo..o ........................oooooooo  ",
"# oooooooooooo o................oo..oooooooooooo O",
"  oooooooooooooooooooo.........ooooooooooooooOooo#",
"oooooooooooooooooooooooo....ooooooooooooooooOOOO#o",
"ooooooooooooooooooooooooooooooooooooOOOOOOOoOOOO #",
"OOOOOOOOOOOOoOOOoooooo#o#Ooo#OooOOOOOOOOOOOOOO#&##",
"OOOOOOOOOOOOOOOOoo#ooOOoO#O#O#&##OOOOOO&O#OO&OOO#&",
"OOOOOOOOOO#OOOO##oo#o##o##Oo#Oo#OO#O&O&O&O&OOO&O# ",
"OOOOOOOOOOO#OOO&##o#&#O&&o#&&#o&&O&O#O#O#O#O&O#O##",
"3OOOOOOO&O&O#&OO&#&#&####&#&#&#O#&#&&#&&&##O&O&###",
"&&#&&O&&&&&&&&&&#&#===&==#&#&#=#&&&##&#&#&&&&&&&#&",
"O&&&#&&#&#&&&&&&&#&#&#=&=&#&#==&*&:&&&&&&&&&&&&&**",
"&&&&&&&&&&&&&&*&#:========:#:====&&&&&&&&&&:&:&&**",
":&&:&&:&&:&&:&:&:==:;;===>==>>#=&:&&:&*:=;=;:*:*=:",
"::::::::::::::*:=;;=;=::==>====>::::::=:;;;;=:=:=:",
"::::::::::::::::>:::;>::>=>:>==>:::,::::>;;;;;:::=",
",>,:,:,::,:::::,:::>::::>>>=>>=>::86:::,;;;,>;:::>",
",,,,,,,,,,,,:>:,>>>:>=3>s7>>>=,>,;48,;;,3;;,,,:,>,",
"4,3,,,8k,,,,,,,,>>>>>,>,,>>>>>>>,,,,,,,,,,,,:,,,,,",
",44,4,4,,,,4,,,,,,,3,,,,,,>,3>>>,,,,,,,,,,,,,3,,3,",
"888,84,44,3,3,3,3,3,,3,,,3>>3>3>,4,,,,,,,3,3,,33,3",
"8888844444444434334,4,44,4,4,4,,4,4,1,4,4444144136",
"8888888448844444333444444441344444444441444444443l",
"ew60986688888444333344844444444444444444445448846e",
"wwww0e96988888885767844484848444844384885485888866",
"ueeeeeee8e8e88886979766655658488848885888888888066",
"ttteeeeee9e98ee90060666585668888888888880808908e6e",
"uetttttteeeee9e96066000588868808888888e8e88800e86e",
"susuttttewweeeeeeeee0e00w8w0e8e8e8e8088ee0eee0eee6",
"ppptppptttettteerrrrrqrrr00r000re66e6w6t0eyzeeeeee",
"pjppttftusfettttttrrrrrtr0rrrrrreeeettwweeeeeeeeee",
"ppjppjpstusfftttrrrrrtrtrrrrrrrreeetwttteeeeeeeeee",
"ppppppspssseeussraaarrttrrarrrrrtttttttteeeeweeeee",
"pppdjpppppppsstfaaaataaaarrararrttsttttttttteeuete",
"tpppspjjjjjpsftfdpaaaaaaaaaaaaaapttpfwptsefeyuttet",
"tpdpjpdpdppjjpjfaddaaaaaaaaaaaaaptspsftssutsefttte",
"ttppspsdjjjffjffdddddddadsaaadasfspstsstftsusttttt",
"ttppppjddjdjdjjdjddjddddddddddddpppjppfpppptpatptt",
"tttppdpddjjdjdjjjjjjjjjdjdjdddddjjpfpjpppfdppptttt"
};
