/* XPM */
static char *f68902a1563b4babee9d78d63e597a4b6MJo67CnIASCp8eo[] = {
/* columns rows colors chars-per-pixel */
"50 50 250 2 ",
"   c #000000",
".  c #080607",
"X  c #110B0D",
"o  c #071500",
"O  c #151716",
"+  c #1C1C1C",
"@  c #250400",
"#  c #2B070D",
"$  c #052513",
"%  c #2C2611",
"&  c #000127",
"*  c #10102D",
"=  c #310F2F",
"-  c #0C2725",
";  c #242424",
":  c #2B2524",
">  c #2C2C2C",
",  c #2F2F30",
"<  c #333333",
"1  c #393835",
"2  c #3C3C3C",
"3  c #490101",
"4  c #5C0000",
"5  c #4A1217",
"6  c #660000",
"7  c #6F0D10",
"8  c #513611",
"9  c #782800",
"0  c #500A2F",
"q  c #5D0933",
"w  c #4C1739",
"e  c #441C3A",
"r  c #640B2C",
"t  c #711822",
"y  c #48233A",
"u  c #562539",
"i  c #4F3838",
"p  c #682B2A",
"a  c #75312B",
"s  c #692835",
"d  c #732F31",
"f  c #673837",
"g  c #7A3835",
"h  c #1E5E14",
"j  c #3D433F",
"k  c #317633",
"l  c #4C7702",
"z  c #4A4939",
"x  c #7E4635",
"c  c #597338",
"v  c #00005B",
"b  c #353547",
"n  c #00006B",
"m  c #000276",
"M  c #162E78",
"N  c #3B3A73",
"B  c #621C58",
"V  c #4E3447",
"C  c #39444E",
"Z  c #444444",
"A  c #494746",
"S  c #4B4B4B",
"D  c #4B4C52",
"F  c #534852",
"G  c #535353",
"H  c #575659",
"J  c #5B5B5B",
"K  c #73554C",
"L  c #6C6855",
"P  c #595A61",
"I  c #586568",
"U  c #636363",
"Y  c #666967",
"T  c #6B6B6B",
"R  c #6D7173",
"E  c #747474",
"W  c #787978",
"Q  c #7C7C7C",
"!  c #813D35",
"~  c #8D4D08",
"^  c #8D4C2F",
"/  c #854437",
"(  c #9B5938",
")  c #A45C31",
"_  c #956A32",
"`  c #AB6234",
"'  c #B96C37",
"]  c #D27E0F",
"[  c #864E49",
"{  c #956656",
"}  c #8B7253",
"|  c #B46D49",
" . c #B27151",
".. c #937868",
"X. c #C77B50",
"o. c #37A100",
"O. c #5F8F17",
"+. c #719638",
"@. c #6EAE49",
"#. c #64B161",
"$. c #8CAD00",
"%. c #86A736",
"&. c #D28537",
"*. c #E99637",
"=. c #E9903B",
"-. c #FAA43A",
";. c #8FDA07",
":. c #A5E809",
">. c #95D22C",
",. c #A3E738",
"<. c #AAF130",
"1. c #EEEE14",
"2. c #918571",
"3. c #AC9174",
"4. c #D38558",
"5. c #E9984E",
"6. c #D09370",
"7. c #E69667",
"8. c #F39E67",
"9. c #DCA57C",
"0. c #E8A67B",
"q. c #F1A77A",
"w. c #89C74D",
"e. c #9BDE59",
"r. c #9BE547",
"t. c #9BE455",
"y. c #9DE25A",
"u. c #A3E649",
"i. c #B3EC4C",
"p. c #A3E859",
"a. c #99DC67",
"s. c #97DE7D",
"d. c #87E060",
"f. c #9CE466",
"g. c #A4EA66",
"h. c #BBE462",
"j. c #E0E27B",
"k. c #182392",
"l. c #070FA2",
"z. c #3035AE",
"x. c #4E2692",
"c. c #503AA3",
"v. c #00498E",
"b. c #3D4B9D",
"n. c #3D53AD",
"m. c #515491",
"M. c #644F9B",
"N. c #757B89",
"B. c #4749AA",
"V. c #4552A8",
"C. c #5C4AB5",
"Z. c #4554B7",
"A. c #5252B4",
"S. c #6547AC",
"D. c #6849B6",
"F. c #7256B5",
"G. c #4F6CA1",
"H. c #656EB3",
"J. c #2E79CF",
"K. c #827788",
"L. c #0085B0",
"P. c #768B8A",
"I. c #70AA92",
"U. c #7E84B2",
"Y. c #76B8AB",
"T. c #7EC8AB",
"R. c #7BC6B9",
"E. c #0B92EA",
"W. c #169BEB",
"Q. c #3D98EA",
"!. c #4693D3",
"~. c #549AD7",
"^. c #7E85C6",
"/. c #59ACD9",
"(. c #4FA8EE",
"). c #4BAAF8",
"_. c #6AAFE8",
"`. c #76C5D4",
"'. c #74C3D8",
"]. c #6CC5E2",
"[. c #848484",
"{. c #888887",
"}. c #8B8B8B",
"|. c #908C8C",
" X c #97918E",
".X c #8E9194",
"XX c #949494",
"oX c #99979A",
"OX c #9C9C9B",
"+X c #A29894",
"@X c #BDA786",
"#X c #A6A59D",
"$X c #9294A3",
"%X c #9FA1A3",
"&X c #A4A4A4",
"*X c #A8A6A7",
"=X c #ABABAB",
"-X c #B0ACB1",
";X c #B3B3B3",
":X c #B9B7B6",
">X c #BCBBBB",
",X c #CCAE8F",
"<X c #D3BB99",
"1X c #EBB086",
"2X c #E8B996",
"3X c #C0AFB7",
"4X c #8FD689",
"5X c #AAD786",
"6X c #88D2AC",
"7X c #B7C2BB",
"8X c #CDC292",
"9X c #EACA9F",
"0X c #F5C79C",
"qX c #CFE68A",
"wX c #C7D6AA",
"eX c #EDCFA7",
"rX c #F6CDA2",
"tX c #EDD2AA",
"yX c #F3D5AC",
"uX c #F8D7AB",
"iX c #F6DAB2",
"pX c #FADDB3",
"aX c #EEE3A8",
"sX c #FDE1B7",
"dX c #FDE3B9",
"fX c #FBE7BA",
"gX c #8E94C3",
"hX c #9CA2D3",
"jX c #BFBFC0",
"kX c #B2C3CE",
"lX c #C3C3C3",
"zX c #CAC6C9",
"xX c #CBCBCB",
"cX c #CED1D6",
"vX c #D3D3D3",
"bX c #D8D7D6",
"nX c #DCDCDC",
"mX c #D1EFC6",
"MX c #F7EECD",
"NX c #DEDFE0",
"BX c #E0DFE0",
"VX c #E3E3E3",
"CX c #E7E7E8",
"ZX c #EBEBEB",
"AX c #EFEFF2",
"SX c #F3F3F3",
"DX c #F7F8F7",
"FX c #FDFDFD",
"GX c #FEFEFE",
"HX c white",
/* pixels */
"HXZXS oXHXnXZ =XHXvX> >XHXlXO vXHX=X, CXHXXXH SXDX{.  %XnXT XXHXnX+ :XFXlX+ xXHX;X1 bXHX*XS CXHX[.2 ",
"HXSX    HXHX    HXSX  T HXvX  *XHX=X  &XxX,   SXHXj   G XX  oXHX>X  kXFXXX  VXHX<   HXHX    HXHX;   ",
"G [.zX>XlXVX&X2 bXHX[.  SXHX  A HXVX        2 VXSXJ   2     wXHX}.  HXHX  J HXVX  XXFXxX{.;X>X=XCXSX",
"<   CXHX>X  =XHXlX{.=XlXzXvXoX[.CXNX2   f t   I R O   y g @ Y nX%XU nXbX;X=X;XlXnX;X1 lXHX>X  Q HXHX",
"HXnX>XnXvX  G HXSX  Q HXlX  zXHX}.T >X  p / 5 @   # = y K d # % zXbX. XXnX|.  CXHXZ   SXHXoX}.;X}.1 ",
"SXHXlX  U nXzXlXVX{.  SXHX  W HX;X  ;X> 4 g g / [ V y w s ! [ . :X:X  =XT   Y HXNX[.=X=X[.ZXHX=X  Z ",
"  [.;X[.  ZXHX=X  >XCX>XlXoXE SXVX. Q 2 4 [ g g d q w V w s g a U . {.jX  OXjXE ;XHXlX  J HXCX>XnXHX",
"U   J HXDX>XxXlX  W HXnX  7XHX%XW oXT   p g g d / ` ^ w e s g ! 9 ~ |.U   lX|.  CXHX=X=X>XG   SXHXSX",
"HXCXwXnXHXxX  G CXzXxXVX  U HX7X  H +   p d s q ( *.' 0 y u ^ q ' -.x   p # - OX&XW SXHXoX  {.;XE   ",
"ZXHXFX> > OX*X2 CXHXOX  zXvXzX:X  = X o 0 ) =.( ^ *.*.&.^ 0 f 0 ' -.x x 5.6 P.xX  E SXxXxXHXHX    E ",
"  H &X$X;   HXHXlX:XlX  &XHX*X  V y y @ 0 ( =.) / =.*.X.^ w s q ` &.[ ! 5.~ R {.XXOX    HXHXvXzXSXHX",
"{.<   VXHXnXlXSXnX  Z ZXvXvXzX  ; = w e e u ! s ) -.&.s / x g x ! ! g g ! 5     Z   U =X}.  {.HXHXnX",
"HXHXnXlXCXHX*X  E >X[.VXHXW   T   y w e e u d d ! ) ^ r t t t t 7 7 ! d w s f X Z zXHXlX  E =X{.+   ",
"vXZXHX;X  S &X&X; CXHXlX[.*X    ; = y i w w g a ! [ { { { { { { { ..! s = d K   .XHXvXxXSXHX>X  J %X",
"    H =X=X2 Q HXHXzX;XvX  < J   V O     = V i 3 { rXpXyXiXpXiXrXZXHX}.. F .   lX&X    VXHXlXlXSXHXHX",
";X{.  OXHXHXZX&XvXxX    CXvX  > u   L ,XK & V ^ 6.uXdXpXpXpXpXuXdXMX,X( . H bXHX&XoXxXY     nXHXBXlX",
"HXHXHXbXoXxXCXG   1 ZXzXvXDXU   V   3.dX3.. V  .1XyXyXtXiXuXiXpXiXeXq.4.  .X;XE SXHXAXE OXbXXX      ",
"=XzXZXnX      bXCX>XnXHXxX  }.oX.   2.iX1X' &  .4.#   K tXMXiXdX9X7.^   > +   {.>XY oXHXHXHX[.T *XzX",
"      U SXnX:XxXSXHXoX  [.jX-XbXOX  ..dX0X9.{ X.0.-XP.l 3.1X2X0X,X| c k   >XHXvX  2 *X>X}.G SXHXHXHX",
"bXlX*XoXZXHXHX;X  + =XxX%XAXHX$XJ C 2.pXsXeX8.=.2XHXmXo.o ! 7.8. .o k @.  =X=XlXHXHX:X    Y vXxX-XoX",
"HXHXHXHX    A =XvX&X;XHXHX[.  *XlXzX7X5 % _ 7.7.0.iXfX9X4.1XyXiX2X4.7.4.    y 3XxXOXxXSXHXHX        ",
"Q .X*X;X=XoXY =XHXHXVX  ; >XnXwXBXoXo +.M m.' 4.0.yXsXiX1X9XpXdX0X7.4.~ U CXHXK.    zXZXnXlX>XxXnXVX",
"        FXFXHXNX  ; Q VXzX7XVX=X    O.i.].W.  _ 0.yXsXuXsXsXuXsXeX6.8 I ;X&X#.VXHXHX[.      HXHXHXHX",
"SXZXCXBXXX.X%X-XwX=X=XVXlXb   l a.w.w.p.g.T.~.m.~ 0.0XdXdX0X0.1X4.r =XBX=XQ XXlXlX;XlXxXnXvX[.T Y H ",
"HXHXHXHXH     [.HXHXSX    } c @.p.p.p.y.:.s.`.L.N | 6.8X<X@X' X._ k C   vXHXDXJ     VXHXHXAX1   ; < ",
"> +   > SXHXHXVX  A Z   ,XfXy.r.y.e.y.y.a.r.:.`.Q.-     . . o   +.h.h W OXX A AXHXHX[.    J HXHXFXHX",
"J U E [.vXnXxXlX:XI   <XeXfXaXqXr.u.u.e.f.p.e.4X4Xw.w.w.>.I.!.J.Y.,.l * 7XbXvX;X;XlX=X&XXXoXVXCXZXSX",
"HXHXHXHX      Q HX+X^ uXeX<X<X8Xw.4Xs.i.p.e.y.,.,.y.p.p.<.6X).).'.4Xk D xXnXNXW O   nXHXHXHX        ",
"VXnXxX>XlXnXCXwX  | 7.7.(   j   & E.kX1.h.d.t.f.e.e.e.a.>.6X(.(.Q.).v XX-X;   VXHXHX=XY XX=X:X*XXXQ ",
"        HXHXjX.X@X0X2X7 3 =X>XW   !._.kXj.1.,.r.y.e.,.,.i.I.v.v..X3X6.9 C nXDXlX;XnX&XD     HXHXHXHX",
"oX;XcXvXR G   } MXyX<X#.=X{.[.OX. ~.Q.E.wXj.4Xa.t.t.s.s.e.O.L z 7 ] 8.4.3 }.CX}.    jXHXHXZXoX*XlXvX",
"HXHXHXAX;   <XdXyX..b ZXNX;X7X% & /.).(.(.Q.(.6X:.e.`.Q.$ #XcX#XI   X.7.7.4       b wXlXnXSXH       ",
"lX=XU oXnX  1X0XdX<X3.T =XHXCX[.  ~.).Q.`.T.R.4X,.t.6XR.. &X-XU nX-X6 3.0X<X@X,X9.@XXX      BXZXxX=X",
"      oX:X  ` 6.yXdXyX  S S xXbX  /.(./.s.:.,.r.f.y.<.;.c . T nXCXlX& x yXsXsXeXfXiX  OXvXoXnXHXHXHX",
"lXnXHXvX  > @ { q.rXuX    oX}.z & Q._.e.f.f.g.r.;.;.t.a.h F OXSX:X    _ 7.rXeX  ,XfX  %XHXHXXX  {.:X",
"HXHXSXlXkXDX=X  ~ 3.3.H SXSX  A & G.P.$.%.%.%.wXmXmX5X%.  J HX>XQ ;X.XoX^ 9.2X  L @XlXY S =X*XG     ",
"&XY   >XHXSXvX>XI     =XBXxXSX[.  x q B q q 0 zXHXSX-X3 & D CX>X  DXDXF &  .X.z <   &X*XG   >XHXAXxX",
"    [.=XQ   xXHXlX;XnXR   CXHX2.  m.V.V.B.V.A.U.^.gXH.b.B.m.  }.vXvXvX1 T +X3   P..X  *XHXCXlXnXHXHX",
"nXHXHX[.  {.=XY &XHXHXE $XOX[..Xm V.Z.n.A.B.k.m m m z.C.Z.b.v   CXnX  7XVXQ P.G   nXAXzXnXHXnX  ; }.",
"HXSXzXvXHXHX    *X>X=XHXvX    N Z.V.Z.B.S.c.  % < o N S.B.Z.H.  }.NX  oXHX:X  jX:XlXHXHX  + OX*XG   ",
"W     HXHXcXzXDXW   vXHX}.  M.c.n.n.Z.D.n H VX=X  VX-X& S.C.n.Z.M z xXvXxXlX  oXHXVXG &X&X+ > HXHXCX",
"  E ;X|.  &XHXSXQ *XOX{.#X  S.C.A.A.c.M.  U HX:X2 HX7X  S.C.B.A.m.  lXHXT Z CXvXxXVXG   xXHXnXwXCXHX",
"ZXHXAX  A ;X*X&XHXNX  %XwX  F.D.c.D.x.  lXbXG lXZXN.o b c.D.S.D.M.  {.HX>X  bXHXP.  xXzXlXSXHXJ   U ",
"HXVXjXnXHXY . zXHXlXW Y m.l.l.z.c.N   j SXCX  vXHXF   V z.z.l.z.m   vXXX}.xXlXCX:X  &XHXZX. K.-X[.  ",
"G   ;XHXAX#.*X&XW xXcXi N.hXgXgXH.C   U HXvX  VXHX1   D G.U.gXhXU.G xXE   HXAX  [.CXxXxXNXU   lXHXSX",
"2 [.;X{.oXHXAX. T &X  oXcXHXFXnXQ S   oXCX>XE xXnXOXS 2 [.bXHXHXnX}.      vXHXQ   SXHXJ   vXnXlXnXHX",
"DXHX[.  >XHXlX  :X.X  OXnXHXFXFXCXH oXnX  lXHXT O HX>X  oX;XzXHXHXCXCXjX  oXjX-X#.zXHX=X  ;XHXVX  1 ",
"SXVX=X>X&XW vXHXXX  G [.lXAXCXAXCXU OXxX  vXHXU 1 HXjX   X.X}.nXSXCXHXxX> -X. K.DXbX  OXCXzX>XlXW S ",
"  > HXHX;   HXFX;                   XX=X  NXHXS > FX:X                    vX[.  SXHX  + HXHX    DXHX",
"> }.HXCXO oXHXbX  XXvXOXO &XvX{.O -XVXOXX AXHXT U HXnX; R vX;X> Q vX&X; }.FX>X  vXHX&X  nXHXXX: CXHX"
};
